<svg width="71" height="71" viewBox="0 0 71 71" fill="none" xmlns="http://www.w3.org/2000/svg">
<g clip-path="url(#clip0_508_16017)">
<rect width="70.2884" height="70.2884" transform="translate(0.182617 0.186523)" fill="white"/>
<path d="M35.8869 48.8176C27.921 48.8176 22.2133 43.0744 22.2133 35.2863C22.2133 27.4982 27.8855 21.7549 35.8514 21.7549C40.1366 21.7549 43.8884 23.5152 46.0043 26.1468C46.1466 26.3424 46.1466 26.5558 46.0043 26.7158L41.7902 30.2187C41.5946 30.3609 41.3813 30.3609 41.2212 30.1831C39.941 28.6006 38.1451 27.6938 35.8869 27.6938C31.5661 27.6938 28.5611 30.8944 28.5611 35.2863C28.5611 39.7138 31.5306 42.8788 35.7802 42.8788C38.8564 42.8788 41.0434 41.2251 41.7547 38.558H35.7091C35.478 38.558 35.3357 38.4157 35.3357 38.1846V33.4548C35.3357 33.2237 35.478 33.0814 35.7091 33.0814H48.0669C48.2981 33.0814 48.4403 33.2237 48.4403 33.4548V35.8908C48.4403 43.2166 42.9993 48.8176 35.8869 48.8176ZM67.0215 48.4442C66.7548 48.4442 66.6125 48.3376 66.5414 48.1064L64.9589 43.3411H55.3749L53.7924 48.1064C53.7213 48.3376 53.5613 48.4442 53.3123 48.4442H47.9425C47.6402 48.4442 47.5335 48.2486 47.6046 47.9997L56.3707 22.5195C56.4418 22.2883 56.6018 22.1461 56.9041 22.1461H63.8565C64.1588 22.1461 64.301 22.2883 64.3899 22.5195L70.5244 40.3539V10.2328C70.471 4.68512 65.9724 0.186523 60.4247 0.186523H0.182617V22.1283H10.6734C16.6123 22.1283 20.3285 25.7023 20.3285 30.8944C20.3285 34.6106 18.4437 37.4733 15.2254 38.8247L20.9686 47.8397C21.1642 48.142 21.0042 48.4442 20.6664 48.4442H14.4252C14.0874 48.4442 13.8918 48.3376 13.7495 48.0708L8.93088 39.8738H5.92589V47.9997C5.92589 48.2664 5.7303 48.4442 5.48136 48.4442H0.182617V60.4287C0.182617 65.9763 4.68122 70.4749 10.2289 70.4749H70.471V48.4442H67.0215Z" fill="#D02128"/>
<path d="M63.1816 37.9537L60.1765 28.8672L57.1357 37.9537H63.1816Z" fill="#D02128"/>
<path d="M13.981 31.0901C13.981 29.0629 12.4695 27.7471 10.478 27.7471H5.92578V34.4331H10.478C12.4695 34.4331 13.981 33.1172 13.981 31.0901Z" fill="#D02128"/>
</g>
<defs>
<clipPath id="clip0_508_16017">
<rect width="70.2884" height="70.2884" fill="white" transform="translate(0.182617 0.186523)"/>
</clipPath>
</defs>
</svg>
