<svg width="27" height="23" viewBox="0 0 27 23" fill="none" xmlns="http://www.w3.org/2000/svg">
<path d="M15.898 10.351H17.5433C17.6837 10.351 17.8183 10.2952 17.9176 10.1959C18.0169 10.0966 18.0727 9.96198 18.0727 9.82157C18.0727 9.68116 18.0169 9.54651 17.9176 9.44723C17.8183 9.34794 17.6837 9.29217 17.5433 9.29217H15.898C15.7576 9.29217 15.6229 9.34794 15.5236 9.44723C15.4243 9.54651 15.3686 9.68116 15.3686 9.82157C15.3686 9.96198 15.4243 10.0966 15.5236 10.1959C15.6229 10.2952 15.7576 10.351 15.898 10.351ZM21.5711 9.29217H19.9258C19.7854 9.29217 19.6508 9.34794 19.5515 9.44723C19.4522 9.54651 19.3964 9.68116 19.3964 9.82157C19.3964 9.96198 19.4522 10.0966 19.5515 10.1959C19.6508 10.2952 19.7854 10.351 19.9258 10.351H21.5711C21.7115 10.351 21.8462 10.2952 21.9455 10.1959C22.0448 10.0966 22.1005 9.96198 22.1005 9.82157C22.1005 9.68116 22.0448 9.54651 21.9455 9.44723C21.8462 9.34794 21.7115 9.29217 21.5711 9.29217ZM15.898 8.0248H21.5709C21.7113 8.0248 21.8459 7.96903 21.9452 7.86975C22.0445 7.77046 22.1003 7.63581 22.1003 7.4954C22.1003 7.355 22.0445 7.22034 21.9452 7.12106C21.8459 7.02178 21.7113 6.966 21.5709 6.966H15.898C15.7576 6.966 15.623 7.02178 15.5237 7.12106C15.4244 7.22034 15.3686 7.355 15.3686 7.4954C15.3686 7.63581 15.4244 7.77046 15.5237 7.86975C15.623 7.96903 15.7576 8.0248 15.898 8.0248ZM21.5709 11.6185H15.898C15.828 11.6178 15.7586 11.631 15.6938 11.6573C15.6289 11.6836 15.57 11.7224 15.5202 11.7717C15.4705 11.8209 15.431 11.8795 15.4041 11.9441C15.3772 12.0087 15.3633 12.0779 15.3633 12.1479C15.3633 12.2179 15.3772 12.2872 15.4041 12.3518C15.431 12.4163 15.4705 12.4749 15.5202 12.5242C15.57 12.5734 15.6289 12.6123 15.6938 12.6386C15.7586 12.6649 15.828 12.678 15.898 12.6773H21.5709C21.7104 12.676 21.8437 12.6196 21.9418 12.5204C22.04 12.4213 22.095 12.2874 22.095 12.1479C22.095 12.0084 22.04 11.8745 21.9418 11.7754C21.8437 11.6763 21.7104 11.6199 21.5709 11.6185Z" fill="#D02128"/>
<path d="M26.4706 3.352H24.4983V0.911933C24.4978 0.840036 24.4828 0.768982 24.4541 0.703053C24.4254 0.637123 24.3837 0.577684 24.3314 0.528316C24.2792 0.478948 24.2174 0.440674 24.15 0.4158C24.0825 0.390927 24.0107 0.379969 23.9389 0.383587C17.6396 0.741495 14.5149 2.73733 13.5 3.5389C12.4857 2.73733 9.36104 0.741495 3.0616 0.383587C2.98978 0.379947 2.91797 0.390888 2.85049 0.415752C2.78301 0.440616 2.72127 0.478886 2.66898 0.528256C2.61669 0.577626 2.57495 0.637073 2.54625 0.703014C2.51756 0.768954 2.50252 0.840022 2.50204 0.911933V3.352H0.5294C0.389012 3.35206 0.254389 3.40785 0.15512 3.50712C0.0558498 3.60639 5.59039e-05 3.74102 0 3.88141L0 19.823C5.59039e-05 19.9634 0.0558498 20.098 0.15512 20.1973C0.254389 20.2966 0.389012 20.3524 0.5294 20.3524H9.37375C9.45306 20.3522 9.53165 20.3676 9.60499 20.3978C9.67834 20.428 9.74501 20.4723 9.80117 20.5283C9.85734 20.5844 9.9019 20.6509 9.9323 20.7242C9.96271 20.7974 9.97835 20.8759 9.97835 20.9553C9.97902 21.3962 10.1546 21.8189 10.4666 22.1306C10.7785 22.4422 11.2014 22.6174 11.6423 22.6176H15.3583C15.5767 22.6178 15.793 22.5749 15.9948 22.4915C16.1966 22.408 16.38 22.2856 16.5345 22.1312C16.689 21.9768 16.8115 21.7935 16.8951 21.5917C16.9787 21.3899 17.0217 21.1737 17.0217 20.9553C17.0221 20.7952 17.086 20.6419 17.1993 20.5288C17.3127 20.4158 17.4662 20.3523 17.6263 20.3522H26.4706C26.5401 20.3523 26.6089 20.3386 26.6732 20.312C26.7374 20.2854 26.7958 20.2465 26.8449 20.1973C26.8941 20.1482 26.9331 20.0898 26.9597 20.0256C26.9863 19.9614 27 19.8926 27 19.8231V3.88146C27 3.81193 26.9864 3.74307 26.9598 3.67882C26.9332 3.61458 26.8942 3.5562 26.845 3.50704C26.7958 3.45787 26.7375 3.41887 26.6732 3.39227C26.609 3.36566 26.5401 3.35198 26.4706 3.352ZM14.0294 4.47488C14.3126 4.23757 14.9972 3.72368 16.1635 3.18579C17.5585 2.54306 19.9318 1.74155 23.4397 1.47788V3.87729C23.4397 3.87887 23.4392 3.88046 23.4392 3.88151C23.4392 3.88257 23.4397 3.88415 23.4397 3.88578V15.6232C22.1786 15.6225 20.9196 15.7277 19.6761 15.9377C17.217 16.3618 15.3249 17.1564 14.0294 18.3068V4.47488ZM3.56084 1.47788C7.06873 1.74155 9.44209 2.54311 10.8365 3.18579C12.0039 3.7242 12.6889 4.23879 12.9706 4.47435V18.3066C11.6757 17.1562 9.78355 16.3615 7.32444 15.9374C6.09787 15.7303 4.85624 15.6252 3.6123 15.6232H3.56094L3.56084 1.47788ZM25.9413 19.2937H17.6263C17.1855 19.294 16.7628 19.469 16.451 19.7805C16.1391 20.092 15.9635 20.5145 15.9627 20.9553C15.9628 21.0346 15.9472 21.1132 15.9169 21.1866C15.8865 21.2599 15.842 21.3265 15.7858 21.3826C15.7296 21.4387 15.6629 21.4831 15.5895 21.5134C15.5162 21.5436 15.4375 21.559 15.3581 21.5588H11.6423C11.4821 21.5588 11.3284 21.4953 11.215 21.3821C11.1016 21.269 11.0377 21.1155 11.0373 20.9553C11.0373 20.7369 10.9942 20.5207 10.9106 20.319C10.827 20.1173 10.7044 19.934 10.5499 19.7797C10.3954 19.6254 10.2121 19.503 10.0103 19.4195C9.80847 19.3361 9.59221 19.2933 9.37385 19.2934H1.0588V4.41086H2.50204V16.1638C2.50254 16.2353 2.51745 16.3061 2.54587 16.3717C2.57429 16.4374 2.61564 16.4967 2.66746 16.546C2.71927 16.5954 2.7805 16.6338 2.84748 16.659C2.91446 16.6842 2.98583 16.6956 3.05733 16.6926C3.132 16.6889 10.5189 16.3702 13.0675 19.9877C13.2639 20.283 13.7367 20.2826 13.9331 19.9877C16.4817 16.3701 23.8685 16.6889 23.9427 16.6926C24.0142 16.6957 24.0856 16.6843 24.1527 16.6592C24.2197 16.634 24.281 16.5956 24.3329 16.5462C24.3848 16.4969 24.4262 16.4376 24.4546 16.3719C24.4831 16.3061 24.498 16.2354 24.4985 16.1638V4.41086H25.9412L25.9413 19.2937Z" fill="#D02128"/>
<path d="M10.1271 6.8821C9.90853 6.81561 9.67894 6.79308 9.45159 6.8158C9.22425 6.83851 9.00365 6.90604 8.80254 7.01446C8.60087 7.12567 8.41938 7.27008 8.26571 7.44161C8.11178 7.26974 7.92993 7.12511 7.72782 7.01383C7.52691 6.9056 7.30655 6.83823 7.07947 6.8156C6.85239 6.79297 6.62308 6.81554 6.40476 6.88199C5.49842 7.15152 4.91924 8.0557 4.99549 9.0807C5.0324 9.57514 5.2117 10.0712 5.52811 10.5546C5.94845 11.1967 6.56418 11.7944 7.40914 12.3826C8.16324 12.9719 8.36938 12.9694 9.12232 12.3831C9.96776 11.7944 10.5831 11.1966 11.0033 10.5546C11.3197 10.0712 11.4994 9.57567 11.5359 9.0807C11.6121 8.05581 11.0329 7.15162 10.1271 6.8821ZM10.4804 9.00244C10.4666 9.16666 10.4297 9.32811 10.3709 9.48206C10.305 9.65505 10.2201 9.82019 10.1177 9.97444C9.77312 10.5007 9.24952 11.0047 8.51788 11.5134C8.43457 11.5739 8.35056 11.6333 8.26586 11.6918C8.18163 11.6332 8.09781 11.5739 8.01443 11.514C7.28226 11.0047 6.75866 10.5007 6.41399 9.97444C6.2001 9.64775 6.07465 9.31157 6.05186 9.00244C6.01959 8.57361 6.21123 8.04421 6.70677 7.89697C6.79192 7.87059 6.88143 7.86127 6.97018 7.86954C7.05894 7.87781 7.14519 7.90351 7.22399 7.94517C7.45165 8.06904 7.65072 8.32317 7.76985 8.64242C7.80751 8.74361 7.87521 8.83085 7.96388 8.89246C8.05254 8.95406 8.15793 8.98708 8.26589 8.98708C8.37386 8.98708 8.47924 8.95406 8.5679 8.89246C8.65657 8.83085 8.72427 8.74361 8.76194 8.64242C8.88106 8.32317 9.08014 8.06904 9.30668 7.94575C9.38561 7.90389 9.47203 7.87804 9.56098 7.86967C9.64993 7.8613 9.73966 7.87058 9.82501 7.89697C10.3209 8.04421 10.512 8.57361 10.4802 9.00244H10.4804Z" fill="#D02128"/>
</svg>
