<svg width="27" height="27" viewBox="0 0 27 27" fill="none" xmlns="http://www.w3.org/2000/svg">
<path d="M1.26562 10.9688H2.10938V11.8125H1.26562V10.9688ZM25.3125 25.3125H1.6875C1.57561 25.3125 1.46831 25.2681 1.38919 25.1889C1.31007 25.1098 1.26563 25.0025 1.26562 24.8906V12.6562H2.10938V24.4688H24.8906V9.70312H25.7344V24.8906C25.7344 25.0025 25.6899 25.1098 25.6108 25.1889C25.5317 25.2681 25.4244 25.3125 25.3125 25.3125Z" fill="#D02128"/>
<path d="M26.5781 27H0.421875C0.309987 27 0.202681 26.9556 0.123564 26.8764C0.0444474 26.7973 0 26.69 0 26.5781V24.8906C0 24.7787 0.0444474 24.6714 0.123564 24.5923C0.202681 24.5132 0.309987 24.4688 0.421875 24.4688H26.5781C26.69 24.4688 26.7973 24.5132 26.8764 24.5923C26.9556 24.6714 27 24.7787 27 24.8906V26.5781C27 26.69 26.9556 26.7973 26.8764 26.8764C26.7973 26.9556 26.69 27 26.5781 27ZM0.84375 26.1562H26.1562V25.3125H0.84375V26.1562ZM26.5781 10.125H24.0469V9.28125H26.0719L24.6016 1.19011C24.584 1.0929 24.5327 1.00499 24.4569 0.941694C24.381 0.878397 24.2853 0.843735 24.1865 0.84375H2.81348C2.71476 0.843834 2.61918 0.878541 2.54341 0.941829C2.46763 1.00512 2.41645 1.09298 2.39878 1.19011L0.928125 9.28125H21.5156V10.125H0.421875C0.360108 10.1249 0.299106 10.1113 0.243178 10.0851C0.187251 10.0589 0.137762 10.0207 0.0982074 9.97328C0.0586533 9.92584 0.0299989 9.8703 0.0142685 9.81056C-0.00146185 9.75083 -0.00388444 9.68838 0.00717188 9.62761L1.56811 1.0395C1.62108 0.747808 1.77476 0.483965 2.00236 0.293993C2.22996 0.10402 2.51702 -2.67766e-05 2.81348 5.16894e-09L24.1865 5.16894e-09C24.4829 7.20281e-05 24.7699 0.104164 24.9974 0.294128C25.2249 0.484092 25.3785 0.747879 25.4315 1.0395L26.9924 9.62761C27.0035 9.68834 27.001 9.75076 26.9853 9.81046C26.9696 9.87016 26.941 9.92569 26.9015 9.97312C26.862 10.0206 26.8126 10.0587 26.7567 10.085C26.7008 10.1112 26.6399 10.1249 26.5781 10.125Z" fill="#D02128"/>
<path d="M22.3594 9.28125H23.2031V10.125H22.3594V9.28125ZM8.49909 4.64063H8.37591C8.23053 4.65389 8.08397 4.63828 7.94466 4.5947C7.80534 4.55112 7.67601 4.48042 7.56411 4.38668C7.45222 4.29293 7.35996 4.17799 7.29264 4.04846C7.22533 3.91893 7.18428 3.77737 7.17188 3.63193V3.375H8.01562V3.63193C8.01562 3.67411 8.13966 3.79688 8.37591 3.79688H8.49909C8.73534 3.79688 8.85938 3.67453 8.85938 3.63193C8.85938 3.60788 8.81297 3.54417 8.70033 3.50241L7.87852 3.19402C7.68089 3.13125 7.50724 3.00946 7.3809 2.84504C7.25457 2.68062 7.18162 2.48145 7.17188 2.27433C7.18428 2.12888 7.22533 1.98732 7.29264 1.8578C7.35996 1.72827 7.45222 1.61332 7.56411 1.51958C7.67601 1.42584 7.80534 1.35514 7.94466 1.31156C8.08397 1.26797 8.23053 1.25236 8.37591 1.26563H8.49909C8.64447 1.25236 8.79103 1.26797 8.93034 1.31156C9.06966 1.35514 9.19899 1.42584 9.31089 1.51958C9.42278 1.61332 9.51504 1.72827 9.58236 1.8578C9.64967 1.98732 9.69072 2.12888 9.70312 2.27433V2.53125H8.85938V2.27433C8.85938 2.23214 8.73534 2.10938 8.49909 2.10938H8.37591C8.13966 2.10938 8.01562 2.23172 8.01562 2.27433C8.01562 2.29838 8.06203 2.36208 8.17467 2.40385L8.99648 2.71224C9.19411 2.77501 9.36776 2.89679 9.4941 3.06121C9.62043 3.22564 9.69338 3.4248 9.70312 3.63193C9.69072 3.77737 9.64967 3.91893 9.58236 4.04846C9.51504 4.17799 9.42278 4.29293 9.31089 4.38668C9.19899 4.48042 9.06966 4.55112 8.93034 4.5947C8.79103 4.63828 8.64447 4.65389 8.49909 4.64063ZM11.1797 4.64063C10.9 4.64063 10.6317 4.52951 10.4339 4.33172C10.2361 4.13392 10.125 3.86566 10.125 3.58594V1.26563H10.9688V3.58594C10.9688 3.64188 10.991 3.69554 11.0305 3.7351C11.0701 3.77465 11.1237 3.79688 11.1797 3.79688C11.2356 3.79688 11.2893 3.77465 11.3288 3.7351C11.3684 3.69554 11.3906 3.64188 11.3906 3.58594V1.26563H12.2344V3.58594C12.2344 3.86566 12.1233 4.13392 11.9255 4.33172C11.7277 4.52951 11.4594 4.64063 11.1797 4.64063ZM13.5 4.64063H12.6562V1.6875C12.6562 1.57561 12.7007 1.46831 12.7798 1.38919C12.8589 1.31008 12.9662 1.26563 13.0781 1.26563H13.7109C13.9907 1.26563 14.2589 1.37675 14.4567 1.57454C14.6545 1.77233 14.7656 2.04059 14.7656 2.32032C14.7656 2.60004 14.6545 2.8683 14.4567 3.06609C14.2589 3.26388 13.9907 3.375 13.7109 3.375H13.5V4.64063ZM13.5 2.53125H13.7109C13.7669 2.53125 13.8205 2.50903 13.8601 2.46947C13.8997 2.42991 13.9219 2.37626 13.9219 2.32032C13.9219 2.26437 13.8997 2.21072 13.8601 2.17116C13.8205 2.1316 13.7669 2.10938 13.7109 2.10938H13.5V2.53125ZM16.875 4.64063H15.6094C15.4975 4.64063 15.3902 4.59618 15.3111 4.51706C15.2319 4.43795 15.1875 4.33064 15.1875 4.21875V1.6875C15.1875 1.57561 15.2319 1.46831 15.3111 1.38919C15.3902 1.31008 15.4975 1.26563 15.6094 1.26563H16.875V2.10938H16.0312V3.79688H16.875V4.64063Z" fill="#D02128"/>
<path d="M15.6094 2.53125H16.4531V3.375H15.6094V2.53125ZM19.4062 4.64062H18.5625V4.05759L18.1406 3.84666V4.64062H17.2969V1.6875C17.2969 1.57561 17.3413 1.46831 17.4204 1.38919C17.4996 1.31007 17.6069 1.26563 17.7188 1.26562H18.2022C18.4433 1.26607 18.6788 1.33885 18.8781 1.47456C19.0774 1.61027 19.2314 1.80267 19.3202 2.02686C19.409 2.25105 19.4285 2.49672 19.3761 2.7321C19.3238 2.96748 19.202 3.18174 19.0266 3.34716L19.1713 3.4193C19.2417 3.45411 19.301 3.5079 19.3426 3.57461C19.3841 3.64132 19.4061 3.7183 19.4062 3.79688V4.64062ZM18.1406 2.10938V2.90334L18.363 2.79197C18.4356 2.75571 18.4938 2.696 18.5282 2.62251C18.5626 2.54903 18.5713 2.46607 18.5527 2.38708C18.5341 2.30809 18.4893 2.23769 18.4257 2.18729C18.3621 2.13688 18.2834 2.10943 18.2022 2.10938H18.1406ZM8.01562 8.85938H7.17188V7.17188L6.66563 7.84688C6.62462 7.89671 6.57309 7.93684 6.51474 7.96439C6.45639 7.99195 6.39266 8.00624 6.32812 8.00624C6.26359 8.00624 6.19986 7.99195 6.14151 7.96439C6.08316 7.93684 6.03163 7.89671 5.99062 7.84688L5.48438 7.17188V8.85938H4.64062V5.90625C4.64062 5.81771 4.66848 5.73141 4.72026 5.65958C4.77203 5.58774 4.84509 5.53402 4.92909 5.50602C5.01309 5.47802 5.10377 5.47716 5.18829 5.50356C5.27281 5.52997 5.34687 5.58229 5.4 5.65312L6.32812 6.89048L7.25625 5.65312C7.30938 5.58229 7.38344 5.52997 7.46796 5.50356C7.55248 5.47716 7.64316 5.47802 7.72716 5.50602C7.81116 5.53402 7.88422 5.58774 7.93599 5.65958C7.98777 5.73141 8.01562 5.81771 8.01562 5.90625V8.85938ZM10.9688 8.85938H10.125V6.75C10.125 6.63811 10.0806 6.53081 10.0014 6.45169C9.92232 6.37257 9.81501 6.32812 9.70312 6.32812C9.59124 6.32812 9.48393 6.37257 9.40481 6.45169C9.3257 6.53081 9.28125 6.63811 9.28125 6.75V8.85938H8.4375V6.75C8.4375 6.41434 8.57084 6.09242 8.80819 5.85507C9.04554 5.61772 9.36746 5.48438 9.70312 5.48438C10.0388 5.48438 10.3607 5.61772 10.5981 5.85507C10.8354 6.09242 10.9688 6.41434 10.9688 6.75V8.85938Z" fill="#D02128"/>
<path d="M8.85938 7.59375H10.5469V8.4375H8.85938V7.59375ZM13.9219 8.85938H13.0781V8.3198L12.2344 8.03841V8.85938H11.3906V5.90625C11.3906 5.79436 11.4351 5.68706 11.5142 5.60794C11.5933 5.52882 11.7006 5.48438 11.8125 5.48438H12.7647C13.0065 5.4845 13.2422 5.56035 13.4387 5.70129C13.6353 5.84222 13.7827 6.04117 13.8604 6.27018C13.938 6.4992 13.942 6.74679 13.8718 6.9782C13.8016 7.20961 13.6606 7.41321 13.4688 7.56042L13.6333 7.61569C13.7173 7.64366 13.7903 7.69733 13.8421 7.7691C13.8939 7.84087 13.9218 7.92712 13.9219 8.01562V8.85938ZM12.2344 6.32812V7.14909L12.8634 6.93816C12.9334 6.91422 12.9927 6.86628 13.0307 6.80284C13.0688 6.7394 13.0832 6.66453 13.0714 6.59149C13.0596 6.51846 13.0223 6.45195 12.9662 6.40375C12.91 6.35555 12.8387 6.32876 12.7647 6.32812H12.2344ZM14.3438 5.48438H15.1875V8.85938H14.3438V5.48438Z" fill="#D02128"/>
<path d="M16.8749 8.85938H16.0312V8.27634L14.577 7.55156C14.5068 7.51657 14.4477 7.46271 14.4064 7.39601C14.3651 7.32931 14.3433 7.25242 14.3433 7.17398C14.3433 7.09554 14.3651 7.01866 14.4064 6.95196C14.4477 6.88526 14.5068 6.8314 14.577 6.79641L16.0312 6.06741V5.48438H16.8749V6.32812C16.8749 6.40652 16.8531 6.48338 16.8119 6.55007C16.7707 6.61677 16.7117 6.67066 16.6416 6.7057L15.7088 7.17188L16.6416 7.63805C16.7117 7.67309 16.7707 7.72698 16.8119 7.79368C16.8531 7.86037 16.8749 7.93723 16.8749 8.01562V8.85938ZM18.9843 8.85938H17.7187C17.6068 8.85938 17.4995 8.81493 17.4203 8.73581C17.3412 8.65669 17.2968 8.54939 17.2968 8.4375V5.90625C17.2968 5.79436 17.3412 5.68706 17.4203 5.60794C17.4995 5.52882 17.6068 5.48438 17.7187 5.48438H18.9843V6.32812H18.1405V8.01562H18.9843V8.85938Z" fill="#D02128"/>
<path d="M17.7188 6.75H18.5625V7.59375H17.7188V6.75ZM19.4062 5.48438H21.9375V6.32812H19.4062V5.48438Z" fill="#D02128"/>
<path d="M20.25 5.90625H21.0938V8.85938H20.25V5.90625ZM9.28125 23.625H3.375C3.26311 23.625 3.15581 23.5806 3.07669 23.5014C2.99757 23.4223 2.95312 23.315 2.95312 23.2031V11.3906C2.95312 11.2787 2.99757 11.1714 3.07669 11.0923C3.15581 11.0132 3.26311 10.9688 3.375 10.9688H9.28125C9.39314 10.9688 9.50044 11.0132 9.57956 11.0923C9.65868 11.1714 9.70312 11.2787 9.70312 11.3906V23.2031C9.70312 23.315 9.65868 23.4223 9.57956 23.5014C9.50044 23.5806 9.39314 23.625 9.28125 23.625ZM3.79688 22.7812H8.85938V11.8125H3.79688V22.7812ZM16.4531 25.3125H10.5469C10.435 25.3125 10.3277 25.2681 10.2486 25.1889C10.1694 25.1098 10.125 25.0025 10.125 24.8906V11.3906C10.125 11.2787 10.1694 11.1714 10.2486 11.0923C10.3277 11.0132 10.435 10.9688 10.5469 10.9688H16.4531C16.565 10.9688 16.6723 11.0132 16.7514 11.0923C16.8306 11.1714 16.875 11.2787 16.875 11.3906V24.8906C16.875 25.0025 16.8306 25.1098 16.7514 25.1889C16.6723 25.2681 16.565 25.3125 16.4531 25.3125ZM10.9688 24.4688H16.0312V11.8125H10.9688V24.4688ZM23.625 23.625H17.7188C17.6069 23.625 17.4996 23.5806 17.4204 23.5014C17.3413 23.4223 17.2969 23.315 17.2969 23.2031V11.3906C17.2969 11.2787 17.3413 11.1714 17.4204 11.0923C17.4996 11.0132 17.6069 10.9688 17.7188 10.9688H23.625C23.7369 10.9688 23.8442 11.0132 23.9233 11.0923C24.0024 11.1714 24.0469 11.2787 24.0469 11.3906V23.2031C24.0469 23.315 24.0024 23.4223 23.9233 23.5014C23.8442 23.5806 23.7369 23.625 23.625 23.625ZM18.1406 22.7812H23.2031V11.8125H18.1406V22.7812Z" fill="#D02128"/>
<path d="M17.4171 17.4205L23.3225 11.5151L23.9191 12.1116L18.0141 18.017L17.4171 17.4205ZM19.5261 20.3736L23.3221 16.5776L23.9186 17.1741L20.1226 20.9701L19.5261 20.3736ZM17.4163 19.9517L20.369 16.999L20.9655 17.5956L18.0128 20.5483L17.4163 19.9517ZM21.2132 16.1553L22.0569 15.3115L22.6534 15.9081L21.8097 16.7518L21.2132 16.1553ZM3.07548 17.4192L8.98047 11.5138L9.577 12.1103L3.67159 18.0157L3.07548 17.4192ZM5.18359 20.3723L8.97962 16.5755L9.57616 17.1724L5.78012 20.9684L5.18359 20.3723ZM3.07422 19.95L6.02692 16.9973L6.62345 17.5939L3.67033 20.5466L3.07422 19.95ZM6.87109 16.1536L7.71484 15.3103L8.31137 15.9068L7.46762 16.7505L6.87109 16.1536Z" fill="#D02128"/>
</svg>
