<svg width="31" height="31" viewBox="0 0 31 31" fill="none" xmlns="http://www.w3.org/2000/svg">
<path d="M3.01703 29.161C3.01703 29.7166 3.46743 30.167 4.02303 30.167H7.04003C7.59563 30.167 8.04603 29.7166 8.04603 29.161V28.155H3.01703V29.161Z" fill="#D02128"/>
<path d="M22.122 29.161C22.122 29.7166 22.5724 30.167 23.128 30.167H26.145C26.7006 30.167 27.151 29.7166 27.151 29.161V28.155H22.122V29.161Z" fill="#D02128"/>
<circle cx="21.203" cy="21.203" r="0.408" fill="#D02128"/>
<circle cx="17.123" cy="21.203" r="0.408" fill="#D02128"/>
<circle cx="13.043" cy="21.203" r="0.408" fill="#D02128"/>
<path fill-rule="evenodd" clip-rule="evenodd" d="M28.155 18.1H2.01099C1.61105 18.1 1.22748 18.2589 0.944674 18.5417C0.661869 18.8245 0.502991 19.2081 0.502991 19.608V25.641C0.502726 26.0411 0.661487 26.4249 0.944321 26.708C1.22715 26.991 1.61087 27.15 2.01099 27.15H28.155C28.5549 27.15 28.9385 26.9911 29.2213 26.7083C29.5041 26.4255 29.663 26.0419 29.663 25.642V19.608C29.663 19.2081 29.5041 18.8245 29.2213 18.5417C28.9385 18.2589 28.5549 18.1 28.155 18.1ZM5.02799 22.625C4.19515 22.625 3.51999 21.9498 3.51999 21.117C3.51999 20.2842 4.19515 19.609 5.02799 19.609C5.86084 19.609 6.53599 20.2842 6.53599 21.117C6.53599 21.5169 6.37711 21.9005 6.09431 22.1833C5.8115 22.4661 5.42794 22.625 5.02799 22.625ZM9.04999 19.609C8.21715 19.609 7.54199 20.2842 7.54199 21.117C7.54199 21.9498 8.21715 22.625 9.04999 22.625C9.88284 22.625 10.558 21.9498 10.558 21.117C10.558 20.2842 9.88284 19.609 9.04999 19.609ZM11.061 25.642H10.056C9.77819 25.642 9.55299 25.4168 9.55299 25.139C9.55299 24.8612 9.77819 24.636 10.056 24.636H11.062C11.3398 24.636 11.565 24.8612 11.565 25.139C11.565 25.4168 11.3398 25.642 11.062 25.642H11.061ZM13.072 25.642H14.078C14.3558 25.642 14.581 25.4168 14.581 25.139C14.581 24.8612 14.3558 24.636 14.078 24.636H13.072C12.7942 24.636 12.569 24.8612 12.569 25.139C12.569 25.4168 12.7942 25.642 13.072 25.642ZM13.072 22.625C12.2391 22.625 11.564 21.9498 11.564 21.117C11.564 20.2842 12.2391 19.609 13.072 19.609C13.9048 19.609 14.58 20.2842 14.58 21.117C14.58 21.5169 14.4211 21.9005 14.1383 22.1833C13.8555 22.4661 13.4719 22.625 13.072 22.625ZM16.089 25.642H17.094H17.095C17.3728 25.642 17.598 25.4168 17.598 25.139C17.598 24.8612 17.3728 24.636 17.095 24.636H16.089C15.8112 24.636 15.586 24.8612 15.586 25.139C15.586 25.4168 15.8112 25.642 16.089 25.642ZM17.094 22.625C16.2613 22.6244 15.5866 21.949 15.587 21.1163C15.5874 20.2836 16.2626 19.6088 17.0953 19.609C17.928 19.6092 18.603 20.2843 18.603 21.117C18.603 21.5171 18.444 21.9008 18.161 22.1837C17.8779 22.4665 17.4941 22.6253 17.094 22.625ZM19.103 25.642H20.109C20.3868 25.642 20.612 25.4168 20.612 25.139C20.612 24.8612 20.3868 24.636 20.109 24.636H19.103C18.8252 24.636 18.6 24.8612 18.6 25.139C18.6 25.4168 18.8252 25.642 19.103 25.642ZM21.117 22.625C20.2841 22.625 19.609 21.9498 19.609 21.117C19.609 20.2842 20.2841 19.609 21.117 19.609C21.9498 19.609 22.625 20.2842 22.625 21.117C22.625 21.5169 22.4661 21.9005 22.1833 22.1833C21.9005 22.4661 21.5169 22.625 21.117 22.625ZM23.7458 21.6941C23.9792 22.2576 24.5291 22.625 25.139 22.625C25.5389 22.625 25.9225 22.4661 26.2053 22.1833C26.4881 21.9005 26.647 21.5169 26.647 21.117C26.647 20.5071 26.2796 19.9572 25.7161 19.7238C25.1526 19.4904 24.504 19.6194 24.0727 20.0507C23.6414 20.482 23.5124 21.1306 23.7458 21.6941Z" fill="#D02128"/>
<circle cx="25.282" cy="21.203" r="0.408" fill="#D02128"/>
<circle cx="8.96403" cy="21.203" r="0.408" fill="#D02128"/>
<circle cx="4.88401" cy="21.203" r="0.408" fill="#D02128"/>
<path d="M22.119 7.542V12.57C21.8429 12.57 21.619 12.7939 21.619 13.07V17.092H24.636V13.072C24.636 12.7959 24.4122 12.572 24.136 12.572V7.542C24.1189 6.99902 23.6738 6.56771 23.1305 6.56771C22.5873 6.56771 22.1421 6.99902 22.125 7.542H22.119Z" fill="#D02128"/>
<path d="M16.589 6.536C16.8651 6.536 17.089 6.31214 17.089 6.036C17.0917 3.26025 19.3412 1.01076 22.117 1.008C22.3948 1.008 22.62 0.782798 22.62 0.504999C22.62 0.2272 22.3948 0.0019989 22.117 0.0019989C18.7894 0.00860636 16.0939 2.70539 16.089 6.033C16.089 6.30914 16.3128 6.533 16.589 6.533V6.536Z" fill="#D02128"/>
<path d="M22.625 2.511C22.625 2.23486 22.4011 2.011 22.125 2.011C19.9037 2.0121 18.1027 3.81168 18.1 6.033C18.1 6.3108 18.3252 6.536 18.603 6.536C18.8808 6.536 19.106 6.3108 19.106 6.033C19.1076 4.36744 20.4574 3.01766 22.123 3.016C22.2568 3.01654 22.3853 2.96342 22.4796 2.8685C22.574 2.77359 22.6263 2.64482 22.625 2.511Z" fill="#D02128"/>
<path d="M20.611 6.536C20.8871 6.536 21.111 6.31214 21.111 6.036C21.111 5.4804 21.5614 5.03 22.117 5.03C22.3948 5.03 22.62 4.8048 22.62 4.527C22.62 4.2492 22.3948 4.024 22.117 4.024C21.0091 4.02676 20.1121 4.92509 20.111 6.033C20.1102 6.16613 20.1625 6.29408 20.2564 6.3885C20.3502 6.48291 20.4778 6.536 20.611 6.536Z" fill="#D02128"/>
<path d="M24.13 0C23.8522 0 23.627 0.225201 23.627 0.503C23.627 0.780799 23.8522 1.006 24.13 1.006C26.9062 1.00765 29.1567 3.25687 29.16 6.033C29.16 6.3108 29.3852 6.536 29.663 6.536C29.9408 6.536 30.166 6.3108 30.166 6.033C30.1622 2.7015 27.4615 0.00220406 24.13 0Z" fill="#D02128"/>
<path d="M24.13 3.017C25.7956 3.01866 27.1454 4.36844 27.147 6.034C27.147 6.3118 27.3722 6.537 27.65 6.537C27.9278 6.537 28.153 6.3118 28.153 6.034C28.1508 3.81307 26.3509 2.01321 24.13 2.011C23.8522 2.011 23.627 2.2362 23.627 2.514C23.627 2.7918 23.8522 3.017 24.13 3.017Z" fill="#D02128"/>
<path d="M24.13 5.028C24.6856 5.028 25.136 5.4784 25.136 6.034C25.136 6.3118 25.3612 6.537 25.639 6.537C25.9168 6.537 26.142 6.3118 26.142 6.034C26.1423 5.5003 25.9304 4.98839 25.553 4.61101C25.1756 4.23363 24.6637 4.02173 24.13 4.022C23.8522 4.022 23.627 4.2472 23.627 4.525C23.627 4.8028 23.8522 5.028 24.13 5.028Z" fill="#D02128"/>
<path d="M6.03003 7.542V12.57C5.75389 12.57 5.53003 12.7939 5.53003 13.07V17.092H8.54703V13.072C8.54703 12.7959 8.32317 12.572 8.04703 12.572V7.542C8.0586 7.17521 7.86952 6.83122 7.55366 6.6444C7.23779 6.45758 6.84526 6.45758 6.5294 6.6444C6.21354 6.83122 6.02446 7.17521 6.03603 7.542H6.03003Z" fill="#D02128"/>
<path d="M1.006 6.033C1.00931 3.25804 3.25804 1.00931 6.033 1.006C6.3108 1.006 6.536 0.780799 6.536 0.503C6.536 0.225201 6.3108 0 6.033 0C2.70267 0.00385743 0.00385743 2.70267 0 6.033C0 6.3108 0.225201 6.536 0.503 6.536C0.780799 6.536 1.006 6.3108 1.006 6.033Z" fill="#D02128"/>
<path d="M6.53599 2.511C6.53599 2.23486 6.31213 2.011 6.03599 2.011C3.81467 2.0121 2.01374 3.81168 2.01099 6.033C2.01099 6.3108 2.23619 6.536 2.51399 6.536C2.79179 6.536 3.01699 6.3108 3.01699 6.033C3.01919 4.36822 4.36821 3.01921 6.03299 3.017C6.30913 3.017 6.53299 2.79314 6.53299 2.517L6.53599 2.511Z" fill="#D02128"/>
<path d="M4.52198 6.536C4.79812 6.536 5.02198 6.31214 5.02198 6.036C5.02198 5.4804 5.47238 5.03 6.02798 5.03C6.30578 5.03 6.53098 4.8048 6.53098 4.527C6.53098 4.2492 6.30578 4.024 6.02798 4.024C4.92007 4.02676 4.02308 4.92509 4.02198 6.033C4.02118 6.16613 4.07351 6.29408 4.16736 6.3885C4.26122 6.48291 4.38885 6.536 4.52198 6.536Z" fill="#D02128"/>
<path d="M8.042 1.006C10.8181 1.00765 13.0687 3.25687 13.072 6.033C13.072 6.3108 13.2972 6.536 13.575 6.536C13.8528 6.536 14.078 6.3108 14.078 6.033C14.0741 2.7015 11.3735 0.00220406 8.042 0C7.7642 0 7.539 0.225201 7.539 0.503C7.539 0.780799 7.7642 1.006 8.042 1.006Z" fill="#D02128"/>
<path d="M8.042 3.017C9.70756 3.01866 11.0573 4.36844 11.059 6.034C11.059 6.3118 11.2842 6.537 11.562 6.537C11.8398 6.537 12.065 6.3118 12.065 6.034C12.0628 3.81307 10.2629 2.01321 8.042 2.011C7.7642 2.011 7.539 2.2362 7.539 2.514C7.539 2.7918 7.7642 3.017 8.042 3.017Z" fill="#D02128"/>
<path d="M8.042 5.028C8.30881 5.028 8.56469 5.13399 8.75335 5.32265C8.94201 5.51131 9.048 5.76719 9.048 6.034C9.048 6.3118 9.2732 6.537 9.551 6.537C9.8288 6.537 10.054 6.3118 10.054 6.034C10.0543 5.5003 9.84237 4.98839 9.46499 4.61101C9.08761 4.23363 8.5757 4.02173 8.042 4.022C7.7642 4.022 7.539 4.2472 7.539 4.525C7.539 4.8028 7.7642 5.028 8.042 5.028Z" fill="#D02128"/>
</svg>
