<svg width="38" height="38" viewBox="0 0 38 38" fill="none" xmlns="http://www.w3.org/2000/svg">
<path d="M32.125 5.875V0.875H13.375V32.125H37.125V5.875H32.125Z" fill="#FFDAAA"/>
<path d="M13.375 32.125H37.125V8.375C37.125 14.6739 34.6228 20.7148 30.1688 25.1688C25.7148 29.6228 19.6739 32.125 13.375 32.125Z" fill="#FFC477"/>
<path d="M3.375 24.625H23.375V32.125H3.375V24.625Z" fill="#57A4FF"/>
<path d="M32.125 5.875H37.125L32.125 0.875V5.875Z" fill="#FFB655"/>
<path d="M25.875 22.125H0.875L13.375 14.625L25.875 22.125Z" fill="#9BC9FF"/>
<path d="M13.375 27.125C12.8777 27.125 12.4008 27.3225 12.0492 27.6742C11.6975 28.0258 11.5 28.5027 11.5 29V32.125H15.25V29C15.25 28.5027 15.0525 28.0258 14.7008 27.6742C14.3492 27.3225 13.8723 27.125 13.375 27.125ZM19 27.125C18.5027 27.125 18.0258 27.3225 17.6742 27.6742C17.3225 28.0258 17.125 28.5027 17.125 29V32.125H20.875V29C20.875 28.5027 20.6775 28.0258 20.3258 27.6742C19.9742 27.3225 19.4973 27.125 19 27.125ZM7.75 27.125C7.25272 27.125 6.77581 27.3225 6.42417 27.6742C6.07254 28.0258 5.875 28.5027 5.875 29V32.125H9.625V29C9.625 28.5027 9.42746 28.0258 9.07583 27.6742C8.72419 27.3225 8.24728 27.125 7.75 27.125Z" fill="#006DF0"/>
<path d="M24.625 24.625V22.125H2.125V24.625H23.375H24.625Z" fill="#57A4FF"/>
<path d="M13.375 20.25C14.0654 20.25 14.625 19.6904 14.625 19C14.625 18.3096 14.0654 17.75 13.375 17.75C12.6846 17.75 12.125 18.3096 12.125 19C12.125 19.6904 12.6846 20.25 13.375 20.25Z" fill="#F1F2F2"/>
<path d="M2.125 34.625H0.875V37.125H25.875V34.625H2.75H2.125Z" fill="#006DF0"/>
<path d="M2.125 32.125H24.625V34.625H2.125V32.125ZM3.375 24.625H23.375V25.25H3.375V24.625Z" fill="#2488FF"/>
<path d="M19.625 10.1875C20.7131 9.98312 21.5 9.26438 21.5 8.375C21.5 7.32375 20.4019 6.5 19 6.5C18.2369 6.5 17.75 6.13 17.75 5.875C17.75 5.62 18.2369 5.25 19 5.25C19.7631 5.25 20.25 5.62 20.25 5.875C20.25 6.04076 20.3158 6.19973 20.4331 6.31694C20.5503 6.43415 20.7092 6.5 20.875 6.5C21.0408 6.5 21.1997 6.43415 21.3169 6.31694C21.4342 6.19973 21.5 6.04076 21.5 5.875C21.5 4.98688 20.7131 4.26813 19.625 4.0625V3.375C19.625 3.20924 19.5592 3.05027 19.4419 2.93306C19.3247 2.81585 19.1658 2.75 19 2.75C18.8342 2.75 18.6753 2.81585 18.5581 2.93306C18.4408 3.05027 18.375 3.20924 18.375 3.375V4.0625C17.2869 4.26688 16.5 4.98563 16.5 5.875C16.5 6.92625 17.5981 7.75 19 7.75C19.7631 7.75 20.25 8.12 20.25 8.375C20.25 8.63 19.7631 9 19 9C18.2369 9 17.75 8.63 17.75 8.375C17.75 8.20924 17.6842 8.05027 17.5669 7.93306C17.4497 7.81585 17.2908 7.75 17.125 7.75C16.9592 7.75 16.8003 7.81585 16.6831 7.93306C16.5658 8.05027 16.5 8.20924 16.5 8.375C16.5 9.26312 17.2869 9.98187 18.375 10.1875V10.875C18.375 11.0408 18.4408 11.1997 18.5581 11.3169C18.6753 11.4342 18.8342 11.5 19 11.5C19.1658 11.5 19.3247 11.4342 19.4419 11.3169C19.5592 11.1997 19.625 11.0408 19.625 10.875V10.1875Z" fill="#ED1C24"/>
<path d="M23.375 7.75H29.625C29.7908 7.75 29.9497 7.68415 30.0669 7.56694C30.1842 7.44973 30.25 7.29076 30.25 7.125C30.25 6.95924 30.1842 6.80027 30.0669 6.68306C29.9497 6.56585 29.7908 6.5 29.625 6.5H23.375C23.2092 6.5 23.0503 6.56585 22.9331 6.68306C22.8158 6.80027 22.75 6.95924 22.75 7.125C22.75 7.29076 22.8158 7.44973 22.9331 7.56694C23.0503 7.68415 23.2092 7.75 23.375 7.75ZM23.375 10.25H29.625C29.7908 10.25 29.9497 10.1842 30.0669 10.0669C30.1842 9.94973 30.25 9.79076 30.25 9.625C30.25 9.45924 30.1842 9.30027 30.0669 9.18306C29.9497 9.06585 29.7908 9 29.625 9H23.375C23.2092 9 23.0503 9.06585 22.9331 9.18306C22.8158 9.30027 22.75 9.45924 22.75 9.625C22.75 9.79076 22.8158 9.94973 22.9331 10.0669C23.0503 10.1842 23.2092 10.25 23.375 10.25ZM23.375 5.25H29.625C29.7908 5.25 29.9497 5.18415 30.0669 5.06694C30.1842 4.94973 30.25 4.79076 30.25 4.625C30.25 4.45924 30.1842 4.30027 30.0669 4.18306C29.9497 4.06585 29.7908 4 29.625 4H23.375C23.2092 4 23.0503 4.06585 22.9331 4.18306C22.8158 4.30027 22.75 4.45924 22.75 4.625C22.75 4.79076 22.8158 4.94973 22.9331 5.06694C23.0503 5.18415 23.2092 5.25 23.375 5.25ZM34.625 15.25H20.25C20.0842 15.25 19.9253 15.3158 19.8081 15.4331C19.6908 15.5503 19.625 15.7092 19.625 15.875C19.625 16.0408 19.6908 16.1997 19.8081 16.3169C19.9253 16.4342 20.0842 16.5 20.25 16.5H34.625C34.7908 16.5 34.9497 16.4342 35.0669 16.3169C35.1842 16.1997 35.25 16.0408 35.25 15.875C35.25 15.7092 35.1842 15.5503 35.0669 15.4331C34.9497 15.3158 34.7908 15.25 34.625 15.25ZM34.625 17.75H24.625C24.4592 17.75 24.3003 17.8158 24.1831 17.9331C24.0658 18.0503 24 18.2092 24 18.375C24 18.5408 24.0658 18.6997 24.1831 18.8169C24.3003 18.9342 24.4592 19 24.625 19H34.625C34.7908 19 34.9497 18.9342 35.0669 18.8169C35.1842 18.6997 35.25 18.5408 35.25 18.375C35.25 18.2092 35.1842 18.0503 35.0669 17.9331C34.9497 17.8158 34.7908 17.75 34.625 17.75ZM34.625 20.25H27.125C26.9592 20.25 26.8003 20.3158 26.6831 20.4331C26.5658 20.5503 26.5 20.7092 26.5 20.875C26.5 21.0408 26.5658 21.1997 26.6831 21.3169C26.8003 21.4342 26.9592 21.5 27.125 21.5H34.625C34.7908 21.5 34.9497 21.4342 35.0669 21.3169C35.1842 21.1997 35.25 21.0408 35.25 20.875C35.25 20.7092 35.1842 20.5503 35.0669 20.4331C34.9497 20.3158 34.7908 20.25 34.625 20.25ZM34.625 22.75H27.125C26.9592 22.75 26.8003 22.8158 26.6831 22.9331C26.5658 23.0503 26.5 23.2092 26.5 23.375C26.5 23.5408 26.5658 23.6997 26.6831 23.8169C26.8003 23.9342 26.9592 24 27.125 24H34.625C34.7908 24 34.9497 23.9342 35.0669 23.8169C35.1842 23.6997 35.25 23.5408 35.25 23.375C35.25 23.2092 35.1842 23.0503 35.0669 22.9331C34.9497 22.8158 34.7908 22.75 34.625 22.75ZM34.625 25.25H27.125C26.9592 25.25 26.8003 25.3158 26.6831 25.4331C26.5658 25.5503 26.5 25.7092 26.5 25.875C26.5 26.0408 26.5658 26.1997 26.6831 26.3169C26.8003 26.4342 26.9592 26.5 27.125 26.5H34.625C34.7908 26.5 34.9497 26.4342 35.0669 26.3169C35.1842 26.1997 35.25 26.0408 35.25 25.875C35.25 25.7092 35.1842 25.5503 35.0669 25.4331C34.9497 25.3158 34.7908 25.25 34.625 25.25ZM34.625 27.75H27.125C26.9592 27.75 26.8003 27.8158 26.6831 27.9331C26.5658 28.0503 26.5 28.2092 26.5 28.375C26.5 28.5408 26.5658 28.6997 26.6831 28.8169C26.8003 28.9342 26.9592 29 27.125 29H34.625C34.7908 29 34.9497 28.9342 35.0669 28.8169C35.1842 28.6997 35.25 28.5408 35.25 28.375C35.25 28.2092 35.1842 28.0503 35.0669 27.9331C34.9497 27.8158 34.7908 27.75 34.625 27.75ZM19.625 13.375C19.625 13.5408 19.6908 13.6997 19.8081 13.8169C19.9253 13.9342 20.0842 14 20.25 14H34.625C34.7908 14 34.9497 13.9342 35.0669 13.8169C35.1842 13.6997 35.25 13.5408 35.25 13.375C35.25 13.2092 35.1842 13.0503 35.0669 12.9331C34.9497 12.8158 34.7908 12.75 34.625 12.75H20.25C20.0842 12.75 19.9253 12.8158 19.8081 12.9331C19.6908 13.0503 19.625 13.2092 19.625 13.375Z" fill="#FF7956"/>
</svg>
