<svg width="28" height="26" viewBox="0 0 28 26" fill="none" xmlns="http://www.w3.org/2000/svg">
<path d="M20.6911 4.4549H20.7251C20.7439 4.45619 20.7628 4.45619 20.7816 4.4549C21.2835 4.4641 21.6856 4.87164 21.6862 5.37157C21.6976 5.58992 21.8788 5.76109 22.0983 5.76109C22.3178 5.76109 22.499 5.58992 22.5104 5.37157C22.5095 4.55526 21.9393 3.84919 21.1389 3.67337V3.27922C21.1469 3.12745 21.0701 2.98367 20.9393 2.90539C20.8085 2.82711 20.645 2.82711 20.5142 2.90539C20.3834 2.98367 20.3066 3.12745 20.3146 3.27922V3.69251C19.4691 3.91902 18.9228 4.73423 19.0372 5.59876C19.1517 6.46329 19.8913 7.1097 20.7669 7.1103C21.2758 7.1103 21.6884 7.52121 21.6884 8.0281C21.6884 8.53498 21.2758 8.94589 20.7669 8.94589C20.2579 8.94589 19.8454 8.53498 19.8454 8.0281C19.8533 7.87632 19.7766 7.73254 19.6458 7.65426C19.515 7.57598 19.3515 7.57598 19.2207 7.65426C19.0899 7.73254 19.0131 7.87632 19.0211 8.0281C19.0221 8.81483 19.5528 9.50309 20.3157 9.70715V10.1576C20.3078 10.3094 20.3845 10.4532 20.5153 10.5314C20.6461 10.6097 20.8096 10.6097 20.9404 10.5314C21.0713 10.4532 21.148 10.3094 21.14 10.1576V9.72629C22.0102 9.53581 22.5967 8.72334 22.5009 7.84118C22.4052 6.95902 21.6578 6.2902 20.7669 6.28936C20.2694 6.2939 19.8583 5.90389 19.8388 5.40878C19.8192 4.91367 20.1982 4.49269 20.6945 4.45828L20.6911 4.4549Z" fill="white"/>
<path fill-rule="evenodd" clip-rule="evenodd" d="M15.2754 4.71279C16.127 2.40945 18.3231 0.873223 20.7876 0.856934C24.0239 0.857245 26.6472 3.47043 26.6469 6.69365C26.6466 9.91686 24.0228 12.5295 20.7865 12.5292C20.7329 12.5292 20.6785 12.5269 20.6245 12.5247C20.5713 12.5224 20.5186 12.5202 20.4676 12.5202V21.7635C20.4676 23.5429 19.0205 24.9862 17.2338 24.9887H17.2247C17.1963 24.9887 17.172 24.9863 17.1449 24.9836C17.1106 24.9802 17.0718 24.9763 17.0144 24.9763V24.9887H4.28488V24.9797C2.55839 24.9022 1.19727 23.4881 1.19238 21.7668V19.9391C1.19561 19.8311 1.24215 19.7288 1.32161 19.6552C1.40107 19.5816 1.50683 19.5427 1.61527 19.5472H4.5325L4.62974 5.14747C4.62636 4.91728 4.80599 4.72545 5.0368 4.71279H15.2754ZM2.01638 21.7622C2.0226 23.0914 3.10597 24.1659 4.44062 24.1665H15.0659C15.0401 24.1375 15.0113 24.1141 14.9834 24.0914L14.9834 24.0913C14.9624 24.0743 14.9419 24.0576 14.9234 24.0392C14.3132 23.435 13.9697 22.6136 13.9691 21.7566V20.368H2.01638V21.7622ZM19.643 21.7623C19.643 23.0884 18.565 24.1641 17.2335 24.1666H17.2256C15.8889 24.1641 14.8048 23.0879 14.7979 21.7567V19.9391C14.8014 19.8341 14.7611 19.7324 14.6866 19.6581C14.612 19.5839 14.5099 19.5437 14.4045 19.5472H5.35878L5.4515 5.53369H15.0467C14.9736 5.90963 14.9357 6.29153 14.9336 6.67446C14.9327 7.48389 15.1022 8.28452 15.4311 9.02468H11.537C11.3846 9.01673 11.2402 9.09318 11.1616 9.22346C11.083 9.35373 11.083 9.51657 11.1616 9.64685C11.2402 9.77713 11.3846 9.85358 11.537 9.84563H15.8789C16.7295 11.1778 18.0889 12.1068 19.643 12.4177V21.7623ZM15.758 6.69797C15.758 9.46437 18.0098 11.707 20.7874 11.707V11.7081C22.1215 11.7081 23.4009 11.1802 24.3442 10.2406C25.2874 9.30099 25.8171 8.02664 25.8168 6.69797C25.8168 3.93158 23.5651 1.68897 20.7874 1.68897C18.0098 1.68897 15.758 3.93158 15.758 6.69797Z" fill="white"/>
<path d="M20.7876 0.856934L20.7876 0.356922L20.7843 0.356945L20.7876 0.856934ZM15.2754 4.71279V5.21279H15.6236L15.7444 4.88618L15.2754 4.71279ZM26.6469 6.69365L26.1469 6.6936V6.6936L26.6469 6.69365ZM20.7865 12.5292L20.7865 12.0292H20.7865V12.5292ZM20.6245 12.5247L20.6455 12.0251H20.6455L20.6245 12.5247ZM20.4676 12.5202V12.0202H19.9676V12.5202H20.4676ZM20.4676 21.7635H19.9676H20.4676ZM17.2338 24.9887V25.4887H17.2345L17.2338 24.9887ZM17.1449 24.9836L17.0953 25.4811L17.0953 25.4811L17.1449 24.9836ZM17.0144 24.9763V24.4763H16.5144V24.9763H17.0144ZM17.0144 24.9887V25.4887H17.5144V24.9887H17.0144ZM4.28488 24.9887H3.78488V25.4887H4.28488V24.9887ZM4.28488 24.9797H4.78488V24.5016L4.3073 24.4802L4.28488 24.9797ZM1.19238 21.7668H0.692381L0.692385 21.7683L1.19238 21.7668ZM1.19238 19.9391L0.692606 19.9242L0.692383 19.9317V19.9391H1.19238ZM1.32161 19.6552L1.66147 20.0219H1.66147L1.32161 19.6552ZM1.61527 19.5472L1.59424 20.0468L1.60475 20.0472H1.61527V19.5472ZM4.5325 19.5472V20.0472H5.02914L5.03249 19.5506L4.5325 19.5472ZM4.62974 5.14747L5.12985 5.15085L5.12969 5.14013L4.62974 5.14747ZM5.0368 4.71279V4.21279H5.02309L5.0094 4.21354L5.0368 4.71279ZM4.44062 24.1665L4.44039 24.6665H4.44062V24.1665ZM2.01638 21.7622H1.51637L1.51638 21.7645L2.01638 21.7622ZM15.0659 24.1665V24.6665H16.1823L15.439 23.8335L15.0659 24.1665ZM14.9834 24.0914L15.2991 23.7036L15.2957 23.7009L14.9834 24.0914ZM14.9834 24.0913L14.6677 24.4791L14.671 24.4818L14.9834 24.0913ZM14.9234 24.0392L15.2763 23.6849L15.2752 23.6839L14.9234 24.0392ZM13.9691 21.7566H13.4691V21.7569L13.9691 21.7566ZM13.9691 20.368H14.4691V19.868H13.9691V20.368ZM2.01638 20.368V19.868H1.51638V20.368H2.01638ZM17.2335 24.1666V24.6666H17.2344L17.2335 24.1666ZM19.643 21.7623H19.143H19.643ZM17.2256 24.1666L17.2247 24.6666H17.2256V24.1666ZM14.7979 21.7567H14.2979L14.298 21.7592L14.7979 21.7567ZM14.7979 19.9391L14.2982 19.9224L14.2979 19.9308V19.9391H14.7979ZM14.6866 19.6581L14.3337 20.0124L14.3337 20.0124L14.6866 19.6581ZM14.4045 19.5472V20.0472H14.4127L14.421 20.0469L14.4045 19.5472ZM5.35878 19.5472L4.85879 19.5439L4.85546 20.0472H5.35878V19.5472ZM5.4515 5.53369V5.03369H4.95479L4.95151 5.53038L5.4515 5.53369ZM15.0467 5.53369L15.5375 5.62919L15.6534 5.03369H15.0467V5.53369ZM14.9336 6.67446L14.4336 6.67176L14.4336 6.67389L14.9336 6.67446ZM15.4311 9.02468V9.52468H16.2005L15.8881 8.82162L15.4311 9.02468ZM11.537 9.02468L11.5109 9.524L11.5239 9.52468H11.537V9.02468ZM11.537 9.84563V9.34563H11.5239L11.5109 9.34631L11.537 9.84563ZM15.8789 9.84563L16.3003 9.57656L16.1529 9.34563H15.8789V9.84563ZM19.643 12.4177H20.143V12.0078L19.7411 11.9274L19.643 12.4177ZM20.7874 11.707H21.2874V11.207H20.7874V11.707ZM20.7874 11.7081H20.2874V12.2081H20.7874V11.7081ZM25.8168 6.69797H25.3168V6.69809L25.8168 6.69797ZM20.7843 0.356945C18.1128 0.374603 15.7305 2.03997 14.8064 4.5394L15.7444 4.88618C16.5235 2.77893 18.5335 1.37184 20.7909 1.35692L20.7843 0.356945ZM27.1469 6.69369C27.1473 3.19242 24.2982 0.357271 20.7876 0.356934L20.7875 1.35693C23.7497 1.35722 26.1472 3.74844 26.1469 6.6936L27.1469 6.69369ZM20.7864 13.0292C24.297 13.0296 27.1466 10.195 27.1469 6.69369L26.1469 6.6936C26.1467 9.63876 23.7486 12.0295 20.7865 12.0292L20.7864 13.0292ZM20.6034 13.0242C20.6556 13.0264 20.7206 13.0292 20.7865 13.0292V12.0292C20.7452 12.0292 20.7013 12.0275 20.6455 12.0251L20.6034 13.0242ZM20.4676 13.0202C20.5063 13.0202 20.5483 13.0219 20.6035 13.0242L20.6455 12.0251C20.5944 12.023 20.531 12.0202 20.4676 12.0202V13.0202ZM20.9676 21.7635V12.5202H19.9676V21.7635H20.9676ZM17.2345 25.4887C19.2952 25.4858 20.9676 23.8207 20.9676 21.7635H19.9676C19.9676 23.2652 18.7458 24.4866 17.2331 24.4887L17.2345 25.4887ZM17.2247 25.4887H17.2338V24.4887H17.2247V25.4887ZM17.0953 25.4811C17.1205 25.4836 17.1681 25.4887 17.2247 25.4887V24.4887C17.2244 24.4887 17.2235 24.4889 17.1944 24.486L17.0953 25.4811ZM17.0144 25.4763C17.0315 25.4763 17.0446 25.4769 17.0555 25.4776C17.0673 25.4784 17.0778 25.4794 17.0953 25.4811L17.1944 24.486C17.1561 24.4822 17.0974 24.4763 17.0144 24.4763V25.4763ZM17.5144 24.9887V24.9763H16.5144V24.9887H17.5144ZM4.28488 25.4887H17.0144V24.4887H4.28488V25.4887ZM3.78488 24.9797V24.9887H4.78488V24.9797H3.78488ZM0.692385 21.7683C0.698031 23.7581 2.27114 25.3898 4.26245 25.4792L4.3073 24.4802C2.84564 24.4146 1.6965 23.218 1.69238 21.7654L0.692385 21.7683ZM0.692383 19.9391V21.7668H1.69238V19.9391H0.692383ZM0.981754 19.2885C0.804237 19.453 0.699848 19.6819 0.692606 19.9242L1.69216 19.9541C1.69138 19.9803 1.68007 20.0047 1.66147 20.0219L0.981754 19.2885ZM1.6363 19.0477C1.39494 19.0375 1.1592 19.124 0.981754 19.2885L1.66147 20.0219C1.64295 20.0391 1.61871 20.0478 1.59424 20.0468L1.6363 19.0477ZM4.5325 19.0472H1.61527V20.0472H4.5325V19.0472ZM4.12975 5.1441L4.03251 19.5439L5.03249 19.5506L5.12973 5.15085L4.12975 5.1441ZM5.0094 4.21354C4.51246 4.24081 4.12244 4.65452 4.1298 5.15482L5.12969 5.14013C5.13028 5.18004 5.09953 5.2101 5.06419 5.21204L5.0094 4.21354ZM15.2754 4.21279H5.0368V5.21279H15.2754V4.21279ZM4.44085 23.6665C3.37943 23.666 2.5213 22.812 2.51637 21.7598L1.51638 21.7645C1.5239 23.3708 2.8325 24.6657 4.44039 24.6665L4.44085 23.6665ZM15.0659 23.6665H4.44062V24.6665H15.0659V23.6665ZM14.6677 24.4791C14.675 24.4851 14.68 24.4891 14.6847 24.493C14.6891 24.4967 14.692 24.4992 14.694 24.501C14.698 24.5045 14.6966 24.5036 14.6929 24.4994L15.439 23.8335C15.3826 23.7704 15.323 23.7231 15.2991 23.7036L14.6677 24.4791ZM14.671 24.4818L14.671 24.4818L15.2957 23.7009L15.2957 23.7009L14.671 24.4818ZM14.5706 24.3935C14.6098 24.4326 14.6503 24.4649 14.6677 24.4791L15.299 23.7036C15.2877 23.6944 15.2821 23.6898 15.2775 23.6859C15.2735 23.6824 15.2738 23.6824 15.2763 23.6849L14.5706 24.3935ZM13.4691 21.7569C13.4698 22.7476 13.8668 23.6967 14.5717 24.3945L15.2752 23.6839C14.7595 23.1733 14.4696 22.4795 14.4691 21.7562L13.4691 21.7569ZM13.4691 20.368V21.7566H14.4691V20.368H13.4691ZM2.01638 20.868H13.9691V19.868H2.01638V20.868ZM2.51638 21.7622V20.368H1.51638V21.7622H2.51638ZM17.2344 24.6666C18.8398 24.6636 20.143 23.3661 20.143 21.7623H19.143C19.143 22.8107 18.2902 23.6646 17.2326 23.6666L17.2344 24.6666ZM17.2256 24.6666H17.2335V23.6666H17.2256V24.6666ZM14.298 21.7592C14.3062 23.3671 15.6151 24.6636 17.2247 24.6666L17.2265 23.6666C16.1628 23.6646 15.3034 22.8086 15.2979 21.7541L14.298 21.7592ZM14.2979 19.9391V21.7567H15.2979V19.9391H14.2979ZM14.3337 20.0124C14.3102 19.989 14.2971 19.9565 14.2982 19.9224L15.2977 19.9558C15.3058 19.7118 15.212 19.4758 15.0394 19.3039L14.3337 20.0124ZM14.421 20.0469C14.3888 20.048 14.3571 20.0358 14.3337 20.0124L15.0394 19.3039C14.8668 19.132 14.6309 19.0394 14.3879 19.0475L14.421 20.0469ZM5.35878 20.0472H14.4045V19.0472H5.35878V20.0472ZM4.95151 5.53038L4.85879 19.5439L5.85877 19.5505L5.95148 5.537L4.95151 5.53038ZM15.0467 5.03369H5.4515V6.03369H15.0467V5.03369ZM15.4336 6.67715C15.4355 6.32539 15.4703 5.97455 15.5375 5.62919L14.5559 5.43819C14.4768 5.8447 14.4359 6.25768 14.4336 6.67176L15.4336 6.67715ZM15.8881 8.82162C15.5876 8.14551 15.4328 7.41426 15.4336 6.67502L14.4336 6.67389C14.4326 7.55351 14.6168 8.42352 14.9742 9.22774L15.8881 8.82162ZM11.537 9.52468H15.4311V8.52468H11.537V9.52468ZM11.5897 9.48174C11.5727 9.51005 11.5421 9.52563 11.5109 9.524L11.563 8.52536C11.2271 8.50783 10.9078 8.67631 10.7335 8.96517L11.5897 9.48174ZM11.5897 9.38857C11.607 9.41714 11.607 9.45317 11.5897 9.48174L10.7335 8.96517C10.5591 9.2543 10.5591 9.61601 10.7335 9.90514L11.5897 9.38857ZM11.5109 9.34631C11.5421 9.34468 11.5727 9.36026 11.5897 9.38857L10.7335 9.90514C10.9078 10.194 11.2271 10.3625 11.563 10.3449L11.5109 9.34631ZM15.8789 9.34563H11.537V10.3456H15.8789V9.34563ZM19.7411 11.9274C18.32 11.6431 17.0775 10.7938 16.3003 9.57656L15.4575 10.1147C16.3815 11.5619 17.8579 12.5705 19.545 12.908L19.7411 11.9274ZM20.143 21.7623V12.4177H19.143V21.7623H20.143ZM20.7874 11.207C18.284 11.207 16.258 9.18632 16.258 6.69797H15.258C15.258 9.74243 17.7355 12.207 20.7874 12.207V11.207ZM21.2874 11.7081V11.707H20.2874V11.7081H21.2874ZM23.9913 9.88638C23.142 10.7324 21.9895 11.2081 20.7874 11.2081V12.2081C22.2535 12.2081 23.6599 11.628 24.697 10.5948L23.9913 9.88638ZM25.3168 6.69809C25.3171 7.89347 24.8405 9.04039 23.9913 9.88638L24.697 10.5948C25.7342 9.56159 26.3172 8.15981 26.3168 6.69786L25.3168 6.69809ZM20.7874 2.18897C23.2909 2.18897 25.3168 4.20963 25.3168 6.69797H26.3168C26.3168 3.65352 23.8393 1.18897 20.7874 1.18897V2.18897ZM16.258 6.69797C16.258 4.20963 18.284 2.18897 20.7874 2.18897V1.18897C17.7355 1.18897 15.258 3.65352 15.258 6.69797H16.258Z" fill="white"/>
<path fill-rule="evenodd" clip-rule="evenodd" d="M7.65362 13.0567C7.63865 12.3586 8.19076 11.7787 8.89145 11.7565C9.60833 11.7458 10.1986 12.3151 10.211 13.029C10.2113 13.7272 9.64706 14.2955 8.94605 14.3031C8.24504 14.3107 7.66858 13.7547 7.65362 13.0567ZM8.4833 13.0045C8.46821 13.247 8.64891 13.4578 8.89175 13.4808C9.15305 13.4917 9.37418 13.2905 9.387 13.0304C9.3859 12.7874 9.19154 12.5891 8.9477 12.5822C8.70386 12.5752 8.4984 12.7621 8.4833 13.0045Z" fill="white"/>
<path d="M11.124 13.0278C11.124 13.1368 11.1675 13.2414 11.2449 13.3185C11.3223 13.3956 11.4273 13.4389 11.5367 13.4389H17.0342C17.2535 13.4274 17.4254 13.247 17.4254 13.0284C17.4254 12.8097 17.2535 12.6294 17.0342 12.6179H11.5367C11.3092 12.6179 11.1246 12.8013 11.124 13.0278H11.124Z" fill="white"/>
<path fill-rule="evenodd" clip-rule="evenodd" d="M7.65362 9.48491C7.63865 8.78686 8.19076 8.20694 8.89145 8.18472C9.60833 8.17406 10.1986 8.7433 10.211 9.45724C10.2113 10.1554 9.64706 10.7237 8.94605 10.7313C8.24504 10.7389 7.66858 10.183 7.65362 9.48491ZM8.4833 9.43276C8.46821 9.67524 8.64891 9.88596 8.89175 9.90905C9.15305 9.91988 9.37418 9.71874 9.387 9.4586C9.3859 9.21565 9.19154 9.01734 8.9477 9.01037C8.70386 9.0034 8.4984 9.19027 8.4833 9.43276Z" fill="white"/>
<path fill-rule="evenodd" clip-rule="evenodd" d="M7.65362 16.6265C7.63865 15.9285 8.19076 15.3485 8.89145 15.3263C9.60833 15.3157 10.1986 15.8849 10.211 16.5988C10.2113 17.297 9.64706 17.8653 8.94605 17.8729C8.24504 17.8805 7.66858 17.3246 7.65362 16.6265ZM8.4833 16.5744C8.46821 16.8169 8.64891 17.0276 8.89175 17.0507C9.15305 17.0615 9.37418 16.8604 9.387 16.6002C9.3859 16.3573 9.19154 16.159 8.9477 16.152C8.70386 16.145 8.4984 16.3319 8.4833 16.5744Z" fill="white"/>
<path d="M17.0334 16.2058H11.5359C11.3835 16.1979 11.2391 16.2743 11.1605 16.4046C11.0819 16.5349 11.0819 16.6977 11.1605 16.828C11.2391 16.9583 11.3835 17.0347 11.5359 17.0268H17.0334C17.1858 17.0347 17.3301 16.9583 17.4087 16.828C17.4873 16.6977 17.4873 16.5349 17.4087 16.4046C17.3301 16.2743 17.1858 16.1979 17.0334 16.2058Z" fill="white"/>
</svg>
