<svg width="21" height="34" viewBox="0 0 21 34" fill="none" xmlns="http://www.w3.org/2000/svg">
<path fill-rule="evenodd" clip-rule="evenodd" d="M17.943 33.149H2.894C1.33288 33.1825 0.0387593 31.947 0 30.386V2.762C0.0393004 1.2014 1.33327 -0.0335455 2.894 -3.81842e-08H17.944C19.5043 -0.0329866 20.7977 1.2018 20.837 2.762V30.387C20.7977 31.9476 19.5037 33.1825 17.943 33.149ZM2.894 1.106C1.9577 1.08587 1.18147 1.82678 1.158 2.763V30.386C1.18147 31.3222 1.9577 32.0631 2.894 32.043H17.942C18.8783 32.0631 19.6545 31.3222 19.678 30.386V2.763C19.6545 1.82678 18.8783 1.08587 17.942 1.106H14.709L13.721 2.049C13.6105 2.15344 13.4641 2.21144 13.312 2.211H7.524C7.37194 2.21144 7.22552 2.15344 7.115 2.049L6.127 1.106H2.894Z" fill="#D02128"/>
<path d="M16.786 2.315H18.522V3.473H16.786V2.315Z" fill="#D02128"/>
<path fill-rule="evenodd" clip-rule="evenodd" d="M10.994 16.932C10.9923 17.249 10.736 17.5058 10.419 17.508H3.47298C3.15438 17.508 2.89563 17.2506 2.89398 16.932V9.98C2.89398 9.66023 3.15321 9.401 3.47298 9.401H6.36698V6.507C6.36698 6.18723 6.62621 5.928 6.94598 5.928H17.361C17.6808 5.928 17.94 6.18723 17.94 6.507V13.453C17.94 13.7728 17.6808 14.032 17.361 14.032H10.994V16.932ZM6.36698 14.035H4.05198V16.35H6.36698V14.035ZM9.83998 10.562V12.877H7.52498V10.562H9.83998ZM7.52498 16.35H9.83998V14.032H7.52498V16.35ZM10.998 10.562H13.313V12.877H10.994L10.998 10.562ZM14.471 12.877H16.786V10.562H14.471V12.877ZM16.786 9.404H14.471V7.089H16.786V9.404ZM10.994 9.404H13.313L13.309 7.089H10.994V9.404ZM7.52498 7.089H9.83998V9.404H7.52498V7.089ZM6.36698 10.562H4.05198V12.877H6.36698V10.562Z" fill="#D02128"/>
<path d="M4.052 7.17H5.21V8.328H4.052V7.17Z" fill="#D02128"/>
<path d="M12.155 14.892H13.313V16.05H12.155V14.892Z" fill="#D02128"/>
<path d="M15.049 14.892H16.207V16.05H15.049V14.892Z" fill="#D02128"/>
<path fill-rule="evenodd" clip-rule="evenodd" d="M3.47298 30.254H17.365C17.6848 30.254 17.944 29.9948 17.944 29.675V19.257C17.944 18.9372 17.6848 18.678 17.365 18.678H10.419C10.0992 18.678 9.83998 18.9372 9.83998 19.257V22.151H3.47298C3.31942 22.151 3.17215 22.212 3.06357 22.3206C2.95498 22.4292 2.89398 22.5764 2.89398 22.73V29.678C2.89563 29.9966 3.15438 30.254 3.47298 30.254ZM4.05198 26.781H6.36698V29.096H4.05198V26.781ZM9.83998 26.781H7.52498V29.096H9.83998V26.781ZM13.313 23.308V25.623H10.994V23.308H13.313ZM14.471 25.623H16.786V23.308H14.471V25.623ZM10.994 26.778H13.309V29.093H10.994V26.778ZM14.467 29.093H16.782V26.778H14.467V29.093ZM16.782 22.147H14.467V19.832H16.782V22.147ZM13.309 19.832H10.994V22.147H13.309V19.832ZM9.83598 25.62H7.52098V23.305H9.83598V25.62ZM6.36298 23.305H4.04798V25.62H6.36298V23.305Z" fill="#D02128"/>
<path d="M4.63098 20.408H5.78898V21.566H4.63098V20.408Z" fill="#D02128"/>
<path d="M7.52502 20.408H8.68302V21.566H7.52502V20.408Z" fill="#D02128"/>
</svg>
