<svg width="45" height="37" viewBox="0 0 45 37" fill="none" xmlns="http://www.w3.org/2000/svg">
<path d="M26.7091 16.9454H29.3828C29.6109 16.9454 29.8298 16.8548 29.9911 16.6934C30.1524 16.5321 30.2431 16.3133 30.2431 16.0851C30.2431 15.857 30.1524 15.6381 29.9911 15.4768C29.8298 15.3155 29.6109 15.2248 29.3828 15.2248H26.7091C26.481 15.2248 26.2622 15.3155 26.1008 15.4768C25.9395 15.6381 25.8489 15.857 25.8489 16.0851C25.8489 16.3133 25.9395 16.5321 26.1008 16.6934C26.2622 16.8548 26.481 16.9454 26.7091 16.9454ZM35.928 15.2248H33.2544C33.0262 15.2248 32.8074 15.3155 32.6461 15.4768C32.4848 15.6381 32.3941 15.857 32.3941 16.0851C32.3941 16.3133 32.4848 16.5321 32.6461 16.6934C32.8074 16.8548 33.0262 16.9454 33.2544 16.9454H35.928C36.1562 16.9454 36.375 16.8548 36.5363 16.6934C36.6977 16.5321 36.7883 16.3133 36.7883 16.0851C36.7883 15.857 36.6977 15.6381 36.5363 15.4768C36.375 15.3155 36.1562 15.2248 35.928 15.2248ZM26.7092 13.1654H35.9276C36.1558 13.1654 36.3746 13.0747 36.5359 12.9134C36.6973 12.7521 36.7879 12.5333 36.7879 12.3051C36.7879 12.0769 36.6973 11.8581 36.5359 11.6968C36.3746 11.5355 36.1558 11.4448 35.9276 11.4448H26.7092C26.4811 11.4448 26.2623 11.5355 26.1009 11.6968C25.9396 11.8581 25.849 12.0769 25.849 12.3051C25.849 12.5333 25.9396 12.7521 26.1009 12.9134C26.2623 13.0747 26.4811 13.1654 26.7092 13.1654ZM35.9276 19.0051H26.7092C26.5955 19.004 26.4827 19.0254 26.3774 19.0681C26.272 19.1109 26.1761 19.174 26.0953 19.254C26.0145 19.334 25.9504 19.4293 25.9066 19.5342C25.8628 19.6392 25.8403 19.7517 25.8403 19.8654C25.8403 19.9791 25.8628 20.0917 25.9066 20.1967C25.9504 20.3016 26.0145 20.3968 26.0953 20.4768C26.1761 20.5568 26.272 20.62 26.3774 20.6628C26.4827 20.7055 26.5955 20.7269 26.7092 20.7258H35.9276C36.1543 20.7235 36.3709 20.6319 36.5304 20.4708C36.6899 20.3097 36.7794 20.0921 36.7794 19.8654C36.7794 19.6387 36.6899 19.4212 36.5304 19.2601C36.3709 19.099 36.1543 19.0074 35.9276 19.0051Z" fill="#D02128"/>
<path d="M43.8897 5.57186H40.6848V1.60674C40.684 1.48991 40.6596 1.37445 40.613 1.26731C40.5664 1.16018 40.4985 1.06359 40.4136 0.983364C40.3287 0.903141 40.2284 0.840946 40.1187 0.800527C40.0091 0.760107 39.8924 0.742301 39.7758 0.74818C29.5394 1.32978 24.4617 4.57302 22.8125 5.87556C21.1642 4.57302 16.0867 1.32978 5.8501 0.74818C5.73339 0.742265 5.61669 0.760045 5.50704 0.800448C5.39739 0.840851 5.29706 0.903041 5.21209 0.983267C5.12713 1.06349 5.05929 1.1601 5.01266 1.26725C4.96604 1.3744 4.94159 1.48989 4.94081 1.60674V5.57186H1.73528C1.50714 5.57195 1.28838 5.66261 1.12707 5.82393C0.965756 5.98524 0.875091 6.204 0.875 6.43213V32.3372C0.875091 32.5654 0.965756 32.7841 1.12707 32.9454C1.28838 33.1068 1.50714 33.1974 1.73528 33.1975H16.1073C16.2362 33.1971 16.3639 33.2222 16.4831 33.2712C16.6023 33.3203 16.7106 33.3924 16.8019 33.4834C16.8932 33.5744 16.9656 33.6826 17.015 33.8016C17.0644 33.9206 17.0898 34.0483 17.0898 34.1772C17.0909 34.8937 17.3762 35.5806 17.8832 36.087C18.3901 36.5934 19.0772 36.8781 19.7938 36.8785H25.8322C26.1871 36.8788 26.5385 36.8091 26.8665 36.6735C27.1945 36.5378 27.4925 36.3389 27.7435 36.088C27.9946 35.8372 28.1937 35.5393 28.3295 35.2114C28.4654 34.8835 28.5353 34.5321 28.5352 34.1772C28.5359 33.9171 28.6398 33.6679 28.8239 33.4842C29.0081 33.3005 29.2576 33.1973 29.5177 33.1973H43.8897C44.0027 33.1973 44.1145 33.1751 44.2189 33.1319C44.3233 33.0887 44.4181 33.0253 44.498 32.9455C44.5779 32.8656 44.6412 32.7708 44.6845 32.6665C44.7277 32.5621 44.75 32.4503 44.75 32.3373V6.43222C44.75 6.31923 44.7278 6.20734 44.6846 6.10294C44.6414 5.99854 44.578 5.90368 44.4981 5.82378C44.4182 5.74388 44.3234 5.68051 44.219 5.63728C44.1146 5.59406 44.0027 5.57183 43.8897 5.57186ZM23.6728 7.39653C24.133 7.01091 25.2454 6.17583 27.1406 5.30175C29.4075 4.25732 33.2642 2.95487 38.9645 2.5264V6.42545C38.9645 6.42802 38.9636 6.43059 38.9636 6.43231C38.9636 6.43402 38.9645 6.43659 38.9645 6.43925V25.5126C36.9152 25.5114 34.8694 25.6823 32.8487 26.0236C28.8526 26.7128 25.7779 28.0041 23.6728 29.8735V7.39653ZM6.66136 2.5264C12.3617 2.95487 16.2184 4.25741 18.4844 5.30175C20.3813 6.17668 21.4945 7.01288 21.9522 7.39567V29.873C19.8479 28.0036 16.7733 26.7123 12.7772 26.0232C10.784 25.6865 8.76639 25.5158 6.745 25.5126H6.66153L6.66136 2.5264ZM43.0296 31.477H29.5177C28.8014 31.4775 28.1146 31.762 27.6078 32.2682C27.101 32.7744 26.8157 33.4609 26.8144 34.1772C26.8145 34.3061 26.7892 34.4339 26.7399 34.553C26.6906 34.6722 26.6182 34.7805 26.5269 34.8716C26.4356 34.9627 26.3273 35.0349 26.208 35.0841C26.0887 35.1332 25.961 35.1583 25.832 35.1579H19.7938C19.5334 35.1579 19.2837 35.0547 19.0994 34.8708C18.9151 34.687 18.8112 34.4375 18.8106 34.1772C18.8106 33.8223 18.7406 33.471 18.6047 33.1432C18.4688 32.8154 18.2696 32.5176 18.0186 32.2668C17.7676 32.0161 17.4696 31.8172 17.1417 31.6816C16.8138 31.546 16.4623 31.4764 16.1075 31.4767H2.59555V7.2925H4.94081V26.391C4.94163 26.5073 4.96585 26.6222 5.01203 26.7289C5.05821 26.8356 5.12541 26.932 5.20962 27.0122C5.29382 27.0924 5.39331 27.1548 5.50216 27.1957C5.611 27.2366 5.72697 27.2552 5.84316 27.2504C5.9645 27.2444 17.9682 26.7265 22.1096 32.6049C22.4289 33.0847 23.1971 33.0841 23.5162 32.6049C27.6577 26.7263 39.6614 27.2444 39.7818 27.2504C39.8981 27.2554 40.0142 27.2369 40.1231 27.196C40.2321 27.1551 40.3317 27.0927 40.416 27.0125C40.5003 26.9323 40.5676 26.8359 40.6138 26.7291C40.66 26.6223 40.6843 26.5073 40.6851 26.391V7.2925H43.0294L43.0296 31.477Z" fill="#D02128"/>
<path d="M17.3316 11.3084C16.9763 11.2004 16.6033 11.1638 16.2338 11.2007C15.8644 11.2376 15.5059 11.3473 15.1791 11.5235C14.8514 11.7042 14.5565 11.9389 14.3068 12.2176C14.0566 11.9383 13.7611 11.7033 13.4327 11.5225C13.1062 11.3466 12.7481 11.2371 12.3791 11.2004C12.0101 11.1636 11.6375 11.2003 11.2827 11.3083C9.80991 11.7462 8.86873 13.2155 8.99265 14.8812C9.05263 15.6846 9.34399 16.4907 9.85815 17.2762C10.5412 18.3197 11.5418 19.2909 12.9148 20.2468C14.1402 21.2044 14.4752 21.2004 15.6988 20.2476C17.0726 19.2909 18.0725 18.3195 18.7553 17.2762C19.2695 16.4907 19.5615 15.6855 19.6209 14.8812C19.7447 13.2157 18.8035 11.7464 17.3316 11.3084ZM17.9057 14.754C17.8832 15.0208 17.8232 15.2832 17.7276 15.5334C17.6206 15.8145 17.4826 16.0828 17.3163 16.3335C16.7563 17.1886 15.9054 18.0076 14.7165 18.8343C14.5812 18.9325 14.4446 19.0292 14.307 19.1243C14.1701 19.0289 14.0339 18.9325 13.8984 18.8352C12.7087 18.0076 11.8578 17.1886 11.2977 16.3335C10.9501 15.8026 10.7463 15.2563 10.7093 14.754C10.6568 14.0571 10.9682 13.1968 11.7735 12.9576C11.9118 12.9147 12.0573 12.8996 12.2015 12.913C12.3458 12.9265 12.4859 12.9682 12.614 13.0359C12.9839 13.2372 13.3074 13.6502 13.501 14.169C13.5622 14.3334 13.6722 14.4752 13.8163 14.5753C13.9604 14.6754 14.1316 14.729 14.307 14.729C14.4825 14.729 14.6537 14.6754 14.7978 14.5753C14.9419 14.4752 15.0519 14.3334 15.1131 14.169C15.3067 13.6502 15.6302 13.2372 15.9983 13.0369C16.1266 12.9688 16.267 12.9268 16.4116 12.9132C16.5561 12.8996 16.7019 12.9147 16.8406 12.9576C17.6465 13.1968 17.957 14.0571 17.9054 14.754H17.9057Z" fill="#D02128"/>
</svg>
