<svg width="48" height="48" viewBox="0 0 48 48" fill="none" xmlns="http://www.w3.org/2000/svg">
<path fill-rule="evenodd" clip-rule="evenodd" d="M24.0002 6.49609C18.3769 6.49609 13.8184 11.0546 13.8184 16.6779V17.7142C12.7865 17.8874 12.0002 18.7848 12.0002 19.8659V22.3594C12.0002 23.4624 12.8186 24.3742 13.8813 24.5207C14.2787 28.0914 16.5226 31.1047 19.6365 32.5839V35.9311C11.9353 36.3456 5.81836 42.7215 5.81836 50.5262H42.182C42.182 42.7215 36.065 36.3456 28.3638 35.9311V32.5839C31.4777 31.1047 33.7217 28.0914 34.119 24.5207C35.1817 24.3742 36.0002 23.4624 36.0002 22.3594V19.8659C36.0002 18.7848 35.2139 17.8874 34.182 17.7142V16.6779C34.182 11.0546 29.6234 6.49609 24.0002 6.49609Z" fill="#D0C6AC"/>
<mask id="mask0_2061_3628" style="mask-type:luminance" maskUnits="userSpaceOnUse" x="5" y="6" width="38" height="45">
<path fill-rule="evenodd" clip-rule="evenodd" d="M24.0002 6.49609C18.3769 6.49609 13.8184 11.0546 13.8184 16.6779V17.7142C12.7865 17.8874 12.0002 18.7848 12.0002 19.8659V22.3594C12.0002 23.4624 12.8186 24.3742 13.8813 24.5207C14.2787 28.0914 16.5226 31.1047 19.6365 32.5839V35.9311C11.9353 36.3456 5.81836 42.7215 5.81836 50.5262H42.182C42.182 42.7215 36.065 36.3456 28.3638 35.9311V32.5839C31.4777 31.1047 33.7217 28.0914 34.119 24.5207C35.1817 24.3742 36.0002 23.4624 36.0002 22.3594V19.8659C36.0002 18.7848 35.2139 17.8874 34.182 17.7142V16.6779C34.182 11.0546 29.6234 6.49609 24.0002 6.49609Z" fill="white"/>
</mask>
<g mask="url(#mask0_2061_3628)">
<rect y="6.49609" width="48" height="44.0301" fill="#FFDBB4"/>
<path fill-rule="evenodd" clip-rule="evenodd" d="M13.8184 23.3818V24.8254C13.8184 30.4487 18.3769 35.0073 24.0002 35.0073C29.6234 35.0073 34.182 30.4487 34.182 24.8254V23.3818C34.182 29.0051 29.6234 33.5637 24.0002 33.5637C18.3769 33.5637 13.8184 29.0051 13.8184 23.3818Z" fill="black" fill-opacity="0.1"/>
</g>
<path fill-rule="evenodd" clip-rule="evenodd" d="M24.0911 40.0291C27.455 40.0291 30.182 38.2937 30.182 36.153C30.182 36.1524 30.182 36.1518 30.182 36.1512C37.0054 37.3806 42.182 43.349 42.182 50.5264H5.81836C5.81836 43.2853 11.0873 37.2748 18.0004 36.1196C18.0003 36.1308 18.0002 36.1419 18.0002 36.153C18.0002 38.2937 20.7272 40.0291 24.0911 40.0291Z" fill="#E6E6E6"/>
<mask id="mask1_2061_3628" style="mask-type:luminance" maskUnits="userSpaceOnUse" x="5" y="36" width="38" height="15">
<path fill-rule="evenodd" clip-rule="evenodd" d="M24.0911 40.0291C27.455 40.0291 30.182 38.2937 30.182 36.153C30.182 36.1524 30.182 36.1518 30.182 36.1512C37.0054 37.3806 42.182 43.349 42.182 50.5264H5.81836C5.81836 43.2853 11.0873 37.2748 18.0004 36.1196C18.0003 36.1308 18.0002 36.1419 18.0002 36.153C18.0002 38.2937 20.7272 40.0291 24.0911 40.0291Z" fill="white"/>
</mask>
<g mask="url(#mask1_2061_3628)">
<rect y="30.6768" width="48" height="19.8496" fill="#555FA8"/>
<g opacity="0.6">
<ellipse cx="24.0911" cy="36.4235" rx="7.20638" ry="4.85663" fill="black" fill-opacity="0.16"/>
</g>
</g>
<path d="M21.4551 27.0674C21.4551 28.0368 22.5747 28.6915 24.0005 28.6915C25.4263 28.6915 26.546 28.0368 26.546 27.0674C26.546 26.8681 26.3733 26.7065 26.1824 26.7065C25.9473 26.7065 25.8424 26.8699 25.8187 27.0674C25.5928 27.5976 25.0339 27.9185 24.0005 27.9697C22.9672 27.9185 22.4082 27.5976 22.1824 27.0674C22.1587 26.8699 22.0538 26.7065 21.8187 26.7065C21.6278 26.7065 21.4551 26.8681 21.4551 27.0674Z" fill="black" fill-opacity="0.6"/>
<path fill-rule="evenodd" clip-rule="evenodd" d="M21.8184 23.459C21.8184 24.2563 22.7952 24.9026 24.0002 24.9026C25.2052 24.9026 26.182 24.2563 26.182 23.459" fill="black" fill-opacity="0.16"/>
<ellipse cx="19.273" cy="20.2101" rx="1.09091" ry="1.08271" fill="black" fill-opacity="0.6"/>
<ellipse cx="28.7276" cy="20.2101" rx="1.09091" ry="1.08271" fill="black" fill-opacity="0.6"/>
<path d="M16.6601 17.893C17.3719 16.899 19.3233 16.3415 21.0042 16.7512C21.1993 16.7988 21.3962 16.6804 21.4441 16.4868C21.492 16.2932 21.3727 16.0978 21.1777 16.0503C19.2255 15.5745 16.9659 16.2199 16.0673 17.4749C15.9509 17.6374 15.9893 17.8627 16.153 17.9781C16.3167 18.0936 16.5437 18.0555 16.6601 17.893Z" fill="black" fill-opacity="0.6"/>
<path d="M31.3399 17.893C30.6281 16.899 28.6767 16.3415 26.9958 16.7512C26.8008 16.7988 26.6038 16.6804 26.5559 16.4868C26.508 16.2932 26.6273 16.0978 26.8223 16.0503C28.7745 15.5745 31.0341 16.2199 31.9327 17.4749C32.0491 17.6374 32.0107 17.8627 31.847 17.9781C31.6833 18.0936 31.4563 18.0555 31.3399 17.893Z" fill="black" fill-opacity="0.6"/>
<mask id="mask2_2061_3628" style="mask-type:luminance" maskUnits="userSpaceOnUse" x="0" y="0" width="48" height="51">
<rect width="48" height="50.5263" fill="white"/>
</mask>
<g mask="url(#mask2_2061_3628)">
<path fill-rule="evenodd" clip-rule="evenodd" d="M15.8517 6.83105C16.7864 6.1396 17.8915 5.54686 19.0443 5.31925C20.2164 5.08787 20.9276 5.03167 22.0815 5.30608C22.3784 5.37668 22.4785 5.44686 22.7399 5.27928C22.96 5.13808 24.4966 3.56681 29.1799 4.43893C33.9135 5.32041 35.3197 12.3924 37.0756 12.6614C37.7084 12.7584 38.4905 12.592 38.515 12.2054C39.2356 13.2942 39.4255 14.733 39.1199 16.0082C38.8569 17.1064 38.3023 18.1383 37.3038 18.7396C36.4445 19.257 35.2566 19.4824 34.2636 19.387C33.8117 19.3436 33.4008 19.2492 32.985 19.0683C32.4834 18.8501 32.0838 18.4564 31.5916 18.2485C32.1055 18.6903 32.6647 19.0799 33.2599 19.4067C33.558 19.5703 33.8606 19.683 34.1896 19.7719C34.4142 19.8325 34.8734 20.0391 35.0907 19.9852C33.6711 20.2372 32.3342 20.0176 31.0326 19.4145C30.4451 19.1423 29.8801 18.8131 29.3615 18.4262C28.8464 18.0418 28.2534 17.6491 27.8505 17.1434C28.0196 17.3605 27.7237 17.0375 27.6846 16.998C27.5741 16.8862 27.4658 16.772 27.3597 16.656C27.1775 16.4569 26.9965 16.254 26.8268 16.0441C26.4643 15.5956 26.1266 15.127 25.8255 14.636C25.5205 14.1387 24.3058 12.1326 23.9391 11.6604C24.2855 12.6904 24.6627 13.7209 25.1041 14.7147C24.2471 14.4494 23.4161 13.7142 22.8686 13.0291C22.2519 12.2575 21.8867 11.3567 21.758 10.3826C21.0625 12.2622 19.4335 13.7444 17.7522 14.7667C18.1165 14.0936 18.6714 13.5243 19.0344 12.8398C17.3633 14.5233 14.5676 15.3469 13.8353 17.8156C13.6476 16.9571 13.0439 16.2672 12.8631 15.3915C12.6623 14.4192 12.5182 13.387 12.5501 12.3932C12.6224 10.1841 14.1196 8.11249 15.8517 6.83105Z" fill="#28354B"/>
<mask id="mask3_2061_3628" style="mask-type:luminance" maskUnits="userSpaceOnUse" x="12" y="4" width="28" height="17">
<path fill-rule="evenodd" clip-rule="evenodd" d="M15.8517 6.83105C16.7864 6.1396 17.8915 5.54686 19.0443 5.31925C20.2164 5.08787 20.9276 5.03167 22.0815 5.30608C22.3784 5.37668 22.4785 5.44686 22.7399 5.27928C22.96 5.13808 24.4966 3.56681 29.1799 4.43893C33.9135 5.32041 35.3197 12.3924 37.0756 12.6614C37.7084 12.7584 38.4905 12.592 38.515 12.2054C39.2356 13.2942 39.4255 14.733 39.1199 16.0082C38.8569 17.1064 38.3023 18.1383 37.3038 18.7396C36.4445 19.257 35.2566 19.4824 34.2636 19.387C33.8117 19.3436 33.4008 19.2492 32.985 19.0683C32.4834 18.8501 32.0838 18.4564 31.5916 18.2485C32.1055 18.6903 32.6647 19.0799 33.2599 19.4067C33.558 19.5703 33.8606 19.683 34.1896 19.7719C34.4142 19.8325 34.8734 20.0391 35.0907 19.9852C33.6711 20.2372 32.3342 20.0176 31.0326 19.4145C30.4451 19.1423 29.8801 18.8131 29.3615 18.4262C28.8464 18.0418 28.2534 17.6491 27.8505 17.1434C28.0196 17.3605 27.7237 17.0375 27.6846 16.998C27.5741 16.8862 27.4658 16.772 27.3597 16.656C27.1775 16.4569 26.9965 16.254 26.8268 16.0441C26.4643 15.5956 26.1266 15.127 25.8255 14.636C25.5205 14.1387 24.3058 12.1326 23.9391 11.6604C24.2855 12.6904 24.6627 13.7209 25.1041 14.7147C24.2471 14.4494 23.4161 13.7142 22.8686 13.0291C22.2519 12.2575 21.8867 11.3567 21.758 10.3826C21.0625 12.2622 19.4335 13.7444 17.7522 14.7667C18.1165 14.0936 18.6714 13.5243 19.0344 12.8398C17.3633 14.5233 14.5676 15.3469 13.8353 17.8156C13.6476 16.9571 13.0439 16.2672 12.8631 15.3915C12.6623 14.4192 12.5182 13.387 12.5501 12.3932C12.6224 10.1841 14.1196 8.11249 15.8517 6.83105Z" fill="white"/>
</mask>
<g mask="url(#mask3_2061_3628)">
<rect width="48" height="50.5263" fill="#2C1B18"/>
</g>
</g>
</svg>
