<svg width="33" height="32" viewBox="0 0 33 32" fill="none" xmlns="http://www.w3.org/2000/svg">
<path fill-rule="evenodd" clip-rule="evenodd" d="M29.652 0.499001H13.166C11.8078 0.568051 10.7593 1.71925 10.817 3.078V24.266V24.288C10.8185 24.3465 10.83 24.4044 10.851 24.459V24.47L12.074 27.28C12.2238 27.6388 12.5722 27.8745 12.961 27.88H13.4V29.947C13.4033 30.1238 13.4371 30.2987 13.5 30.464H7.20003V21.164C7.19893 20.3084 6.50561 19.6151 5.65003 19.614V10.797C7.81504 10.5243 9.39504 8.61548 9.25842 6.43764C9.1218 4.25981 7.31565 2.5634 5.13353 2.5634C2.95141 2.5634 1.14525 4.25981 1.00864 6.43764C0.872018 8.61548 2.45201 10.5243 4.61703 10.797V19.616C3.76144 19.6171 3.06813 20.3104 3.06703 21.166V30.466H1.51703C1.32708 30.4576 1.14787 30.5542 1.0504 30.7175C0.952927 30.8807 0.952927 31.0843 1.0504 31.2475C1.14787 31.4108 1.32708 31.5074 1.51703 31.499H31.484C31.674 31.5074 31.8532 31.4108 31.9507 31.2475C32.0481 31.0843 32.0481 30.8807 31.9507 30.7175C31.8532 30.5542 31.674 30.4576 31.484 30.466H29.322C29.385 30.3007 29.4188 30.1258 29.422 29.949V27.883H29.853C30.2417 27.8773 30.5901 27.6417 30.74 27.283L31.963 24.473V24.461C31.9854 24.4056 31.998 24.3467 32 24.287V24.266V3.078C32.0578 1.71962 31.0098 0.56858 29.652 0.499001ZM2.03403 6.699C2.03403 4.98692 3.42194 3.599 5.13403 3.599C6.84611 3.599 8.23403 4.98692 8.23403 6.699C8.23403 8.41108 6.84611 9.799 5.13403 9.799C3.42194 9.799 2.03403 8.41108 2.03403 6.699ZM4.10003 21.167V30.467H6.16703V21.167C6.16703 20.8815 5.93556 20.65 5.65003 20.65H4.61703C4.3315 20.65 4.10003 20.8815 4.10003 21.167ZM16.5 29.95C16.5 30.2355 16.2686 30.467 15.983 30.467H14.951C14.6655 30.467 14.434 30.2355 14.434 29.95V27.883H16.5V29.95ZM17.538 29.95C17.5348 30.1268 17.501 30.3017 17.438 30.467H25.388C25.3251 30.3017 25.2913 30.1268 25.288 29.95V27.883H17.538V29.95ZM28.384 29.95C28.384 30.2355 28.1526 30.467 27.867 30.467H26.834C26.5485 30.467 26.317 30.2355 26.317 29.95V27.883H28.384V29.95ZM13.022 26.85H29.796L30.7 24.783H12.122L13.022 26.85ZM19.083 23.75V22.716C19.083 22.4305 19.3145 22.199 19.6 22.199H23.217C23.5026 22.199 23.734 22.4305 23.734 22.716V23.749L19.083 23.75ZM30.968 23.75V3.078C31.0263 2.28862 30.4404 1.5985 29.652 1.528H13.165C12.377 1.59901 11.7917 2.28897 11.85 3.078V23.749H18.05V22.716C18.0511 21.8604 18.7444 21.1671 19.6 21.166H23.218C24.0736 21.1671 24.7669 21.8604 24.768 22.716V23.75H30.968Z" fill="#D02128"/>
<path fill-rule="evenodd" clip-rule="evenodd" d="M14.435 2.566H28.385C29.2406 2.5671 29.9339 3.26042 29.935 4.116V4.633C29.9339 5.48859 29.2406 6.1819 28.385 6.183H14.435C13.5794 6.1819 12.8861 5.48859 12.885 4.633V4.116C12.8861 3.26042 13.5794 2.5671 14.435 2.566ZM14.435 5.15H28.385C28.6705 5.15 28.902 4.91853 28.902 4.633V4.116C28.902 3.97888 28.8475 3.84738 28.7506 3.75043C28.6536 3.65347 28.5221 3.599 28.385 3.599H14.435C14.1495 3.599 13.918 3.83047 13.918 4.116V4.633C13.918 4.91853 14.1495 5.15 14.435 5.15Z" fill="#D02128"/>
<path fill-rule="evenodd" clip-rule="evenodd" d="M12.884 20.65C12.884 19.5084 13.8095 18.583 14.951 18.583C16.0926 18.583 17.018 19.5084 17.018 20.65C17.018 21.7916 16.0926 22.717 14.951 22.717C13.8095 22.717 12.884 21.7916 12.884 20.65ZM13.918 20.65C13.918 21.2205 14.3805 21.683 14.951 21.683C15.5215 21.683 15.984 21.2205 15.984 20.65C15.984 20.0795 15.5215 19.617 14.951 19.617C14.3805 19.617 13.918 20.0795 13.918 20.65Z" fill="#D02128"/>
<path fill-rule="evenodd" clip-rule="evenodd" d="M25.801 20.65C25.801 19.5084 26.7265 18.583 27.868 18.583C29.0096 18.583 29.935 19.5084 29.935 20.65C29.935 21.7916 29.0096 22.717 27.868 22.717C26.7265 22.717 25.801 21.7916 25.801 20.65ZM26.835 20.65C26.835 21.2205 27.2975 21.683 27.868 21.683C28.4385 21.683 28.901 21.2205 28.901 20.65C28.901 20.0795 28.4385 19.617 27.868 19.617C27.2975 19.617 26.835 20.0795 26.835 20.65Z" fill="#D02128"/>
<path fill-rule="evenodd" clip-rule="evenodd" d="M14.435 7.216H28.385C29.2406 7.21711 29.9339 7.91042 29.935 8.766V16C29.9339 16.8556 29.2406 17.5489 28.385 17.55H14.435C13.5794 17.5489 12.8861 16.8556 12.885 16V8.766C12.8861 7.91042 13.5794 7.21711 14.435 7.216ZM28.385 16.517C28.6705 16.517 28.902 16.2855 28.902 16V8.766C28.902 8.48047 28.6705 8.249 28.385 8.249H14.435C14.1495 8.249 13.918 8.48047 13.918 8.766V16C13.918 16.2855 14.1495 16.517 14.435 16.517H28.385Z" fill="#D02128"/>
</svg>
