<svg width="35" height="35" viewBox="0 0 35 35" fill="none" xmlns="http://www.w3.org/2000/svg">
<path d="M34.9845 10.5997C34.9845 23.7029 35.1212 24.0474 34.5888 25.9714C33.435 26.5107 31.6933 27.4956 30.0073 29.2246C28.7819 30.4818 27.7766 31.9361 27.0336 33.5267C26.1022 33.7844 25.1187 33.9224 24.1021 33.9224H12.8812C-0.115842 33.3664 6.81929 19.4297 9.71321 9.3826C17.9414 8.75089 26.4239 9.10595 34.9845 10.5997Z" fill="#FBF0EE"/>
<path d="M12.881 33.9223H3.16798C1.41853 33.9223 0 32.5038 0 30.7543V10.5997C3.21633 10.0389 6.45771 9.63269 9.71298 9.38254V30.7544C9.71298 32.5038 11.1316 33.9223 12.881 33.9223Z" fill="#EBD5D3"/>
<path d="M34.9842 7.4064V10.5997H9.71294L9.10406 9.82509C7.43028 7.69569 8.81524 4.56101 11.5165 4.36434C12.5431 4.28962 13.2512 4.23849 13.2512 4.23849L14.6057 3.53452L15.3717 4.23849H25.9808L26.9756 2.83049L28.0935 4.23849H31.8163C33.5659 4.23842 34.9842 5.65674 34.9842 7.4064Z" fill="#FF6E80"/>
<path d="M12.881 4.23842C11.1315 4.23842 9.71298 5.65694 9.71298 7.4064V10.5997H0V7.4064C0 5.65694 1.41853 4.23842 3.16798 4.23842H12.881Z" fill="#F9475E"/>
<path d="M30.2142 19.0807C30.2142 22.11 28.0965 24.6444 25.2608 25.285C16.7301 25.5938 16.7301 12.5673 25.2608 12.8765C28.0965 13.517 30.2142 16.0515 30.2142 19.0807Z" fill="#FFCF6B"/>
<path d="M25.2608 25.285C21.2702 26.1835 17.4922 23.1532 17.4922 19.0807C17.4922 15.0142 21.2655 11.9769 25.2608 12.8764C22.4258 13.5171 20.3082 16.0515 20.3082 19.0807C20.3082 22.11 22.4258 24.6444 25.2608 25.285Z" fill="#FFB451"/>
<path d="M23.8528 18.5526C22.9897 18.5526 22.2605 18.0661 22.2605 17.4904C22.2605 16.9146 22.9897 16.4281 23.8528 16.4281C24.7159 16.4281 25.4451 16.9146 25.4451 17.4904C25.4451 17.5597 25.4588 17.6284 25.4853 17.6924C25.5119 17.7565 25.5507 17.8147 25.5998 17.8637C25.6488 17.9127 25.707 17.9516 25.7711 17.9782C25.8351 18.0047 25.9038 18.0184 25.9731 18.0184C26.0425 18.0184 26.1111 18.0047 26.1752 17.9782C26.2393 17.9516 26.2975 17.9127 26.3465 17.8637C26.3955 17.8147 26.4344 17.7565 26.4609 17.6924C26.4875 17.6284 26.5011 17.5597 26.5011 17.4904C26.5011 16.4669 25.589 15.6108 24.3809 15.4146V14.8401C24.3809 14.7 24.3253 14.5657 24.2263 14.4667C24.1272 14.3677 23.9929 14.3121 23.8529 14.3121C23.7129 14.3121 23.5786 14.3677 23.4795 14.4667C23.3805 14.5657 23.3249 14.7 23.3249 14.8401V15.4146C22.1168 15.6109 21.2047 16.4669 21.2047 17.4904C21.2047 18.6583 22.3927 19.6085 23.8529 19.6085C24.716 19.6085 25.4452 20.0949 25.4452 20.6707C25.4452 21.2465 24.716 21.7329 23.8529 21.7329C22.9898 21.7329 22.2606 21.2465 22.2606 20.6707C22.2606 20.5307 22.205 20.3964 22.106 20.2974C22.0069 20.1983 21.8726 20.1427 21.7326 20.1427C21.5926 20.1427 21.4583 20.1983 21.3592 20.2974C21.2602 20.3964 21.2046 20.5307 21.2046 20.6707C21.2046 21.6941 22.1167 22.5503 23.3248 22.7465V23.3211C23.3248 23.4611 23.3805 23.5954 23.4795 23.6944C23.5785 23.7934 23.7128 23.8491 23.8528 23.8491C23.9929 23.8491 24.1272 23.7934 24.2262 23.6944C24.3252 23.5954 24.3808 23.4611 24.3808 23.3211V22.7465C25.589 22.5502 26.5011 21.6941 26.5011 20.6707C26.5011 19.5029 25.3131 18.5526 23.8528 18.5526Z" fill="#FCEC78"/>
<path d="M15.3719 4.23842H13.2515C13.2444 3.02825 12.2244 2.05885 10.9966 2.13486C9.94055 2.20035 9.081 3.0599 9.01552 4.11592C8.95427 5.10152 9.56745 5.95403 10.4376 6.25536C10.8534 6.39864 11.1317 6.80456 11.1317 7.25505C11.1317 7.98157 10.4144 8.49482 9.72864 8.25405C8.01651 7.65427 6.80635 5.98719 6.89576 4.05118C6.9957 1.87865 8.75855 0.115118 10.9311 0.0151762C13.3599 -0.0967965 15.3649 1.83565 15.3719 4.23842Z" fill="#4A66A0"/>
<path d="M28.0934 4.23842H25.973C25.9659 3.02825 24.9459 2.05885 23.7174 2.13486C22.6074 2.2037 21.7328 3.14528 21.7328 4.23842C21.7272 5.17193 22.3249 5.96675 23.1584 6.25536C23.5734 6.39837 23.8525 6.80367 23.8525 7.25505C23.8525 7.98157 23.1352 8.49481 22.4494 8.25405C20.7936 7.67395 19.6067 6.09417 19.6123 4.23848C19.6123 4.17655 19.6138 4.11387 19.6166 4.05125C19.7165 1.87872 21.48 0.115184 23.6526 0.0152428C26.0814 -0.0967982 28.0864 1.83565 28.0934 4.23842Z" fill="#687DAA"/>
<path d="M34.5885 25.9714C33.574 29.6378 30.6997 32.5123 27.0332 33.5267V29.1394C27.0332 27.39 28.4517 25.9714 30.2012 25.9714H34.5885Z" fill="#EBD5D3"/>
<path d="M15.3632 19.6024V20.1487C15.3632 21.3152 14.4177 22.2607 13.2512 22.2607H9.71294C9.53329 22.1205 8.69712 21.4375 8.55138 20.2496C8.35198 18.6247 9.62893 17.5582 9.71294 17.4904H13.2512C14.4177 17.4904 15.3632 18.4358 15.3632 19.6024Z" fill="#5AD6FF"/>
<path d="M9.71295 17.4904V22.2607H5.29263C4.12614 22.2607 3.18066 21.3152 3.18066 20.1487V19.6024C3.18066 18.4358 4.12614 17.4904 5.29263 17.4904H9.71295Z" fill="#00C5FD"/>
<path d="M12.1915 14.8525H11.1314C10.5459 14.8525 10.0713 14.3779 10.0713 13.7924C10.0713 13.2069 10.5459 12.7323 11.1314 12.7323H12.1915C12.777 12.7323 13.2516 13.2069 13.2516 13.7924C13.2516 14.3779 12.777 14.8525 12.1915 14.8525Z" fill="#687DAA"/>
<path d="M6.36054 14.8525H5.30035C4.71485 14.8525 4.24023 14.3779 4.24023 13.7924C4.24023 13.2069 4.71485 12.7323 5.30035 12.7323H6.36047C6.94597 12.7323 7.42059 13.2069 7.42059 13.7924C7.42059 14.3779 6.94604 14.8525 6.36054 14.8525Z" fill="#4A66A0"/>
<path d="M6.12503 26.3603C5.5718 25.8342 4.67479 25.8341 4.12149 26.3602C3.63183 26.8258 3.56791 27.5598 3.97041 28.0956L6.35684 31.2724C6.43764 31.2141 7.6705 30.2925 7.57288 28.744C7.48914 27.4155 6.4926 26.6778 6.35684 26.5808L6.12503 26.3603Z" fill="#BC775E"/>
<path d="M14.8374 26.5019V29.6819C14.8374 30.8533 13.8885 31.8023 12.7177 31.8023C12.2172 32.0994 11.3878 32.499 10.298 32.6316C9.9218 32.6777 9.54204 32.6878 9.16388 32.6619C6.3861 30.5008 7.11946 26.8516 9.95446 24.9968C10.3325 25.1595 10.5972 25.5347 10.5972 25.9719C10.5972 25.3861 11.0717 24.9117 11.6574 24.9117C12.2424 24.9117 12.7176 25.3861 12.7176 25.9719V26.502C12.7176 25.9163 13.1921 25.4418 13.7778 25.4418C14.363 25.4417 14.8374 25.9162 14.8374 26.5019Z" fill="#DB9E82"/>
<path d="M8.96477 31.8023C9.01979 32.0913 9.08625 32.3781 9.16397 32.6618C7.80033 32.5724 6.78164 32.048 6.35645 31.8023V22.2611C6.35645 21.6761 6.83161 21.2009 7.41663 21.2009C8.00233 21.2009 8.47682 21.6761 8.47682 22.2611V25.9718C8.47682 25.207 9.26069 24.6995 9.95447 24.9968C8.8303 27.1742 8.53321 29.5298 8.96477 31.8023Z" fill="#C8866A"/>
<path d="M14.834 32.8583V33.927C14.834 34.5099 14.3608 34.983 13.7779 34.983H10.0749C7.83368 35.1315 6.52412 32.6983 8.96469 31.8024H13.7779C14.3609 31.8023 14.834 32.2754 14.834 32.8583Z" fill="#687DAA"/>
<path d="M10.0751 34.983H6.3524C5.7695 34.983 5.29639 34.5099 5.29639 33.927V32.8583C5.29639 32.2754 5.7695 31.8023 6.3524 31.8023H8.96496C9.1712 32.8914 9.54499 33.9607 10.0751 34.983Z" fill="#4A66A0"/>
</svg>
