<svg width="36" height="36" viewBox="0 0 36 36" fill="none" xmlns="http://www.w3.org/2000/svg">
<path fill-rule="evenodd" clip-rule="evenodd" d="M18.4129 7.24419C19.5934 7.32974 20.4548 7.42607 20.7862 7.5182C22.0201 7.86127 22.8598 8.62247 23.2692 9.66891C23.3699 9.3988 23.4993 9.12075 23.6653 8.86337C24.1163 8.16404 24.8228 7.61333 25.9154 7.70067C27.3554 7.81573 28.8602 7.89303 30.0088 8.07356C30.8376 8.20389 31.49 8.3994 31.8411 8.67521C32.0751 8.85903 32.2944 9.28959 32.4497 9.92285C32.7641 11.2031 32.9007 13.3825 32.8731 15.7124C32.8721 15.7845 32.8462 15.8541 32.7996 15.9093C32.7531 15.9644 32.6889 16.0018 32.618 16.015C32.5471 16.0282 32.4737 16.0164 32.4105 15.9816C32.3473 15.9468 32.298 15.8912 32.2712 15.8243C31.8539 14.7789 31.4366 13.9019 31.0553 13.3272C30.8444 13.0093 30.6647 12.7859 30.4912 12.7228C30.1399 12.5948 29.57 12.6388 28.8764 12.7513C27.7419 12.9351 26.305 13.3269 24.917 13.662C23.9095 13.9052 23.5928 14.7414 23.5112 15.504C23.4228 16.3288 23.6064 17.0879 23.6064 17.0879C23.6247 17.1653 23.6127 17.2467 23.573 17.3156C23.5333 17.3844 23.4688 17.4355 23.3927 17.4585C23.3166 17.4814 23.2346 17.4745 23.1635 17.439C23.0923 17.4036 23.0373 17.3424 23.0097 17.2679C22.4968 15.8524 21.3918 15.0333 19.8679 15.1026C18.8719 15.1479 13.5016 16.6288 9.0439 18.0078C6.09005 18.9216 3.53739 19.7856 2.94952 20.1664C2.89798 20.1998 2.86353 20.2638 2.82892 20.3434C2.77424 20.4694 2.73424 20.6301 2.70458 20.8199C2.60405 21.4614 2.62937 22.4019 2.74592 23.4974C2.75177 23.5522 2.74296 23.6077 2.72041 23.658C2.69785 23.7084 2.66235 23.7518 2.61752 23.784C2.57269 23.8162 2.52014 23.8359 2.46522 23.8411C2.4103 23.8463 2.35497 23.8369 2.30488 23.8138C1.7281 23.5476 1.31986 23.2342 1.10997 22.8914C0.67746 22.1846 0.43776 20.8105 0.374689 19.1477C0.231617 15.3777 0.947572 10.0981 1.90787 8.05693C1.94065 7.9873 1.99798 7.93222 2.06888 7.90228C2.13977 7.87233 2.21923 7.86963 2.29199 7.89468L4.526 8.66472C4.72808 8.7344 4.90737 8.85781 5.04462 9.02169C5.18186 9.18557 5.27189 9.38373 5.30503 9.59491L5.77873 12.6168C5.79382 12.7122 5.83666 12.8012 5.90191 12.8725C5.96717 12.9438 6.05195 12.9943 6.14572 13.0177C6.23948 13.0412 6.33807 13.0366 6.42921 13.0044C6.52035 12.9722 6.60002 12.914 6.65828 12.8369L8.49978 10.3946C8.6285 10.2239 8.80127 10.0916 8.99954 10.0117C9.19782 9.93183 9.41411 9.90748 9.62518 9.94127L11.0059 10.1621C11.1149 10.1796 11.2066 10.2533 11.2469 10.3561C11.3203 10.5424 11.3354 10.7466 11.2902 10.9417L10.7492 13.2781C10.7351 13.339 10.7393 13.4028 10.7612 13.4613C10.7831 13.5199 10.8218 13.5708 10.8724 13.6076C10.923 13.6444 10.9833 13.6654 11.0458 13.6681C11.1083 13.6709 11.1702 13.6551 11.2238 13.6229L13.2787 12.3865C13.4327 12.2938 13.6092 12.2448 13.789 12.2448C13.9688 12.2448 14.1452 12.2938 14.2993 12.3865L16.3542 13.6229C16.4078 13.6552 16.4697 13.671 16.5322 13.6683C16.5948 13.6656 16.6551 13.6446 16.7058 13.6078C16.7564 13.571 16.7951 13.5201 16.8169 13.4614C16.8388 13.4028 16.8429 13.339 16.8288 13.2781L16.2878 10.9417C16.2473 10.7665 16.2552 10.5836 16.3108 10.4126C16.3664 10.2416 16.4675 10.089 16.6033 9.97109L18.4141 8.39895C18.4571 8.3617 18.4893 8.31361 18.5074 8.2597C18.5255 8.20579 18.5288 8.14802 18.517 8.09238C18.5053 8.03674 18.4788 7.98527 18.4404 7.94331C18.402 7.90135 18.3531 7.87044 18.2987 7.85378C18.2254 7.8313 18.1629 7.78259 18.1232 7.71696C18.0835 7.65134 18.0694 7.57338 18.0835 7.49799C18.0976 7.42259 18.139 7.35504 18.1997 7.30823C18.2605 7.26141 18.3364 7.23862 18.4129 7.24419Z" fill="#FA523D"/>
<path fill-rule="evenodd" clip-rule="evenodd" d="M25.0974 12.5357C25.0228 12.5631 24.9405 12.561 24.8673 12.5299C24.7942 12.4987 24.7357 12.4409 24.7037 12.3681C24.6717 12.2953 24.6688 12.213 24.6953 12.1381C24.7219 12.0632 24.7761 12.0012 24.8468 11.9648C24.8897 11.9447 24.9645 11.92 25.0727 11.9113C25.2767 11.8951 25.682 11.9089 26.2255 11.9509C26.704 11.9879 27.2941 12.0319 27.947 12.1101C28.3119 12.1539 28.6917 12.2154 29.0876 12.2713C29.1216 12.2756 29.1526 12.2926 29.1744 12.319C29.1962 12.3454 29.2071 12.3791 29.2049 12.4133C29.2026 12.4474 29.1874 12.4794 29.1624 12.5027C29.1373 12.5261 29.1043 12.5389 29.0701 12.5387C28.7994 12.5428 28.5369 12.5498 28.2799 12.5503C28.1002 12.5506 27.9252 12.5485 27.7543 12.5449C26.9688 12.5281 26.2876 12.5014 25.7939 12.5011C25.4745 12.5008 25.2403 12.5076 25.1176 12.5287C25.12 12.5268 25.1226 12.525 25.1252 12.5234C25.1208 12.5257 25.1164 12.5278 25.1119 12.5297C25.1059 12.5308 25.0954 12.5296 25.0966 12.5339L25.0974 12.5357ZM25.1176 12.5287C25.1101 12.5344 25.1008 12.5411 25.0974 12.5357C25.1023 12.5338 25.1071 12.5318 25.1119 12.5297L25.1176 12.5287ZM17.3572 9.45034C18.353 9.56345 19.0604 9.7164 19.3001 9.86816C19.7128 10.1294 20.0727 10.7366 20.3107 11.495C20.643 12.5533 20.7599 13.902 20.5813 14.8503C20.5672 14.9247 20.5266 14.9915 20.467 15.0382C20.4074 15.0849 20.3328 15.1083 20.2572 15.1041C20.1276 15.097 19.9976 15.0965 19.8679 15.1026C19.2163 15.1321 16.6851 15.7816 13.7657 16.6091C13.7392 16.6166 13.7119 16.6207 13.6845 16.621C10.8408 16.6565 7.71716 16.5393 5.83147 16.3399C4.97619 16.2494 4.3633 16.1335 4.11566 16.0166C3.77559 15.8562 3.49888 15.4951 3.31761 14.9943C3.0833 14.3465 2.99596 13.4541 3.05589 12.5714C3.11596 11.6861 3.32435 10.8126 3.66248 10.2043C3.92226 9.73663 4.26428 9.41992 4.65933 9.31311C4.74811 9.28989 4.83795 9.27094 4.92855 9.25633C5.00581 9.24327 5.08515 9.25977 5.1508 9.30255C5.21645 9.34532 5.26359 9.41124 5.28285 9.48719C5.29184 9.52255 5.29933 9.5585 5.30503 9.59491L5.77873 12.6168C5.79382 12.7122 5.83666 12.8012 5.90191 12.8725C5.96717 12.9438 6.05196 12.9943 6.14572 13.0177C6.23948 13.0412 6.33807 13.0366 6.42921 13.0044C6.52035 12.9722 6.60002 12.914 6.65829 12.8369L8.49978 10.3946C8.6285 10.2239 8.80127 10.0916 8.99954 10.0117C9.19782 9.93183 9.41411 9.90748 9.62518 9.94127L11.0059 10.1621C11.1149 10.1796 11.2066 10.2533 11.2469 10.3561C11.3203 10.5424 11.3354 10.7466 11.2902 10.9417L10.7492 13.2781C10.7351 13.339 10.7393 13.4028 10.7612 13.4613C10.7831 13.5199 10.8218 13.5708 10.8724 13.6076C10.923 13.6444 10.9833 13.6654 11.0458 13.6681C11.1083 13.6709 11.1702 13.6551 11.2238 13.6229L13.2787 12.3865C13.4327 12.2938 13.6092 12.2448 13.789 12.2448C13.9688 12.2448 14.1452 12.2938 14.2993 12.3865L16.3542 13.6229C16.4078 13.6552 16.4697 13.671 16.5322 13.6683C16.5948 13.6656 16.6551 13.6446 16.7058 13.6078C16.7564 13.571 16.7951 13.5201 16.8169 13.4614C16.8388 13.4028 16.8429 13.339 16.8288 13.2781L16.2878 10.9417C16.2473 10.7665 16.2552 10.5836 16.3108 10.4126C16.3664 10.2416 16.4675 10.089 16.6033 9.97109L17.1173 9.52464C17.15 9.49634 17.1882 9.47512 17.2294 9.46233C17.2707 9.44954 17.3142 9.44545 17.3572 9.45034Z" fill="white"/>
<path fill-rule="evenodd" clip-rule="evenodd" d="M30.7048 12.1363C30.8968 12.2063 31.1162 12.379 31.3401 12.6577C31.7684 13.191 32.2595 14.1473 32.7483 15.3398C33.8637 18.0605 34.9878 22.0271 35.4136 24.8653C35.6019 26.12 35.6503 27.161 35.5162 27.7954C35.4421 28.147 35.204 28.4981 34.834 28.8262C34.3457 29.259 33.6204 29.6637 32.8142 30.0097C31.4352 30.6019 29.8202 31.0276 28.81 31.1621C28.3089 31.2289 27.9365 31.2124 27.769 31.1434C27.1744 30.8986 26.733 30.5477 26.4046 30.1275C26.3865 30.2488 26.361 30.3689 26.3281 30.487C26.1519 31.1143 25.752 31.6989 24.9236 31.9187C23.6945 32.2448 16.1463 34.7432 10.9221 35.5276C9.55114 35.7335 8.33691 35.821 7.42949 35.7278C6.76013 35.659 6.24657 35.4855 5.92807 35.2145C5.41017 34.7739 4.87489 33.8706 4.3835 32.6989C3.28208 30.0728 2.35444 26.0769 2.09256 23.237C1.97691 21.9819 1.99534 20.9461 2.17137 20.3339C2.27024 19.9907 2.4274 19.7607 2.61002 19.6425C3.21331 19.2517 5.8277 18.3494 8.85931 17.4115C13.3798 16.013 18.8293 14.5249 19.8394 14.479C21.1186 14.4208 22.1537 14.8827 22.8686 15.7495C22.8801 15.4616 22.9165 15.1572 22.9941 14.8608C23.2049 14.0559 23.7049 13.3125 24.7703 13.0553C26.1745 12.7163 27.6286 12.321 28.7765 12.1351C29.6045 12.0009 30.2854 11.9835 30.7048 12.1363Z" fill="#6374FF"/>
<path fill-rule="evenodd" clip-rule="evenodd" d="M7.93912 30.3216C7.87672 30.3709 7.79789 30.3945 7.71869 30.3877C7.63948 30.3808 7.56587 30.344 7.51284 30.2848C7.45982 30.2256 7.43137 30.1484 7.43331 30.0689C7.43524 29.9894 7.4674 29.9137 7.52324 29.8571C7.5538 29.8276 7.60534 29.7882 7.68369 29.7509C7.82646 29.6827 8.11889 29.587 8.52324 29.4748C9.74391 29.1359 12.0374 28.6033 14.17 28.0581C15.0217 27.8405 15.8467 27.6196 16.568 27.4106C17.5337 27.1309 18.3105 26.8748 18.6955 26.6402C18.7253 26.6208 18.7616 26.6141 18.7963 26.6215C18.8311 26.6289 18.8615 26.6498 18.8808 26.6796C18.9002 26.7094 18.9069 26.7456 18.8995 26.7804C18.8921 26.8151 18.8712 26.8455 18.8414 26.8649C18.3219 27.2217 17.0735 27.6896 15.5844 28.1474C13.1198 28.9055 9.99919 29.6557 8.58256 30.0897C8.28129 30.1819 8.06271 30.2557 7.9544 30.3113C7.95725 30.3073 7.95979 30.3032 7.96174 30.3013C7.9571 30.3059 7.9523 30.3103 7.94751 30.3145C7.94242 30.3163 7.93642 30.3176 7.93822 30.3206L7.93912 30.3216ZM7.9544 30.3113C7.94931 30.3188 7.94331 30.3264 7.93912 30.3216L7.94751 30.3145L7.9511 30.3131L7.9544 30.3113ZM25.4988 17.9044C25.4365 17.9541 25.3575 17.9781 25.2781 17.9715C25.1987 17.9649 25.1248 17.9281 25.0716 17.8687C25.0184 17.8094 24.9899 17.7319 24.992 17.6522C24.9941 17.5725 25.0266 17.4967 25.0828 17.4401C25.1207 17.4042 25.1975 17.3504 25.321 17.3014C25.5632 17.2055 26.0675 17.0656 26.7382 16.9023C27.3487 16.7536 28.0963 16.5711 28.9119 16.3984C29.3818 16.2989 29.8731 16.2106 30.3707 16.1115C30.4046 16.1041 30.4399 16.1101 30.4694 16.1283C30.4989 16.1464 30.5202 16.1752 30.529 16.2088C30.5377 16.2423 30.5331 16.2778 30.5162 16.308C30.4992 16.3382 30.4713 16.3607 30.4381 16.3708C30.1101 16.4784 29.7872 16.5868 29.4675 16.6869C29.2473 16.7558 29.0302 16.821 28.817 16.8833C27.8594 17.1628 26.9978 17.3982 26.3778 17.5892C26.0348 17.6948 25.7679 17.7835 25.6019 17.8524C25.5557 17.8718 25.4831 17.8801 25.4978 17.9031C25.498 17.9036 25.4984 17.904 25.4988 17.9044ZM25.4988 17.9044C25.5067 17.8981 25.5142 17.8914 25.5213 17.8843C25.5162 17.8896 25.5056 17.9109 25.4988 17.9044ZM8.7153 32.9028C8.65515 32.9528 8.57843 32.9784 8.50029 32.9746C8.42216 32.9708 8.34829 32.9379 8.29328 32.8822C8.23519 32.8233 8.20287 32.7437 8.20341 32.661C8.20394 32.5782 8.23729 32.4991 8.29612 32.4409C8.33447 32.404 8.41403 32.3491 8.54167 32.298C8.7938 32.197 9.32039 32.0491 10.0172 31.8736C11.0497 31.6133 12.4618 31.2779 13.8954 30.9353C14.2402 30.8529 14.5863 30.7711 14.9291 30.6908C15.4617 30.5661 15.9848 30.4467 16.4793 30.3237C16.513 30.3154 16.5485 30.3203 16.5786 30.3376C16.6086 30.3548 16.6308 30.383 16.6405 30.4163C16.6502 30.4495 16.6467 30.4853 16.6306 30.516C16.6146 30.5467 16.5872 30.57 16.5544 30.581C15.8049 30.8291 14.9904 31.0905 14.1703 31.3285C12.1322 31.9203 10.0891 32.427 9.14361 32.7377C8.93642 32.8057 8.67245 32.8285 8.7147 32.9019L8.7153 32.9028ZM8.7153 32.9028C8.72189 32.8972 8.72848 32.8912 8.73477 32.8851C8.73028 32.8894 8.72084 32.91 8.7153 32.9028ZM26.2716 20.4884C26.2092 20.5381 26.1302 20.5621 26.0508 20.5555C25.9713 20.5488 25.8974 20.512 25.8442 20.4526C25.791 20.3932 25.7626 20.3157 25.7647 20.236C25.7669 20.1563 25.7994 20.0804 25.8557 20.024C25.8892 19.9927 25.9484 19.9482 26.0413 19.9085C26.2146 19.8346 26.5704 19.7296 27.0576 19.6105C27.482 19.5067 28.0055 19.3768 28.598 19.2608C28.9265 19.1966 29.2738 19.1449 29.6356 19.0831C29.6695 19.0758 29.7049 19.0819 29.7344 19.1002C29.7639 19.1184 29.7852 19.1474 29.7938 19.181C29.8024 19.2146 29.7976 19.2502 29.7805 19.2804C29.7634 19.3106 29.7352 19.3329 29.702 19.3428C29.468 19.4252 29.2432 19.5079 29.0212 19.5829C28.8656 19.6355 28.7135 19.6842 28.5646 19.7303C27.8762 19.9438 27.2808 20.1163 26.8555 20.2586C26.5856 20.3489 26.3893 20.4213 26.2889 20.4752C26.2906 20.4727 26.2924 20.4704 26.2943 20.4682L26.2838 20.4781L26.2801 20.48C26.2762 20.4822 26.2681 20.4839 26.2702 20.4869C26.2706 20.4875 26.271 20.488 26.2716 20.4884ZM26.2889 20.4752C26.2835 20.4828 26.2766 20.4924 26.2716 20.4884C26.2757 20.4851 26.2798 20.4816 26.2838 20.4781C26.2855 20.477 26.2872 20.4761 26.2889 20.4752ZM32.5829 22.8007C32.6615 22.8211 32.7727 22.8854 32.8775 23.0252C32.9966 23.184 33.1493 23.4843 33.3063 23.8619C33.6497 24.6869 34.0332 25.896 34.1944 26.6791C34.2765 27.0782 34.2907 27.3858 34.251 27.5228C34.2323 27.5876 34.1907 27.6667 34.1135 27.7489C34.0193 27.8491 33.8491 27.9757 33.6187 28.1127C32.9462 28.5122 31.7141 29.0472 30.6044 29.4201C29.8456 29.6751 29.1418 29.8523 28.703 29.8713C28.4242 29.8833 28.2232 29.8228 28.1122 29.7357C27.9673 29.6222 27.7706 29.3527 27.5701 28.9832C27.1547 28.2175 26.6763 26.9996 26.4666 26.1047C26.367 25.6797 26.3312 25.3194 26.37 25.0935C26.3996 24.9207 26.4722 24.7993 26.5608 24.7233C26.6736 24.6265 26.9851 24.464 27.4193 24.2809C28.3417 23.8917 29.8537 23.364 30.991 23.0511C31.4943 22.9127 31.927 22.8165 32.2097 22.7882C32.3742 22.7717 32.5012 22.7795 32.5829 22.8007ZM5.07335 21.2061C6.14541 20.5028 11.9399 18.6448 15.7547 17.7085C16.9065 17.4258 17.8789 17.2268 18.4892 17.1652C18.796 17.1344 19.025 17.1408 19.159 17.1748C19.7138 17.3152 20.3481 17.9387 20.8624 18.7597C21.604 19.9429 22.1051 21.5122 21.912 22.3777C21.8838 22.5041 21.7972 22.6541 21.6338 22.8076C21.3739 23.0514 20.881 23.3461 20.2205 23.662C17.7169 24.8595 12.7154 26.4551 9.51889 27.2515C8.10137 27.6046 7.02481 27.7933 6.64399 27.7458C6.2708 27.6992 5.89537 27.4422 5.56728 27.0228C5.14286 26.48 4.78197 25.6592 4.56414 24.8018C4.34556 23.9419 4.27155 23.0467 4.40339 22.3634C4.50481 21.8381 4.73118 21.4307 5.07335 21.2061Z" fill="#FFD240"/>
<path fill-rule="evenodd" clip-rule="evenodd" d="M11.7594 6.99581C11.8096 6.97978 11.8558 6.9531 11.8948 6.91757C11.9337 6.88204 11.9646 6.83851 11.9851 6.78996L12.9207 4.58202C12.993 4.41151 13.1138 4.26605 13.2682 4.16379C13.4226 4.06153 13.6036 4.007 13.7888 4.007C13.974 4.007 14.1551 4.06153 14.3095 4.16379C14.4638 4.26605 14.5847 4.41151 14.6569 4.58202L15.5925 6.78996C15.6184 6.85112 15.6605 6.90407 15.7142 6.9431C15.768 6.98214 15.8313 7.0058 15.8975 7.01154L18.2866 7.21903C18.471 7.23507 18.6467 7.30507 18.7916 7.4203C18.9366 7.53552 19.0444 7.69087 19.1016 7.86697C19.1588 8.04306 19.163 8.23211 19.1134 8.41053C19.0639 8.58894 18.963 8.74884 18.8232 8.87026L17.0123 10.4424C16.9621 10.486 16.9248 10.5424 16.9042 10.6056C16.8837 10.6687 16.8808 10.7363 16.8959 10.801L17.4367 13.1372C17.4784 13.3176 17.4661 13.5063 17.4013 13.6797C17.3365 13.8531 17.222 14.0036 17.0723 14.1124C16.9225 14.2212 16.744 14.2836 16.559 14.2916C16.3741 14.2997 16.1909 14.2531 16.0322 14.1578L13.9774 12.9213C13.9204 12.8871 13.8553 12.869 13.7888 12.869C13.7224 12.869 13.6572 12.8871 13.6003 12.9213L11.5456 14.1578C11.3869 14.2532 11.2037 14.2998 11.0187 14.2917C10.8337 14.2837 10.6552 14.2214 10.5054 14.1126C10.3556 14.0037 10.2412 13.8532 10.1763 13.6798C10.1115 13.5063 10.0992 13.3176 10.141 13.1372L10.6819 10.8009C10.6986 10.7288 10.693 10.6534 10.6659 10.5846C10.6457 10.5333 10.6394 10.4777 10.6476 10.4232C10.6559 10.3688 10.6784 10.3175 10.713 10.2745C10.7475 10.2316 10.7927 10.1986 10.8442 10.1789C10.8956 10.1591 10.9513 10.1533 11.0057 10.1621L12.6454 10.4244C12.7408 10.4397 12.8387 10.4265 12.9267 10.3865C13.0148 10.3465 13.0891 10.2815 13.1404 10.1995C13.1917 10.1176 13.2177 10.0223 13.2152 9.92568C13.2128 9.82903 13.1819 9.73524 13.1264 9.65603L11.5983 7.47206C11.5703 7.43196 11.552 7.38583 11.5451 7.33739C11.5382 7.28895 11.5427 7.23956 11.5584 7.1932C11.5741 7.14685 11.6004 7.10483 11.6354 7.07054C11.6703 7.03625 11.7128 7.01065 11.7594 6.99581Z" fill="#FFB240"/>
<path fill-rule="evenodd" clip-rule="evenodd" d="M4.37331 1.2815C4.37716 1.06222 4.4455 0.848924 4.56982 0.668245C4.69413 0.487566 4.86891 0.347504 5.07233 0.265543C5.27576 0.183582 5.49882 0.163352 5.71367 0.20738C5.92852 0.251408 6.12564 0.357741 6.28043 0.513109L8.45631 2.69573C8.52222 2.76185 8.60489 2.80876 8.69545 2.83144C8.78601 2.85411 8.88103 2.85168 8.97032 2.82442L11.9179 1.92434C12.1276 1.86023 12.3516 1.85931 12.5619 1.9217C12.7721 1.98409 12.9593 2.10703 13.1002 2.27518C13.241 2.44332 13.3291 2.64922 13.3537 2.86716C13.3782 3.08511 13.338 3.30545 13.238 3.50067L11.8346 6.24434C11.7921 6.32746 11.773 6.4206 11.7794 6.51374C11.7858 6.60689 11.8175 6.69653 11.871 6.77303L13.6379 9.29813C13.7636 9.47782 13.8336 9.69053 13.8391 9.90974C13.8447 10.129 13.7857 10.345 13.6693 10.5308C13.5529 10.7167 13.3844 10.8641 13.1848 10.9549C12.9851 11.0456 12.7632 11.0755 12.5466 11.0409L9.5035 10.554C9.41131 10.5392 9.31684 10.5499 9.23023 10.5848C9.14363 10.6197 9.06817 10.6775 9.01197 10.7521L7.15654 13.2127C7.02451 13.3878 6.84384 13.5202 6.63707 13.5933C6.43031 13.6663 6.2066 13.6769 5.99387 13.6236C5.78113 13.5704 5.58879 13.4557 5.44084 13.2938C5.29289 13.1319 5.19589 12.9301 5.16193 12.7134L4.68448 9.66877C4.67006 9.57651 4.63076 9.48993 4.57082 9.41835C4.51087 9.34676 4.43254 9.29287 4.34425 9.26247L1.43069 8.25813C1.22332 8.18673 1.04157 8.05583 0.908135 7.88177C0.774699 7.70771 0.695486 7.49821 0.680384 7.27941C0.665283 7.06061 0.714963 6.84221 0.823222 6.65147C0.931481 6.46073 1.09352 6.3061 1.28912 6.20689L4.03729 4.81214C4.12056 4.76986 4.19076 4.7057 4.24033 4.62655C4.28989 4.54739 4.31697 4.45623 4.31863 4.36285L4.37331 1.2815Z" fill="#FFD240"/>
</svg>
