<svg width="20" height="22" viewBox="0 0 20 22" fill="none" xmlns="http://www.w3.org/2000/svg">
<path d="M6.12156 1.90709C6.12156 1.37848 5.69303 0.949951 5.16442 0.949951C4.6358 0.949951 4.20728 1.37848 4.20728 1.90709V2.86424C4.20728 3.39285 4.6358 3.82138 5.16442 3.82138C5.69303 3.82138 6.12156 3.39285 6.12156 2.86424V1.90709Z" fill="#D02128"/>
<path d="M16.6501 1.90709C16.6501 1.37848 16.2216 0.949951 15.693 0.949951C15.1644 0.949951 14.7358 1.37848 14.7358 1.90709V2.86424C14.7358 3.39285 15.1644 3.82138 15.693 3.82138C16.2216 3.82138 16.6501 3.39285 16.6501 2.86424V1.90709Z" fill="#D02128"/>
<path d="M0.857178 8.1286V19.1357C0.857178 19.6434 1.05886 20.1303 1.41786 20.4893C1.77686 20.8483 2.26376 21.05 2.77146 21.05H18.0857C18.5934 21.05 19.0804 20.8483 19.4394 20.4893C19.7984 20.1303 20 19.6434 20 19.1357V8.1286H0.857178ZM6.60003 17.7C6.60003 17.9539 6.49919 18.1973 6.31969 18.3768C6.14019 18.5563 5.89674 18.6572 5.64289 18.6572H4.68575C4.4319 18.6572 4.18845 18.5563 4.00895 18.3768C3.82945 18.1973 3.72861 17.9539 3.72861 17.7V16.7429C3.72861 16.489 3.82945 16.2456 4.00895 16.0661C4.18845 15.8866 4.4319 15.7857 4.68575 15.7857H5.64289C5.89674 15.7857 6.14019 15.8866 6.31969 16.0661C6.49919 16.2456 6.60003 16.489 6.60003 16.7429V17.7ZM6.60003 12.4357C6.60003 12.6896 6.49919 12.933 6.31969 13.1125C6.14019 13.292 5.89674 13.3929 5.64289 13.3929H4.68575C4.4319 13.3929 4.18845 13.292 4.00895 13.1125C3.82945 12.933 3.72861 12.6896 3.72861 12.4357V11.4786C3.72861 11.2247 3.82945 10.9813 4.00895 10.8018C4.18845 10.6223 4.4319 10.5215 4.68575 10.5215H5.64289C5.89674 10.5215 6.14019 10.6223 6.31969 10.8018C6.49919 10.9813 6.60003 11.2247 6.60003 11.4786V12.4357ZM11.8643 17.7C11.8643 17.9539 11.7635 18.1973 11.584 18.3768C11.4045 18.5563 11.161 18.6572 10.9072 18.6572H9.95004C9.69618 18.6572 9.45273 18.5563 9.27323 18.3768C9.09373 18.1973 8.99289 17.9539 8.99289 17.7V16.7429C8.99289 16.489 9.09373 16.2456 9.27323 16.0661C9.45273 15.8866 9.69618 15.7857 9.95004 15.7857H10.9072C11.161 15.7857 11.4045 15.8866 11.584 16.0661C11.7635 16.2456 11.8643 16.489 11.8643 16.7429V17.7ZM11.8643 12.4357C11.8643 12.6896 11.7635 12.933 11.584 13.1125C11.4045 13.292 11.161 13.3929 10.9072 13.3929H9.95004C9.69618 13.3929 9.45273 13.292 9.27323 13.1125C9.09373 12.933 8.99289 12.6896 8.99289 12.4357V11.4786C8.99289 11.2247 9.09373 10.9813 9.27323 10.8018C9.45273 10.6223 9.69618 10.5215 9.95004 10.5215H10.9072C11.161 10.5215 11.4045 10.6223 11.584 10.8018C11.7635 10.9813 11.8643 11.2247 11.8643 11.4786V12.4357ZM17.1286 17.7C17.1286 17.9539 17.0278 18.1973 16.8483 18.3768C16.6688 18.5563 16.4253 18.6572 16.1715 18.6572H15.2143C14.9605 18.6572 14.717 18.5563 14.5375 18.3768C14.358 18.1973 14.2572 17.9539 14.2572 17.7V16.7429C14.2572 16.489 14.358 16.2456 14.5375 16.0661C14.717 15.8866 14.9605 15.7857 15.2143 15.7857H16.1715C16.4253 15.7857 16.6688 15.8866 16.8483 16.0661C17.0278 16.2456 17.1286 16.489 17.1286 16.7429V17.7ZM17.1286 12.4357C17.1286 12.6896 17.0278 12.933 16.8483 13.1125C16.6688 13.292 16.4253 13.3929 16.1715 13.3929H15.2143C14.9605 13.3929 14.717 13.292 14.5375 13.1125C14.358 12.933 14.2572 12.6896 14.2572 12.4357V11.4786C14.2572 11.2247 14.358 10.9813 14.5375 10.8018C14.717 10.6223 14.9605 10.5215 15.2143 10.5215H16.1715C16.4253 10.5215 16.6688 10.6223 16.8483 10.8018C17.0278 10.9813 17.1286 11.2247 17.1286 11.4786V12.4357ZM20 7.17146V4.30003C20 3.79233 19.7984 3.30542 19.4394 2.94642C19.0804 2.58743 18.5934 2.38574 18.0857 2.38574H17.6072V2.86431C17.6072 3.92004 16.7486 4.7786 15.6929 4.7786C14.6372 4.7786 13.7786 3.92004 13.7786 2.86431V2.38574H7.07861V2.86431C7.07861 3.92004 6.22005 4.7786 5.16432 4.7786C4.10859 4.7786 3.25003 3.92004 3.25003 2.86431V2.38574H2.77146C2.26376 2.38574 1.77686 2.58743 1.41786 2.94642C1.05886 3.30542 0.857178 3.79233 0.857178 4.30003V7.17146H20Z" fill="#D02128"/>
</svg>
