<svg width="27" height="27" viewBox="0 0 27 27" fill="none" xmlns="http://www.w3.org/2000/svg">
<path d="M13.5002 10.4112C10.6692 6.24465 4.9502 7.99695 4.9502 13.3407C4.9502 17.2107 8.5052 19.7501 13.191 24.1772C13.2746 24.2561 13.3852 24.3002 13.5002 24.3002C13.6152 24.3002 13.7258 24.2561 13.8093 24.1772C18.6333 19.62 22.0502 17.1603 22.0502 13.3407C22.0502 8.00415 16.3352 6.2415 13.5002 10.4112ZM13.5002 23.2317C9.09605 19.1007 5.8502 16.6653 5.8502 13.3407C5.8502 10.8662 7.39775 9 9.4502 9C11.9216 9 13.0425 11.385 13.0902 11.4899C13.126 11.5685 13.1836 11.6353 13.2563 11.6821C13.3289 11.7289 13.4135 11.7538 13.5 11.7538C13.5864 11.7538 13.671 11.7289 13.7437 11.6821C13.8163 11.6353 13.874 11.5685 13.9097 11.4899C13.9565 11.3886 15.0752 9 17.5502 9C19.6026 9 21.1502 10.8662 21.1502 13.3407C21.1502 16.655 17.97 19.0391 13.5002 23.2317Z" fill="#D02128"/>
<path d="M24.75 1.8H23.85V1.35C23.85 0.991958 23.7078 0.64858 23.4546 0.395406C23.2014 0.142232 22.858 5.68982e-08 22.5 5.68982e-08C22.142 5.68982e-08 21.7986 0.142232 21.5454 0.395406C21.2922 0.64858 21.15 0.991958 21.15 1.35V1.8H19.35V1.35C19.35 0.991958 19.2078 0.64858 18.9546 0.395406C18.7014 0.142232 18.358 0 18 0C17.642 0 17.2986 0.142232 17.0454 0.395406C16.7922 0.64858 16.65 0.991958 16.65 1.35V1.8H14.85V1.35C14.85 0.991958 14.7078 0.64858 14.4546 0.395406C14.2014 0.142232 13.858 0 13.5 0C13.142 0 12.7986 0.142232 12.5454 0.395406C12.2922 0.64858 12.15 0.991958 12.15 1.35V1.8H10.35V1.35C10.35 0.991958 10.2078 0.64858 9.95459 0.395406C9.70142 0.142232 9.35804 0 9 0C8.64196 0 8.29858 0.142232 8.04541 0.395406C7.79223 0.64858 7.65 0.991958 7.65 1.35V1.8H5.85V1.35C5.85 0.991958 5.70777 0.64858 5.45459 0.395406C5.20142 0.142232 4.85804 0 4.5 0C4.14196 0 3.79858 0.142232 3.54541 0.395406C3.29223 0.64858 3.15 0.991958 3.15 1.35V1.8H2.25C1.65348 1.80071 1.0816 2.038 0.659799 2.4598C0.237997 2.8816 0.000714536 3.45348 0 4.05L0 24.75C0.000714536 25.3465 0.237997 25.9184 0.659799 26.3402C1.0816 26.762 1.65348 26.9993 2.25 27H24.75C25.3465 26.9993 25.9184 26.762 26.3402 26.3402C26.762 25.9184 26.9993 25.3465 27 24.75V4.05C26.9993 3.45348 26.762 2.8816 26.3402 2.4598C25.9184 2.038 25.3465 1.80071 24.75 1.8ZM22.05 1.35C22.05 1.23065 22.0974 1.11619 22.1818 1.0318C22.2662 0.947411 22.3807 0.9 22.5 0.9C22.6193 0.9 22.7338 0.947411 22.8182 1.0318C22.9026 1.11619 22.95 1.23065 22.95 1.35V3.15C22.95 3.26935 22.9026 3.38381 22.8182 3.4682C22.7338 3.55259 22.6193 3.6 22.5 3.6C22.3807 3.6 22.2662 3.55259 22.1818 3.4682C22.0974 3.38381 22.05 3.26935 22.05 3.15V1.35ZM17.55 1.35C17.55 1.23065 17.5974 1.11619 17.6818 1.0318C17.7662 0.947411 17.8807 0.9 18 0.9C18.1193 0.9 18.2338 0.947411 18.3182 1.0318C18.4026 1.11619 18.45 1.23065 18.45 1.35V3.15C18.45 3.26935 18.4026 3.38381 18.3182 3.4682C18.2338 3.55259 18.1193 3.6 18 3.6C17.8807 3.6 17.7662 3.55259 17.6818 3.4682C17.5974 3.38381 17.55 3.26935 17.55 3.15V1.35ZM13.05 1.35C13.05 1.23065 13.0974 1.11619 13.1818 1.0318C13.2662 0.947411 13.3807 0.9 13.5 0.9C13.6193 0.9 13.7338 0.947411 13.8182 1.0318C13.9026 1.11619 13.95 1.23065 13.95 1.35V3.15C13.95 3.26935 13.9026 3.38381 13.8182 3.4682C13.7338 3.55259 13.6193 3.6 13.5 3.6C13.3807 3.6 13.2662 3.55259 13.1818 3.4682C13.0974 3.38381 13.05 3.26935 13.05 3.15V1.35ZM8.55 1.35C8.55 1.23065 8.59741 1.11619 8.6818 1.0318C8.76619 0.947411 8.88065 0.9 9 0.9C9.11935 0.9 9.23381 0.947411 9.3182 1.0318C9.40259 1.11619 9.45 1.23065 9.45 1.35V3.15C9.45 3.26935 9.40259 3.38381 9.3182 3.4682C9.23381 3.55259 9.11935 3.6 9 3.6C8.88065 3.6 8.76619 3.55259 8.6818 3.4682C8.59741 3.38381 8.55 3.26935 8.55 3.15V1.35ZM4.05 1.35C4.05 1.23065 4.09741 1.11619 4.1818 1.0318C4.26619 0.947411 4.38065 0.9 4.5 0.9C4.61935 0.9 4.73381 0.947411 4.8182 1.0318C4.90259 1.11619 4.95 1.23065 4.95 1.35V3.15C4.95 3.26935 4.90259 3.38381 4.8182 3.4682C4.73381 3.55259 4.61935 3.6 4.5 3.6C4.38065 3.6 4.26619 3.55259 4.1818 3.4682C4.09741 3.38381 4.05 3.26935 4.05 3.15V1.35ZM2.25 2.7H3.15V3.15C3.15 3.50804 3.29223 3.85142 3.54541 4.10459C3.79858 4.35777 4.14196 4.5 4.5 4.5C4.85804 4.5 5.20142 4.35777 5.45459 4.10459C5.70777 3.85142 5.85 3.50804 5.85 3.15V2.7H7.65V3.15C7.65 3.50804 7.79223 3.85142 8.04541 4.10459C8.29858 4.35777 8.64196 4.5 9 4.5C9.35804 4.5 9.70142 4.35777 9.95459 4.10459C10.2078 3.85142 10.35 3.50804 10.35 3.15V2.7H12.15V3.15C12.15 3.50804 12.2922 3.85142 12.5454 4.10459C12.7986 4.35777 13.142 4.5 13.5 4.5C13.858 4.5 14.2014 4.35777 14.4546 4.10459C14.7078 3.85142 14.85 3.50804 14.85 3.15V2.7H16.65V3.15C16.65 3.50804 16.7922 3.85142 17.0454 4.10459C17.2986 4.35777 17.642 4.5 18 4.5C18.358 4.5 18.7014 4.35777 18.9546 4.10459C19.2078 3.85142 19.35 3.50804 19.35 3.15V2.7H21.15V3.15C21.15 3.50804 21.2922 3.85142 21.5454 4.10459C21.7986 4.35777 22.142 4.5 22.5 4.5C22.858 4.5 23.2014 4.35777 23.4546 4.10459C23.7078 3.85142 23.85 3.50804 23.85 3.15V2.7H24.75C25.108 2.7 25.4514 2.84223 25.7046 3.09541C25.9578 3.34858 26.1 3.69196 26.1 4.05V5.4H0.9V4.05C0.9 3.69196 1.04223 3.34858 1.29541 3.09541C1.54858 2.84223 1.89196 2.7 2.25 2.7ZM24.75 26.1H2.25C1.89196 26.1 1.54858 25.9578 1.29541 25.7046C1.04223 25.4514 0.9 25.108 0.9 24.75V6.3H26.1V24.75C26.1 25.108 25.9578 25.4514 25.7046 25.7046C25.4514 25.9578 25.108 26.1 24.75 26.1Z" fill="#D02128"/>
</svg>
