<svg width="28" height="31" viewBox="0 0 28 31" fill="none" xmlns="http://www.w3.org/2000/svg">
<path fill-rule="evenodd" clip-rule="evenodd" d="M0.494141 2.38521H18.2187V26.826H0.494141V2.38521Z" fill="#EEF5FF"/>
<path fill-rule="evenodd" clip-rule="evenodd" d="M18.2188 1.39447V3.53659H0.494222V1.39447C0.494222 0.665531 1.08495 0.0747986 1.8139 0.0747986H16.8992C17.628 0.0747986 18.2188 0.665531 18.2188 1.39447ZM18.2188 25.6747V28.7259C18.2188 29.4546 17.628 30.0454 16.8991 30.0454H1.81381C1.08487 30.0454 0.494141 29.4546 0.494141 28.7259V25.6746H18.2188V25.6747Z" fill="#045478"/>
<path fill-rule="evenodd" clip-rule="evenodd" d="M11.2551 28.2227H7.45822C7.41061 28.2227 7.36346 28.2133 7.31948 28.1951C7.27549 28.1769 7.23552 28.1501 7.20185 28.1165C7.16819 28.0828 7.14149 28.0428 7.12328 27.9988C7.10506 27.9548 7.09569 27.9077 7.0957 27.8601C7.0957 27.7639 7.1339 27.6717 7.20188 27.6037C7.26987 27.5358 7.36208 27.4976 7.45822 27.4976H11.2551C11.3504 27.499 11.4412 27.5378 11.508 27.6056C11.5748 27.6735 11.6123 27.7649 11.6123 27.8601C11.6123 27.9553 11.5748 28.0468 11.508 28.1146C11.4412 28.1824 11.3504 28.2213 11.2551 28.2227Z" fill="#EEF5FF"/>
<path fill-rule="evenodd" clip-rule="evenodd" d="M2.54492 10.7972H5.07289V13.3251H2.54492V10.7972ZM2.54492 6.0352H5.07289V8.56317H2.54492V6.0352ZM2.54492 15.559H5.07289V18.087H2.54492V15.559Z" fill="#7296A6"/>
<path fill-rule="evenodd" clip-rule="evenodd" d="M5.45557 21.2033H2.9276C2.87953 21.2041 2.8318 21.1952 2.78718 21.1773C2.74256 21.1594 2.70195 21.1328 2.6677 21.0991C2.63345 21.0653 2.60626 21.0251 2.58769 20.9808C2.56913 20.9364 2.55957 20.8888 2.55957 20.8408C2.55957 20.7927 2.56913 20.7451 2.58769 20.7008C2.60626 20.6564 2.63345 20.6162 2.6677 20.5825C2.70195 20.5487 2.74256 20.5221 2.78718 20.5042C2.8318 20.4863 2.87953 20.4775 2.9276 20.4782H5.45557C5.50364 20.4775 5.55137 20.4863 5.59599 20.5042C5.64061 20.5221 5.68122 20.5487 5.71547 20.5825C5.74972 20.6162 5.77691 20.6564 5.79548 20.7008C5.81404 20.7451 5.8236 20.7927 5.8236 20.8408C5.8236 20.8888 5.81404 20.9364 5.79548 20.9808C5.77691 21.0251 5.74972 21.0653 5.71547 21.0991C5.68122 21.1328 5.64061 21.1594 5.59599 21.1773C5.55137 21.1952 5.50364 21.2041 5.45557 21.2033ZM6.92069 23.4228H2.9276C2.87953 23.4235 2.8318 23.4146 2.78718 23.3967C2.74256 23.3788 2.70195 23.3523 2.6677 23.3185C2.63345 23.2848 2.60626 23.2446 2.58769 23.2002C2.56913 23.1559 2.55957 23.1083 2.55957 23.0602C2.55957 23.0121 2.56913 22.9645 2.58769 22.9202C2.60626 22.8758 2.63345 22.8356 2.6677 22.8019C2.70195 22.7682 2.74256 22.7416 2.78718 22.7237C2.8318 22.7058 2.87953 22.6969 2.9276 22.6976H6.92069C6.96876 22.6969 7.01649 22.7058 7.06111 22.7237C7.10573 22.7416 7.14634 22.7682 7.18059 22.8019C7.21484 22.8356 7.24203 22.8758 7.2606 22.9202C7.27916 22.9645 7.28872 23.0121 7.28872 23.0602C7.28872 23.1083 7.27916 23.1559 7.2606 23.2002C7.24203 23.2446 7.21484 23.2848 7.18059 23.3185C7.14634 23.3523 7.10573 23.3788 7.06111 23.3967C7.01649 23.4146 6.96876 23.4235 6.92069 23.4228Z" fill="#F9705A"/>
<path fill-rule="evenodd" clip-rule="evenodd" d="M27.0295 17.0852L20.2129 21.3214C19.1382 21.9888 17.8983 22.3423 16.6332 22.3421L11.5825 22.3411H9.47852V18.9049H11.1695C11.2627 18.7769 11.365 18.6557 11.4755 18.5422C12.5937 17.3946 14.3397 17.3724 15.099 17.3793H19.1283C19.7858 17.3793 20.3214 17.9241 20.2906 18.5811C20.2892 18.6118 20.2865 18.642 20.2827 18.672C20.2796 18.6967 20.2757 18.7213 20.271 18.7457H20.2711L20.3347 18.7058C22.7785 17.1694 24.6633 15.9794 25.8736 15.2256C26.0536 15.1135 26.2623 15.0561 26.4744 15.0604C26.6864 15.0647 26.8926 15.1304 27.0679 15.2497C27.723 15.6952 27.7027 16.6674 27.0295 17.0852Z" fill="#FFC4B0"/>
<path fill-rule="evenodd" clip-rule="evenodd" d="M8.51855 17.3785H11.1697V23.3633H8.51855V17.3785Z" fill="#F95535"/>
<path fill-rule="evenodd" clip-rule="evenodd" d="M19.3302 17.3967C19.549 17.4398 19.7492 17.5495 19.9031 17.7109C20.1023 17.9198 20.1978 18.3098 20.1844 18.5953C20.1821 18.6457 20.1761 18.696 20.1664 18.7455C20.1218 18.9547 20.0138 19.1451 19.8572 19.2907C19.6609 19.4741 19.3993 19.5716 19.1307 19.5716H15.9369C15.9302 19.5716 15.9235 19.5729 15.9173 19.5755C15.9111 19.5781 15.9055 19.5819 15.9007 19.5866C15.896 19.5914 15.8922 19.597 15.8896 19.6032C15.8871 19.6094 15.8857 19.616 15.8857 19.6228C15.8857 19.6295 15.8871 19.6361 15.8896 19.6423C15.8922 19.6485 15.896 19.6542 15.9007 19.6589C15.9055 19.6637 15.9111 19.6674 15.9173 19.67C15.9235 19.6726 15.9302 19.6739 15.9369 19.6739H19.1444C19.7033 19.6739 20.1686 19.2745 20.2708 18.7455C20.2812 18.6912 20.2878 18.6363 20.2905 18.5811C20.3179 17.9929 19.8916 17.4947 19.3302 17.3967Z" fill="#D4A291"/>
<path fill-rule="evenodd" clip-rule="evenodd" d="M16.4848 7.07236C16.4119 7.07236 16.342 7.0434 16.2905 6.99185C16.2389 6.9403 16.21 6.87038 16.21 6.79748V5.46569C16.21 5.39279 16.2389 5.32287 16.2905 5.27132C16.342 5.21977 16.4119 5.19081 16.4848 5.19081C16.5577 5.19081 16.6277 5.21977 16.6792 5.27132C16.7308 5.32287 16.7597 5.39279 16.7597 5.46569V6.79748C16.7597 6.87038 16.7308 6.9403 16.6792 6.99185C16.6277 7.0434 16.5577 7.07236 16.4848 7.07236Z" fill="#045478"/>
<path fill-rule="evenodd" clip-rule="evenodd" d="M9.91895 13.0199C9.91895 9.39358 12.8587 6.45383 16.485 6.45383C20.1114 6.45383 23.0511 9.39358 23.0511 13.0199H9.91895Z" fill="#C1EBFE"/>
<path fill-rule="evenodd" clip-rule="evenodd" d="M23.6105 14.8611H9.36037C8.58907 14.8611 7.96387 14.2358 7.96387 13.4646V12.9398H25.007V13.4646C25.007 14.2359 24.3818 14.8611 23.6105 14.8611Z" fill="#045478"/>
<path fill-rule="evenodd" clip-rule="evenodd" d="M12.3504 10.2169C12.3048 10.2169 12.2605 10.2077 12.2186 10.1895C12.1785 10.1723 12.1423 10.1473 12.112 10.116C12.0817 10.0847 12.0579 10.0477 12.042 10.0071C12.0258 9.9666 12.0179 9.92332 12.0186 9.87975C12.0193 9.83617 12.0287 9.79318 12.0461 9.75325C12.5031 8.69878 13.4297 8.40618 13.469 8.39423C13.5003 8.38465 13.5329 8.37977 13.5656 8.37976C13.6368 8.37948 13.7062 8.40224 13.7634 8.44463C13.8205 8.48702 13.8625 8.54677 13.8829 8.61496C13.9082 8.69888 13.8994 8.78942 13.8583 8.86687C13.8173 8.94432 13.7472 9.0024 13.6635 9.02846C13.6366 9.03699 12.9874 9.24951 12.6547 10.0171C12.6291 10.0765 12.5865 10.127 12.5325 10.1625C12.4784 10.198 12.4151 10.2169 12.3504 10.2169Z" fill="#045478"/>
</svg>
