<svg width="10" height="21" viewBox="0 0 10 21" fill="none" xmlns="http://www.w3.org/2000/svg">
<path d="M4.7853 4.71677H4.87536C4.92534 4.72018 4.97549 4.72018 5.02547 4.71677C6.35799 4.7412 7.42579 5.82327 7.4272 7.15061C7.4577 7.73036 7.93858 8.18485 8.52148 8.18485C9.10439 8.18485 9.58527 7.73036 9.61577 7.15061C9.61336 4.98324 8.09927 3.10856 5.97415 2.64172V1.59523C5.99535 1.19224 5.79154 0.810491 5.44424 0.602655C5.09693 0.394818 4.66281 0.394818 4.3155 0.602655C3.96819 0.810491 3.76438 1.19224 3.78558 1.59523V2.69255C1.54069 3.29396 0.0903006 5.45843 0.394057 7.75384C0.697814 10.0492 2.66176 11.7655 4.98644 11.7671C6.33775 11.7671 7.4332 12.8582 7.4332 14.204C7.4332 15.5498 6.33775 16.6408 4.98644 16.6408C3.63514 16.6408 2.53969 15.5498 2.53969 14.204C2.56089 13.801 2.35708 13.4193 2.00977 13.2114C1.66246 13.0036 1.22834 13.0036 0.881034 13.2114C0.533724 13.4193 0.329915 13.801 0.351116 14.204C0.353951 16.2928 1.763 18.1202 3.78858 18.662V19.858C3.76738 20.261 3.97119 20.6428 4.3185 20.8506C4.66581 21.0584 5.09993 21.0584 5.44724 20.8506C5.79455 20.6428 5.99836 20.261 5.97715 19.858V18.7129C8.28747 18.2071 9.84479 16.0499 9.59051 13.7077C9.33622 11.3655 7.35191 9.58969 4.98644 9.58745C3.66556 9.59951 2.57413 8.564 2.52218 7.24943C2.47022 5.93486 3.47655 4.81711 4.79431 4.72574L4.7853 4.71677Z" fill="white"/>
</svg>
