<svg width="31" height="20" viewBox="0 0 31 20" fill="none" xmlns="http://www.w3.org/2000/svg">
<path fill-rule="evenodd" clip-rule="evenodd" d="M29.229 15.449L29.274 1.574L4.066 1.589V0H30.85V15.45H29.229V15.449ZM28.411 17.89H26.79L26.836 4.016L1.629 4.031V2.44H28.411V17.89ZM0 19.516H26.022V4.874H0V19.516ZM24.394 6.455H1.629V17.89H24.394V6.455ZM22.038 17.08C21.9871 16.9505 21.9594 16.8131 21.956 16.674C21.9459 16.2751 22.1363 15.8977 22.463 15.6687C22.7898 15.4397 23.2095 15.3895 23.581 15.535V8.866C23.4512 8.91697 23.3134 8.94473 23.174 8.948C22.5008 8.948 21.955 8.40224 21.955 7.729C21.9583 7.58958 21.986 7.45181 22.037 7.322H13.01C15.256 7.322 17.077 9.506 17.077 12.201C17.077 14.896 15.256 17.08 13.01 17.08H22.038ZM20.329 10.504C19.655 10.504 19.11 11.231 19.11 12.13C19.11 13.029 19.656 13.756 20.329 13.756C21.002 13.756 21.548 13.029 21.548 12.13C21.548 11.231 21.003 10.504 20.329 10.504ZM14.743 9.36C14.7372 9.32749 14.7271 9.29589 14.713 9.266H14.714C14.6965 9.23479 14.6738 9.20674 14.647 9.183C14.5837 9.13118 14.5134 9.08874 14.438 9.057C14.3218 9.0021 14.2014 8.95662 14.078 8.921C13.9345 8.8774 13.7882 8.84399 13.64 8.821C13.608 8.814 13.577 8.814 13.545 8.814V7.974H12.745V8.822C12.6003 8.84067 12.4573 8.87008 12.317 8.91C12.0629 8.98099 11.8251 9.1009 11.617 9.263C11.4171 9.42304 11.2557 9.62606 11.145 9.857C10.9313 10.3433 10.9119 10.8929 11.091 11.393C11.1667 11.5799 11.2739 11.7524 11.408 11.903C11.5377 12.047 11.6872 12.1719 11.852 12.274C12.0172 12.3745 12.1886 12.4647 12.365 12.544C12.541 12.625 12.712 12.702 12.878 12.775C13.0317 12.8412 13.1802 12.9191 13.322 13.008C13.4437 13.0834 13.5511 13.1799 13.639 13.293C13.7213 13.4038 13.7642 13.539 13.761 13.677C13.763 13.7981 13.7388 13.9182 13.69 14.029C13.6437 14.1323 13.5734 14.2232 13.485 14.294C13.3869 14.369 13.2757 14.425 13.157 14.459C13.015 14.4997 12.8677 14.5193 12.72 14.517C12.4994 14.5206 12.2795 14.4923 12.067 14.433C11.9004 14.3852 11.7381 14.3233 11.582 14.248C11.4678 14.1923 11.3566 14.1305 11.249 14.063C11.1909 14.0178 11.1219 13.9888 11.049 13.979C11.0175 13.9789 10.9867 13.9887 10.961 14.007C10.9319 14.0317 10.9106 14.0643 10.9 14.101C10.8822 14.1575 10.8711 14.2159 10.867 14.275C10.856 14.346 10.856 14.439 10.856 14.539C10.8529 14.6593 10.8623 14.7796 10.884 14.898C10.8967 14.969 10.9293 15.0348 10.978 15.088C11.0433 15.1473 11.1159 15.1981 11.194 15.239C11.3132 15.3048 11.438 15.3597 11.567 15.403C11.7357 15.4594 11.9081 15.5039 12.083 15.536C12.2915 15.5738 12.5031 15.5922 12.715 15.591H12.745V16.374H13.545V15.489C13.5603 15.4854 13.5761 15.4824 13.592 15.4794L13.592 15.4794L13.592 15.4794C13.6154 15.475 13.6389 15.4706 13.661 15.464C13.9411 15.3837 14.2032 15.2502 14.433 15.071C14.6547 14.8953 14.8338 14.6717 14.957 14.417C15.0906 14.1333 15.1566 13.8225 15.15 13.509C15.1552 13.2739 15.1137 13.04 15.028 12.821C14.9515 12.6342 14.8428 12.4623 14.707 12.313C14.5747 12.1688 14.4225 12.0442 14.255 11.943C14.0874 11.8405 13.9142 11.7477 13.736 11.665C13.5593 11.5843 13.3867 11.5073 13.218 11.434C13.0607 11.3674 12.9086 11.2892 12.763 11.2C12.6389 11.1266 12.53 11.0302 12.442 10.916C12.3616 10.8062 12.3198 10.673 12.323 10.537C12.3228 10.4417 12.3411 10.3473 12.377 10.259C12.4119 10.1719 12.4675 10.0947 12.539 10.034C12.619 9.96743 12.7115 9.91746 12.811 9.887C12.9344 9.84921 13.063 9.83132 13.192 9.834C13.3654 9.83218 13.5381 9.85508 13.705 9.902C13.846 9.94205 13.9838 9.99287 14.117 10.054C14.235 10.107 14.335 10.159 14.417 10.207C14.4702 10.2438 14.5311 10.2681 14.595 10.278C14.6275 10.2795 14.6594 10.2684 14.684 10.247C14.7094 10.2188 14.7267 10.1842 14.734 10.147C14.7465 10.0917 14.7549 10.0355 14.759 9.979C14.766 9.912 14.766 9.819 14.766 9.73C14.766 9.68094 14.7642 9.63644 14.7625 9.5965C14.7612 9.56398 14.76 9.53448 14.76 9.508C14.7588 9.45826 14.7531 9.40873 14.743 9.36ZM8.945 12.198C8.945 14.892 10.765 17.077 13.011 17.077H3.984C4.15752 16.6358 4.05287 16.1337 3.71754 15.7986C3.38221 15.4635 2.88006 15.3592 2.439 15.533V8.863C2.56881 8.91397 2.70658 8.94173 2.846 8.945C3.24479 8.95452 3.62186 8.76376 3.85046 8.43685C4.07905 8.10994 4.12881 7.6903 3.983 7.319H13.01C10.764 7.319 8.944 9.503 8.944 12.197L8.945 12.198ZM4.473 12.13C4.473 11.231 5.018 10.504 5.692 10.504C6.365 10.504 6.911 11.231 6.911 12.13C6.911 13.029 6.365 13.756 5.692 13.756C5.019 13.756 4.473 13.029 4.473 12.13Z" fill="#D02128"/>
</svg>
