<svg width="38" height="35" viewBox="0 0 38 35" fill="none" xmlns="http://www.w3.org/2000/svg">
<path d="M10.25 2.875L10.8594 2.57031C11.0519 2.47407 11.2138 2.32613 11.3269 2.14307C11.4401 1.96 11.5 1.74904 11.5 1.53383V0.375H8.64188C8.23957 0.375 7.85375 0.534813 7.56928 0.819282C7.28481 1.10375 7.125 1.48957 7.125 1.89188C7.125 2.12739 7.17983 2.35967 7.28516 2.57031L7.75 3.5H9.625L10.25 2.875Z" fill="#B36F42"/>
<path d="M7.75 4.125H9.625V6H7.75V4.125Z" fill="#FFBFA1"/>
<path d="M10.25 32.25V34.125H15.25V32.875L13.375 31.625L10.25 32.25Z" fill="#6D7EB3"/>
<path d="M9.625 15.375L13.4224 20.2574C13.7947 20.7361 13.9804 21.3337 13.9448 21.9391L13.375 31.625L10.25 32.25V22.875L7.125 18.5L7.67211 23.9713C7.72282 24.4783 7.61738 24.9887 7.36992 25.4341L4.625 30.375L1.5 29.125L4 24.125L2.93203 18.7853C2.81096 18.1799 2.74999 17.5641 2.75 16.9467V15.375H9.625Z" fill="#445496"/>
<path d="M15.875 9.125V13.5L12.125 9.75L9.625 15.375H2.75V9.125C2.75 8.13044 3.14509 7.17661 3.84835 6.47335C4.55161 5.77009 5.50544 5.375 6.5 5.375H11.0898C11.7527 5.37506 12.3883 5.63837 12.857 6.10703L15.875 9.125Z" fill="#ED6445"/>
<path d="M15.25 11.625V16L14 17.6666C13.5943 18.2076 13.375 18.8655 13.375 19.5416V32.25C13.375 32.7473 13.5725 33.2242 13.9242 33.5758C14.2758 33.9275 14.7527 34.125 15.25 34.125H35.25C35.7473 34.125 36.2242 33.9275 36.5758 33.5758C36.9275 33.2242 37.125 32.7473 37.125 32.25V19.5416C37.125 18.8655 36.9057 18.2076 36.5 17.6666L35.25 16V11.625H15.25Z" fill="#96CFFA"/>
<path d="M28.375 34.125V17.875C28.375 17.1846 26.9759 16.625 25.25 16.625C23.5241 16.625 22.125 17.1846 22.125 17.875V34.125H28.375Z" fill="#F7C04A"/>
<path d="M35.25 9.125H15.25C14.5596 9.125 14 9.68464 14 10.375C14 11.0654 14.5596 11.625 15.25 11.625H35.25C35.9404 11.625 36.5 11.0654 36.5 10.375C36.5 9.68464 35.9404 9.125 35.25 9.125Z" fill="#C4E9FF"/>
<path d="M17.75 6.625H32.75V9.125H17.75V6.625Z" fill="#C99065"/>
<path d="M17.75 11.625H32.75V14.125H17.75V11.625Z" fill="#B36F42"/>
<path d="M4.00451 10.3753C4.06861 10.324 4.1422 10.2858 4.22106 10.2629C4.29992 10.2401 4.38251 10.233 4.46412 10.242C4.54573 10.2511 4.62476 10.2761 4.69669 10.3157C4.76862 10.3553 4.83204 10.4087 4.88334 10.4728L5.18959 10.8555C5.24089 10.9196 5.27906 10.9931 5.30193 11.072C5.32479 11.1509 5.3319 11.2334 5.32284 11.315C5.31379 11.3966 5.28875 11.4757 5.24916 11.5476C5.20957 11.6195 5.15619 11.6829 5.09209 11.7342C5.02799 11.7855 4.95441 11.8237 4.87556 11.8466C4.7967 11.8694 4.71412 11.8765 4.63252 11.8675C4.55092 11.8584 4.4719 11.8334 4.39998 11.7938C4.32805 11.7542 4.26463 11.7008 4.21334 11.6367L3.90709 11.2541C3.85579 11.19 3.81762 11.1164 3.79475 11.0375C3.77189 10.9587 3.76478 10.8761 3.77383 10.7945C3.78289 10.7129 3.80792 10.6339 3.84752 10.562C3.88711 10.49 3.94041 10.4266 4.00451 10.3753ZM5.25428 7.8743C5.31838 7.823 5.39195 7.78482 5.47081 7.76196C5.54966 7.7391 5.63224 7.73199 5.71385 7.74104C5.79545 7.7501 5.87446 7.77513 5.94639 7.81473C6.01831 7.85432 6.08173 7.90769 6.13303 7.9718L7.30928 9.44164C7.36058 9.50574 7.39875 9.57932 7.42161 9.65817C7.44448 9.73703 7.45159 9.81961 7.44253 9.90121C7.43348 9.98281 7.40844 10.0618 7.36885 10.1338C7.32925 10.2057 7.27588 10.2691 7.21178 10.3204C7.14768 10.3717 7.0741 10.4099 6.99525 10.4327C6.91639 10.4556 6.83381 10.4627 6.75221 10.4536C6.67061 10.4446 6.59159 10.4196 6.51967 10.38C6.44774 10.3404 6.38432 10.287 6.33303 10.2229L5.15678 8.75313C5.10546 8.68902 5.06728 8.61544 5.04441 8.53658C5.02154 8.45772 5.01443 8.37512 5.02348 8.29351C5.03253 8.2119 5.05758 8.13288 5.09718 8.06095C5.13678 7.98902 5.19016 7.92559 5.25428 7.8743Z" fill="#DE402F"/>
<path d="M5.08643 11.7341L7.2065 10.3206L7.74994 11H13.3749L14.5181 10.4284C14.5884 10.3932 14.6658 10.375 14.7443 10.375C14.8107 10.375 14.8765 10.3881 14.9378 10.4135C14.9992 10.4389 15.0549 10.4761 15.1018 10.5231C15.1488 10.57 15.186 10.6258 15.2115 10.6871C15.2369 10.7485 15.2499 10.8142 15.2499 10.8806V11.625L16.3705 12.7455C16.4534 12.8284 16.4999 12.9408 16.4999 13.058C16.4999 13.1753 16.4534 13.2877 16.3705 13.3705C16.2876 13.4534 16.1752 13.5 16.058 13.5H7.7015C7.32657 13.5 6.95645 13.4157 6.61852 13.2532C6.2806 13.0908 5.98353 12.8545 5.74932 12.5617L5.08643 11.7341Z" fill="#FFCEB6"/>
<path d="M9.625 7.875L10.25 6.625L9 6L7.75 6.625L8.375 7.875H9.625Z" fill="#F5A431"/>
<path d="M8.375 7.875L7.75 11H10.25L9.625 7.875H8.375Z" fill="#F7C04A"/>
<path d="M25.2499 22.875C24.3547 22.8753 23.4654 22.731 22.6163 22.4477L22.5202 22.4156C22.4423 22.3897 22.3703 22.3486 22.3083 22.2949C22.2463 22.2411 22.1955 22.1756 22.1588 22.1022C22.122 22.0288 22.1002 21.9488 22.0943 21.867C22.0885 21.7851 22.0989 21.7029 22.1249 21.625C22.1508 21.5471 22.1918 21.4751 22.2456 21.4131C22.2994 21.3511 22.3649 21.3003 22.4383 21.2636C22.5117 21.2269 22.5916 21.205 22.6735 21.1992C22.7554 21.1934 22.8376 21.2037 22.9155 21.2297L23.0117 21.2618C24.4645 21.7461 26.0352 21.7461 27.4881 21.2618L27.5843 21.2298C27.7416 21.1774 27.9132 21.1895 28.0614 21.2637C28.2097 21.3378 28.3224 21.4678 28.3749 21.625C28.4008 21.7029 28.4112 21.7851 28.4054 21.867C28.3996 21.9488 28.3777 22.0288 28.341 22.1022C28.3043 22.1756 28.2534 22.2411 28.1914 22.2949C28.1294 22.3486 28.0574 22.3897 27.9795 22.4156L27.8834 22.4477C27.0343 22.731 26.145 22.8753 25.2499 22.875ZM25.2499 26C24.3547 26.0003 23.4654 25.856 22.6163 25.5727L22.5202 25.5406C22.4423 25.5147 22.3703 25.4736 22.3083 25.4199C22.2463 25.3661 22.1955 25.3006 22.1588 25.2272C22.122 25.1538 22.1002 25.0738 22.0943 24.992C22.0885 24.9101 22.0989 24.8279 22.1249 24.75C22.1508 24.6721 22.1918 24.6001 22.2456 24.5381C22.2994 24.4761 22.3649 24.4253 22.4383 24.3886C22.5117 24.3519 22.5916 24.33 22.6735 24.3242C22.7554 24.3184 22.8376 24.3287 22.9155 24.3547L23.0117 24.3868C24.4645 24.8711 26.0352 24.8711 27.4881 24.3868L27.5843 24.3548C27.7416 24.3024 27.9132 24.3145 28.0614 24.3887C28.2097 24.4628 28.3224 24.5928 28.3749 24.75C28.4008 24.8279 28.4112 24.9101 28.4054 24.992C28.3996 25.0738 28.3777 25.1538 28.341 25.2272C28.3043 25.3006 28.2534 25.3661 28.1914 25.4199C28.1294 25.4736 28.0574 25.5147 27.9795 25.5406L27.8834 25.5727C27.0343 25.856 26.145 26.0003 25.2499 26ZM25.2499 29.125C24.3547 29.1253 23.4654 28.981 22.6163 28.6977L22.5202 28.6656C22.4423 28.6397 22.3703 28.5986 22.3083 28.5449C22.2463 28.4911 22.1955 28.4256 22.1588 28.3522C22.122 28.2788 22.1002 28.1988 22.0943 28.117C22.0885 28.0351 22.0989 27.9529 22.1249 27.875C22.1508 27.7971 22.1918 27.7251 22.2456 27.6631C22.2994 27.6011 22.3649 27.5503 22.4383 27.5136C22.5117 27.4769 22.5916 27.455 22.6735 27.4492C22.7554 27.4434 22.8376 27.4537 22.9155 27.4797L23.0117 27.5118C24.4645 27.9961 26.0352 27.9961 27.4881 27.5118L27.5843 27.4798C27.7416 27.4274 27.9132 27.4395 28.0614 27.5137C28.2097 27.5878 28.3224 27.7178 28.3749 27.875C28.4008 27.9529 28.4112 28.0351 28.4054 28.117C28.3996 28.1988 28.3777 28.2788 28.341 28.3522C28.3043 28.4256 28.2534 28.4911 28.1914 28.5449C28.1294 28.5986 28.0574 28.6397 27.9795 28.6656L27.8834 28.6977C27.0343 28.981 26.145 29.1253 25.2499 29.125ZM25.2499 32.25C24.3547 32.2503 23.4654 32.106 22.6163 31.8227L22.5202 31.7906C22.4423 31.7647 22.3703 31.7236 22.3083 31.6699C22.2463 31.6161 22.1955 31.5506 22.1588 31.4772C22.122 31.4038 22.1002 31.3238 22.0943 31.242C22.0885 31.1601 22.0989 31.0779 22.1249 31C22.1508 30.9221 22.1918 30.8501 22.2456 30.7881C22.2994 30.7261 22.3649 30.6753 22.4383 30.6386C22.5117 30.6019 22.5916 30.58 22.6735 30.5742C22.7554 30.5684 22.8376 30.5787 22.9155 30.6047L23.0117 30.6368C24.4645 31.1211 26.0352 31.1211 27.4881 30.6368L27.5843 30.6048C27.7416 30.5524 27.9132 30.5645 28.0614 30.6387C28.2097 30.7128 28.3224 30.8428 28.3749 31C28.4008 31.0779 28.4112 31.1601 28.4054 31.242C28.3996 31.3238 28.3777 31.4038 28.341 31.4772C28.3043 31.5506 28.2534 31.6161 28.1914 31.6699C28.1294 31.7236 28.0574 31.7647 27.9795 31.7906L27.8834 31.8227C27.0343 32.106 26.145 32.2503 25.2499 32.25Z" fill="#F5A431"/>
<path d="M25.25 19.125C26.9759 19.125 28.375 18.5654 28.375 17.875C28.375 17.1846 26.9759 16.625 25.25 16.625C23.5241 16.625 22.125 17.1846 22.125 17.875C22.125 18.5654 23.5241 19.125 25.25 19.125Z" fill="#F7D179"/>
<path d="M22.1572 34.125V21C22.1572 20.3096 20.7581 19.75 19.0322 19.75C17.3064 19.75 15.9072 20.3096 15.9072 21V34.125H22.1572Z" fill="#F5A431"/>
<path d="M19.0322 26C18.137 26.0003 17.2478 25.856 16.3986 25.5727L16.3024 25.5406C16.2245 25.5147 16.1525 25.4736 16.0905 25.4199C16.0285 25.3661 15.9777 25.3006 15.941 25.2272C15.9043 25.1538 15.8824 25.0738 15.8766 24.992C15.8708 24.9101 15.8811 24.8279 15.9071 24.75C15.933 24.6721 15.9741 24.6001 16.0279 24.5381C16.0816 24.4761 16.1471 24.4253 16.2205 24.3886C16.2939 24.3519 16.3739 24.33 16.4557 24.3242C16.5376 24.3184 16.6198 24.3287 16.6977 24.3547L16.794 24.3868C18.2468 24.8711 19.8175 24.8711 21.2704 24.3868L21.3666 24.3548C21.5239 24.3024 21.6955 24.3145 21.8437 24.3887C21.992 24.4628 22.1047 24.5928 22.1572 24.75C22.1831 24.8279 22.1935 24.9101 22.1877 24.992C22.1819 25.0738 22.16 25.1538 22.1233 25.2272C22.0866 25.3006 22.0357 25.3661 21.9737 25.4199C21.9117 25.4736 21.8397 25.5147 21.7619 25.5406L21.6656 25.5727C20.8165 25.856 19.9273 26.0003 19.0322 26ZM19.0322 29.125C18.137 29.1253 17.2478 28.981 16.3986 28.6977L16.3024 28.6656C16.2245 28.6397 16.1525 28.5986 16.0905 28.5449C16.0285 28.4911 15.9777 28.4256 15.941 28.3522C15.9043 28.2788 15.8824 28.1988 15.8766 28.117C15.8708 28.0351 15.8811 27.9529 15.9071 27.875C15.933 27.7971 15.9741 27.7251 16.0279 27.6631C16.0816 27.6011 16.1471 27.5503 16.2205 27.5136C16.2939 27.4769 16.3739 27.455 16.4557 27.4492C16.5376 27.4434 16.6198 27.4537 16.6977 27.4797L16.794 27.5118C18.2468 27.9961 19.8175 27.9961 21.2704 27.5118L21.3666 27.4798C21.5239 27.4274 21.6955 27.4395 21.8437 27.5137C21.992 27.5878 22.1047 27.7178 22.1572 27.875C22.1831 27.9529 22.1935 28.0351 22.1877 28.117C22.1819 28.1988 22.16 28.2788 22.1233 28.3522C22.0866 28.4256 22.0357 28.4911 21.9737 28.5449C21.9117 28.5986 21.8397 28.6397 21.7619 28.6656L21.6656 28.6977C20.8165 28.981 19.9273 29.1253 19.0322 29.125ZM19.0322 32.25C18.137 32.2503 17.2478 32.106 16.3986 31.8227L16.3024 31.7906C16.2245 31.7647 16.1525 31.7236 16.0905 31.6699C16.0285 31.6161 15.9777 31.5506 15.941 31.4772C15.9043 31.4038 15.8824 31.3238 15.8766 31.242C15.8708 31.1601 15.8811 31.0779 15.9071 31C15.933 30.9221 15.9741 30.8501 16.0279 30.7881C16.0816 30.7261 16.1471 30.6753 16.2205 30.6386C16.2939 30.6019 16.3739 30.58 16.4557 30.5742C16.5376 30.5684 16.6198 30.5787 16.6977 30.6047L16.794 30.6368C18.2468 31.1211 19.8175 31.1211 21.2704 30.6368L21.3666 30.6048C21.5239 30.5524 21.6955 30.5645 21.8437 30.6387C21.992 30.7128 22.1047 30.8428 22.1572 31C22.1831 31.0779 22.1935 31.1601 22.1877 31.242C22.1819 31.3238 22.16 31.4038 22.1233 31.4772C22.0866 31.5506 22.0357 31.6161 21.9737 31.6699C21.9117 31.7236 21.8397 31.7647 21.7619 31.7906L21.6656 31.8227C20.8165 32.106 19.9273 32.2503 19.0322 32.25Z" fill="#EB8117"/>
<path d="M19.0322 22.25C20.7581 22.25 22.1572 21.6904 22.1572 21C22.1572 20.3096 20.7581 19.75 19.0322 19.75C17.3063 19.75 15.9072 20.3096 15.9072 21C15.9072 21.6904 17.3063 22.25 19.0322 22.25Z" fill="#F7C04A"/>
<path d="M34.5928 34.125V27.25C34.5928 26.5596 33.1937 26 31.4678 26C29.7418 26 28.3428 26.5596 28.3428 27.25V34.125H34.5928Z" fill="#F5A431"/>
<path d="M31.4676 32.25C30.5725 32.2503 29.6833 32.106 28.8342 31.8227L28.7379 31.7906C28.6601 31.7647 28.5881 31.7236 28.5261 31.6699C28.4641 31.6161 28.4132 31.5506 28.3765 31.4772C28.3398 31.4038 28.3179 31.3238 28.3121 31.242C28.3063 31.1601 28.3167 31.0779 28.3426 31C28.3686 30.9221 28.4096 30.8501 28.4634 30.7881C28.5172 30.7261 28.5826 30.6753 28.6561 30.6386C28.7295 30.6019 28.8094 30.58 28.8913 30.5742C28.9732 30.5684 29.0554 30.5787 29.1333 30.6047L29.2294 30.6368C30.6823 31.1211 32.253 31.1211 33.7058 30.6368L33.8021 30.6048C33.88 30.5788 33.9622 30.5684 34.044 30.5742C34.1259 30.58 34.2058 30.6019 34.2793 30.6386C34.3527 30.6753 34.4181 30.7261 34.4719 30.7881C34.5257 30.8501 34.5668 30.9221 34.5927 31C34.6187 31.0779 34.629 31.1601 34.6232 31.242C34.6174 31.3238 34.5955 31.4038 34.5588 31.4772C34.5221 31.5506 34.4713 31.6161 34.4093 31.6699C34.3473 31.7236 34.2753 31.7647 34.1974 31.7906L34.1011 31.8227C33.252 32.106 32.3628 32.2503 31.4676 32.25Z" fill="#EB8117"/>
<path d="M31.4678 28.5C33.1937 28.5 34.5928 27.9404 34.5928 27.25C34.5928 26.5596 33.1937 26 31.4678 26C29.7419 26 28.3428 26.5596 28.3428 27.25C28.3428 27.9404 29.7419 28.5 31.4678 28.5Z" fill="#F7C04A"/>
<path d="M1.5 29.125L0.875 30.375L4.625 34.125L5.25 33.5L4.625 30.375L1.5 29.125Z" fill="#6D7EB3"/>
<path d="M11.5 7.25C11.4508 7.31566 11.3891 7.37098 11.3184 7.4128C11.2478 7.45461 11.1696 7.48211 11.0884 7.49372C11.0071 7.50533 10.9244 7.50082 10.8449 7.48045C10.7654 7.46008 10.6907 7.42425 10.625 7.375L9 6.15625L7.375 7.375C7.30934 7.42425 7.23462 7.46008 7.15512 7.48045C7.07561 7.50082 6.99287 7.50533 6.91161 7.49372C6.74752 7.47028 6.59946 7.38261 6.5 7.25C6.40055 7.11739 6.35784 6.95071 6.38128 6.78661C6.40473 6.62252 6.49239 6.47446 6.625 6.375L7.9586 5.375H10.0414L11.375 6.375C11.5075 6.47453 11.5951 6.62258 11.6185 6.78664C11.642 6.9507 11.5993 7.11735 11.5 7.25Z" fill="#DE402F"/>
<path d="M7.75 2.875L8.375 2.25C8.54077 2.58151 8.83143 2.8336 9.18306 2.95081C9.53469 3.06802 9.91848 3.04075 10.25 2.875V4.125C10.25 4.45652 10.1183 4.77446 9.88388 5.00888C9.64946 5.2433 9.33152 5.375 9 5.375C8.66848 5.375 8.35054 5.2433 8.11612 5.00888C7.8817 4.77446 7.75 4.45652 7.75 4.125V2.875Z" fill="#FFCEB6"/>
</svg>
