<svg width="22" height="34" viewBox="0 0 22 34" fill="none" xmlns="http://www.w3.org/2000/svg">
<path fill-rule="evenodd" clip-rule="evenodd" d="M12.273 14.105H20.263V14.109C20.6403 14.1117 20.9815 14.3338 21.1367 14.6777C21.2919 15.0216 21.2327 15.4244 20.985 15.709L5.54702 33.141C5.23318 33.4949 4.70909 33.5692 4.3093 33.3164C3.9095 33.0636 3.75187 32.5583 3.93702 32.123L9.15302 19.894H0.96502C0.655019 19.8941 0.363871 19.7452 0.182433 19.4938C0.000995634 19.2425 -0.0486385 18.9192 0.0490199 18.625L5.83802 1.19301C5.96903 0.798325 6.33815 0.531957 6.75402 0.532014H18.333C18.6769 0.531611 18.9949 0.714183 19.168 1.01128C19.3411 1.30838 19.343 1.67513 19.173 1.97401L12.273 14.105ZM11.5 19.308L8.04602 27.41L18.12 16.035H10.614C10.2706 16.0345 9.95334 15.8516 9.78065 15.5548C9.60795 15.258 9.60581 14.8918 9.77502 14.593L16.675 2.46202H7.45102L2.30002 17.964H10.612C10.9361 17.9643 11.2384 18.1271 11.417 18.3975C11.5957 18.6679 11.6268 19.0098 11.5 19.308Z" fill="#D02128"/>
</svg>
