<svg width="48" height="48" viewBox="0 0 48 48" fill="none" xmlns="http://www.w3.org/2000/svg">
<path fill-rule="evenodd" clip-rule="evenodd" d="M24.0002 6.49609C18.3769 6.49609 13.8184 11.0546 13.8184 16.6779V17.7142C12.7865 17.8874 12.0002 18.7848 12.0002 19.8659V22.3594C12.0002 23.4624 12.8186 24.3742 13.8813 24.5207C14.2787 28.0914 16.5226 31.1047 19.6365 32.5839V35.9311C11.9353 36.3456 5.81836 42.7215 5.81836 50.5262H42.182C42.182 42.7215 36.065 36.3456 28.3638 35.9311V32.5839C31.4777 31.1047 33.7217 28.0914 34.119 24.5207C35.1817 24.3742 36.0002 23.4624 36.0002 22.3594V19.8659C36.0002 18.7848 35.2139 17.8874 34.182 17.7142V16.6779C34.182 11.0546 29.6234 6.49609 24.0002 6.49609Z" fill="#D0C6AC"/>
<mask id="mask0_2061_2787" style="mask-type:luminance" maskUnits="userSpaceOnUse" x="5" y="6" width="38" height="45">
<path fill-rule="evenodd" clip-rule="evenodd" d="M24.0002 6.49609C18.3769 6.49609 13.8184 11.0546 13.8184 16.6779V17.7142C12.7865 17.8874 12.0002 18.7848 12.0002 19.8659V22.3594C12.0002 23.4624 12.8186 24.3742 13.8813 24.5207C14.2787 28.0914 16.5226 31.1047 19.6365 32.5839V35.9311C11.9353 36.3456 5.81836 42.7215 5.81836 50.5262H42.182C42.182 42.7215 36.065 36.3456 28.3638 35.9311V32.5839C31.4777 31.1047 33.7217 28.0914 34.119 24.5207C35.1817 24.3742 36.0002 23.4624 36.0002 22.3594V19.8659C36.0002 18.7848 35.2139 17.8874 34.182 17.7142V16.6779C34.182 11.0546 29.6234 6.49609 24.0002 6.49609Z" fill="white"/>
</mask>
<g mask="url(#mask0_2061_2787)">
<rect width="48" height="44.0301" transform="translate(0 6.49609)" fill="#FFCCD7"/>
<rect y="6.49609" width="48" height="44.0301" fill="#FFCCD7"/>
<path fill-rule="evenodd" clip-rule="evenodd" d="M13.8184 23.3818V24.8254C13.8184 30.4487 18.3769 35.0073 24.0002 35.0073C29.6234 35.0073 34.182 30.4487 34.182 24.8254V23.3818C34.182 29.0051 29.6234 33.5637 24.0002 33.5637C18.3769 33.5637 13.8184 29.0051 13.8184 23.3818Z" fill="black" fill-opacity="0.1"/>
</g>
<path fill-rule="evenodd" clip-rule="evenodd" d="M24.0911 42.5552C29.0616 42.5552 33.0911 40.1735 33.0911 37.2355C33.0911 37.1541 33.088 37.0732 33.0819 36.9927C38.4195 39.1669 42.182 44.4072 42.182 50.5262H5.81836C5.81836 44.3354 9.66958 39.0441 15.1069 36.9175C15.0964 37.0227 15.0911 37.1287 15.0911 37.2355C15.0911 40.1735 19.1205 42.5552 24.0911 42.5552Z" fill="#6223A9"/>
<mask id="mask1_2061_2787" style="mask-type:luminance" maskUnits="userSpaceOnUse" x="5" y="36" width="38" height="15">
<path fill-rule="evenodd" clip-rule="evenodd" d="M24.0911 42.5552C29.0616 42.5552 33.0911 40.1735 33.0911 37.2355C33.0911 37.1541 33.088 37.0732 33.0819 36.9927C38.4195 39.1669 42.182 44.4072 42.182 50.5262H5.81836C5.81836 44.3354 9.66958 39.0441 15.1069 36.9175C15.0964 37.0227 15.0911 37.1287 15.0911 37.2355C15.0911 40.1735 19.1205 42.5552 24.0911 42.5552Z" fill="white"/>
</mask>
<g mask="url(#mask1_2061_2787)">
<rect y="30.6768" width="48" height="19.8496" fill="#6223A9"/>
</g>
<path fill-rule="evenodd" clip-rule="evenodd" d="M21.4551 26.8867C21.4551 28.282 22.5947 29.413 24.0005 29.413C25.4063 29.413 26.546 28.282 26.546 26.8867" fill="#0C092A"/>
<g opacity="0.3">
<path fill-rule="evenodd" clip-rule="evenodd" d="M21.8184 23.459C21.8184 24.2563 22.7952 24.9026 24.0002 24.9026C25.2052 24.9026 26.182 24.2563 26.182 23.459" fill="#0C092A"/>
</g>
<ellipse cx="19.273" cy="20.2101" rx="1.09091" ry="1.08271" fill="#0C092A"/>
<ellipse cx="28.7276" cy="20.2101" rx="1.09091" ry="1.08271" fill="#0C092A"/>
<path d="M16.6601 17.893C17.3719 16.899 19.3233 16.3415 21.0042 16.7512C21.1993 16.7988 21.3962 16.6804 21.4441 16.4868C21.492 16.2932 21.3727 16.0978 21.1777 16.0503C19.2255 15.5745 16.9659 16.2199 16.0673 17.4749C15.9509 17.6374 15.9893 17.8627 16.153 17.9781C16.3167 18.0936 16.5437 18.0555 16.6601 17.893Z" fill="#0C092A"/>
<path d="M31.3399 17.893C30.6281 16.899 28.6767 16.3415 26.9958 16.7512C26.8008 16.7988 26.6038 16.6804 26.5559 16.4868C26.508 16.2932 26.6273 16.0978 26.8223 16.0503C28.7745 15.5745 31.0341 16.2199 31.9327 17.4749C32.0491 17.6374 32.0107 17.8627 31.847 17.9781C31.6833 18.0936 31.4563 18.0555 31.3399 17.893Z" fill="#0C092A"/>
<mask id="mask2_2061_2787" style="mask-type:luminance" maskUnits="userSpaceOnUse" x="0" y="0" width="48" height="51">
<rect width="48" height="50.5263" fill="white"/>
</mask>
<g mask="url(#mask2_2061_2787)">
<path fill-rule="evenodd" clip-rule="evenodd" d="M7.09112 26.1656C6.97892 20.6012 12.24 8.98577 14.182 6.6769C15.6226 4.9642 19.5812 3.52814 24.0002 3.60923C28.4193 3.69032 32.5206 4.65804 34.0002 6.49645C36.241 9.28038 40.8854 19.864 40.9093 26.1656C40.9263 30.6408 39.1752 35.1268 36.7275 35.3686C35.3455 35.5052 33.5899 35.3279 31.4805 35.115L31.4803 35.115L31.4802 35.1149L31.48 35.1149L31.4798 35.1149C30.5146 35.0175 29.4753 34.9125 28.3638 34.8268V32.5843C31.8037 30.9502 34.182 27.444 34.182 23.3823V18.3275C32.2714 17.2828 30.6449 16.0216 29.2898 14.7401C29.8999 15.8661 30.5977 16.8886 31.3845 17.6615C25.824 16.1131 21.9801 12.9422 19.6765 10.4561C18.6175 12.4554 16.7208 15.3792 13.8184 17.6064V23.3823C13.8184 27.444 16.1966 30.9502 19.6365 32.5843V34.9618C18.3724 35.1336 17.1974 35.3516 16.1162 35.5521C14.1437 35.918 12.483 36.2261 11.161 36.0905C8.57506 35.8253 7.18135 30.64 7.09112 26.1656Z" fill="#E6E6E6"/>
<mask id="mask3_2061_2787" style="mask-type:luminance" maskUnits="userSpaceOnUse" x="7" y="3" width="34" height="34">
<path fill-rule="evenodd" clip-rule="evenodd" d="M7.09112 26.1656C6.97892 20.6012 12.24 8.98577 14.182 6.6769C15.6226 4.9642 19.5812 3.52814 24.0002 3.60923C28.4193 3.69032 32.5206 4.65804 34.0002 6.49645C36.241 9.28038 40.8854 19.864 40.9093 26.1656C40.9263 30.6408 39.1752 35.1268 36.7275 35.3686C35.3455 35.5052 33.5899 35.3279 31.4805 35.115L31.4803 35.115L31.4802 35.1149L31.48 35.1149L31.4798 35.1149C30.5146 35.0175 29.4753 34.9125 28.3638 34.8268V32.5843C31.8037 30.9502 34.182 27.444 34.182 23.3823V18.3275C32.2714 17.2828 30.6449 16.0216 29.2898 14.7401C29.8999 15.8661 30.5977 16.8886 31.3845 17.6615C25.824 16.1131 21.9801 12.9422 19.6765 10.4561C18.6175 12.4554 16.7208 15.3792 13.8184 17.6064V23.3823C13.8184 27.444 16.1966 30.9502 19.6365 32.5843V34.9618C18.3724 35.1336 17.1974 35.3516 16.1162 35.5521C14.1437 35.918 12.483 36.2261 11.161 36.0905C8.57506 35.8253 7.18135 30.64 7.09112 26.1656Z" fill="white"/>
</mask>
<g mask="url(#mask3_2061_2787)">
<rect x="-0.181641" width="48.3636" height="50.5263" fill="#0C092A"/>
</g>
</g>
</svg>
