<svg width="28" height="22" viewBox="0 0 28 22" fill="none" xmlns="http://www.w3.org/2000/svg">
<path fill-rule="evenodd" clip-rule="evenodd" d="M23.7244 7.3159L27.7914 10.6661L27.7848 10.665C27.9052 10.763 27.9816 10.9048 27.9971 11.0592C28.0126 11.2136 27.966 11.3678 27.8675 11.4877L26.628 12.9952C26.5295 13.1146 26.3875 13.1899 26.2334 13.2046C26.0793 13.2193 25.9257 13.1721 25.8064 13.0735L14.3728 3.65688C14.1559 3.48204 13.8464 3.48204 13.6295 3.65688L2.19481 13.0746C2.07537 13.1731 1.92167 13.2201 1.76757 13.2052C1.61348 13.1903 1.47162 13.1148 1.37324 12.9952L0.13372 11.4877C0.0351043 11.3684 -0.0120521 11.2148 0.00263304 11.0607C0.0173182 10.9066 0.0926408 10.7647 0.212017 10.6661L12.5168 0.5316C13.3782 -0.1772 14.6208 -0.1772 15.4822 0.5316L19.8349 4.11232V0.583431C19.8349 0.261245 20.0961 6.08148e-05 20.4182 6.08148e-05H23.141C23.4632 6.08148e-05 23.7244 0.261245 23.7244 0.583431V7.3159ZM4.66758 13.0304L13.631 5.64842C13.8479 5.47358 14.1573 5.47358 14.3742 5.64842L23.3354 13.0249V20.998C23.3354 21.4274 22.9873 21.7755 22.558 21.7755L17.1091 21.7611C16.9024 21.7611 16.7041 21.6788 16.5582 21.5322C16.4123 21.3857 16.3308 21.1871 16.3317 20.9804V16.331C16.3317 15.9017 15.9836 15.5536 15.5542 15.5536H12.4433C12.0139 15.5536 11.6658 15.9017 11.6658 16.331V20.9837C11.6658 21.4109 11.3211 21.7581 10.8939 21.7611L5.44614 21.7755C5.23975 21.7758 5.04172 21.694 4.89568 21.5481C4.74964 21.4023 4.66758 21.2044 4.66758 20.998V13.0304Z" fill="white"/>
</svg>
