<svg width="21" height="20" viewBox="0 0 21 20" fill="none" xmlns="http://www.w3.org/2000/svg">
<mask id="path-1-inside-1_351_2716" fill="white">
<path fill-rule="evenodd" clip-rule="evenodd" d="M0 8.8C0 3.94 4.70077 0 10.5 0C16.2992 0 21 3.94 21 8.8C21 13.66 16.2992 17.6 10.5 17.6C9.71492 17.6 8.95085 17.5272 8.21585 17.3888C7.71427 17.2952 7.20542 17.4696 6.84035 17.8224C5.68212 18.9408 4.0005 20 2.01923 20C1.79619 20 1.61538 19.8209 1.61538 19.6C1.61538 19.425 1.72882 19.2763 1.88683 19.222C3.59105 18.4381 3.7831 16.7445 3.72508 15.5176C1.449 13.9032 0 11.4944 0 8.8Z"/>
</mask>
<path d="M8.21585 17.3888L8.40089 16.4061L8.39929 16.4058L8.21585 17.3888ZM6.84035 17.8224L7.53498 18.5418L7.53526 18.5415L6.84035 17.8224ZM1.88683 19.222L2.21176 20.1677L2.25918 20.1514L2.30473 20.1305L1.88683 19.222ZM3.72508 15.5176L4.72396 15.4704L4.70095 14.9838L4.30361 14.7019L3.72508 15.5176ZM10.5 -1C4.32118 -1 -1 3.22956 -1 8.8H1C1 4.65044 5.08036 1 10.5 1V-1ZM22 8.8C22 3.22956 16.6788 -1 10.5 -1V1C15.9196 1 20 4.65044 20 8.8H22ZM10.5 18.6C16.6788 18.6 22 14.3704 22 8.8H20C20 12.9496 15.9196 16.6 10.5 16.6V18.6ZM8.0308 18.3715C8.82702 18.5215 9.65305 18.6 10.5 18.6V16.6C9.7768 16.6 9.07467 16.5329 8.40089 16.4061L8.0308 18.3715ZM7.53526 18.5415C7.68976 18.3922 7.87829 18.3431 8.0324 18.3718L8.39929 16.4058C7.55025 16.2473 6.72108 16.547 6.14543 17.1033L7.53526 18.5415ZM2.01923 21C4.36078 21 6.27859 19.755 7.53498 18.5418L6.14572 17.103C5.08565 18.1266 3.64022 19 2.01923 19V21ZM2.01923 19C2.33943 19 2.61538 19.2596 2.61538 19.6H0.615385C0.615385 20.3822 1.25295 21 2.01923 21V19ZM2.61538 19.6C2.61538 19.8701 2.44031 20.0892 2.21176 20.1677L1.56191 18.2763C1.01734 18.4633 0.615385 18.9799 0.615385 19.6H2.61538ZM2.72619 15.5648C2.781 16.7236 2.56946 17.8073 1.46894 18.3135L2.30473 20.1305C4.61264 19.0689 4.78521 16.7654 4.72396 15.4704L2.72619 15.5648ZM-1 8.8C-1 11.8746 0.655387 14.5663 3.14654 16.3333L4.30361 14.7019C2.24261 13.2401 1 11.1142 1 8.8H-1Z" fill="#8A8A8F" mask="url(#path-1-inside-1_351_2716)"/>
</svg>
