<svg width="20" height="16" viewBox="0 0 20 16" fill="none" xmlns="http://www.w3.org/2000/svg">
<path fill-rule="evenodd" clip-rule="evenodd" d="M1.66667 3.2C2.58714 3.2 3.33333 2.48366 3.33333 1.6C3.33333 0.716344 2.58714 0 1.66667 0C0.746192 0 0 0.716344 0 1.6C0 2.48366 0.746192 3.2 1.66667 3.2ZM7.50033 2.41841C7.04009 2.41841 6.66699 2.052 6.66699 1.6C6.66699 1.148 7.04009 0.781586 7.50033 0.781586H19.167C19.6272 0.781586 20.0003 1.148 20.0003 1.6C20.0003 2.052 19.6272 2.41841 19.167 2.41841H7.50033ZM1.66667 9.6C2.58714 9.6 3.33333 8.88366 3.33333 8C3.33333 7.11634 2.58714 6.4 1.66667 6.4C0.746192 6.4 0 7.11634 0 8C0 8.88366 0.746192 9.6 1.66667 9.6ZM6.66699 7.99999C6.66699 8.45199 7.04009 8.81841 7.50033 8.81841H19.167C19.6272 8.81841 20.0003 8.45199 20.0003 7.99999C20.0003 7.548 19.6272 7.18158 19.167 7.18158H7.50033C7.04009 7.18158 6.66699 7.548 6.66699 7.99999ZM7.50033 15.2184C7.04009 15.2184 6.66699 14.852 6.66699 14.4C6.66699 13.948 7.04009 13.5816 7.50033 13.5816H19.167C19.6272 13.5816 20.0003 13.948 20.0003 14.4C20.0003 14.852 19.6272 15.2184 19.167 15.2184H7.50033ZM1.66667 16C2.58714 16 3.33333 15.2837 3.33333 14.4C3.33333 13.5163 2.58714 12.8 1.66667 12.8C0.746192 12.8 0 13.5163 0 14.4C0 15.2837 0.746192 16 1.66667 16Z" fill="white"/>
</svg>
