<svg width="20" height="20" viewBox="0 0 20 20" fill="none" xmlns="http://www.w3.org/2000/svg">
<path fill-rule="evenodd" clip-rule="evenodd" d="M1 0C0.447715 0 0 0.447715 0 1V7.85714C0 8.40943 0.447715 8.85714 1 8.85714H4.24686C4.79914 8.85714 5.24686 8.40943 5.24686 7.85714V1C5.24686 0.447715 4.79914 0 4.24686 0H1ZM1 11.1429C0.447715 11.1429 0 11.5906 0 12.1429V19C0 19.5523 0.447715 20 1 20H4.24686C4.79914 20 5.24686 19.5523 5.24686 19V12.1429C5.24686 11.5906 4.79914 11.1429 4.24686 11.1429H1ZM7.37109 12.1429C7.37109 11.5906 7.81881 11.1429 8.37109 11.1429H11.6294C12.1817 11.1429 12.6294 11.5906 12.6294 12.1429V19C12.6294 19.5523 12.1817 20 11.6294 20H8.37109C7.81881 20 7.37109 19.5523 7.37109 19V12.1429ZM8.37109 0C7.81881 0 7.37109 0.447715 7.37109 1V7.85714C7.37109 8.40943 7.81881 8.85714 8.37109 8.85714H11.6294C12.1817 8.85714 12.6294 8.40943 12.6294 7.85714V1C12.6294 0.447715 12.1817 0 11.6294 0H8.37109ZM14.7539 1C14.7539 0.447715 15.2016 0 15.7539 0H18.9996C19.5519 0 19.9996 0.447715 19.9996 1V7.85714C19.9996 8.40943 19.5519 8.85714 18.9996 8.85714H15.7539C15.2016 8.85714 14.7539 8.40943 14.7539 7.85714V1ZM15.7539 11.1429C15.2016 11.1429 14.7539 11.5906 14.7539 12.1429V19C14.7539 19.5523 15.2016 20 15.7539 20H18.9996C19.5519 20 19.9996 19.5523 19.9996 19V12.1429C19.9996 11.5906 19.5519 11.1429 18.9996 11.1429H15.7539Z" fill="#D02128"/>
</svg>
