<svg width="29" height="21" viewBox="0 0 29 21" fill="none" xmlns="http://www.w3.org/2000/svg">
<path d="M28.557 2.772C28.5537 1.65665 27.6504 0.753295 26.535 0.75H2.272C1.15665 0.753295 0.253295 1.65665 0.25 2.772V5.8H28.557V2.772Z" fill="#1C2340"/>
<path fill-rule="evenodd" clip-rule="evenodd" d="M0.25 18.947C0.253295 20.0624 1.15665 20.9657 2.272 20.969H26.535C27.6504 20.9657 28.5537 20.0624 28.557 18.947V8.83801H0.25V18.947ZM9.222 15.914H19.584C20.0723 15.9151 20.4679 16.3107 20.469 16.799C20.4679 17.2873 20.0723 17.6829 19.584 17.684H9.222C8.73368 17.6829 8.3381 17.2873 8.337 16.799C8.33865 16.3111 8.73407 15.9161 9.222 15.915V15.914ZM5.431 15.914H4.673V15.915C4.18507 15.9161 3.78965 16.3111 3.788 16.799C3.7891 17.2873 4.18468 17.6829 4.673 17.684H5.431C5.91932 17.6829 6.3149 17.2873 6.316 16.799C6.3149 16.3107 5.91932 15.9151 5.431 15.914Z" fill="#1C2340"/>
</svg>
