<svg width="34" height="34" viewBox="0 0 34 34" fill="none" xmlns="http://www.w3.org/2000/svg">
<path d="M31.1667 13.0333C32.47 13.0333 33.66 14.11 34 15.3C33.0933 6.8 25.7833 0 17 0C8.21667 0 0.906667 6.8 0 15.3C0.34 14.11 1.53 13.0333 2.83333 13.0333C4.42 13.0333 5.66667 13.7133 5.66667 15.3C5.66667 13.7133 6.91333 13.0333 8.5 13.0333C10.0867 13.0333 11.3333 13.7133 11.3333 15.3C11.3333 13.7133 12.58 13.0333 14.1667 13.0333C15.7533 13.0333 17 13.7133 17 15.3C17 13.7133 18.2467 13.0333 19.8333 13.0333C21.42 13.0333 22.6667 13.7133 22.6667 15.3C22.6667 13.7133 23.9133 13.0333 25.5 13.0333C27.0867 13.0333 28.3333 13.7133 28.3333 15.3C28.3333 13.7133 29.58 13.0333 31.1667 13.0333ZM18.1333 32.3H15.8667C13.6567 32.3 11.9 30.5433 11.9 28.3333H14.1667C14.1667 29.2967 14.9033 30.0333 15.8667 30.0333H18.1333C19.0967 30.0333 19.8333 29.2967 19.8333 28.3333C19.8333 27.37 19.0967 26.6333 18.1333 26.6333H15.8667C13.6567 26.6333 11.9 24.8767 11.9 22.6667C11.9 20.4567 13.6567 18.7 15.8667 18.7H18.1333C20.3433 18.7 22.1 20.4567 22.1 22.6667H19.8333C19.8333 21.7033 19.0967 20.9667 18.1333 20.9667H15.8667C14.9033 20.9667 14.1667 21.7033 14.1667 22.6667C14.1667 23.63 14.9033 24.3667 15.8667 24.3667H18.1333C20.3433 24.3667 22.1 26.1233 22.1 28.3333C22.1 30.5433 20.3433 32.3 18.1333 32.3Z" fill="#D02128"/>
<path d="M15.8662 17H18.1329V34H15.8662V17Z" fill="#D02128"/>
</svg>
