<svg width="89" height="89" viewBox="0 0 89 89" fill="none" xmlns="http://www.w3.org/2000/svg">
<path d="M52.8447 0H10.1981C4.56134 0 0 4.56134 0 10.1981V67.6784C0 73.3151 4.56134 77.8765 10.1981 77.8765H40.4216C37.3065 72.9443 35.2298 67.1221 35.2298 60.447V51.3985C34.6736 51.7322 34.0431 51.9176 33.3756 51.9176H14.8336C12.794 51.9176 11.1252 50.2489 11.1252 48.2092C11.1252 46.1696 12.794 44.5008 14.8336 44.5008H33.3756C34.0802 44.5008 34.7107 44.6863 35.2669 45.02C35.4153 41.8679 36.8986 38.9753 39.2349 37.084H14.8336C12.794 37.084 11.1252 35.4152 11.1252 33.3756C11.1252 31.336 12.794 29.6672 14.8336 29.6672H48.2092C49.7668 29.6672 51.1018 30.6314 51.6581 32.0035L62.227 28.4064C62.4866 28.2951 62.7462 28.2209 63.0429 28.1839V10.1981C63.0429 4.56134 58.4815 0 52.8447 0ZM29.6672 22.2504H14.8336C12.794 22.2504 11.1252 20.5816 11.1252 18.542C11.1252 16.5024 12.794 14.8336 14.8336 14.8336H29.6672C31.7068 14.8336 33.3756 16.5024 33.3756 18.542C33.3756 20.5816 31.7068 22.2504 29.6672 22.2504Z" fill="white"/>
<path d="M86.4878 42.0497L67.0186 35.4265C66.2431 35.1632 65.4023 35.1632 64.6267 35.4265L45.1576 42.0497C44.4245 42.2996 43.788 42.7726 43.3371 43.4023C42.8863 44.0321 42.6437 44.7871 42.6433 45.5616V60.462C42.6433 79.2524 63.4808 88.3306 64.3671 88.7089C64.8283 88.9017 65.3232 89.0008 65.8231 89.0001C66.3229 88.9995 66.8176 88.8992 67.2782 88.7052C68.1645 88.3269 89.0021 79.2524 89.0021 60.462V45.5616C89.0028 44.7868 88.7607 44.0313 88.3096 43.4013C87.8586 42.7714 87.2214 42.2987 86.4878 42.0497ZM78.9894 55.997L67.8642 70.8306C67.5195 71.2921 67.0718 71.6665 66.5567 71.9241C66.0416 72.1816 65.4734 72.3152 64.8974 72.314C64.4103 72.3149 63.9279 72.2194 63.4779 72.0329C63.0279 71.8464 62.6193 71.5727 62.2756 71.2274L54.8588 63.8106C54.5145 63.4663 54.2414 63.0576 54.055 62.6077C53.8687 62.1579 53.7728 61.6757 53.7728 61.1888C53.7728 60.7019 53.8687 60.2197 54.055 59.7699C54.2414 59.32 54.5145 58.9113 54.8588 58.567C55.2031 58.2227 55.6118 57.9495 56.0617 57.7632C56.5116 57.5769 56.9937 57.481 57.4806 57.481C57.9676 57.481 58.4497 57.5769 58.8996 57.7632C59.3494 57.9495 59.7582 58.2227 60.1025 58.567L64.4969 62.9614L73.0559 51.5469C73.646 50.7601 74.5246 50.24 75.4982 50.1009C75.9803 50.032 76.4712 50.0587 76.943 50.1796C77.4148 50.3005 77.8581 50.5131 78.2477 50.8053C78.6373 51.0975 78.9655 51.4635 79.2136 51.8826C79.4618 52.3016 79.6249 52.7654 79.6938 53.2475C79.7627 53.7296 79.7359 54.2206 79.615 54.6923C79.4942 55.1641 79.2816 55.6074 78.9894 55.997Z" fill="white"/>
</svg>
