<svg width="34" height="34" viewBox="0 0 34 34" fill="none" xmlns="http://www.w3.org/2000/svg">
<path d="M18.8213 30.0124H25.8744V33.5389H18.8213V30.0124ZM30.7763 20.955L33.333 11.4098C33.3623 11.3106 33.3762 11.2076 33.3742 11.1042C33.3732 10.835 33.2798 10.5744 33.1097 10.3658C32.9396 10.1572 32.7031 10.0132 32.4397 9.95806C32.1309 9.91014 31.8155 9.98032 31.5563 10.1546C31.297 10.3289 31.1129 10.5945 31.0408 10.8985L29.2246 16.4998L29.2599 16.5527C29.5705 17.092 29.655 17.7322 29.495 18.3336C29.4163 18.633 29.2785 18.9135 29.0898 19.1588C28.901 19.4041 28.6651 19.6091 28.3959 19.7619L25.028 21.7074C24.8937 21.7776 24.7374 21.7933 24.5918 21.751C24.4462 21.7088 24.3226 21.6119 24.2467 21.4807C24.1709 21.3494 24.1486 21.194 24.1847 21.0467C24.2208 20.8995 24.3123 20.7719 24.4403 20.6905L27.8081 18.7451C27.9424 18.6686 28.0604 18.5665 28.1552 18.4445C28.25 18.3224 28.3198 18.1829 28.3606 18.0339C28.4378 17.732 28.3957 17.4121 28.2431 17.1405C28.1658 17.0063 28.0627 16.8887 27.9398 16.7944C27.817 16.7001 27.6767 16.6311 27.527 16.5912C27.3774 16.5513 27.2213 16.5414 27.0678 16.5621C26.9143 16.5827 26.7664 16.6334 26.6326 16.7114L21.4427 19.7501C20.8256 20.1154 20.3138 20.6345 19.9573 21.2568C19.6009 21.879 19.412 22.5831 19.409 23.3002V28.8369H25.2866V27.5438C25.2878 27.1292 25.3758 26.7194 25.5448 26.3408C25.7139 25.9623 25.9603 25.6232 26.2682 25.3456L30.2473 21.8132C30.5039 21.5851 30.6878 21.2867 30.7763 20.955Z" fill="#D02128"/>
<path d="M28.2729 15.6245L29.9127 10.5639C30.0458 10.0559 30.3412 9.60538 30.7539 9.28072C31.1666 8.95607 31.6741 8.77511 32.1991 8.76536V8.7536C32.1981 8.48444 32.1047 8.22378 31.9346 8.01517C31.7645 7.80657 31.528 7.66265 31.2645 7.60748C30.9558 7.55955 30.6404 7.62974 30.3811 7.80403C30.1219 7.97833 29.9378 8.24393 29.8657 8.54789L27.4853 15.4012C27.7584 15.4313 28.0246 15.5067 28.2729 15.6245ZM3.34013 20.9496C3.42701 21.2836 3.61112 21.5843 3.86911 21.8136L7.84236 25.346C8.15208 25.6226 8.40008 25.9612 8.57022 26.34C8.74035 26.7187 8.82879 27.129 8.8298 27.5442V28.8373H14.7074V23.3006C14.7045 22.5835 14.5156 21.8794 14.1591 21.2572C13.8026 20.635 13.2909 20.1158 12.6737 19.7506L7.47795 16.706C7.34403 16.6292 7.1963 16.5795 7.04319 16.5598C6.89007 16.5401 6.73458 16.5507 6.58558 16.5911C6.43658 16.6315 6.29699 16.7008 6.17479 16.7952C6.05259 16.8895 5.95017 17.007 5.87337 17.1409C5.7207 17.4125 5.6786 17.7325 5.75582 18.0343C5.79664 18.1834 5.86646 18.3229 5.96126 18.4449C6.05606 18.5669 6.17399 18.6691 6.30831 18.7455L9.67617 20.691C9.8041 20.7723 9.89567 20.8999 9.93173 21.0472C9.9678 21.1944 9.94558 21.3499 9.86971 21.4811C9.79385 21.6124 9.67021 21.7092 9.52461 21.7515C9.37902 21.7937 9.22274 21.7781 9.08841 21.7078L5.72055 19.7623C5.45136 19.6096 5.21544 19.4045 5.02668 19.1593C4.83792 18.914 4.70014 18.6334 4.62144 18.3341C4.46145 17.7327 4.54597 17.0924 4.85655 16.5532L4.89181 16.5003L3.08739 10.9283C3.01754 10.6176 2.83262 10.3448 2.56982 10.1649C2.30703 9.98498 1.98585 9.91124 1.6709 9.95851C1.40853 10.0149 1.17335 10.1593 1.00441 10.3678C0.835477 10.5763 0.742961 10.8363 0.742236 11.1046C0.741327 11.2076 0.753172 11.3102 0.777502 11.4103L3.34013 20.9496ZM8.24204 30.0128H15.2951V33.5394H8.24204V30.0128Z" fill="#D02128"/>
<path d="M2.84663 7.60752C2.58426 7.66387 2.34908 7.80829 2.18014 8.01679C2.01121 8.22528 1.91869 8.4853 1.91797 8.75365V8.7654C2.4476 8.77909 2.95837 8.96489 3.37301 9.29469C3.78765 9.62449 4.08361 10.0804 4.2161 10.5933L5.8442 15.6245C6.09247 15.5068 6.35866 15.4313 6.63179 15.4012L4.269 8.58908C4.1995 8.27619 4.01428 8.00114 3.75048 7.8191C3.48669 7.63706 3.16382 7.56148 2.84663 7.60752ZM17.6464 7.09029V4.73926H16.4709V7.09029H14.1198V8.26581H16.4709V10.6168H17.6464V8.26581H19.9974V7.09029H17.6464Z" fill="#D02128"/>
<path d="M21.2135 0.742304C20.5962 0.74012 19.9845 0.860866 19.4143 1.0975C18.844 1.33414 18.3266 1.68193 17.8921 2.1206L17.4736 2.53908C17.3634 2.64927 17.2139 2.71117 17.0581 2.71117C16.9022 2.71117 16.7528 2.64927 16.6425 2.53908L16.2252 2.12177C15.7889 1.68445 15.2705 1.3375 14.6999 1.10077C14.1292 0.86404 13.5175 0.742187 12.8997 0.742188C12.2819 0.742188 11.6702 0.86404 11.0995 1.10077C10.5289 1.3375 10.0105 1.68445 9.57416 2.12177C8.69374 3.0034 8.19922 4.19842 8.19922 5.44437C8.19922 6.69033 8.69374 7.88535 9.57416 8.76697L17.0581 16.2509L24.542 8.76697C25.1991 8.10904 25.6463 7.27108 25.8271 6.35901C26.008 5.44695 25.9144 4.50174 25.5582 3.64287C25.2019 2.78399 24.599 2.05002 23.8257 1.53374C23.0524 1.01745 22.1434 0.742037 21.2135 0.742304ZM21.1724 8.85337C21.1724 9.00926 21.1105 9.15875 21.0003 9.26898C20.89 9.37921 20.7405 9.44113 20.5846 9.44113H18.8214V11.2044C18.8214 11.3603 18.7594 11.5098 18.6492 11.62C18.539 11.7302 18.3895 11.7922 18.2336 11.7922H15.8826C15.7267 11.7922 15.5772 11.7302 15.467 11.62C15.3567 11.5098 15.2948 11.3603 15.2948 11.2044V9.44113H13.5315C13.3757 9.44113 13.2262 9.37921 13.1159 9.26898C13.0057 9.15875 12.9438 9.00926 12.9438 8.85337V6.50234C12.9438 6.34645 13.0057 6.19696 13.1159 6.08673C13.2262 5.9765 13.3757 5.91458 13.5315 5.91458H15.2948V4.1513C15.2948 3.99542 15.3567 3.84592 15.467 3.7357C15.5772 3.62547 15.7267 3.56354 15.8826 3.56354H18.2336C18.3895 3.56354 18.539 3.62547 18.6492 3.7357C18.7594 3.84592 18.8214 3.99542 18.8214 4.1513V5.91458H20.5846C20.7405 5.91458 20.89 5.9765 21.0003 6.08673C21.1105 6.19696 21.1724 6.34645 21.1724 6.50234V8.85337Z" fill="#D02128"/>
</svg>
