<svg width="29" height="30" viewBox="0 0 29 30" fill="none" xmlns="http://www.w3.org/2000/svg">
<path d="M16.4683 26.0842H22.5418V29.1209H16.4683V26.0842ZM26.7629 18.2848L28.9645 10.0653C28.9897 9.97991 29.0016 9.89115 28.9999 9.80213C28.9991 9.57035 28.9187 9.34589 28.7722 9.16626C28.6257 8.98662 28.422 8.86269 28.1952 8.81518C27.9294 8.77392 27.6577 8.83435 27.4345 8.98444C27.2112 9.13453 27.0527 9.36324 26.9906 9.62498L25.4267 14.4484L25.4571 14.4939C25.7245 14.9583 25.7973 15.5096 25.6595 16.0275C25.5917 16.2852 25.4731 16.5268 25.3105 16.738C25.148 16.9493 24.9449 17.1258 24.713 17.2574L21.8129 18.9326C21.6973 18.9931 21.5627 19.0066 21.4373 18.9702C21.312 18.9339 21.2055 18.8505 21.1402 18.7374C21.0748 18.6244 21.0557 18.4905 21.0868 18.3637C21.1178 18.237 21.1967 18.1271 21.3068 18.057L24.2069 16.3818C24.3226 16.316 24.4241 16.228 24.5058 16.1229C24.5874 16.0178 24.6475 15.8977 24.6827 15.7693C24.7492 15.5094 24.7129 15.2339 24.5815 15C24.5149 14.8845 24.4262 14.7832 24.3204 14.702C24.2145 14.6209 24.0937 14.5614 23.9649 14.5271C23.836 14.4927 23.7016 14.4842 23.5694 14.502C23.4373 14.5197 23.3099 14.5634 23.1947 14.6306L18.7256 17.2472C18.1942 17.5618 17.7535 18.0088 17.4465 18.5446C17.1396 19.0804 16.9769 19.6867 16.9744 20.3042V25.0719H22.0356V23.9585C22.0367 23.6014 22.1124 23.2486 22.258 22.9226C22.4036 22.5966 22.6157 22.3046 22.8809 22.0655L26.3073 19.0237C26.5283 18.8274 26.6867 18.5704 26.7629 18.2848Z" fill="white"/>
<path d="M24.6069 13.6942L26.019 9.33649C26.1336 8.89908 26.3879 8.51109 26.7433 8.23153C27.0987 7.95196 27.5357 7.79613 27.9878 7.78774V7.77762C27.9869 7.54584 27.9065 7.32138 27.76 7.14175C27.6136 6.96212 27.4099 6.83819 27.183 6.79068C26.9172 6.74941 26.6456 6.80985 26.4223 6.95993C26.1991 7.11002 26.0406 7.33873 25.9785 7.60048L23.9287 13.5019C24.1639 13.5278 24.3931 13.5928 24.6069 13.6942ZM3.13702 18.2797C3.21183 18.5674 3.37037 18.8263 3.59253 19.0237L7.01394 22.0655C7.28064 22.3037 7.4942 22.5953 7.6407 22.9214C7.78721 23.2476 7.86337 23.6009 7.86423 23.9585V25.0719H12.9255V20.3042C12.923 19.6867 12.7603 19.0804 12.4534 18.5446C12.1464 18.0088 11.7057 17.5618 11.1743 17.2472L6.70014 14.6255C6.58483 14.5594 6.45761 14.5166 6.32576 14.4996C6.19392 14.4826 6.06002 14.4918 5.93171 14.5266C5.8034 14.5614 5.6832 14.6211 5.57798 14.7023C5.47275 14.7835 5.38455 14.8847 5.31842 15C5.18696 15.2339 5.1507 15.5094 5.2172 15.7693C5.25235 15.8977 5.31247 16.0178 5.3941 16.1229C5.47574 16.228 5.57729 16.316 5.69295 16.3818L8.59305 18.057C8.70322 18.1271 8.78206 18.237 8.81312 18.3637C8.84418 18.4905 8.82504 18.6244 8.75972 18.7374C8.69439 18.8505 8.58792 18.9339 8.46255 18.9702C8.33717 19.0066 8.2026 18.9931 8.08693 18.9326L5.18683 17.2574C4.95502 17.1258 4.75187 16.9493 4.58932 16.738C4.42678 16.5268 4.30814 16.2852 4.24037 16.0275C4.1026 15.5096 4.17538 14.9583 4.44282 14.4939L4.47319 14.4484L2.91938 9.65028C2.85923 9.38271 2.69999 9.14784 2.4737 8.99291C2.2474 8.83797 1.97084 8.77447 1.69962 8.81518C1.4737 8.8637 1.27118 8.98806 1.12571 9.1676C0.980235 9.34714 0.900569 9.57105 0.899944 9.80212C0.899161 9.89077 0.909361 9.97917 0.930312 10.0653L3.13702 18.2797ZM7.35811 26.0842H13.4316V29.1209H7.35811V26.0842Z" fill="white"/>
<path d="M2.71179 6.79069C2.48586 6.83922 2.28334 6.96358 2.13787 7.14312C1.9924 7.32266 1.91273 7.54656 1.91211 7.77764V7.78776C2.36818 7.79954 2.80801 7.95954 3.16506 8.24353C3.52211 8.52753 3.77696 8.92008 3.89106 9.36181L5.29303 13.6942C5.50682 13.5928 5.73604 13.5278 5.97124 13.5019L3.93661 7.63592C3.87676 7.36649 3.71727 7.12965 3.49011 6.97289C3.26295 6.81613 2.98492 6.75105 2.71179 6.79069ZM15.456 6.3453V4.3208H14.4438V6.3453H12.4193V7.35755H14.4438V9.38206H15.456V7.35755H17.4805V6.3453H15.456Z" fill="white"/>
<path d="M18.5281 0.879128C17.9964 0.877248 17.4697 0.981223 16.9787 1.18499C16.4876 1.38876 16.0421 1.68825 15.668 2.06599L15.3076 2.42635C15.2127 2.52124 15.084 2.57454 14.9498 2.57454C14.8156 2.57454 14.6868 2.52124 14.5919 2.42635L14.2326 2.067C13.8568 1.69042 13.4105 1.39166 12.9191 1.18781C12.4277 0.983957 11.9009 0.879028 11.3689 0.879028C10.8369 0.879028 10.3102 0.983957 9.81878 1.18781C9.32739 1.39166 8.88103 1.69042 8.50527 2.067C7.74712 2.82618 7.32129 3.85523 7.32129 4.92813C7.32129 6.00104 7.74712 7.03008 8.50527 7.78926L14.9498 14.2338L21.3943 7.78926C21.96 7.22271 22.3451 6.50113 22.5009 5.71574C22.6566 4.93035 22.576 4.11642 22.2693 3.37683C21.9625 2.63725 21.4434 2.00522 20.7774 1.56064C20.1115 1.11606 19.3288 0.878899 18.5281 0.879128ZM18.4926 7.86366C18.4926 7.99789 18.4393 8.12663 18.3444 8.22154C18.2495 8.31646 18.1207 8.36978 17.9865 8.36978H16.4681V9.88816C16.4681 10.0224 16.4148 10.1511 16.3199 10.246C16.225 10.341 16.0962 10.3943 15.962 10.3943H13.9375C13.8033 10.3943 13.6745 10.341 13.5796 10.246C13.4847 10.1511 13.4314 10.0224 13.4314 9.88816V8.36978H11.913C11.7788 8.36978 11.65 8.31646 11.5551 8.22154C11.4602 8.12663 11.4069 7.99789 11.4069 7.86366V5.83916C11.4069 5.70493 11.4602 5.57619 11.5551 5.48127C11.65 5.38636 11.7788 5.33303 11.913 5.33303H13.4314V3.81466C13.4314 3.68042 13.4847 3.55169 13.5796 3.45677C13.6745 3.36185 13.8033 3.30853 13.9375 3.30853H15.962C16.0962 3.30853 16.225 3.36185 16.3199 3.45677C16.4148 3.55169 16.4681 3.68042 16.4681 3.81466V5.33303H17.9865C18.1207 5.33303 18.2495 5.38636 18.3444 5.48127C18.4393 5.57619 18.4926 5.70493 18.4926 5.83916V7.86366Z" fill="white"/>
</svg>
