<svg width="25" height="21" viewBox="0 0 25 21" fill="none" xmlns="http://www.w3.org/2000/svg">
<path d="M24.0763 9.00193L22.6672 6.56054C22.6075 6.45558 22.509 6.3782 22.393 6.345C22.2769 6.3118 22.1524 6.32541 22.0462 6.38293C21.7697 6.49753 21.4599 6.50228 21.18 6.3962C20.9001 6.29012 20.6712 6.08122 20.5401 5.81213C20.3724 5.56368 20.306 5.26049 20.3547 4.96469C20.4033 4.66889 20.5632 4.4029 20.8017 4.22124C20.9038 4.15711 20.9768 4.0557 21.0053 3.93857C21.0338 3.82143 21.0156 3.69779 20.9544 3.59391L19.5462 1.15421C19.4133 0.913884 19.2118 0.718619 18.9675 0.593353C18.7231 0.468087 18.4469 0.418506 18.1742 0.450943L18.132 0.382599L17.7684 0.592693L17.7667 0.593536L10.8412 4.59249L3.54446 8.80491H1.98478C1.63564 8.82123 1.30712 8.97501 1.07095 9.23268C0.834782 9.49035 0.710135 9.83098 0.724221 10.1802V12.9971C0.72349 13.1181 0.769972 13.2346 0.85379 13.3219C0.937607 13.4092 1.05216 13.4604 1.1731 13.4645C1.46094 13.5229 1.71972 13.679 1.9055 13.9065C2.09129 14.134 2.19264 14.4187 2.19234 14.7124C2.19204 15.0061 2.09012 15.2906 1.90387 15.5177C1.71762 15.7448 1.45852 15.9005 1.17056 15.9582C1.05011 15.9627 0.93614 16.0139 0.852817 16.1011C0.769494 16.1882 0.723369 16.3043 0.724221 16.4248V19.2417C0.710135 19.5909 0.834782 19.9316 1.07095 20.1892C1.30712 20.4469 1.63564 20.6007 1.98478 20.617H20.5578C20.907 20.6007 21.2355 20.4469 21.4717 20.1892C21.7078 19.9316 21.8325 19.5909 21.8184 19.2417V16.4248C21.819 16.3038 21.7724 16.1873 21.6885 16.1001C21.6046 16.0129 21.49 15.9619 21.3691 15.9578C21.0813 15.8994 20.8225 15.7432 20.6368 15.5157C20.451 15.2882 20.3497 15.0034 20.3501 14.7097C20.3504 14.416 20.4524 14.1315 20.6387 13.9045C20.825 13.6774 21.0841 13.5218 21.372 13.4641C21.4926 13.4596 21.6066 13.4083 21.6899 13.3211C21.7733 13.2339 21.8194 13.1177 21.8184 12.9971V11.8947L23.673 10.8236C23.8226 10.7364 23.9517 10.6179 24.0513 10.4762C24.1509 10.3345 24.2187 10.173 24.2501 10.0026C24.316 9.65912 24.2545 9.30337 24.0771 9.00193H24.0763ZM20.9742 12.6718C20.5466 12.8149 20.1747 13.0888 19.9112 13.4548C19.6478 13.8208 19.506 14.2604 19.506 14.7114C19.506 15.1623 19.6478 15.6019 19.9112 15.9679C20.1747 16.3339 20.5466 16.6078 20.9742 16.7509V19.2417C20.986 19.3668 20.9493 19.4917 20.8718 19.5907C20.7942 19.6896 20.6817 19.7551 20.5574 19.7737H17.7397V19.5627C17.7397 19.4508 17.6953 19.3435 17.6161 19.2644C17.537 19.1853 17.4297 19.1408 17.3178 19.1408C17.2059 19.1408 17.0986 19.1853 17.0195 19.2644C16.9404 19.3435 16.896 19.4508 16.896 19.5627V19.7737H1.98478C1.86053 19.7551 1.7481 19.6897 1.67059 19.5908C1.59307 19.492 1.55635 19.3672 1.56797 19.2421V16.7505C1.99563 16.6074 2.36749 16.3335 2.63096 15.9675C2.89443 15.6015 3.03619 15.1619 3.03619 14.711C3.03619 14.26 2.89443 13.8204 2.63096 13.4544C2.36749 13.0884 1.99563 12.8145 1.56797 12.6714V10.1806C1.55624 10.0555 1.5929 9.9306 1.67043 9.83165C1.74796 9.73269 1.86045 9.66721 1.98478 9.64866H16.8964V9.8596C16.8964 9.97149 16.9408 10.0788 17.0199 10.1579C17.0991 10.237 17.2064 10.2815 17.3183 10.2815C17.4301 10.2815 17.5374 10.237 17.6166 10.1579C17.6957 10.0788 17.7401 9.97149 17.7401 9.8596V9.64866H20.5574C20.6817 9.66721 20.7941 9.73263 20.8716 9.83149C20.9491 9.93035 20.9858 10.0551 20.9742 10.1802V12.6718ZM23.4224 9.83682C23.4134 9.88921 23.3935 9.93911 23.3639 9.98325C23.3343 10.0274 23.2957 10.0648 23.2507 10.0929L21.818 10.9198V10.1806C21.8319 9.83329 21.7088 9.49438 21.4751 9.23701C21.2414 8.97964 20.9159 8.82445 20.5688 8.80491H19.2433C19.2392 8.79015 19.2343 8.77565 19.2285 8.76146L19.0176 8.39612C18.9634 8.2986 18.8726 8.22662 18.7653 8.196C18.6581 8.16539 18.543 8.17864 18.4455 8.23285C18.348 8.28706 18.276 8.37779 18.2454 8.48507C18.2148 8.59235 18.228 8.7074 18.2822 8.80491H5.23153L15.0173 3.15516L15.1228 3.33783C15.1792 3.43394 15.2712 3.50386 15.3789 3.53233C15.4866 3.56081 15.6012 3.54553 15.6977 3.48982C15.7942 3.43412 15.8647 3.34252 15.8939 3.23501C15.9231 3.1275 15.9086 3.0128 15.8535 2.91596L15.748 2.73329L17.6241 1.65033C17.868 1.50943 18.0515 1.40354 18.1818 1.31326L18.1882 1.32422C18.3052 1.27812 18.4354 1.27857 18.552 1.32549C18.6687 1.37241 18.763 1.46224 18.8155 1.57651L20.0609 3.73355C19.7464 4.06278 19.5509 4.48758 19.5054 4.94056C19.4598 5.39354 19.5668 5.84876 19.8094 6.23401C20.0218 6.63654 20.3625 6.95666 20.7775 7.14359C21.1925 7.33052 21.658 7.37357 22.1002 7.26591L23.3456 9.42422C23.4204 9.54789 23.4477 9.69453 23.4224 9.83682Z" fill="#D02128"/>
<path d="M16.6977 4.37733L16.4868 4.01198C16.4591 3.96398 16.4222 3.9219 16.3782 3.88815C16.3343 3.8544 16.2841 3.82964 16.2306 3.81528C16.177 3.80092 16.1212 3.79725 16.0662 3.80447C16.0113 3.81169 15.9583 3.82967 15.9103 3.85737C15.8623 3.88507 15.8202 3.92195 15.7865 3.96592C15.7527 4.00988 15.7279 4.06006 15.7136 4.11359C15.6992 4.16712 15.6956 4.22296 15.7028 4.27791C15.71 4.33286 15.728 4.38585 15.7557 4.43386L15.9666 4.7992C16.0229 4.89531 16.115 4.96523 16.2227 4.9937C16.3304 5.02218 16.445 5.0069 16.5415 4.95119C16.638 4.89549 16.7085 4.80389 16.7377 4.69638C16.7669 4.58887 16.7528 4.47417 16.6977 4.37733ZM18.1743 6.93516C18.1466 6.88715 18.1097 6.84507 18.0657 6.81132C18.0218 6.77757 17.9716 6.75281 17.9181 6.73845C17.8645 6.72409 17.8087 6.72042 17.7537 6.72764C17.6988 6.73486 17.6458 6.75284 17.5978 6.78054C17.5498 6.80824 17.5077 6.84512 17.474 6.88909C17.4402 6.93305 17.4154 6.98323 17.4011 7.03676C17.3867 7.09029 17.3831 7.14613 17.3903 7.20108C17.3975 7.25603 17.4155 7.30903 17.4432 7.35703L17.6541 7.72195C17.6816 7.77032 17.7184 7.81277 17.7624 7.84686C17.8063 7.88094 17.8566 7.906 17.9103 7.92058C17.964 7.93515 18.0201 7.93897 18.0752 7.93179C18.1304 7.92462 18.1836 7.90661 18.2318 7.87879C18.28 7.85097 18.3222 7.8139 18.356 7.7697C18.3898 7.7255 18.4145 7.67506 18.4287 7.62127C18.4429 7.56748 18.4464 7.51141 18.4388 7.45629C18.4313 7.40116 18.4129 7.34808 18.3848 7.30008L18.1743 6.93516ZM17.5415 5.83828L17.3305 5.47294C17.2746 5.37599 17.1824 5.30523 17.0743 5.27623C16.9662 5.24724 16.851 5.26238 16.754 5.31832C16.6571 5.37426 16.5863 5.46643 16.5573 5.57454C16.5283 5.68266 16.5435 5.79786 16.5994 5.89481L16.8104 6.26058C16.8379 6.30894 16.8746 6.35139 16.9186 6.38548C16.9626 6.41957 17.0129 6.44462 17.0666 6.4592C17.1203 6.47378 17.1763 6.47759 17.2315 6.47042C17.2866 6.46325 17.3399 6.44523 17.388 6.41742C17.4362 6.3896 17.4784 6.35252 17.5122 6.30832C17.546 6.26413 17.5707 6.21368 17.585 6.1599C17.5992 6.10611 17.6026 6.05004 17.5951 5.99491C17.5875 5.93979 17.5692 5.8867 17.541 5.8387L17.5415 5.83828ZM17.3179 15.7658C17.206 15.7658 17.0987 15.8103 17.0196 15.8894C16.9404 15.9685 16.896 16.0758 16.896 16.1877V16.6096C16.896 16.7215 16.9404 16.8288 17.0196 16.9079C17.0987 16.987 17.206 17.0315 17.3179 17.0315C17.4298 17.0315 17.5371 16.987 17.6162 16.9079C17.6953 16.8288 17.7397 16.7215 17.7397 16.6096V16.1877C17.7397 16.0758 17.6953 15.9685 17.6162 15.8894C17.5371 15.8103 17.4298 15.7658 17.3179 15.7658ZM17.3179 17.4533C17.206 17.4533 17.0987 17.4978 17.0196 17.5769C16.9404 17.656 16.896 17.7633 16.896 17.8752V18.2971C16.896 18.409 16.9404 18.5163 17.0196 18.5954C17.0987 18.6745 17.206 18.719 17.3179 18.719C17.4298 18.719 17.5371 18.6745 17.6162 18.5954C17.6953 18.5163 17.7397 18.409 17.7397 18.2971V17.8752C17.7397 17.7633 17.6953 17.656 17.6162 17.5769C17.5371 17.4978 17.4298 17.4533 17.3179 17.4533ZM17.3179 14.0783C17.206 14.0783 17.0987 14.1228 17.0196 14.2019C16.9404 14.281 16.896 14.3883 16.896 14.5002V14.9221C16.896 15.034 16.9404 15.1413 17.0196 15.2204C17.0987 15.2995 17.206 15.344 17.3179 15.344C17.4298 15.344 17.5371 15.2995 17.6162 15.2204C17.6953 15.1413 17.7397 15.034 17.7397 14.9221V14.5002C17.7397 14.3883 17.6953 14.281 17.6162 14.2019C17.5371 14.1228 17.4298 14.0783 17.3179 14.0783ZM17.3179 12.3908C17.206 12.3908 17.0987 12.4353 17.0196 12.5144C16.9404 12.5935 16.896 12.7008 16.896 12.8127V13.2346C16.896 13.3465 16.9404 13.4538 17.0196 13.5329C17.0987 13.612 17.206 13.6565 17.3179 13.6565C17.4298 13.6565 17.5371 13.612 17.6162 13.5329C17.6953 13.4538 17.7397 13.3465 17.7397 13.2346V12.8127C17.7397 12.7008 17.6953 12.5935 17.6162 12.5144C17.5371 12.4353 17.4298 12.3908 17.3179 12.3908ZM17.3179 10.7033C17.206 10.7033 17.0987 10.7478 17.0196 10.8269C16.9404 10.906 16.896 11.0133 16.896 11.1252V11.5471C16.896 11.659 16.9404 11.7663 17.0196 11.8454C17.0987 11.9245 17.206 11.969 17.3179 11.969C17.4298 11.969 17.5371 11.9245 17.6162 11.8454C17.6953 11.7663 17.7397 11.659 17.7397 11.5471V11.1252C17.7397 11.0133 17.6953 10.906 17.6162 10.8269C17.5371 10.7478 17.4298 10.7033 17.3179 10.7033ZM13.0991 10.4924H6.34912C6.12545 10.4927 5.91103 10.5817 5.75287 10.7399C5.59471 10.8981 5.50571 11.1125 5.50537 11.3362V18.0862C5.50571 18.3098 5.59471 18.5242 5.75287 18.6824C5.91103 18.8406 6.12545 18.9296 6.34912 18.9299H13.0991C13.3228 18.9296 13.5372 18.8406 13.6954 18.6824C13.8535 18.5242 13.9425 18.3098 13.9429 18.0862V11.3362C13.9425 11.1125 13.8535 10.8981 13.6954 10.7399C13.5372 10.5817 13.3228 10.4927 13.0991 10.4924ZM13.0995 13.0237H11.412V11.3362H13.0995V13.0237ZM6.34954 13.8674H8.03704V15.5549H6.34954V13.8674ZM8.88079 13.8674H10.5683V15.5549H8.88079V13.8674ZM11.412 13.8674H13.0995V15.5549H11.412V13.8674ZM10.5683 11.3362V13.0237H8.88079V11.3362H10.5683ZM8.03704 11.3362V13.0237H6.34954V11.3362H8.03704ZM6.34954 16.3987H8.03704V18.0862H6.34954V16.3987ZM8.88079 18.0862V16.3987H10.5683V18.0862H8.88079ZM11.412 18.0862V16.3987H13.0995V18.0862H11.412Z" fill="#D02128"/>
</svg>
