<svg width="237" height="219" viewBox="0 0 237 219" fill="none" xmlns="http://www.w3.org/2000/svg">
<path d="M125.42 199.445C145.384 187.318 165.508 175.032 182.454 158.086C199.4 141.14 213.116 118.845 216.506 93.7435C219.895 68.6419 211.21 40.8396 191.987 27.7592C180.813 20.1334 166.726 17.9622 154.016 21.9869C141.307 25.9587 130.133 36.0205 124.149 50.7425C115.57 41.1573 105.614 32.8431 94.2811 27.9711C82.9483 23.099 70.0798 21.881 58.4822 26.2764C41.9597 32.5254 29.6737 49.7893 25.7549 68.8538C21.8361 87.8653 25.6489 108.201 34.0691 125.147C42.4892 142.093 55.2518 155.862 69.3384 167.036C83.4249 178.157 98.9413 186.948 125.42 199.445Z" fill="white"/>
<path d="M237 18.4818H198.13C198.236 18.27 198.341 18.0582 198.447 17.8993C199.771 15.9929 201.572 14.4042 203.637 13.345C204.537 12.8684 205.544 12.4977 206.55 12.6036C207.556 12.7095 208.562 13.398 208.774 14.3512C210.575 11.8093 212.852 9.69099 215.817 8.84368C218.783 7.99637 222.331 8.68481 224.29 11.0679C225.561 12.5507 226.038 14.5101 226.515 16.4165C227.944 15.3574 229.586 14.8808 231.334 14.616C232.022 14.5101 232.763 14.4571 233.452 14.563C235.358 14.8808 236.841 16.6283 237 18.4818Z" fill="#FFEDE5"/>
<path d="M89.9392 16.4165H64.2021C64.2551 16.2577 64.3081 16.1518 64.414 16.0458C65.2613 14.7749 66.4793 13.7157 67.8562 13.0273C68.4387 12.7096 69.1271 12.4977 69.7626 12.5507C70.4511 12.6036 71.0865 13.0803 71.2454 13.7157C72.4105 12.0211 73.9462 10.6442 75.9056 10.0617C77.865 9.47919 80.1951 9.9558 81.5191 11.5445C82.3664 12.5507 82.6841 13.8217 83.0018 15.0926C83.9551 14.3512 85.0142 14.0864 86.1793 13.8746C86.6559 13.7687 87.1325 13.7687 87.5561 13.8217C88.8271 14.0335 89.8333 15.1985 89.9392 16.4165Z" fill="#FFEDE5"/>
<path d="M33.2752 20.6002H0.60083C0.706744 20.4414 0.759701 20.2295 0.865614 20.1236C1.97771 18.5349 3.4605 17.211 5.20808 16.3107C5.94947 15.94 6.79678 15.6223 7.64409 15.6752C8.49141 15.7811 9.33871 16.3107 9.49759 17.158C10.9804 15.0398 12.9398 13.2392 15.4288 12.4978C17.9177 11.7564 20.8833 12.3389 22.5779 14.3513C23.6371 15.6223 24.0607 17.2639 24.4844 18.8526C25.7024 17.9524 27.0793 17.5817 28.5621 17.3169C29.1446 17.211 29.7801 17.158 30.3626 17.2639C31.8983 17.5817 33.1693 19.0115 33.2752 20.6002Z" fill="#FFEDE5"/>
<path d="M48.6332 10.5384H27.5034C27.5564 10.4325 27.6093 10.3266 27.6623 10.2207C28.3507 9.16155 29.3569 8.31424 30.469 7.73172C30.9456 7.46693 31.5281 7.2551 32.0577 7.36102C32.5873 7.41397 33.1698 7.78467 33.2757 8.31424C34.2289 6.93736 35.4999 5.77231 37.0886 5.2957C38.6773 4.81909 40.6367 5.18978 41.6959 6.51371C42.3843 7.30806 42.6491 8.42016 42.9139 9.42634C43.7082 8.84381 44.5555 8.57903 45.5617 8.42016C45.9324 8.3672 46.3561 8.31424 46.7268 8.3672C47.7329 8.57903 48.5273 9.47929 48.6332 10.5384Z" fill="#FFEDE5"/>
<path d="M174.246 8.79079H197.229C196.488 7.83757 195.164 7.308 193.999 7.57278C194.899 5.98408 194.688 3.8658 193.522 2.43597C192.357 1.05909 190.292 0.476562 188.545 1.05909C186.797 1.64161 185.632 3.28328 184.785 4.92494C184.414 3.81285 183.249 3.07145 182.084 3.07145C180.919 3.07145 179.807 3.70693 179.171 4.66016C178.483 5.61338 178.271 6.77843 178.324 7.94348C178.112 7.25504 177.318 6.77843 176.576 6.83139C175.835 6.9373 175.199 7.57278 175.146 8.31418C174.988 8.10235 174.723 7.99644 174.458 8.10235C174.193 8.20827 174.193 8.52601 174.246 8.79079Z" fill="#FFEDE5"/>
<path d="M97.7669 170.137L97.4924 218.01L104.271 218.049L104.545 170.176L97.7669 170.137Z" fill="#DB7F6A"/>
<path d="M92.3978 170.106L92.1233 217.979L98.4781 218.016L98.7526 170.143L92.3978 170.106Z" fill="#7A1F27"/>
<path d="M31.9996 169.485L31.7251 217.358L38.5036 217.397L38.7781 169.524L31.9996 169.485Z" fill="#DB7F6A"/>
<path d="M26.683 169.455L26.4084 217.328L32.7633 217.364L33.0378 169.491L26.683 169.455Z" fill="#7A1F27"/>
<path d="M181.441 170.41L181.173 217.118L187.951 217.157L188.219 170.449L181.441 170.41Z" fill="#7A1F27"/>
<path d="M176.07 170.379L175.803 217.087L182.158 217.124L182.425 170.416L176.07 170.379Z" fill="#7A1F27"/>
<path d="M126.478 170.309L126.211 217.017L132.989 217.056L133.257 170.348L126.478 170.309Z" fill="#DB7F6A"/>
<path d="M121.108 170.279L120.841 216.987L127.195 217.023L127.463 170.315L121.108 170.279Z" fill="#7A1F27"/>
<path d="M24.3777 101.21L141.889 101.846L154.281 167.407L31.315 166.665L24.3777 101.21Z" fill="#DB7F6A"/>
<path d="M19.1882 101.157L24.378 101.21L31.8979 163.382L98.8883 163.753L98.8354 173.814L26.6552 173.444L19.1882 101.157Z" fill="#7A1F27"/>
<path d="M98.8352 173.814L188.279 174.344L188.332 164.176L98.7292 163.646L98.8352 173.814Z" fill="#DB7F6A"/>
<path d="M34.6516 107.502L41.6419 159.506L44.9252 159.612L38.3056 107.396L34.6516 107.502Z" fill="#7A1F27"/>
<path d="M52.6033 107.565L59.6465 159.622L62.8769 159.728L56.2573 107.512L52.6033 107.565Z" fill="#7A1F27"/>
<path d="M70.5564 107.406L77.5997 159.463L80.83 159.516L74.2104 107.301L70.5564 107.406Z" fill="#7A1F27"/>
<path d="M88.5095 107.248L95.5528 159.251L98.8361 159.357L92.1635 107.142L88.5095 107.248Z" fill="#7A1F27"/>
<path d="M106.462 107.036L113.505 159.092L116.788 159.198L110.169 106.983L106.462 107.036Z" fill="#7A1F27"/>
<path d="M124.467 106.877L131.457 158.934L134.74 158.986L128.121 106.771L124.467 106.877Z" fill="#7A1F27"/>
<path d="M177.211 142.242C177.211 142.242 205.173 149.497 208.297 153.575C209.568 155.481 193.257 195.04 193.257 195.04C193.257 195.04 180.548 192.763 179.435 191.81C182.666 177.353 187.803 160.724 187.803 160.724L159.524 149.074C159.577 149.021 176.258 142.666 177.211 142.242Z" fill="#691A22"/>
<path d="M202.525 217.176C187.114 217.07 172.975 217.017 172.975 217.017C172.975 217.017 173.24 215.852 173.61 214.052C175.04 207.591 178.323 192.763 179.065 190.751C179.065 190.751 182.454 191.916 185.155 192.816C185.42 192.922 185.685 192.975 185.949 193.081C188.756 193.981 193.893 194.722 193.893 194.722L189.868 209.656C189.868 209.656 197.441 212.41 201.095 215.693C201.677 216.117 202.154 216.647 202.525 217.176Z" fill="#FB4545"/>
<path d="M193.893 194.617L189.868 209.551C188.438 209.815 184.784 210.451 183.566 211.245C183.672 209.921 184.731 197.476 185.155 192.763C185.42 192.869 185.684 192.922 185.949 193.028C188.809 193.875 193.893 194.617 193.893 194.617Z" fill="#FB4545"/>
<path d="M202.525 217.176C187.114 217.07 172.975 217.017 172.975 217.017C172.975 217.017 173.24 215.852 173.61 214.052C180.865 214.528 195.27 215.323 201.148 215.64C201.677 216.117 202.154 216.647 202.525 217.176Z" fill="#FEFFFB"/>
<path d="M216.24 198.916C216.24 198.916 215.339 202.676 213.38 205.218C212.956 205.8 212.427 206.33 211.897 206.701C210.838 207.442 209.62 207.813 208.19 207.336C196.01 193.567 181.924 173.497 181.924 173.497C181.924 173.497 155.128 163.753 152.321 160.628C149.514 157.451 147.502 149.295 147.502 149.295L152.48 148.448L154.439 148.13L163.071 146.7C163.071 146.7 190.556 157.08 193.362 159.94C196.116 162.746 216.24 198.916 216.24 198.916Z" fill="#7A1F27"/>
<path d="M163.018 146.373C163.018 146.373 190.502 156.752 193.309 159.612C194.368 160.671 197.757 166.338 201.676 173.01" stroke="#7A1F27" stroke-width="0.75" stroke-miterlimit="10" stroke-linecap="round" stroke-linejoin="round"/>
<path d="M213.38 205.218C212.956 205.8 212.426 206.33 211.897 206.701C201.411 193.25 184.359 166.295 184.359 166.295C184.359 166.295 162.223 160.046 158.622 157.98C155.921 156.445 153.538 151.096 152.479 148.448L154.439 148.13C155.604 150.831 157.457 154.644 159.099 156.127C161.747 158.51 185.63 164.6 185.63 164.6C185.63 164.6 194.209 177.839 199.028 186.048C201.835 190.92 208.455 199.234 213.38 205.218Z" fill="#691A22"/>
<path d="M228.739 200.76C228.58 202.825 222.437 208.756 222.013 210.821C221.537 212.887 221.96 217.918 219.153 217.759C218.571 217.706 217.353 216.858 215.87 215.587C215.499 215.27 215.182 214.952 214.811 214.634C209.145 209.391 200.407 199.436 200.407 199.436C200.407 199.436 200.513 194.193 202.207 191.068C202.631 190.274 203.108 189.639 203.743 189.268C205.279 188.262 211.581 188.738 211.581 188.738L217.618 198.853C217.618 198.853 219.418 197.053 221.484 195.252C223.602 193.346 225.932 191.439 226.832 191.386C228.633 191.121 228.898 198.694 228.739 200.76Z" fill="#FB4545"/>
<path d="M228.739 200.76C228.58 202.825 222.437 208.756 222.013 210.821C221.537 212.887 221.96 217.918 219.154 217.759C218.571 217.706 217.353 216.858 215.87 215.588C215.182 215.005 214.811 214.105 214.917 213.204C215.182 209.55 215.553 206.426 216.453 203.884C216.665 203.302 218.359 199.806 219.895 197.847C221.272 196.046 222.755 194.405 224.449 192.922C225.508 192.022 226.356 191.333 226.885 191.28C228.633 191.121 228.898 198.694 228.739 200.76Z" fill="#FB4545"/>
<path d="M228.738 200.76C228.58 202.825 222.437 208.756 222.013 210.821C221.536 212.887 221.96 217.918 219.153 217.759C218.571 217.706 217.353 216.858 215.87 215.588C215.87 212.304 216.823 205.049 218.412 201.925C220.265 198.324 226.144 191.704 226.885 191.28C228.632 191.121 228.897 198.694 228.738 200.76Z" fill="#FEFFFB"/>
<path d="M217.618 198.8C217.618 198.8 215.5 200.971 214.282 202.295C213.276 202.03 205.226 193.928 202.208 191.068C202.631 190.274 203.108 189.639 203.743 189.268C205.279 188.262 211.581 188.738 211.581 188.738L217.618 198.8Z" fill="#FB4545"/>
<path d="M180.389 142.993L143.319 155.703L140.3 135.844C140.3 135.844 116.734 100.946 117.211 100.151C117.529 99.6217 122.983 97.6094 126.531 96.2854C128.279 95.65 129.55 95.2263 129.55 95.2263L151.474 90.4072L153.698 90.6191L158.676 91.0957L172.127 126.206L180.389 142.993Z" fill="#FB4545"/>
<path d="M153.752 90.3444C152.375 94.9516 149.356 102.313 143.531 110.839C133.787 106.496 128.862 100.141 126.585 96.0108C128.332 95.3753 129.603 94.9516 129.603 94.9516L151.527 90.1326L153.752 90.3444Z" fill="#FEFFFB"/>
<path d="M176.789 136.85C176.206 138.492 159.26 145.853 156.93 146.647C154.6 147.389 152.905 147.495 150.151 145.165C149.622 140.399 151.105 135.156 151.105 135.156C151.105 135.156 152.111 132.137 153.329 131.925C154.547 131.714 156.241 132.19 156.241 132.19C156.241 132.19 156.03 129.542 156.718 129.436C157.406 129.331 161.272 128.801 161.272 128.801C161.272 128.801 161.008 127.477 160.584 125.253C158.942 116.462 155.129 94.1671 158.73 91.2016C163.179 87.4416 174.829 114.079 175.941 119.11C176.948 124.035 177.318 135.156 176.789 136.85Z" fill="#FB4545"/>
<path d="M177.001 134.044C176.948 135.421 176.895 136.427 176.736 136.797C176.153 138.439 159.207 145.8 156.877 146.594C154.547 147.336 152.852 147.442 150.099 145.112" stroke="#7A1F27" stroke-width="0.75" stroke-miterlimit="10" stroke-linecap="round" stroke-linejoin="round"/>
<path d="M150.045 141.616C150.257 138.121 151.051 135.156 151.051 135.156C151.051 135.156 152.057 132.137 153.275 131.925C154.493 131.713 156.188 132.19 156.188 132.19C156.188 132.19 155.976 129.542 156.665 129.436C157.353 129.33 161.219 128.801 161.219 128.801C161.219 128.801 160.954 127.477 160.53 125.253C159.683 120.645 158.2 112.331 157.512 105.023" stroke="#7A1F27" stroke-width="0.75" stroke-miterlimit="10" stroke-linecap="round" stroke-linejoin="round"/>
<path d="M138.395 137.221C138.395 137.221 152.587 134.097 154.07 134.467C155.553 134.838 159.26 137.327 158.889 140.398C158.518 143.47 154.017 145.429 153.223 145.218C152.428 145.059 138.554 142.676 138.554 142.676C138.554 142.676 137.759 137.645 138.395 137.221Z" fill="#FFB4A1"/>
<path d="M161.325 128.42C161.802 128.314 162.332 128.261 162.861 128.261C165.191 128.261 167.892 129.215 169.11 131.121" stroke="#7A1F27" stroke-width="0.75" stroke-miterlimit="10" stroke-linecap="round" stroke-linejoin="round"/>
<path d="M161.537 129.374C162.649 129.797 163.549 130.486 163.92 131.651" stroke="#7A1F27" stroke-width="0.75" stroke-miterlimit="10" stroke-linecap="round" stroke-linejoin="round"/>
<path d="M162.013 127.626C162.914 126.62 164.132 126.408 165.403 126.355" stroke="#7A1F27" stroke-width="0.75" stroke-miterlimit="10" stroke-linecap="round" stroke-linejoin="round"/>
<path d="M186.426 217.176L179.012 217.229L154.493 217.388L155.182 215.482L156.347 212.145L167.626 208.703L172.763 206.373L175.093 208.968C175.093 208.968 181.819 210.504 183.302 211.881C183.99 212.516 184.732 213.734 185.314 214.846C185.95 216.117 186.426 217.176 186.426 217.176Z" fill="#7A1F27"/>
<path d="M186.426 217.176L179.012 217.229C177.794 214.052 175.305 212.728 170.804 210.557C169.744 210.027 168.632 209.392 167.626 208.703L172.763 206.373L175.093 208.968C175.093 208.968 181.819 210.504 183.301 211.881C183.99 212.516 184.731 213.734 185.314 214.846C185.949 216.117 186.426 217.176 186.426 217.176Z" fill="#FEFFFB"/>
<path d="M186.426 217.176L154.493 217.388L155.181 215.482L185.314 214.846C185.949 216.117 186.426 217.176 186.426 217.176Z" fill="#FEFFFB"/>
<path d="M175.042 206.542C173.665 206.436 169.958 208.236 166.039 210.355C165.298 210.725 164.556 211.149 163.815 211.573C159.155 214.168 154.812 216.762 154.336 216.709C153.382 216.604 150.576 210.302 150.47 209.613C150.364 208.925 137.919 156.656 137.919 156.656L84.4326 145.271C84.4326 145.271 88.0866 144.211 94.1767 143.099C95.8713 142.782 97.7778 142.464 99.7901 142.146C104.291 141.458 109.587 140.822 115.359 140.505C115.359 140.505 147.928 139.763 151.794 143.099C155.66 146.436 165.192 193.567 165.192 193.567C165.192 193.567 170.964 196.056 171.07 196.904C171.176 197.751 169.375 200.081 169.375 200.081C169.375 200.081 174.83 205.959 175.042 206.542Z" fill="#7A1F27"/>
<path d="M144.38 216.964L136.966 217.017L112.447 217.176L113.135 215.27L114.3 211.933L125.58 208.491L131.087 206.797L133.1 208.756C133.1 208.756 139.825 210.292 141.308 211.669C141.996 212.304 142.738 213.522 143.32 214.634C143.903 215.852 144.38 216.964 144.38 216.964Z" fill="#7A1F27"/>
<path d="M144.38 216.964L136.966 217.017C135.748 213.84 133.259 212.516 128.757 210.345C127.698 209.815 126.586 209.18 125.58 208.491L131.087 206.797L133.1 208.756C133.1 208.756 139.825 210.292 141.308 211.669C141.996 212.304 142.738 213.522 143.32 214.634C143.903 215.852 144.38 216.964 144.38 216.964Z" fill="#FEFFFB"/>
<path d="M144.38 216.964L112.447 217.176L113.135 215.27L143.268 214.634C143.903 215.852 144.38 216.964 144.38 216.964Z" fill="#FEFFFB"/>
<path d="M132.887 206.489L134.423 209.56C134.423 209.56 131.298 207.919 129.868 207.919C129.339 207.919 126.638 209.295 123.514 210.99C123.09 211.202 122.666 211.467 122.243 211.679C117.529 214.273 112.446 217.239 112.446 217.239C112.446 217.239 109.162 211.043 109.056 210.196C108.95 209.348 118.642 164.335 118.642 164.335C118.642 164.335 79.2416 164.017 76.6997 163.7C73.4693 163.276 67.2733 162.005 68.0677 150.831C68.5973 149.931 69.3387 149.136 70.133 148.395C71.8276 146.859 74.0518 145.641 76.5408 144.688C77.0704 144.476 77.5999 144.317 78.1295 144.106C87.9265 140.928 100.424 141.511 100.424 141.511C100.424 141.511 137.547 144.9 140.672 151.096C141.519 156.339 130.451 199.657 130.451 199.657C130.451 199.657 133.946 202.146 134.052 202.941C134.158 203.841 132.887 206.489 132.887 206.489Z" fill="#7A1F27"/>
<path d="M137.23 137.327C137.23 137.327 134.9 136.692 134.318 137.168C133.735 137.645 131.829 139.339 131.829 139.339C131.829 139.339 129.552 139.975 129.393 140.293C129.234 140.61 131.246 141.087 132.358 141.087C133.417 141.087 137.442 137.963 137.23 137.327Z" fill="#DB7F6A"/>
<path d="M143.584 141.034C143.637 141.828 141.678 144.794 140.778 144.9C140.566 144.9 140.354 144.9 140.195 144.847C139.719 144.688 139.507 144.317 139.507 144.317C139.454 144.37 139.03 144.847 138.659 144.9C138.448 144.953 138.13 144.688 137.759 144.423C137.388 144.159 137.124 143.841 137.124 143.841C137.124 143.841 137.071 143.894 136.859 144.106C136.753 144.211 136.276 144 135.8 143.735C135.376 143.47 134.952 143.205 134.952 143.205C134.952 143.205 134.529 143.788 134.158 144.053C133.787 144.317 132.675 143.841 132.569 143.47C132.411 143.099 135.959 135.738 136.382 135.421C136.806 135.103 138.183 135.897 138.395 136.427C138.606 136.956 138.395 137.327 138.395 137.327C138.395 137.327 139.136 137.433 139.454 137.645C139.983 137.963 139.877 138.651 139.877 138.651C139.877 138.651 141.307 138.863 141.625 139.022C141.943 139.181 142.155 140.081 142.155 140.081C142.155 140.081 143.531 140.24 143.584 141.034Z" fill="#FFB4A1"/>
<path d="M135.377 142.199L138.184 137.274" stroke="#7A1F27" stroke-width="0.75" stroke-miterlimit="10" stroke-linecap="round" stroke-linejoin="round"/>
<path d="M137.495 142.835L140.249 138.863" stroke="#7A1F27" stroke-width="0.75" stroke-miterlimit="10" stroke-linecap="round" stroke-linejoin="round"/>
<path d="M139.878 143.311L142.261 140.028" stroke="#7A1F27" stroke-width="0.75" stroke-miterlimit="10" stroke-linecap="round" stroke-linejoin="round"/>
<path d="M138.395 137.221C138.395 137.221 139.136 137.327 139.454 137.539C139.984 137.857 139.878 138.545 139.878 138.545C139.878 138.545 141.308 138.757 141.625 138.916C141.943 139.075 142.155 139.975 142.155 139.975C142.155 139.975 143.532 140.24 143.585 141.034" stroke="#7A1F27" stroke-width="0.75" stroke-miterlimit="10" stroke-linecap="round" stroke-linejoin="round"/>
<path d="M130.611 111.166C130.452 112.014 113.241 130.601 104.556 133.567C95.9238 136.586 73.1523 116.409 73.1523 116.409L82.9494 105.871C82.9494 105.871 99.366 113.496 102.12 113.496C104.926 113.496 123.091 99.145 123.091 99.145C123.091 99.145 131.458 105.923 130.611 111.166Z" fill="#FB4545"/>
<path d="M112.075 120.434L115.358 140.504C115.358 140.504 92.3746 143.841 82.9483 145.271C73.5219 146.7 72.7276 148.501 67.1141 153.797C65.1018 141.458 72.9924 83.7876 75.958 80.6102C78.341 79.0744 84.9077 76.4796 88.4028 75.1027C89.7797 74.5731 90.68 74.2554 90.68 74.2554L113.24 76.3207C113.24 76.3207 114.246 76.5325 115.729 76.9032C119.436 77.9094 126.055 80.1865 127.485 83.9465C129.603 89.2422 112.075 120.434 112.075 120.434Z" fill="#FB4545"/>
<path d="M78.3933 140.928C82.1003 134.944 99.0995 129.437 106.672 129.384" stroke="#7A1F27" stroke-width="0.75" stroke-miterlimit="10" stroke-linecap="round" stroke-linejoin="round"/>
<path d="M115.781 76.6815C115.41 80.3885 113.557 85.896 105.825 86.2667C97.0871 86.6904 90.997 78.7998 88.4551 74.828C89.832 74.2984 90.7322 73.9807 90.7322 73.9807L113.292 76.046C113.239 76.099 114.298 76.2579 115.781 76.6815Z" fill="#FEFFFB"/>
<path d="M123.515 65.9842C123.515 65.9842 125.315 63.6012 126.163 63.76C127.01 63.9189 127.804 65.7195 127.751 66.4079C127.698 67.0963 125.792 69.7971 124.521 69.956C123.409 70.0619 122.614 69.2146 122.614 68.9498C122.561 68.685 123.515 65.9842 123.515 65.9842Z" fill="#FFB4A1"/>
<path d="M111.598 75.1988C111.598 75.1988 111.598 75.1988 113.24 76.099C113.24 76.3638 113.187 76.6816 113.187 76.9463C113.134 77.4759 113.028 78.0055 112.869 78.4821C112.552 79.806 112.022 81.024 111.492 81.6065C110.645 82.5598 107.521 84.784 101.219 83.1953C94.864 81.6065 90.6804 74.0337 90.6804 74.0337C90.6804 74.0337 93.3812 72.6039 94.864 71.8095C96.2409 71.1211 99.3124 65.6136 99.3124 65.6136C100.795 63.6012 103.92 62.1184 106.25 61.3241C107.785 60.7415 109.003 60.4768 109.056 60.5827C109.215 60.7415 113.293 72.6568 113.293 72.6568L111.598 75.1988Z" fill="#FFB4A1"/>
<path d="M107.362 61.5887C107.203 62.0124 107.15 62.489 107.044 62.9127C106.885 63.8129 106.727 64.7132 106.621 65.6135C106.409 67.361 106.409 69.1616 106.938 70.8032C107.68 72.9215 109.798 75.6753 112.287 75.5694C111.652 75.1987 111.599 75.1987 111.599 75.1987L113.24 72.6038C113.24 72.6038 109.216 60.6885 109.004 60.5296C108.951 60.4766 108.368 60.5826 107.521 60.8473C107.521 61.1121 107.415 61.3239 107.362 61.5887Z" fill="#DB7F6A"/>
<path d="M126.903 59.2057C126.903 59.2057 125.42 63.1775 124.149 66.6727C123.355 68.8439 122.613 70.8562 122.349 71.4917C122.349 71.4917 122.349 71.4917 122.349 71.5447C121.766 73.1334 120.654 75.7283 119.118 76.2579C114.776 76.6285 108.05 70.9092 107.362 69.956C105.508 67.3081 107.786 57.2993 107.786 57.2993C107.997 55.181 112.075 53.6453 112.075 53.6453L126.903 59.2057Z" fill="#FFB4A1"/>
<path d="M105.774 62.4361C105.774 62.4361 108.315 61.9065 108.421 61.7476C108.527 61.5888 108.739 57.4581 108.739 57.4581C108.739 57.4581 112.287 58.782 112.393 58.3054C112.499 57.8288 112.34 54.4925 112.34 54.4925C112.34 54.4925 122.826 59.5764 123.938 59.7353C125.05 59.8941 126.427 59.7353 126.427 59.7353C126.427 59.7353 125.897 61.3769 125.632 62.4361C125.95 62.489 131.14 58.7291 131.034 58.1466C130.928 57.564 128.386 58.1466 128.386 58.1466C128.386 58.1466 130.716 55.4987 130.398 54.2807C130.134 53.0627 123.09 44.5366 122.084 44.4307C121.078 44.3248 122.296 48.0318 122.296 48.0318C122.296 48.0318 113.135 41.8888 112.499 42.4184C111.864 42.9479 115.094 46.2842 115.094 46.2842C115.094 46.2842 105.085 44.6425 103.02 46.0724C100.954 47.5552 99.3657 65.5605 99.3657 65.5605L105.774 62.4361Z" fill="#7A1F27"/>
<path d="M107.256 61.0591C107.256 61.0591 106.25 57.9876 105.349 57.8287C104.449 57.7228 102.966 59.2585 102.755 59.9999C102.596 60.6884 103.602 64.1835 104.82 64.766C105.932 65.2427 107.044 64.6601 107.15 64.4483C107.256 64.1306 107.256 61.0591 107.256 61.0591Z" fill="#FFB4A1"/>
<path d="M104.026 60.4765C104.132 60.0529 104.396 59.8411 104.714 59.8411C105.35 59.8411 106.091 60.5295 106.091 61.2709C106.091 61.4298 106.038 61.5886 105.985 61.6946C105.932 61.6946 105.826 61.6946 105.773 61.6946C105.667 61.6946 105.508 61.6946 105.403 61.6946C104.979 61.6946 104.767 62.0653 104.767 62.383C104.767 62.8596 105.138 63.3362 105.508 63.3362C105.773 63.3362 106.038 63.1244 106.25 62.5948" stroke="#7A1F27" stroke-width="0.75" stroke-miterlimit="10" stroke-linecap="round" stroke-linejoin="round"/>
<path d="M120.124 67.9437C120.124 67.9437 117.793 67.2023 117.741 67.4671C117.688 67.6789 118.217 68.2614 118.535 68.3144C118.853 68.4203 120.124 68.2614 120.124 67.9437Z" fill="#FFB4A1"/>
<path d="M53.8765 155.746C53.7706 155.958 48.316 163.901 46.8862 164.219C45.4564 164.537 39.3134 164.961 38.6249 164.484C37.9365 164.007 46.0389 160.194 47.098 159.188C48.1042 158.182 53.5058 153.257 53.8236 153.628C54.1413 154.051 53.8765 155.746 53.8765 155.746Z" fill="#DB7F6A"/>
<path d="M57.0007 148.66L58.0069 152.208C58.0069 152.208 59.4897 154.008 60.0192 155.067C60.5488 156.074 59.3308 161.369 59.3308 161.369C59.3308 161.369 61.6079 163.911 60.8665 164.123C60.1781 164.335 57.901 163.699 57.4243 162.852C56.9477 162.005 56.3652 158.192 56.3652 158.192L54.4058 155.491C54.4058 155.491 50.2222 160.045 48.4746 161.105C47.2566 161.846 41.6961 164.547 39.1542 164.653C37.6714 164.706 37.2478 164.176 37.5655 163.858C37.8833 163.541 45.4561 159.039 45.4561 159.039L51.8109 148.713L57.0007 148.66Z" fill="#FFB4A1"/>
<path d="M78.9253 79.1803C78.3957 78.9155 70.7699 82.4636 69.8167 83.8405C68.8635 85.2704 65.792 94.9615 65.792 94.9615C65.792 94.9615 51.4407 116.197 50.1167 119.957C48.7928 123.717 49.5872 150.99 49.5872 150.99C49.5872 150.99 51.5995 151.466 54.3003 151.466C57.0011 151.466 61.3966 149.507 61.3966 149.507L64.3621 122.128C64.3621 122.128 84.6446 101.369 85.386 96.9738C86.1274 92.6314 80.8847 80.1335 78.9253 79.1803Z" fill="#FB4545"/>
<path d="M59.1709 103.054C59.5945 103.742 62.9308 105.013 63.6722 104.537C63.884 104.431 64.0429 104.272 64.0959 104.113C64.3606 103.689 64.3077 103.266 64.3077 103.266C64.3606 103.266 64.9961 103.372 65.3668 103.266C65.5257 103.213 65.6846 102.789 65.7905 102.366C65.8964 101.942 65.9494 101.518 65.9494 101.518C65.9494 101.518 66.0553 101.518 66.2671 101.571C66.426 101.624 66.6907 101.148 66.9026 100.671C67.1144 100.194 67.2733 99.7707 67.2733 99.7707C67.2733 99.7707 67.9617 99.9825 68.3854 99.9825C68.809 99.9825 69.4445 98.9763 69.3386 98.5527C69.2327 98.182 62.0835 94.2102 61.5539 94.2102C61.0244 94.2102 60.3359 95.64 60.4948 96.1696C60.6537 96.6992 61.0244 96.858 61.0244 96.858C61.0244 96.858 60.4418 97.3876 60.3359 97.7583C60.0711 98.3408 60.6007 98.8175 60.6007 98.8175C60.6007 98.8175 59.5416 99.8236 59.3827 100.141C59.2238 100.459 59.5945 101.306 59.5945 101.306C59.5945 101.306 58.7472 102.366 59.1709 103.054Z" fill="#FFB4A1"/>
<path d="M62.614 97.1228C63.5672 97.7583 66.0033 99.0293 67.3801 99.7706" stroke="#7A1F27" stroke-width="0.75" stroke-miterlimit="10" stroke-linecap="round" stroke-linejoin="round"/>
<path d="M66.0567 101.518C66.0567 101.518 62.7204 99.9826 61.3965 99.1353" stroke="#7A1F27" stroke-width="0.75" stroke-miterlimit="10" stroke-linecap="round" stroke-linejoin="round"/>
<path d="M64.3609 103.319C64.3609 103.319 61.4483 101.995 60.3892 101.359" stroke="#7A1F27" stroke-width="0.75" stroke-miterlimit="10" stroke-linecap="round" stroke-linejoin="round"/>
<path d="M145.015 80.7592C145.015 80.7592 144.644 79.0646 144.168 79.0116C143.691 78.9586 141.361 81.3947 141.361 81.3947C141.361 81.3947 142.791 81.3417 142.95 81.4476C143.109 81.5535 142.579 82.5067 142.367 82.6656C142.155 82.8245 141.096 82.136 141.096 82.136C141.096 82.136 141.626 83.1952 142.155 83.1952C142.738 83.1952 144.115 81.9242 144.115 81.9242L143.214 82.136C143.214 82.136 143.85 81.1299 143.691 80.8651C143.532 80.6003 142.367 80.8651 142.367 80.8651C142.367 80.8651 143.479 79.6471 143.797 79.7C144.327 79.8589 145.015 80.7592 145.015 80.7592Z" fill="#DB7F6A"/>
<path d="M124.256 69.8501C124.044 69.6382 120.866 70.6974 119.754 71.2269C118.642 71.8095 121.608 77.4229 121.608 77.4229C121.608 77.4229 118.483 90.1325 121.025 95.2164C132.623 92.5156 152.111 87.6436 153.858 86.2667C151.052 78.7468 147.292 66.3549 144.379 64.4485C141.466 62.542 126.85 64.3425 123.09 66.3549C121.661 67.0433 124.256 69.8501 124.256 69.8501Z" fill="#7A1F27"/>
<path d="M151.474 90.1325C151.474 90.1325 145.226 105.596 142.048 107.502C134.422 103.478 129.762 96.1167 129.497 95.0046C132.092 94.1572 133.257 93.5747 133.681 92.4097C133.787 92.0919 133.84 91.5094 133.787 90.8739C133.734 89.3382 133.363 87.3258 133.363 87.3258L133.204 84.4661L141.73 81.6594C141.73 81.6594 142.101 83.7777 142.948 85.843C143.637 87.5376 144.59 89.1793 145.861 89.55C148.774 90.2914 151.474 90.1325 151.474 90.1325Z" fill="#FFB4A1"/>
<path d="M133.841 90.874C133.999 90.874 134.211 90.821 134.423 90.821C135.959 90.3974 137.336 89.709 138.448 88.438C139.348 87.3789 139.878 86.1079 140.354 84.784C140.672 83.9367 141.043 82.8775 141.096 81.8713L133.258 84.4662L133.417 87.3259C133.417 87.3259 133.788 89.3383 133.841 90.874Z" fill="#DB7F6A"/>
<path d="M141.519 79.9647C141.519 79.9647 143.743 77.6346 144.644 77.8994C145.491 78.1642 146.179 80.2295 146.021 80.9709C145.862 81.7123 143.479 84.3601 142.102 84.3601C140.884 84.3072 140.142 83.301 140.142 83.0362C140.195 82.7714 141.519 79.9647 141.519 79.9647Z" fill="#FFB4A1"/>
<path d="M143.532 76.9992C143.532 76.9992 140.566 85.4723 138.659 86.9021C136.753 88.332 128.492 89.8148 125.526 88.332C124.944 87.8024 124.732 86.1078 124.626 83.8836C124.573 82.4008 124.573 80.7062 124.626 79.0116C124.785 74.828 125.155 70.8562 125.155 70.8562L143.532 76.9992Z" fill="#FFB4A1"/>
<path opacity="0.33" d="M136.541 77.9524C135.429 78.3761 134.476 79.5411 134.476 80.6532C134.476 82.0301 135.8 83.0363 137.177 83.0363C138.66 83.0363 139.825 81.7653 139.825 80.3355C139.825 79.1175 138.977 77.8995 137.706 77.7406C137.336 77.6876 136.912 77.7935 136.541 77.9524Z" fill="#FFB4A1"/>
<path opacity="0.33" d="M126.109 81.3948C126.109 82.4539 125.526 83.4071 124.626 83.8308C124.573 82.348 124.573 80.6534 124.626 78.9587C125.579 79.3824 126.109 80.3886 126.109 81.3948Z" fill="#FFB4A1"/>
<path d="M132.304 75.8871C132.304 75.8871 133.257 74.8809 134.316 74.9868C135.217 75.0927 135.746 76.3637 135.746 76.3637C135.746 76.3637 134.475 75.6753 134.104 75.6223C133.469 75.5693 132.304 75.8871 132.304 75.8871Z" fill="#7A1F27"/>
<path d="M125.844 76.3108C125.844 76.3108 126.479 75.0928 127.538 74.934C128.438 74.828 129.286 75.8872 129.286 75.8872C129.286 75.8872 127.909 75.5694 127.538 75.6224C126.903 75.7283 125.844 76.3108 125.844 76.3108Z" fill="#7A1F27"/>
<path d="M139.348 67.6789C137.389 67.0435 127.751 68.4203 125.579 70.115C126.586 71.2271 128.068 71.9155 129.445 72.498C130.981 73.1335 132.464 73.716 134.052 74.1397C135.535 74.5633 137.071 74.934 138.607 75.1988C139.613 75.3577 140.937 75.3577 141.837 75.9402C142.631 76.4698 142.473 77.8467 142.526 78.641C142.526 78.694 142.526 78.694 142.526 78.7469L142.737 79.4883C142.737 79.4883 145.915 78.7999 146.444 77.3701C146.974 75.8873 141.572 68.4203 139.348 67.6789Z" fill="#7A1F27"/>
<path d="M127.114 76.9464C127.008 77.2641 127.22 77.6348 127.591 77.7407C127.909 77.8467 128.279 77.6348 128.385 77.2641C128.491 76.9464 128.279 76.5757 127.909 76.4698C127.538 76.4168 127.167 76.6286 127.114 76.9464Z" fill="#7A1F27"/>
<path d="M133.152 76.7873C133.046 77.1051 133.258 77.4758 133.629 77.5817C133.947 77.6876 134.317 77.4758 134.423 77.1051C134.529 76.7873 134.317 76.4166 133.947 76.3107C133.576 76.2048 133.258 76.4166 133.152 76.7873Z" fill="#7A1F27"/>
<path d="M130.398 77.4229C130.028 78.7997 129.763 80.1766 129.021 81.2887C129.551 81.6594 130.134 81.9242 130.716 82.2419" stroke="#7A1F27" stroke-width="0.75" stroke-miterlimit="10" stroke-linecap="round" stroke-linejoin="round"/>
<path d="M129.287 83.566C129.34 83.566 129.445 83.566 129.498 83.566C131.14 83.566 132.517 83.4601 134 82.5598" stroke="#7A1F27" stroke-width="0.75" stroke-miterlimit="10" stroke-linecap="round" stroke-linejoin="round"/>
<path d="M144.115 80.6002C144.062 80.1766 143.85 80.0177 143.585 79.9647C143.055 79.8588 142.261 80.3884 142.155 81.0239C142.155 81.1298 142.155 81.2887 142.155 81.4475C142.208 81.4475 142.261 81.5005 142.314 81.5005C142.42 81.5005 142.526 81.5005 142.632 81.5534C143.002 81.6064 143.161 81.9771 143.108 82.2419C143.055 82.6655 142.685 83.0362 142.314 82.9833C142.102 82.9303 141.89 82.7185 141.784 82.2419" stroke="#7A1F27" stroke-width="0.75" stroke-miterlimit="10" stroke-linecap="round" stroke-linejoin="round"/>
<path d="M142.949 61.8005C142.949 61.8005 141.36 60.1588 140.725 60.3177C140.089 60.5295 138.024 61.3769 138.024 61.3769C138.024 61.3769 136.012 60.9532 135.8 61.218C135.588 61.4298 136.965 62.8596 137.812 63.3363C138.659 63.7599 142.896 62.5419 142.949 61.8005Z" fill="#DB7F6A"/>
<path d="M148.298 67.1491C148.033 67.9435 145.173 70.0088 144.326 69.744C144.114 69.6911 143.902 69.5852 143.796 69.4792C143.425 69.1615 143.373 68.7378 143.373 68.7378C143.32 68.7908 142.737 69.0556 142.366 69.0026C142.155 69.0026 141.943 68.6319 141.731 68.2612C141.519 67.8905 141.36 67.4669 141.36 67.4669C141.36 67.4669 141.307 67.5198 141.042 67.6258C140.884 67.6787 140.513 67.308 140.195 66.8844C139.877 66.5137 139.613 66.09 139.613 66.09C139.613 66.09 139.03 66.4607 138.606 66.6196C138.183 66.7255 137.335 65.9311 137.335 65.5075C137.335 65.1368 143.214 59.4704 143.743 59.3115C144.273 59.1527 145.279 60.3707 145.279 60.9532C145.279 61.4828 144.961 61.8005 144.961 61.8005C144.961 61.8005 145.65 62.1712 145.861 62.4889C146.232 63.0185 145.914 63.601 145.914 63.601C145.914 63.601 147.185 64.2895 147.397 64.5543C147.609 64.819 147.503 65.7193 147.503 65.7193C147.503 65.7193 148.562 66.3548 148.298 67.1491Z" fill="#FFB4A1"/>
<path d="M144.06 62.542C143.848 62.7538 141.2 65.7724 140.088 66.8845C139.771 66.5138 139.506 66.0901 139.506 66.0901L144.06 62.542Z" fill="#DB7F6A"/>
<path d="M144.802 64.6072C144.484 65.6134 142.631 67.5198 141.677 68.2612C141.466 67.8905 141.307 67.4669 141.307 67.4669C141.307 67.4669 143.902 65.9311 144.802 64.6072Z" fill="#DB7F6A"/>
<path d="M146.497 66.0901C146.497 66.0901 144.855 68.4732 143.796 69.4793C143.426 69.1616 143.373 68.7379 143.373 68.7379L146.497 66.0901Z" fill="#DB7F6A"/>
<path d="M131.987 205.579C130.239 205.208 128.492 204.943 126.797 204.943C124.149 204.943 121.607 205.632 119.33 207.644" stroke="#FEFFFB" stroke-width="0.75" stroke-miterlimit="10" stroke-linecap="round" stroke-linejoin="round"/>
<path d="M168.474 200.548C165.191 201.766 161.696 202.03 159.26 204.996" stroke="#FEFFFB" stroke-width="0.75" stroke-miterlimit="10" stroke-linecap="round" stroke-linejoin="round"/>
<path d="M163.126 193.187C161.22 193.451 159.631 194.034 157.883 194.669" stroke="#FEFFFB" stroke-width="0.75" stroke-miterlimit="10" stroke-linecap="round" stroke-linejoin="round"/>
<path d="M119.118 163.541C119.489 161.634 120.919 159.675 122.243 158.245" stroke="white" stroke-width="0.75" stroke-miterlimit="10" stroke-linecap="round" stroke-linejoin="round"/>
<path d="M120.494 164.017C121.13 162.481 122.559 161.105 123.883 160.045" stroke="white" stroke-width="0.75" stroke-miterlimit="10" stroke-linecap="round" stroke-linejoin="round"/>
<path d="M112.075 120.159L111.069 89.3911" stroke="#7A1F27" stroke-width="0.75" stroke-miterlimit="10" stroke-linecap="round" stroke-linejoin="round"/>
<path d="M86.3379 139.71C93.6989 136.109 101.166 135.103 109.162 135.103C109.798 135.103 110.38 135.103 111.016 135.103" stroke="#7A1F27" stroke-width="0.75" stroke-miterlimit="10" stroke-linecap="round" stroke-linejoin="round"/>
<path d="M69.2329 116.717C75.9584 111.05 80.5657 102.63 84.9611 95.1104" stroke="#7A1F27" stroke-width="0.75" stroke-miterlimit="10" stroke-linecap="round" stroke-linejoin="round"/>
<path d="M119.277 69.3736C119.012 69.8502 118.747 70.3268 118.641 70.8034C117.318 70.4857 115.411 69.2676 115.411 67.8908C115.411 67.7848 115.411 67.7319 115.464 67.626C116.576 68.4733 117.9 69.0029 119.277 69.3736Z" fill="#FEFFFB"/>
<path d="M116.734 62.5421C116.628 62.8598 116.84 63.2305 117.211 63.3364C117.529 63.4424 117.899 63.2305 118.005 62.8598C118.111 62.5421 117.899 62.1714 117.529 62.0655C117.158 62.0125 116.787 62.2244 116.734 62.5421Z" fill="#7A1F27"/>
<path d="M122.931 64.4485C122.825 64.7662 123.037 65.1369 123.408 65.2428C123.726 65.3487 124.096 65.1369 124.202 64.7662C124.308 64.4485 124.096 64.0778 123.726 63.9718C123.408 63.8659 123.037 64.0778 122.931 64.4485Z" fill="#7A1F27"/>
<path d="M119.118 60.7944C118.694 60.3707 118.059 60.2648 117.476 60.3178C117.265 60.3178 115.888 60.6355 116.258 61.0592C116.47 61.3239 116.894 61.218 117.159 61.218C117.953 61.218 118.43 61.5887 119.118 61.9065C119.171 61.9065 119.224 61.9594 119.277 61.9594C119.383 61.9594 119.383 61.8535 119.383 61.7476C119.489 61.3239 119.383 61.0062 119.118 60.7944Z" fill="#7A1F27"/>
<path d="M122.613 62.4891C122.561 62.542 122.508 62.648 122.561 62.7009C122.561 62.7539 122.613 62.7539 122.666 62.7539C123.302 62.9127 123.831 62.9657 124.308 63.4423C124.52 63.6012 124.679 63.9189 124.997 63.866C125.526 63.813 124.785 62.8068 124.679 62.7009C124.361 62.3302 123.831 62.0654 123.355 62.0654C123.09 62.0654 122.825 62.2243 122.613 62.4891Z" fill="#7A1F27"/>
<path d="M121.183 63.9719C121.077 64.2897 121.025 64.6604 121.025 64.9781C121.025 65.6136 121.183 66.302 121.395 66.9375C120.972 67.1493 120.601 67.2553 120.071 67.3082" stroke="#7A1F27" stroke-width="0.75" stroke-miterlimit="10" stroke-linecap="round" stroke-linejoin="round"/>
<path d="M124.572 111.951L126.531 115.552" stroke="#7A1F27" stroke-width="0.75" stroke-miterlimit="10" stroke-linecap="round" stroke-linejoin="round"/>
<path d="M203.109 55.0221C200.408 56.1871 197.231 56.1342 194.583 54.9691C193.948 54.7043 193.948 53.6452 194.583 53.3804C193.948 53.3804 193.312 53.3275 192.73 53.1156C192.147 52.9038 191.617 52.4272 191.459 51.8447C191.3 51.2621 191.67 50.5207 192.306 50.4148C191.512 50.5207 190.664 49.9382 190.399 49.1968C190.188 48.4025 190.558 47.5022 191.3 47.1315C190.452 46.9726 189.658 46.3372 189.393 45.4898C189.181 44.6425 189.552 43.6364 190.294 43.1597C189.552 42.842 189.128 41.9947 189.287 41.2533C189.446 40.5119 190.188 39.8764 190.982 39.8764C190.717 39.2409 190.505 38.5525 190.558 37.917C190.664 37.2286 191.088 36.5931 191.776 36.3813C192.465 36.2224 193.259 36.699 193.259 37.3874C193.312 39.188 195.377 40.406 197.231 40.4589C199.084 40.5119 200.885 39.8235 202.738 39.7705C204.592 39.6646 206.763 40.4589 207.24 42.2065C207.663 43.8482 208.14 45.4369 208.828 47.1315C206.869 49.7264 204.963 52.3213 203.109 55.0221Z" fill="#FEFFFB"/>
<path d="M192.147 40.459C192.677 41.677 194 42.3654 195.271 42.5773C196.542 42.7891 197.866 42.5773 199.19 42.5243C200.514 42.4713 201.891 42.5243 203.003 43.2127C204.115 43.9012 204.91 45.2781 204.539 46.549" stroke="#7A1F27" stroke-width="0.5" stroke-miterlimit="10" stroke-linecap="round" stroke-linejoin="round"/>
<path d="M194.635 43.0537C194.371 43.5303 194.318 44.1658 194.583 44.6424C194.847 45.119 195.377 45.4897 195.906 45.4897C195.271 45.5956 194.741 46.2841 194.794 46.9725C194.847 47.661 195.483 48.1905 196.171 48.1905C195.536 48.4024 195.218 49.1438 195.377 49.7792C195.589 50.4147 196.33 50.7854 196.966 50.5206C196.595 51.262 196.754 52.2682 197.336 52.7978C197.972 53.3273 198.978 53.3803 199.613 52.9037" stroke="#7A1F27" stroke-width="0.5" stroke-miterlimit="10" stroke-linecap="round" stroke-linejoin="round"/>
<path d="M212.64 57.67C214.547 59.8412 217.459 61.2181 220.372 61.324C221.061 61.324 221.537 60.3708 221.061 59.8942C221.643 60.1589 222.226 60.4237 222.861 60.4767C223.497 60.5296 224.185 60.3708 224.556 59.8942C224.926 59.4176 224.926 58.5702 224.397 58.2525C225.085 58.6762 226.091 58.5702 226.621 57.9348C227.151 57.3522 227.204 56.3461 226.727 55.7106C227.574 55.9754 228.58 55.7106 229.163 55.0221C229.745 54.3337 229.798 53.2746 229.375 52.5332C230.169 52.5332 230.911 51.9506 231.122 51.2092C231.281 50.4678 230.911 49.5676 230.222 49.2498C230.752 48.8262 231.228 48.2966 231.44 47.6611C231.652 47.0256 231.546 46.2313 231.016 45.7547C230.487 45.331 229.534 45.384 229.216 46.0195C228.369 47.6611 225.986 47.82 224.291 47.0786C222.596 46.3372 221.272 44.9603 219.631 44.113C217.989 43.2127 215.712 43.0009 214.494 44.3778C213.382 45.6488 212.27 46.9197 210.946 48.1907C211.528 51.2092 212.111 54.3867 212.64 57.67Z" fill="#FEFFFB"/>
<path d="M228.792 49.197C227.786 50.0443 226.303 50.1502 225.032 49.7795C223.761 49.4088 222.649 48.6674 221.537 48.0319C220.372 47.3964 219.101 46.8669 217.83 46.9728C216.506 47.0787 215.182 48.0319 215.023 49.3559" stroke="#7A1F27" stroke-width="0.5" stroke-miterlimit="10" stroke-linecap="round" stroke-linejoin="round"/>
<path d="M225.455 50.4678C225.508 51.0503 225.244 51.5799 224.82 51.9506C224.396 52.2683 223.761 52.3742 223.231 52.1624C223.761 52.5331 223.92 53.3804 223.602 53.9629C223.231 54.5455 222.437 54.7573 221.854 54.4925C222.331 54.9691 222.331 55.8164 221.854 56.2401C221.378 56.7167 220.583 56.7167 220.107 56.2401C220.16 57.0874 219.577 57.8817 218.783 58.1465C217.988 58.3583 217.088 57.9877 216.665 57.2463" stroke="#7A1F27" stroke-width="0.5" stroke-miterlimit="10" stroke-linecap="round" stroke-linejoin="round"/>
<path d="M220.371 51.4211C220.318 51.7388 220.001 52.7979 219.683 54.1748C218.994 56.8756 217.935 60.7415 217.459 61.8536C216.929 63.0186 215.34 62.8068 213.963 62.4891C212.587 62.1713 198.235 58.9409 197.176 57.3522C196.911 56.9815 196.964 56.0283 197.176 54.9162C197.6 52.6391 198.659 49.4617 199.083 48.0848C199.665 46.0724 200.142 44.3248 201.73 44.166C203.743 43.9541 218.253 48.1377 219.259 48.6144C220.424 49.2498 220.742 49.9383 220.371 51.4211Z" fill="#E8E5E3"/>
<path d="M197.283 57.1934C204.697 54.2808 212.27 51.7918 219.949 49.6206" stroke="#7A1F27" stroke-width="0.5" stroke-miterlimit="10" stroke-linecap="round" stroke-linejoin="round"/>
<path d="M200.938 44.6426C205.862 50.3619 211.317 55.9754 216.613 62.1183" stroke="#7A1F27" stroke-width="0.5" stroke-miterlimit="10" stroke-linecap="round" stroke-linejoin="round"/>
<path d="M207.61 57.0875C208.669 56.8227 209.675 56.505 210.628 55.9754C211.529 55.4458 212.323 54.5985 212.588 53.5394C212.853 52.4803 212.429 51.2622 211.476 50.7856C210.523 50.309 209.146 50.8386 208.616 51.7918C208.987 50.7327 207.981 49.5676 206.869 49.5676C205.756 49.5676 204.803 50.4679 204.538 51.58C204.274 52.6391 204.644 53.8042 205.227 54.7044C205.862 55.6047 206.657 56.3461 207.61 57.0875Z" fill="#FB4545"/>
<path d="M119.331 19.6471C117.795 21.6065 115.412 22.8774 112.976 23.0893C112.394 23.1422 111.97 22.3479 112.341 21.8713C111.864 22.136 111.387 22.3479 110.858 22.4538C110.328 22.5067 109.746 22.4008 109.375 22.0301C109.004 21.6594 109.004 20.971 109.428 20.6003C108.845 20.971 107.998 20.918 107.522 20.4414C107.045 19.9648 106.939 19.1175 107.363 18.5879C106.674 18.8527 105.774 18.6409 105.297 18.1113C104.768 17.5818 104.662 16.6815 105.033 15.993C104.344 16.046 103.709 15.5694 103.497 14.9339C103.285 14.2984 103.603 13.557 104.185 13.2393C103.709 12.8686 103.285 12.4449 103.073 11.9154C102.861 11.3858 102.914 10.6974 103.338 10.2737C103.762 9.85005 104.556 9.903 104.874 10.3796C105.668 11.7035 107.68 11.7565 109.057 11.0681C110.487 10.3796 111.546 9.16161 112.87 8.3143C114.194 7.51994 116.154 7.2022 117.213 8.3143C118.219 9.32048 119.172 10.3796 120.39 11.3858C120.019 14.1396 119.649 16.8404 119.331 19.6471Z" fill="#FEFFFB"/>
<path d="M105.297 13.1863C106.197 13.8747 107.415 13.8747 108.475 13.504C109.534 13.1333 110.434 12.4449 111.387 11.8624C112.34 11.2798 113.4 10.8032 114.512 10.8032C115.624 10.8562 116.789 11.5976 117.001 12.7097" stroke="#7A1F27" stroke-width="0.5" stroke-miterlimit="10" stroke-linecap="round" stroke-linejoin="round"/>
<path d="M108.156 14.1396C108.156 14.6163 108.368 15.0929 108.792 15.3577C109.163 15.6224 109.692 15.6754 110.116 15.4636C109.692 15.8343 109.586 16.5227 109.904 16.9993C110.222 17.4759 110.91 17.6348 111.44 17.37C111.069 17.7937 111.122 18.4821 111.493 18.8528C111.916 19.2235 112.605 19.2235 112.976 18.7999C112.976 19.4883 113.505 20.1767 114.194 20.3356C114.882 20.4945 115.623 20.1238 115.941 19.4883" stroke="#7A1F27" stroke-width="0.5" stroke-miterlimit="10" stroke-linecap="round" stroke-linejoin="round"/>
<path d="M127.539 17.7406C129.869 18.5879 132.57 18.429 134.742 17.3169C135.271 17.0521 135.218 16.1519 134.689 15.94C135.218 15.8871 135.748 15.8341 136.277 15.6223C136.807 15.4105 137.231 14.9868 137.283 14.5102C137.389 13.9806 137.019 13.3981 136.489 13.3452C137.178 13.3981 137.866 12.8685 138.025 12.2331C138.184 11.5446 137.813 10.8032 137.178 10.5384C137.866 10.3796 138.554 9.79704 138.713 9.05564C138.872 8.31425 138.501 7.51989 137.866 7.1492C138.449 6.83145 138.766 6.09006 138.607 5.45458C138.449 4.81909 137.813 4.34248 137.125 4.34248C137.336 3.81291 137.495 3.23039 137.389 2.64786C137.283 2.06534 136.86 1.53577 136.33 1.42985C135.748 1.32394 135.059 1.74759 135.112 2.33012C135.165 3.86587 133.471 4.97796 131.882 5.08388C130.293 5.24275 128.757 4.71318 127.169 4.76614C125.58 4.76614 123.779 5.50753 123.462 7.04328C123.144 8.42016 122.826 9.85 122.35 11.2798C124.097 13.3981 125.792 15.5164 127.539 17.7406Z" fill="#FEFFFB"/>
<path d="M136.118 4.87207C135.747 5.93121 134.635 6.56669 133.576 6.83148C132.464 7.0433 131.352 6.93739 130.24 6.93739C129.128 6.93739 127.963 7.0433 127.063 7.67879C126.109 8.31427 125.527 9.53228 125.95 10.5914" stroke="#7A1F27" stroke-width="0.5" stroke-miterlimit="10" stroke-linecap="round" stroke-linejoin="round"/>
<path d="M134.159 7.20215C134.424 7.57285 134.477 8.15537 134.265 8.57903C134.053 9.00268 133.629 9.32042 133.153 9.37338C133.735 9.42634 134.159 10.0089 134.159 10.5914C134.106 11.1739 133.629 11.6505 133.047 11.7035C133.576 11.8624 133.894 12.4978 133.788 13.0274C133.629 13.557 132.994 13.9277 132.517 13.7688C132.888 14.3513 132.782 15.2516 132.305 15.7282C131.829 16.2048 130.981 16.3107 130.346 15.94" stroke="#7A1F27" stroke-width="0.5" stroke-miterlimit="10" stroke-linecap="round" stroke-linejoin="round"/>
<path d="M130.769 9.95587C130.822 10.2207 131.087 11.1209 131.352 12.286C131.934 14.6161 132.676 17.8994 132.782 18.9056C132.835 19.9647 131.617 20.4943 130.452 20.812C129.287 21.1298 117.318 24.519 115.889 23.7776C115.518 23.6187 115.2 22.8773 114.882 21.9771C114.247 20.0706 113.77 17.3169 113.558 16.1518C113.188 14.4572 112.817 12.9215 113.929 12.1271C115.359 11.1209 127.857 8.42012 128.81 8.36716C129.922 8.3142 130.452 8.6849 130.769 9.95587Z" fill="#E8E5E3"/>
<path d="M115.888 23.5657C120.23 18.3759 124.891 13.451 129.71 8.73779" stroke="#7A1F27" stroke-width="0.5" stroke-miterlimit="10" stroke-linecap="round" stroke-linejoin="round"/>
<path d="M113.505 12.7625C119.489 15.0396 125.844 16.999 132.252 19.488" stroke="#7A1F27" stroke-width="0.5" stroke-miterlimit="10" stroke-linecap="round" stroke-linejoin="round"/>
<path d="M123.513 19.3292C124.149 18.6937 124.837 18.0583 125.314 17.2639C125.791 16.4695 126.055 15.5163 125.791 14.669C125.579 13.7687 124.731 13.0274 123.831 13.0803C122.931 13.0803 122.084 14.0335 122.136 14.9868C121.978 14.0865 120.76 13.6099 119.912 14.0335C119.065 14.4572 118.747 15.5693 119.012 16.4695C119.277 17.3698 119.965 18.0583 120.813 18.5349C121.66 19.0115 122.56 19.1704 123.513 19.3292Z" fill="#FB4545"/>
<path d="M191.036 104.272C189.977 106.443 187.965 108.138 185.635 108.879C185.105 109.038 184.523 108.35 184.787 107.873C184.364 108.191 183.94 108.509 183.463 108.72C182.987 108.879 182.404 108.932 181.981 108.614C181.557 108.297 181.398 107.661 181.769 107.238C181.292 107.714 180.498 107.82 179.915 107.502C179.333 107.132 179.121 106.337 179.386 105.755C178.75 106.125 177.903 106.125 177.267 105.702C176.685 105.278 176.367 104.484 176.579 103.742C175.944 103.901 175.202 103.637 174.884 103.054C174.567 102.471 174.726 101.73 175.202 101.253C174.673 100.989 174.196 100.724 173.878 100.247C173.561 99.7707 173.508 99.1352 173.825 98.6586C174.143 98.182 174.937 98.0231 175.308 98.4467C176.314 99.5588 178.274 99.1881 179.492 98.2349C180.71 97.2817 181.451 95.9048 182.616 94.8457C183.728 93.7865 185.529 93.0981 186.8 93.9454C187.965 94.7398 189.13 95.4812 190.454 96.2226C190.56 98.8704 190.771 101.518 191.036 104.272Z" fill="#FEFFFB"/>
<path d="M176.261 100.989C177.268 101.465 178.433 101.201 179.386 100.618C180.339 100.036 181.028 99.2412 181.822 98.4468C182.616 97.6524 183.517 97.017 184.576 96.8051C185.635 96.5933 186.906 97.0699 187.329 98.1291" stroke="#7A1F27" stroke-width="0.5" stroke-miterlimit="10" stroke-linecap="round" stroke-linejoin="round"/>
<path d="M179.227 101.253C179.28 101.73 179.65 102.101 180.074 102.313C180.498 102.471 181.027 102.418 181.398 102.154C181.027 102.577 181.08 103.319 181.504 103.689C181.928 104.06 182.616 104.113 183.04 103.742C182.775 104.219 182.934 104.907 183.41 105.172C183.887 105.437 184.522 105.278 184.787 104.802C184.946 105.49 185.582 106.02 186.27 106.02C186.959 106.02 187.594 105.543 187.753 104.854" stroke="#7A1F27" stroke-width="0.5" stroke-miterlimit="10" stroke-linecap="round" stroke-linejoin="round"/>
<path d="M198.502 100.777C200.885 101.095 203.427 100.406 205.333 98.9233C205.757 98.5526 205.545 97.7053 204.962 97.6524C205.439 97.4935 205.968 97.3346 206.392 97.0169C206.816 96.6991 207.134 96.2225 207.134 95.693C207.134 95.1634 206.657 94.6868 206.127 94.7397C206.816 94.6338 207.345 93.9983 207.398 93.3629C207.451 92.7274 206.922 92.0389 206.233 91.933C206.869 91.6682 207.398 90.9268 207.398 90.1854C207.398 89.444 206.869 88.7556 206.18 88.4908C206.71 88.0672 206.869 87.3258 206.551 86.7432C206.286 86.1607 205.545 85.843 204.909 86.0018C205.015 85.4193 205.015 84.8368 204.803 84.3072C204.592 83.7777 204.062 83.354 203.532 83.354C203.003 83.354 202.42 83.9365 202.526 84.4661C202.897 85.9489 201.467 87.3258 199.984 87.8024C198.502 88.226 196.913 88.1201 195.43 88.4379C193.947 88.7556 192.359 89.8677 192.359 91.4034C192.359 92.7803 192.359 94.2102 192.147 95.693C194.318 97.3346 196.383 98.9763 198.502 100.777Z" fill="#FEFFFB"/>
<path d="M204.115 86.7432C203.956 87.8553 203.056 88.6496 202.05 89.1262C201.043 89.5499 199.931 89.7087 198.872 89.9206C197.813 90.1324 196.701 90.5031 195.96 91.2975C195.218 92.0918 194.848 93.3628 195.483 94.316" stroke="#7A1F27" stroke-width="0.5" stroke-miterlimit="10" stroke-linecap="round" stroke-linejoin="round"/>
<path d="M202.685 89.3381C203.003 89.6559 203.162 90.1854 203.056 90.6091C202.95 91.0857 202.632 91.4564 202.156 91.6153C202.685 91.5623 203.268 92.0389 203.374 92.5685C203.48 93.151 203.056 93.7336 202.526 93.8395C203.056 93.8924 203.533 94.422 203.48 94.9516C203.427 95.4811 202.897 95.9577 202.367 95.9048C202.844 96.4344 202.897 97.2287 202.526 97.8112C202.156 98.3938 201.361 98.6585 200.726 98.3938" stroke="#7A1F27" stroke-width="0.5" stroke-miterlimit="10" stroke-linecap="round" stroke-linejoin="round"/>
<path d="M199.985 92.6745C200.091 92.8863 200.514 93.7336 201.044 94.7928C202.05 96.911 203.48 99.8766 203.745 100.83C204.063 101.836 202.95 102.577 201.891 103.107C200.832 103.637 190.082 109.356 188.546 108.932C188.175 108.826 187.699 108.244 187.222 107.397C186.269 105.702 185.21 103.107 184.733 102.101C184.045 100.512 183.356 99.1352 184.257 98.182C185.422 96.964 196.807 91.7742 197.761 91.5094C198.873 91.2447 199.455 91.5094 199.985 92.6745Z" fill="#E8E5E3"/>
<path d="M188.547 108.773C191.671 102.895 195.114 97.2817 198.768 91.7212" stroke="#7A1F27" stroke-width="0.5" stroke-miterlimit="10" stroke-linecap="round" stroke-linejoin="round"/>
<path d="M184.045 98.8704C190.241 99.8236 196.702 100.406 203.375 101.465" stroke="#7A1F27" stroke-width="0.5" stroke-miterlimit="10" stroke-linecap="round" stroke-linejoin="round"/>
<path d="M195.007 103.107C195.484 102.366 196.013 101.624 196.278 100.777C196.543 99.9296 196.596 98.9764 196.225 98.182C195.855 97.3877 194.901 96.8581 194.054 97.017C193.207 97.2288 192.571 98.2879 192.783 99.1882C192.465 98.3409 191.194 98.129 190.453 98.7116C189.764 99.2941 189.659 100.406 190.082 101.201C190.506 101.995 191.353 102.524 192.2 102.789C193.048 103.16 194.001 103.16 195.007 103.107Z" fill="#FB4545"/>
<path d="M25.8108 64.7132C23.11 65.7724 19.9326 65.6135 17.2847 64.3955C16.6492 64.0777 16.7022 63.0186 17.3377 62.8068C16.7022 62.7538 16.0667 62.7009 15.4842 62.489C14.9017 62.2243 14.3721 61.8006 14.2662 61.1651C14.1603 60.5826 14.531 59.8412 15.1664 59.7882C14.3721 59.8412 13.5248 59.2587 13.313 58.5173C13.1011 57.7229 13.5248 56.8227 14.2662 56.5049C13.4189 56.346 12.6245 55.6576 12.4127 54.7573C12.2009 53.8571 12.6245 52.9038 13.3659 52.4802C12.6775 52.1095 12.2538 51.2622 12.4656 50.5208C12.6245 49.7794 13.4189 49.1969 14.2132 49.1969C13.9484 48.5614 13.7896 47.8729 13.8955 47.1845C14.0014 46.4961 14.478 45.8606 15.1664 45.7017C15.8549 45.5428 16.6492 46.0724 16.6492 46.7608C16.6492 48.5614 18.6616 49.8323 20.5151 49.9912C22.3686 50.0971 24.1691 49.5146 26.0226 49.5146C27.8761 49.5146 29.9944 50.3619 30.418 52.1095C30.7887 53.7512 31.2124 55.3928 31.7949 57.0874C29.7825 59.5235 27.8231 62.0654 25.8108 64.7132Z" fill="#FEFFFB"/>
<path d="M15.4844 49.7793C15.961 50.9973 17.232 51.7387 18.5559 52.0035C19.8268 52.2683 21.1508 52.1094 22.4747 52.1094C23.7986 52.1094 25.1755 52.2153 26.2346 52.9038C27.3467 53.5922 28.0881 55.075 27.6115 56.293" stroke="#7A1F27" stroke-width="0.5" stroke-miterlimit="10" stroke-linecap="round" stroke-linejoin="round"/>
<path d="M17.814 52.4272C17.4963 52.9039 17.4433 53.5393 17.7081 54.016C17.9199 54.5455 18.4495 54.8633 19.032 54.9162C18.3436 55.0221 17.814 55.6576 17.867 56.3461C17.9199 57.0345 18.5025 57.617 19.1909 57.617C18.5554 57.8288 18.1847 58.5702 18.3436 59.1528C18.5554 59.7883 19.2439 60.1589 19.8793 59.9471C19.4557 60.6885 19.6146 61.6947 20.1971 62.2243C20.7796 62.7538 21.7858 62.8598 22.4742 62.4361" stroke="#7A1F27" stroke-width="0.5" stroke-miterlimit="10" stroke-linecap="round" stroke-linejoin="round"/>
<path d="M35.2897 67.6788C37.1431 69.956 39.9499 71.3858 42.8625 71.5976C43.5509 71.6506 44.0275 70.6974 43.6039 70.1678C44.1864 70.4326 44.7689 70.6974 45.3515 70.8033C45.9869 70.9092 46.6754 70.7503 47.0461 70.2737C47.4697 69.7971 47.4697 69.0028 46.9402 68.6321C47.6286 69.1087 48.6348 69.0028 49.1644 68.4202C49.7469 67.8377 49.7998 66.8845 49.3232 66.196C50.1176 66.4608 51.1767 66.249 51.7592 65.6135C52.3418 64.978 52.5006 63.9189 52.024 63.1245C52.8184 63.1775 53.5598 62.595 53.7716 61.8536C53.9834 61.1122 53.6127 60.2119 52.9243 59.8412C53.4539 59.4176 53.9834 58.941 54.1953 58.2525C54.4071 57.5641 54.3541 56.8227 53.8246 56.3461C53.295 55.8695 52.3947 55.9224 52.024 56.5049C51.1238 58.0936 48.7407 58.1996 47.099 57.4052C45.4574 56.6108 44.1335 55.181 42.5447 54.2278C40.956 53.2746 38.6789 53.0098 37.4079 54.3337C36.2429 55.5517 35.1308 56.7697 33.7539 57.9877C34.3894 61.2181 34.866 64.3955 35.2897 67.6788Z" fill="#FEFFFB"/>
<path d="M51.6531 59.8412C50.6469 60.6885 49.1641 60.6885 47.8931 60.2649C46.6751 59.8412 45.563 59.0469 44.4509 58.4114C43.3388 57.7229 42.0679 57.1934 40.7439 57.2463C39.42 57.2993 38.0961 58.1996 37.8843 59.5235" stroke="#7A1F27" stroke-width="0.5" stroke-miterlimit="10" stroke-linecap="round" stroke-linejoin="round"/>
<path d="M48.3171 60.9534C48.37 61.5359 48.0523 62.0655 47.6286 62.3832C47.152 62.7009 46.5695 62.7539 46.0399 62.5421C46.5695 62.9657 46.6754 63.813 46.3047 64.3426C45.934 64.9251 45.0867 65.137 44.5042 64.7663C44.9278 65.2429 44.9278 66.0902 44.4512 66.5138C43.9746 66.9375 43.1273 66.9375 42.7037 66.4609C42.7037 67.3082 42.1211 68.1026 41.2738 68.3144C40.4795 68.5262 39.5792 68.1025 39.2085 67.3612" stroke="#7A1F27" stroke-width="0.5" stroke-miterlimit="10" stroke-linecap="round" stroke-linejoin="round"/>
<path d="M43.2317 61.6948C43.1258 62.0125 42.8081 63.0717 42.4374 64.3956C41.643 67.0964 40.425 70.9093 39.8954 71.9684C39.3129 73.1335 37.7772 72.8687 36.3473 72.498C34.9704 72.1273 20.831 68.3674 19.7718 66.7787C19.507 66.355 19.6129 65.4547 19.8248 64.3426C20.3014 62.0655 21.5194 58.941 21.9431 57.6171C22.5785 55.6577 23.1611 53.9101 24.6968 53.8042C26.7092 53.6453 41.0075 58.3585 42.0137 58.8881C43.3376 59.5765 43.6024 60.265 43.2317 61.6948Z" fill="#E8E5E3"/>
<path d="M19.9844 66.6198C27.5043 63.972 35.13 61.8007 42.8618 59.8943" stroke="#7A1F27" stroke-width="0.5" stroke-miterlimit="10" stroke-linecap="round" stroke-linejoin="round"/>
<path d="M24.0093 54.2808C28.7224 60.159 33.9652 65.9842 38.9961 72.2861" stroke="#7A1F27" stroke-width="0.5" stroke-miterlimit="10" stroke-linecap="round" stroke-linejoin="round"/>
<path d="M30.2576 66.8846C31.3167 66.6198 32.3759 66.3551 33.2761 65.8784C34.2294 65.3489 35.0237 64.5545 35.3415 63.4954C35.6062 62.4892 35.2885 61.2182 34.3353 60.6887C33.3821 60.1591 32.0052 60.6357 31.4756 61.5889C31.8463 60.5828 30.8931 59.3648 29.8339 59.3118C28.7219 59.2588 27.7157 60.1591 27.4509 61.2182C27.1331 62.2774 27.4509 63.4424 28.0334 64.3957C28.6159 65.3489 29.3573 66.1432 30.2576 66.8846Z" fill="#FB4545"/>
<path d="M171.28 63.6012C171.28 63.6012 171.81 60.9004 169.956 60.9004C168.103 60.9004 168.526 63.6541 170.274 66.249C173.769 64.4485 175.252 62.9657 174.299 62.1184C173.292 61.2711 171.704 62.648 171.28 63.6012Z" fill="#FB4545"/>
<path d="M70.0803 63.0188C70.0803 63.0188 68.1738 61.9067 67.6972 63.3365C67.1676 64.7664 69.3918 65.1371 71.8279 64.5016C71.3512 61.3771 70.6628 59.8414 69.7625 60.3709C68.8623 60.8475 69.4448 62.4363 70.0803 63.0188Z" fill="#FB4545"/>
<path d="M86.179 62.0656C86.179 62.0656 84.2725 60.1062 83.2134 61.5889C82.1543 63.1247 84.6432 64.3427 87.7677 64.3957C88.2973 60.5298 87.9266 58.4115 86.7086 58.7293C85.4376 59.1 85.6494 61.1653 86.179 62.0656Z" fill="#FB4545"/>
<path d="M159.631 75.1458C159.631 75.1458 159.896 73.1864 161.167 73.6101C162.438 74.0337 161.484 75.8343 159.737 77.1582C157.777 75.1459 157.089 73.769 157.936 73.4512C158.784 73.0805 159.525 74.3515 159.631 75.1458Z" fill="#FB4545"/>
<path d="M158.254 47.7143C158.254 47.7143 159.895 43.3188 156.718 42.7893C153.54 42.2597 153.593 47.0788 155.817 51.8979C162.172 49.7796 165.085 47.6613 163.708 46.0196C162.278 44.378 159.26 46.1785 158.254 47.7143Z" fill="#FB4545"/>
<path d="M92.6399 45.3841C92.6399 45.3841 92.0574 42.1537 89.9921 43.001C87.9268 43.7954 89.6214 46.708 92.6929 48.7733C95.7644 45.2252 96.7705 42.9481 95.3407 42.4185C93.8579 41.9419 92.6929 44.1131 92.6399 45.3841Z" fill="#FB4545"/>
</svg>
