<svg width="52" height="49" viewBox="0 0 52 49" fill="none" xmlns="http://www.w3.org/2000/svg">
<path fill-rule="evenodd" clip-rule="evenodd" d="M25.9996 6.87256C20.0952 6.87256 15.3087 11.659 15.3087 17.5635V18.7406C14.2252 18.9224 13.3996 19.8647 13.3996 20.9998V23.6726C13.3996 24.828 14.2549 25.7836 15.3669 25.9408C15.7616 29.7219 18.127 32.9168 21.4178 34.4801V38.0196C13.322 38.5126 6.90869 45.2345 6.90869 53.4543H45.0905C45.0905 45.2345 38.6772 38.5127 30.5814 38.0196V34.4801C33.8722 32.9168 36.2376 29.7219 36.6323 25.9408C37.7443 25.7836 38.5996 24.828 38.5996 23.6726V20.9998C38.5996 19.8647 37.774 18.9224 36.6905 18.7406V17.5635C36.6905 11.659 31.904 6.87256 25.9996 6.87256Z" fill="#D0C6AC"/>
<mask id="mask0_2061_5218" style="mask-type:luminance" maskUnits="userSpaceOnUse" x="6" y="6" width="40" height="48">
<path fill-rule="evenodd" clip-rule="evenodd" d="M25.9996 6.87256C20.0952 6.87256 15.3087 11.659 15.3087 17.5635V18.7406C14.2252 18.9224 13.3996 19.8647 13.3996 20.9998V23.6726C13.3996 24.828 14.2549 25.7836 15.3669 25.9408C15.7616 29.7219 18.127 32.9168 21.4178 34.4801V38.0196C13.322 38.5126 6.90869 45.2345 6.90869 53.4543H45.0905C45.0905 45.2345 38.6772 38.5127 30.5814 38.0196V34.4801C33.8722 32.9168 36.2376 29.7219 36.6323 25.9408C37.7443 25.7836 38.5996 24.828 38.5996 23.6726V20.9998C38.5996 19.8647 37.774 18.9224 36.6905 18.7406V17.5635C36.6905 11.659 31.904 6.87256 25.9996 6.87256Z" fill="white"/>
</mask>
<g mask="url(#mask0_2061_5218)">
<rect x="0.799805" y="6.87256" width="50.4" height="46.5818" fill="#FFCCD7"/>
<path fill-rule="evenodd" clip-rule="evenodd" d="M15.3086 24.8179V26.3453C15.3086 32.2497 20.0951 37.0362 25.9995 37.0362C31.9039 37.0362 36.6904 32.2497 36.6904 26.3453V24.8179C36.6904 30.7223 31.9039 35.5088 25.9995 35.5088C20.0951 35.5088 15.3086 30.7223 15.3086 24.8179Z" fill="black" fill-opacity="0.1"/>
</g>
<path fill-rule="evenodd" clip-rule="evenodd" d="M25.9996 43.3464C28.8464 43.3464 31.1542 41.2096 31.1542 38.5737C31.1542 38.4042 31.1446 38.2367 31.126 38.0718C38.9622 38.8211 45.0905 45.4222 45.0905 53.4547H6.90869C6.90869 45.4222 13.037 38.821 20.8732 38.0718C20.8546 38.2367 20.8451 38.4042 20.8451 38.5737C20.8451 41.2096 23.1528 43.3464 25.9996 43.3464Z" fill="#909292"/>
<mask id="mask1_2061_5218" style="mask-type:luminance" maskUnits="userSpaceOnUse" x="6" y="38" width="40" height="16">
<path fill-rule="evenodd" clip-rule="evenodd" d="M25.9996 43.3464C28.8464 43.3464 31.1542 41.2096 31.1542 38.5737C31.1542 38.4042 31.1446 38.2367 31.126 38.0718C38.9622 38.8211 45.0905 45.4222 45.0905 53.4547H6.90869C6.90869 45.4222 13.037 38.821 20.8732 38.0718C20.8546 38.2367 20.8451 38.4042 20.8451 38.5737C20.8451 41.2096 23.1528 43.3464 25.9996 43.3464Z" fill="white"/>
</mask>
<g mask="url(#mask1_2061_5218)">
<rect x="0.799805" y="32.4546" width="50.4" height="21" fill="#909292"/>
</g>
<path fill-rule="evenodd" clip-rule="evenodd" d="M32.0397 53.4551C32.6889 51.1489 33.0632 48.4359 33.0632 45.5324C33.0632 42.8784 32.7505 40.3835 32.2009 38.213C39.5154 39.4345 45.0905 45.7937 45.0905 53.4551H32.0397ZM20.1504 53.4551H6.90869C6.90869 45.7244 12.5851 39.3195 19.9973 38.1812C19.4427 40.3591 19.1269 42.8654 19.1269 45.5324C19.1269 48.4359 19.5012 51.1489 20.1504 53.4551Z" fill="#0C1626"/>
<path fill-rule="evenodd" clip-rule="evenodd" d="M35.354 48.873L35.9036 48.4608C36.9317 47.6897 38.3487 47.7021 39.3631 48.4911L35.354 48.873Z" fill="#E6E6E6"/>
<path fill-rule="evenodd" clip-rule="evenodd" d="M20.0813 37.8003C18.9359 43.3367 21.0359 53.4548 21.0359 53.4548H17.9813L15.3086 46.5821L16.454 44.8639L15.3086 43.7185L18.9359 37.9912C18.9359 37.9912 19.5165 37.8106 20.0813 37.8003Z" fill="#0C092A"/>
<path fill-rule="evenodd" clip-rule="evenodd" d="M31.9177 37.8003C33.0632 43.3367 30.9632 53.4548 30.9632 53.4548H34.0177L36.6904 46.5821L35.545 44.8639L36.6904 43.7185L33.0632 37.9912C33.0632 37.9912 32.4825 37.8106 31.9177 37.8003Z" fill="#0C092A"/>
<path fill-rule="evenodd" clip-rule="evenodd" d="M21.4179 36.5664C20.125 37.444 19.3179 38.6888 19.3179 40.0694C19.3179 41.4823 20.1632 42.7529 21.5095 43.6334L22.6437 42.7399L23.5179 42.8031L23.327 42.2016L23.3418 42.1899C22.1772 41.59 21.4179 40.6063 21.4179 39.4945C21.4179 39.4945 21.4179 39.4945 21.4179 39.4945V36.5664ZM30.5815 39.4945C30.5815 39.4945 30.5815 39.4945 30.5815 39.4945C30.5815 40.6063 29.8222 41.59 28.6576 42.1899L28.6724 42.2016L28.4815 42.8031L29.3557 42.7399L30.4899 43.6334C31.8362 42.7529 32.6815 41.4823 32.6815 40.0694C32.6815 38.6888 31.8744 37.444 30.5815 36.5664V39.4945Z" fill="#0C092A"/>
<path d="M23.3271 28.6362C23.3271 29.6617 24.5028 30.3544 25.9999 30.3544C27.497 30.3544 28.6726 29.6617 28.6726 28.6362C28.6726 28.4253 28.4913 28.2544 28.2908 28.2544C28.044 28.2544 27.9338 28.4272 27.909 28.6362C27.6718 29.1971 27.0849 29.5366 25.9999 29.5908C24.9149 29.5366 24.328 29.1971 24.0908 28.6362C24.0659 28.4272 23.9558 28.2544 23.709 28.2544C23.5085 28.2544 23.3271 28.4253 23.3271 28.6362Z" fill="#0C092A"/>
<path fill-rule="evenodd" clip-rule="evenodd" d="M23.709 24.8179C23.709 25.6614 24.7347 26.3451 25.9999 26.3451C27.2651 26.3451 28.2908 25.6614 28.2908 24.8179" fill="black" fill-opacity="0.16"/>
<ellipse cx="21.0366" cy="21.3818" rx="1.14545" ry="1.14545" fill="#0C092A"/>
<ellipse cx="30.9638" cy="21.3818" rx="1.14545" ry="1.14545" fill="#0C092A"/>
<path d="M18.2932 18.9298C19.0406 17.8781 21.0895 17.2884 22.8545 17.7218C23.0593 17.7721 23.2661 17.6469 23.3164 17.4421C23.3667 17.2373 23.2414 17.0305 23.0366 16.9802C20.9869 16.4769 18.6143 17.1598 17.6707 18.4874C17.5486 18.6593 17.5889 18.8977 17.7608 19.0198C17.9327 19.142 18.171 19.1017 18.2932 18.9298Z" fill="#0C092A"/>
<path d="M33.7073 18.9298C32.9599 17.8781 30.9109 17.2884 29.146 17.7218C28.9412 17.7721 28.7344 17.6469 28.6841 17.4421C28.6338 17.2373 28.7591 17.0305 28.9639 16.9802C31.0136 16.4769 33.3862 17.1598 34.3298 18.4874C34.4519 18.6593 34.4116 18.8977 34.2397 19.0198C34.0678 19.142 33.8295 19.1017 33.7073 18.9298Z" fill="#0C092A"/>
<mask id="mask2_2061_5218" style="mask-type:luminance" maskUnits="userSpaceOnUse" x="0" y="0" width="52" height="54">
<rect x="0.799805" width="50.4" height="53.4545" fill="white"/>
</mask>
<g mask="url(#mask2_2061_5218)">
<path fill-rule="evenodd" clip-rule="evenodd" d="M26.0964 31.6604C23.8987 31.7326 22.9184 32.7831 22.1801 31.7155C21.626 30.9142 21.8579 29.5667 22.3756 28.8086C23.1123 27.7297 24.1118 28.2515 25.2292 28.1284C25.5331 28.095 25.8383 28.0106 26.0964 27.8726C26.3544 28.0106 26.6596 28.095 26.9634 28.1284C28.081 28.2515 29.0803 27.7297 29.8171 28.8086C30.3348 29.5667 30.5666 30.9142 30.0125 31.7155C29.2742 32.7831 28.294 31.5883 26.0964 31.6604ZM36.7655 18.709C36.1118 21.396 35.8114 24.1373 35.3373 26.8553C35.2385 27.4219 35.1304 27.9865 35.0156 28.5503C34.9915 28.6687 34.9677 29.1083 34.851 29.164C34.4976 29.3328 33.7774 28.4352 33.5849 28.2325C33.1012 27.7236 32.6216 27.21 32.0326 26.8106C30.8423 26.0037 29.4488 25.5265 27.9988 25.4133C27.3921 25.3659 26.5718 25.4486 26 25.7937C25.4282 25.4486 24.6079 25.3659 24.0011 25.4133C22.5511 25.5265 21.1576 26.0037 19.9673 26.8106C19.3783 27.21 18.8988 27.7236 18.415 28.2325C18.2225 28.4352 17.5023 29.3328 17.1489 29.164C17.0322 29.1083 17.0084 28.6687 16.9843 28.5503C16.8695 27.9865 16.7614 27.4219 16.6626 26.8553C16.1886 24.1373 15.8882 21.396 15.2344 18.709C15.0442 18.709 14.8773 22.2881 14.8561 22.6216C14.7697 23.976 14.6688 25.3002 14.7977 26.6558C15.02 28.9942 15.2517 31.9264 17.0335 33.7121C18.6435 35.3256 20.981 35.6629 22.9972 36.6814C23.2568 36.8126 23.6011 36.9745 23.9725 37.1071C24.3637 37.4055 25.1395 37.609 26.0332 37.609C26.9707 37.609 27.7784 37.3851 28.1485 37.0626C28.4732 36.9394 28.7716 36.7982 29.0027 36.6814C31.0187 35.6627 33.3565 35.3256 34.9664 33.7121C36.7482 31.9264 36.9799 28.9942 37.2022 26.6558C37.3311 25.3002 37.2302 23.976 37.1439 22.6216C37.1226 22.2881 36.9557 18.709 36.7655 18.709Z" fill="#0C092A"/>
<mask id="mask3_2061_5218" style="mask-type:luminance" maskUnits="userSpaceOnUse" x="14" y="18" width="24" height="20">
<path fill-rule="evenodd" clip-rule="evenodd" d="M26.0964 31.6604C23.8987 31.7326 22.9184 32.7831 22.1801 31.7155C21.626 30.9142 21.8579 29.5667 22.3756 28.8086C23.1123 27.7297 24.1118 28.2515 25.2292 28.1284C25.5331 28.095 25.8383 28.0106 26.0964 27.8726C26.3544 28.0106 26.6596 28.095 26.9634 28.1284C28.081 28.2515 29.0803 27.7297 29.8171 28.8086C30.3348 29.5667 30.5666 30.9142 30.0125 31.7155C29.2742 32.7831 28.294 31.5883 26.0964 31.6604ZM36.7655 18.709C36.1118 21.396 35.8114 24.1373 35.3373 26.8553C35.2385 27.4219 35.1304 27.9865 35.0156 28.5503C34.9915 28.6687 34.9677 29.1083 34.851 29.164C34.4976 29.3328 33.7774 28.4352 33.5849 28.2325C33.1012 27.7236 32.6216 27.21 32.0326 26.8106C30.8423 26.0037 29.4488 25.5265 27.9988 25.4133C27.3921 25.3659 26.5718 25.4486 26 25.7937C25.4282 25.4486 24.6079 25.3659 24.0011 25.4133C22.5511 25.5265 21.1576 26.0037 19.9673 26.8106C19.3783 27.21 18.8988 27.7236 18.415 28.2325C18.2225 28.4352 17.5023 29.3328 17.1489 29.164C17.0322 29.1083 17.0084 28.6687 16.9843 28.5503C16.8695 27.9865 16.7614 27.4219 16.6626 26.8553C16.1886 24.1373 15.8882 21.396 15.2344 18.709C15.0442 18.709 14.8773 22.2881 14.8561 22.6216C14.7697 23.976 14.6688 25.3002 14.7977 26.6558C15.02 28.9942 15.2517 31.9264 17.0335 33.7121C18.6435 35.3256 20.981 35.6629 22.9972 36.6814C23.2568 36.8126 23.6011 36.9745 23.9725 37.1071C24.3637 37.4055 25.1395 37.609 26.0332 37.609C26.9707 37.609 27.7784 37.3851 28.1485 37.0626C28.4732 36.9394 28.7716 36.7982 29.0027 36.6814C31.0187 35.6627 33.3565 35.3256 34.9664 33.7121C36.7482 31.9264 36.9799 28.9942 37.2022 26.6558C37.3311 25.3002 37.2302 23.976 37.1439 22.6216C37.1226 22.2881 36.9557 18.709 36.7655 18.709Z" fill="white"/>
</mask>
<g mask="url(#mask3_2061_5218)">
<rect x="9.96338" y="13.7456" width="32.0727" height="29.0182" fill="#0C092A"/>
</g>
<path fill-rule="evenodd" clip-rule="evenodd" d="M18.6028 9.93148C18.6263 9.92109 18.568 9.9171 18.428 9.91953C18.5982 9.91918 18.6565 9.92315 18.6028 9.93148ZM17.0497 6.93031C17.0493 6.92657 17.0529 6.95916 17.0497 6.93031V6.93031ZM37.6006 13.5099C37.5501 12.8767 37.4608 12.2473 37.3107 11.6286C37.1915 11.1368 37.0286 10.6676 36.836 10.1985C36.7196 9.91502 36.4479 9.5257 36.416 9.21994C36.3845 8.91875 36.6196 8.5851 36.6697 8.23443C36.7184 7.89317 36.7101 7.53435 36.6401 7.19618C36.4811 6.42818 35.954 5.714 35.1401 5.5138C34.9584 5.46909 34.5743 5.52419 34.4459 5.41838C34.2987 5.29704 34.1962 4.88366 34.0629 4.71786C33.6829 4.24517 33.0903 3.94077 32.4653 4.0469C32.005 4.12501 32.2693 4.22019 31.9242 3.94931C31.7324 3.79871 31.589 3.56877 31.4027 3.40575C31.1226 3.16084 30.8012 2.95119 30.4688 2.77914C29.5988 2.32896 28.6067 2.00174 27.6349 1.84224C25.8623 1.55126 23.9704 1.80495 22.2522 2.26594C21.3972 2.49533 20.5364 2.78643 19.7423 3.17142C19.4019 3.33648 19.2053 3.47341 18.8503 3.51664C18.2912 3.58473 17.8177 3.58133 17.288 3.81844C15.6584 4.54809 14.9244 6.24086 15.5585 7.86077C15.6861 8.18657 15.8588 8.47266 16.0969 8.73581C16.3872 9.05667 16.4922 8.99352 16.2422 9.36249C15.8682 9.91421 15.553 10.5025 15.2963 11.1135C14.6226 12.7174 14.5099 14.5239 14.5537 16.2345C14.5691 16.8333 14.5948 17.4395 14.6892 18.0326C14.73 18.2893 14.7414 18.772 14.934 18.9625C15.0317 19.0591 15.1709 19.113 15.3097 19.0745C15.6361 18.9841 15.5239 18.7433 15.5315 18.5197C15.5696 17.3965 15.5181 16.4028 15.7852 15.2931C15.9825 14.4733 16.3114 13.7286 16.7376 12.9955C17.2795 12.0631 17.8645 11.2442 18.6098 10.4458C18.785 10.258 18.8233 10.1784 19.0582 10.1648C19.2361 10.1545 19.4964 10.2764 19.6694 10.3186C20.0508 10.4115 20.4329 10.5034 20.8212 10.566C21.5352 10.6811 22.2422 10.6888 22.9626 10.6662C24.3804 10.6219 25.8042 10.5225 27.1788 10.1654C28.0917 9.92837 28.9011 9.50282 29.7755 9.19087C29.7911 9.1853 30.0103 9.02915 30.0487 9.03552C30.1023 9.04436 30.4261 9.38407 30.4808 9.42687C30.9057 9.76009 31.3717 9.89999 31.8306 10.158C32.3963 10.4761 31.8485 10.0209 32.1605 10.4174C32.2514 10.5328 32.298 10.747 32.371 10.8778C32.6031 11.2945 32.9261 11.6607 33.3123 11.9513C33.6856 12.2321 34.2465 12.3677 34.4368 12.7332C34.5836 13.0151 34.633 13.3983 34.7515 13.6993C35.0622 14.4888 35.4725 15.225 35.8828 15.9685C36.2133 16.5678 36.5749 17.0912 36.6116 17.776C36.6244 18.0143 36.3976 19.4441 36.95 19.0092C37.0319 18.9448 37.2085 18.2158 37.2448 18.0921C37.392 17.5895 37.4443 17.0648 37.511 16.5484C37.6436 15.5214 37.6871 14.5442 37.6006 13.5099Z" fill="#28354B"/>
<mask id="mask4_2061_5218" style="mask-type:luminance" maskUnits="userSpaceOnUse" x="14" y="1" width="24" height="19">
<path fill-rule="evenodd" clip-rule="evenodd" d="M18.6028 9.93148C18.6263 9.92109 18.568 9.9171 18.428 9.91953C18.5982 9.91918 18.6565 9.92315 18.6028 9.93148ZM17.0497 6.93031C17.0493 6.92657 17.0529 6.95916 17.0497 6.93031V6.93031ZM37.6006 13.5099C37.5501 12.8767 37.4608 12.2473 37.3107 11.6286C37.1915 11.1368 37.0286 10.6676 36.836 10.1985C36.7196 9.91502 36.4479 9.5257 36.416 9.21994C36.3845 8.91875 36.6196 8.5851 36.6697 8.23443C36.7184 7.89317 36.7101 7.53435 36.6401 7.19618C36.4811 6.42818 35.954 5.714 35.1401 5.5138C34.9584 5.46909 34.5743 5.52419 34.4459 5.41838C34.2987 5.29704 34.1962 4.88366 34.0629 4.71786C33.6829 4.24517 33.0903 3.94077 32.4653 4.0469C32.005 4.12501 32.2693 4.22019 31.9242 3.94931C31.7324 3.79871 31.589 3.56877 31.4027 3.40575C31.1226 3.16084 30.8012 2.95119 30.4688 2.77914C29.5988 2.32896 28.6067 2.00174 27.6349 1.84224C25.8623 1.55126 23.9704 1.80495 22.2522 2.26594C21.3972 2.49533 20.5364 2.78643 19.7423 3.17142C19.4019 3.33648 19.2053 3.47341 18.8503 3.51664C18.2912 3.58473 17.8177 3.58133 17.288 3.81844C15.6584 4.54809 14.9244 6.24086 15.5585 7.86077C15.6861 8.18657 15.8588 8.47266 16.0969 8.73581C16.3872 9.05667 16.4922 8.99352 16.2422 9.36249C15.8682 9.91421 15.553 10.5025 15.2963 11.1135C14.6226 12.7174 14.5099 14.5239 14.5537 16.2345C14.5691 16.8333 14.5948 17.4395 14.6892 18.0326C14.73 18.2893 14.7414 18.772 14.934 18.9625C15.0317 19.0591 15.1709 19.113 15.3097 19.0745C15.6361 18.9841 15.5239 18.7433 15.5315 18.5197C15.5696 17.3965 15.5181 16.4028 15.7852 15.2931C15.9825 14.4733 16.3114 13.7286 16.7376 12.9955C17.2795 12.0631 17.8645 11.2442 18.6098 10.4458C18.785 10.258 18.8233 10.1784 19.0582 10.1648C19.2361 10.1545 19.4964 10.2764 19.6694 10.3186C20.0508 10.4115 20.4329 10.5034 20.8212 10.566C21.5352 10.6811 22.2422 10.6888 22.9626 10.6662C24.3804 10.6219 25.8042 10.5225 27.1788 10.1654C28.0917 9.92837 28.9011 9.50282 29.7755 9.19087C29.7912 9.1853 30.0103 9.02915 30.0487 9.03552C30.1024 9.04436 30.4261 9.38407 30.4808 9.42687C30.9057 9.76009 31.3717 9.89999 31.8306 10.158C32.3963 10.4761 31.8485 10.0209 32.1605 10.4174C32.2514 10.5328 32.298 10.747 32.371 10.8778C32.6031 11.2945 32.9261 11.6607 33.3123 11.9513C33.6856 12.2321 34.2465 12.3677 34.4368 12.7332C34.5836 13.0151 34.633 13.3983 34.7515 13.6993C35.0622 14.4888 35.4725 15.225 35.8828 15.9685C36.2133 16.5678 36.5749 17.0912 36.6116 17.776C36.6244 18.0143 36.3976 19.4441 36.95 19.0092C37.0319 18.9448 37.2085 18.2158 37.2448 18.0921C37.392 17.5895 37.4443 17.0648 37.511 16.5484C37.6436 15.5214 37.6871 14.5442 37.6006 13.5099Z" fill="white"/>
</mask>
<g mask="url(#mask4_2061_5218)">
<rect x="0.799805" width="50.4" height="53.4545" fill="#0C092A"/>
</g>
</g>
</svg>
