<svg width="31" height="31" viewBox="0 0 31 31" fill="none" xmlns="http://www.w3.org/2000/svg">
<path d="M7.94602 13.13C8.2352 13.13 8.48409 12.9257 8.54043 12.6421C8.59676 12.3584 8.44485 12.0745 8.17763 11.964C7.9104 11.8535 7.60233 11.9472 7.44188 12.1878C7.28143 12.4283 7.31331 12.7488 7.51802 12.953C7.63187 13.066 7.78564 13.1296 7.94602 13.13Z" fill="#D02128"/>
<path d="M16.62 12.329C16.4155 12.1238 16.0945 12.0916 15.8534 12.2523C15.6123 12.413 15.5184 12.7217 15.6291 12.9894C15.7398 13.2571 16.0243 13.4093 16.3085 13.3528C16.5926 13.2962 16.7972 13.0467 16.797 12.757C16.7965 12.5966 16.7329 12.4429 16.62 12.329Z" fill="#D02128"/>
<path d="M18.315 11.243C18.6041 11.2425 18.8526 11.0379 18.9086 10.7543C18.9645 10.4707 18.8124 10.1871 18.5451 10.0768C18.2779 9.96655 17.97 10.0604 17.8097 10.301C17.6494 10.5415 17.6814 10.8618 17.886 11.066C18.0001 11.1792 18.1543 11.2428 18.315 11.243Z" fill="#D02128"/>
<path fill-rule="evenodd" clip-rule="evenodd" d="M29.187 14.9H27.499L30.473 11.926C31.1822 11.2165 31.1822 10.0665 30.473 9.357L27.773 6.657C27.5365 6.42102 27.1536 6.42102 26.917 6.657C26.2051 7.35421 25.0644 7.3479 24.3602 6.64287C23.656 5.93783 23.651 4.79715 24.349 4.086C24.4626 3.97252 24.5264 3.81855 24.5264 3.658C24.5264 3.49745 24.4626 3.34348 24.349 3.23L21.649 0.529999C21.3084 0.189192 20.8463 -0.00228882 20.3645 -0.00228882C19.8827 -0.00228882 19.4206 0.189192 19.08 0.529999L9.08002 10.53C8.8574 10.7689 8.86407 11.1412 9.09509 11.3719C9.32611 11.6027 9.69842 11.6089 9.93702 11.386L19.937 1.386C20.0505 1.27242 20.2045 1.2086 20.365 1.2086C20.5256 1.2086 20.6795 1.27242 20.793 1.386L23.107 3.7C22.3071 4.90129 22.4659 6.50009 23.4864 7.52061C24.5069 8.54113 26.1057 8.69989 27.307 7.9L29.619 10.212C29.855 10.4485 29.855 10.8315 29.619 11.068L25.785 14.9H23.13L25.12 12.91C25.356 12.6735 25.356 12.2905 25.12 12.054L18.954 5.885C18.7174 5.64835 18.3337 5.64835 18.097 5.885L9.08502 14.9H1.81602C0.814537 14.9011 0.00232626 15.7115 -0.000976562 16.713V20.528C-0.000976562 20.8627 0.270339 21.134 0.605023 21.134C1.59165 21.1572 2.3794 21.9636 2.3794 22.9505C2.3794 23.9374 1.59165 24.7438 0.605023 24.767C0.270729 24.767 -0.000424922 25.0377 -0.000976562 25.372V29.187C0.00232626 30.1885 0.814537 30.9989 1.81602 31H29.187C30.1901 30.9989 31.0029 30.186 31.004 29.183V25.372C31.004 25.0373 30.7327 24.766 30.398 24.766C29.7389 24.7815 29.1231 24.4387 28.789 23.8703C28.4549 23.3019 28.4549 22.5971 28.789 22.0287C29.1231 21.4603 29.7389 21.1175 30.398 21.133C30.5587 21.133 30.7129 21.0692 30.8265 20.9555C30.9402 20.8419 31.004 20.6877 31.004 20.527V16.713C31.0007 15.7115 30.1885 14.9011 29.187 14.9ZM18.525 7.169L23.835 12.479L21.417 14.9H19.017L20.799 13.121C20.9519 12.9681 21.0117 12.7452 20.9557 12.5363C20.8997 12.3275 20.7366 12.1643 20.5277 12.1083C20.3188 12.0524 20.0959 12.1121 19.943 12.265L17.307 14.9H10.799L18.525 7.169ZM27.3698 22.95C27.3698 21.5108 28.3828 20.2704 29.793 19.983V16.713C29.793 16.3783 29.5217 16.107 29.187 16.107H1.81602C1.48134 16.107 1.21002 16.3783 1.21002 16.713V19.983C2.62025 20.2704 3.6333 21.5108 3.6333 22.95C3.6333 24.3892 2.62025 25.6296 1.21002 25.917V29.187C1.21002 29.5217 1.48134 29.793 1.81602 29.793H29.187C29.5217 29.793 29.793 29.5217 29.793 29.187V25.917C28.3828 25.6296 27.3698 24.3892 27.3698 22.95Z" fill="#D02128"/>
<path d="M12.932 21.925C13.1362 21.721 13.1678 21.4012 13.0076 21.1611C12.8474 20.9211 12.5399 20.8276 12.2732 20.9379C12.0065 21.0482 11.8548 21.3316 11.911 21.6147C11.9671 21.8978 12.2154 22.1018 12.504 22.102C12.6644 22.1015 12.8181 22.0379 12.932 21.925Z" fill="#D02128"/>
<path d="M18.927 21.925C19.1312 21.721 19.1628 21.4012 19.0026 21.1611C18.8424 20.9211 18.5349 20.8276 18.2682 20.9379C18.0015 21.0482 17.8498 21.3316 17.906 21.6147C17.9621 21.8978 18.2104 22.1018 18.499 22.102C18.6594 22.1015 18.8131 22.0379 18.927 21.925Z" fill="#D02128"/>
<path d="M15.93 21.925C16.1342 21.721 16.1658 21.4012 16.0056 21.1611C15.8454 20.9211 15.5379 20.8276 15.2712 20.9379C15.0045 21.0482 14.8528 21.3316 14.909 21.6147C14.9651 21.8978 15.2134 22.1018 15.502 22.102C15.6624 22.1015 15.8161 22.0379 15.93 21.925Z" fill="#D02128"/>
<path d="M9.507 22.102C9.79617 22.102 10.0451 21.8977 10.1014 21.6141C10.1577 21.3304 10.0058 21.0465 9.7386 20.936C9.47138 20.8255 9.1633 20.9192 9.00285 21.1598C8.8424 21.4003 8.87429 21.7208 9.079 21.925C9.19285 22.038 9.34661 22.1016 9.507 22.102Z" fill="#D02128"/>
<path d="M21.925 21.925C22.1292 21.721 22.1608 21.4012 22.0006 21.1611C21.8404 20.9211 21.5329 20.8276 21.2662 20.9379C20.9995 21.0482 20.8478 21.3316 20.9039 21.6147C20.9601 21.8978 21.2084 22.1018 21.497 22.102C21.6574 22.1015 21.8111 22.0379 21.925 21.925Z" fill="#D02128"/>
<path d="M9.50704 25.009H21.501C21.8259 24.9958 22.0824 24.7286 22.0824 24.4035C22.0824 24.0784 21.8259 23.8112 21.501 23.798H9.51104C9.28885 23.789 9.07956 23.9024 8.96577 24.0934C8.85199 24.2845 8.85199 24.5225 8.96577 24.7136C9.07956 24.9046 9.28885 25.018 9.51104 25.009H9.50704Z" fill="#D02128"/>
<path d="M11.707 26.709C11.4179 26.709 11.169 26.9133 11.1126 27.1969C11.0563 27.4806 11.2082 27.7645 11.4754 27.875C11.7426 27.9855 12.0507 27.8918 12.2112 27.6512C12.3716 27.4107 12.3397 27.0902 12.135 26.886C12.0212 26.773 11.8674 26.7094 11.707 26.709V26.709Z" fill="#D02128"/>
<path d="M24.706 17.989H6.29802C5.96566 17.989 5.69531 18.2567 5.69202 18.589V27.309C5.69202 27.6437 5.96333 27.915 6.29802 27.915H8.82102C9.14586 27.9018 9.4024 27.6346 9.4024 27.3095C9.4024 26.9844 9.14586 26.7172 8.82102 26.704H6.90302V19.195H24.103V26.704H14.272C14.0498 26.695 13.8405 26.8084 13.7267 26.9994C13.613 27.1905 13.613 27.4285 13.7267 27.6196C13.8405 27.8106 14.0498 27.924 14.272 27.915H24.708C25.0427 27.915 25.314 27.6437 25.314 27.309V18.589C25.3107 18.2559 25.0392 17.9879 24.706 17.989V17.989Z" fill="#D02128"/>
</svg>
