<svg width="20" height="20" viewBox="0 0 20 20" fill="none" xmlns="http://www.w3.org/2000/svg">
<mask id="mask0_487_7002" style="mask-type:alpha" maskUnits="userSpaceOnUse" x="0" y="0" width="20" height="20">
<rect width="20" height="20" rx="4" fill="#C4C4C4"/>
</mask>
<g mask="url(#mask0_487_7002)">
<mask id="mask1_487_7002" style="mask-type:luminance" maskUnits="userSpaceOnUse" x="-3" y="0" width="27" height="20">
<rect x="-3" width="26.6667" height="20" rx="2" fill="white"/>
</mask>
<g mask="url(#mask1_487_7002)">
<path fill-rule="evenodd" clip-rule="evenodd" d="M-3 0V20H23.6667V0H-3Z" fill="#E31D1C"/>
<mask id="mask2_487_7002" style="mask-type:luminance" maskUnits="userSpaceOnUse" x="-3" y="0" width="27" height="20">
<path fill-rule="evenodd" clip-rule="evenodd" d="M-3 0V20H23.6667V0H-3Z" fill="white"/>
</mask>
<g mask="url(#mask2_487_7002)">
<path d="M5.33333 -0.625H4.70833V0V7.70833H-3H-3.625V8.33333V11.6667V12.2917H-3H4.70833V20V20.625H5.33333H8.66667H9.29167V20V12.2917H23.6667H24.2917V11.6667V8.33333V7.70833H23.6667H9.29167V0V-0.625H8.66667H5.33333Z" fill="#2E42A5" stroke="#F7FCFF" stroke-width="1.25"/>
</g>
</g>
<rect x="-3" width="26.6667" height="20" rx="2" fill="url(#paint0_linear_487_7002)" style="mix-blend-mode:overlay"/>
</g>
<defs>
<linearGradient id="paint0_linear_487_7002" x1="10.3333" y1="0" x2="10.3333" y2="20" gradientUnits="userSpaceOnUse">
<stop stop-color="white" stop-opacity="0.7"/>
<stop offset="1" stop-opacity="0.3"/>
</linearGradient>
</defs>
</svg>
