<svg width="27" height="27" viewBox="0 0 27 27" fill="none" xmlns="http://www.w3.org/2000/svg">
<path d="M18.6158 2.0463C18.6718 2.04632 18.7272 2.0353 18.779 2.01388C18.8307 1.99246 18.8777 1.96106 18.9173 1.92147C18.9569 1.88188 18.9883 1.83488 19.0097 1.78316C19.0311 1.73143 19.0421 1.67599 19.0421 1.62V1.56315C19.0421 1.50717 19.0311 1.45172 19.0097 1.4C18.9883 1.34827 18.9569 1.30127 18.9173 1.26168C18.8777 1.22209 18.8307 1.19069 18.779 1.16927C18.7272 1.14785 18.6718 1.13683 18.6158 1.13685C18.5598 1.13683 18.5044 1.14785 18.4527 1.16927C18.4009 1.19069 18.3539 1.22209 18.3143 1.26168C18.2747 1.30127 18.2433 1.34827 18.2219 1.4C18.2005 1.45172 18.1895 1.50717 18.1895 1.56315V1.62C18.1895 1.67599 18.2005 1.73142 18.2219 1.78315C18.2434 1.83487 18.2748 1.88187 18.3144 1.92146C18.3539 1.96105 18.4009 1.99245 18.4527 2.01387C18.5044 2.03529 18.5598 2.04631 18.6158 2.0463ZM12.0987 2.51058C13.4229 2.84534 14.644 3.5206 15.64 4.46528C15.7809 5.13606 16.3771 5.64142 17.0892 5.64142C17.9058 5.64142 18.5701 4.97707 18.5701 4.16053V4.05506C18.5701 3.5292 18.1424 3.10141 17.6165 3.10141H16.5619C16.2549 3.10141 15.9822 3.2478 15.8077 3.47377C14.7895 2.62322 13.5926 2.00881 12.3077 1.68397C12.0793 1.6267 11.8476 1.76454 11.7899 1.99283C11.7761 2.04711 11.7732 2.10355 11.7813 2.15895C11.7894 2.21434 11.8083 2.2676 11.837 2.31568C11.8657 2.36376 11.9036 2.40572 11.9485 2.43916C11.9934 2.4726 12.0444 2.49687 12.0987 2.51058ZM16.4608 4.05506H16.4609C16.4609 3.99938 16.5062 3.95408 16.5618 3.95408H17.6164C17.6721 3.95408 17.7174 3.99938 17.7174 4.05506V4.16053C17.7174 4.507 17.4355 4.78881 17.089 4.78881C16.7426 4.78881 16.4608 4.507 16.4608 4.16053L16.4608 4.05506ZM18.1635 6.53089C18.1398 6.48016 18.1063 6.43459 18.065 6.39678C18.0237 6.35898 17.9754 6.32969 17.9228 6.31057C17.8702 6.29146 17.8143 6.2829 17.7584 6.28539C17.7024 6.28787 17.6475 6.30136 17.5968 6.32507C17.5461 6.34875 17.5005 6.3822 17.4627 6.4235C17.4249 6.46481 17.3956 6.51315 17.3765 6.56577C17.3574 6.6184 17.3488 6.67427 17.3513 6.7302C17.3538 6.78613 17.3673 6.84103 17.391 6.89175C17.708 7.57038 17.9273 8.29043 18.0426 9.0305C17.6159 9.12526 17.2957 9.50616 17.2957 9.96094V10.0664C17.2957 10.883 17.96 11.5473 18.7766 11.5473C19.5932 11.5473 20.2575 10.883 20.2575 10.0664V9.96094C20.2575 9.43508 19.8298 9.00729 19.3039 9.00729H18.9017C18.7789 8.14997 18.5301 7.3155 18.1635 6.53089ZM19.4049 9.96084V10.0663C19.4049 10.4128 19.123 10.6946 18.7765 10.6946C18.4301 10.6946 18.1482 10.4128 18.1482 10.0663V9.96084C18.1482 9.90515 18.1935 9.85985 18.2492 9.85985H19.3038C19.3596 9.85985 19.4049 9.90515 19.4049 9.96084ZM18.347 12.241C18.2933 12.2252 18.237 12.2202 18.1813 12.2263C18.1256 12.2323 18.0717 12.2493 18.0226 12.2761C17.9735 12.303 17.9301 12.3393 17.8951 12.383C17.86 12.4266 17.8338 12.4767 17.8181 12.5305C17.5688 13.3837 17.1781 14.1891 16.6623 14.9131H16.5619C16.036 14.9131 15.6083 15.3409 15.6083 15.8667V15.9721C15.6083 16.7887 16.2726 17.453 17.0891 17.453C17.9057 17.453 18.5701 16.7887 18.5701 15.9721V15.8667C18.5701 15.3632 18.1775 14.9505 17.6825 14.9164C18.0951 14.2468 18.416 13.5248 18.6365 12.7698C18.6682 12.6613 18.6555 12.5446 18.6013 12.4454C18.547 12.3463 18.4555 12.2727 18.347 12.241ZM17.7174 15.8667V15.972C17.7174 16.3185 17.4356 16.6004 17.0891 16.6004C16.7426 16.6004 16.4608 16.3185 16.4608 15.972V15.8667C16.4608 15.811 16.5061 15.7657 16.5618 15.7657H17.6164C17.6432 15.7657 17.6689 15.7763 17.6878 15.7953C17.7068 15.8142 17.7174 15.8399 17.7174 15.8667ZM19.8948 12.8747V12.9316C19.8948 12.9876 19.9058 13.043 19.9272 13.0947C19.9486 13.1465 19.98 13.1935 20.0196 13.2331C20.0592 13.2726 20.1062 13.304 20.1579 13.3255C20.2097 13.3469 20.2651 13.3579 20.3211 13.3579C20.3771 13.3579 20.4325 13.3469 20.4842 13.3255C20.536 13.304 20.583 13.2726 20.6226 13.2331C20.6621 13.1935 20.6935 13.1465 20.715 13.0947C20.7364 13.043 20.7474 12.9876 20.7474 12.9316V12.8747C20.7474 12.8187 20.7364 12.7633 20.715 12.7116C20.6935 12.6598 20.6621 12.6128 20.6226 12.5733C20.583 12.5337 20.536 12.5023 20.4842 12.4808C20.4325 12.4594 20.3771 12.4484 20.3211 12.4484C20.2651 12.4484 20.2097 12.4594 20.1579 12.4809C20.1062 12.5023 20.0592 12.5337 20.0196 12.5733C19.98 12.6129 19.9486 12.6599 19.9272 12.7116C19.9058 12.7633 19.8948 12.8187 19.8948 12.8747ZM20.8895 8.29897C20.9455 8.29898 21.0009 8.28796 21.0527 8.26654C21.1044 8.24513 21.1514 8.21373 21.191 8.17414C21.2306 8.13455 21.262 8.08755 21.2834 8.03582C21.3048 7.98409 21.3158 7.92865 21.3158 7.87266V7.81581C21.3158 7.75983 21.3048 7.70439 21.2834 7.65266C21.262 7.60093 21.2306 7.55393 21.191 7.51434C21.1514 7.47475 21.1044 7.44335 21.0527 7.42193C21.0009 7.40051 20.9455 7.3895 20.8895 7.38951C20.8335 7.3895 20.7781 7.40051 20.7263 7.42193C20.6746 7.44335 20.6276 7.47475 20.588 7.51434C20.5484 7.55393 20.517 7.60093 20.4956 7.65266C20.4742 7.70439 20.4632 7.75983 20.4632 7.81581V7.87266C20.4632 7.98573 20.5081 8.09416 20.5881 8.1741C20.668 8.25405 20.7764 8.29897 20.8895 8.29897ZM22.0264 4.26315H26.0053C26.5538 4.26315 27 3.81686 27 3.26842C27 2.40653 26.2988 1.70527 25.4369 1.70527H25.2948V1.27897C25.2948 0.57375 24.721 0 24.0159 0C23.3107 0 22.7369 0.57375 22.7369 1.27897V1.70527H22.5948C21.7329 1.70527 21.0316 2.40653 21.0316 3.26842C21.0316 3.81691 21.4779 4.26315 22.0264 4.26315ZM23.5895 1.27897C23.5895 1.04388 23.7807 0.852662 24.0158 0.852662C24.2509 0.852662 24.4421 1.04388 24.4421 1.27897V1.70527H23.5895V1.27897ZM22.5948 2.55788H25.4369C25.8287 2.55788 26.1474 2.87661 26.1474 3.26842C26.1474 3.30611 26.1324 3.34224 26.1058 3.36889C26.0791 3.39553 26.043 3.41052 26.0053 3.41054H22.0264C21.9887 3.41052 21.9525 3.39553 21.9259 3.36889C21.8992 3.34224 21.8843 3.30611 21.8842 3.26842C21.8842 2.87661 22.203 2.55788 22.5948 2.55788ZM13.0737 10.6579V10.7147C13.0737 10.7707 13.0848 10.8262 13.1062 10.8779C13.1276 10.9296 13.159 10.9766 13.1986 11.0162C13.2382 11.0558 13.2852 11.0872 13.3369 11.1086C13.3886 11.13 13.4441 11.141 13.5 11.141C13.556 11.141 13.6115 11.13 13.6632 11.1086C13.7149 11.0872 13.7619 11.0558 13.8015 11.0162C13.8411 10.9766 13.8725 10.9296 13.8939 10.8779C13.9153 10.8262 13.9264 10.7707 13.9264 10.7147V10.6579C13.9264 10.6019 13.9153 10.5465 13.8939 10.4947C13.8725 10.443 13.8411 10.396 13.8015 10.3564C13.7619 10.3168 13.7149 10.2854 13.6632 10.264C13.6115 10.2426 13.556 10.2316 13.5 10.2316C13.4441 10.2316 13.3886 10.2426 13.3369 10.264C13.2852 10.2854 13.2382 10.3168 13.1986 10.3564C13.159 10.396 13.1276 10.443 13.1062 10.4947C13.0848 10.5465 13.0737 10.6019 13.0737 10.6579Z" fill="#D02128"/>
<path d="M26.7269 20.492L26.7269 20.4917C26.622 20.443 26.5173 20.394 26.4127 20.3446C24.9086 19.6243 23.5799 18.6312 22.46 17.3869C22.2048 17.1032 21.8395 16.9405 21.4578 16.9405C21.0762 16.9405 20.7108 17.1032 20.4555 17.3869C19.273 18.7009 17.8578 19.735 16.2487 20.4632H15.5109L14.4197 18.0347C14.7218 17.8669 15.014 17.6817 15.2946 17.48C15.3401 17.4473 15.3787 17.406 15.4082 17.3584C15.4377 17.3109 15.4575 17.2579 15.4666 17.2027C15.4756 17.1474 15.4737 17.091 15.4609 17.0364C15.4482 16.9819 15.4248 16.9305 15.3921 16.885C15.2547 16.6939 14.9883 16.65 14.7972 16.7875C14.5627 16.9556 14.3194 17.1109 14.0684 17.2529L13.5145 16.0204C15.4119 14.8709 16.6827 12.7863 16.6827 10.4105C16.6827 6.79651 13.7426 3.85625 10.1286 3.85625C6.51465 3.85625 3.5746 6.79646 3.5746 10.4105C3.5746 12.7863 4.84534 14.8708 6.74288 16.0204L6.18875 17.2536C5.91939 17.1009 5.65904 16.9329 5.40896 16.7503C5.31756 16.6859 5.2045 16.66 5.09415 16.6781C4.9838 16.6963 4.885 16.757 4.81904 16.8474C4.75308 16.9377 4.72524 17.0503 4.74152 17.1609C4.75781 17.2715 4.81691 17.3714 4.90609 17.4388C5.20408 17.6564 5.51524 17.8554 5.8378 18.0345L5.2217 19.4056C4.66641 18.9905 3.98672 18.7579 3.26848 18.7579C2.23088 18.7579 1.27786 19.2343 0.653959 20.0647C0.586043 20.1551 0.556816 20.2688 0.572709 20.3807C0.588602 20.4927 0.648311 20.5937 0.738703 20.6616C0.829095 20.7296 0.942764 20.7588 1.0547 20.7429C1.16664 20.727 1.26769 20.6673 1.3356 20.5769C1.79698 19.9628 2.50151 19.6106 3.26848 19.6106C4.09989 19.6106 4.8629 20.0309 5.30945 20.7347C5.36203 20.8177 5.44168 20.8799 5.5349 20.9109C5.62811 20.9419 5.72918 20.9397 5.82098 20.9047C6.09501 20.8004 6.3858 20.7471 6.67902 20.7473C7.82346 20.7473 8.81909 21.56 9.04637 22.6795C9.06593 22.7759 9.11822 22.8626 9.19437 22.9248C9.27051 22.987 9.36584 23.021 9.46419 23.021H10.3737C11.2356 23.021 11.9369 23.7223 11.9369 24.5842C11.9369 25.4461 11.2356 26.1474 10.3737 26.1474H2.7C1.68133 26.1474 0.852609 25.3187 0.852609 24.3V22.0263C0.852609 22.0164 0.8534 22.0102 0.853928 22.0068C0.871594 21.9908 1.01071 21.8842 1.56315 21.8842C2.70759 21.8842 3.70322 22.6968 3.9305 23.8164C3.95006 23.9127 4.00234 23.9994 4.07848 24.0616C4.15461 24.1239 4.24993 24.1579 4.34827 24.1579H5.25783C5.61397 24.1574 5.95956 24.2788 6.23726 24.5017C6.51496 24.7247 6.70809 25.0359 6.78459 25.3837C6.80926 25.4938 6.87649 25.5895 6.97158 25.6501C7.06668 25.7107 7.18189 25.7311 7.29202 25.7069C7.40214 25.6828 7.49821 25.616 7.5592 25.5211C7.6202 25.4263 7.64115 25.3112 7.61748 25.201C7.5858 25.057 7.54102 24.9163 7.48369 24.7805C7.29913 24.3428 6.98945 23.9693 6.59348 23.7068C6.19751 23.4444 5.73288 23.3047 5.25783 23.3052H4.67717C4.25034 21.9689 2.99252 21.0315 1.56315 21.0315C0.271213 21.0316 0 21.5725 0 22.0263V24.3C0 25.7887 1.21126 27 2.7 27H12.9316C12.9876 27 13.043 26.989 13.0947 26.9676C13.1465 26.9462 13.1935 26.9148 13.2331 26.8752C13.2726 26.8356 13.304 26.7886 13.3255 26.7368C13.3469 26.6851 13.3579 26.6297 13.3579 26.5737C13.3579 26.5177 13.3469 26.4623 13.3255 26.4105C13.304 26.3588 13.2726 26.3118 13.2331 26.2722C13.1935 26.2326 13.1465 26.2012 13.0947 26.1798C13.043 26.1584 12.9876 26.1474 12.9316 26.1474H12.2134C12.5723 25.7257 12.7895 25.18 12.7895 24.5842C12.7895 23.2522 11.7058 22.1685 10.3737 22.1685H9.79298C9.36615 20.8321 8.10833 19.8948 6.67897 19.8948C6.41245 19.8948 6.14951 19.9272 5.89344 19.9907L6.60271 18.4124C7.70576 18.8918 8.89887 19.1405 10.1287 19.1405C11.3576 19.1405 12.5513 18.8918 13.6547 18.4123L14.5764 20.4632H10.6579C10.6019 20.4631 10.5465 20.4742 10.4948 20.4956C10.443 20.517 10.396 20.5484 10.3565 20.588C10.3169 20.6276 10.2855 20.6746 10.2641 20.7263C10.2426 20.778 10.2316 20.8335 10.2316 20.8895C10.2316 20.9454 10.2426 21.0009 10.2641 21.0526C10.2855 21.1043 10.3169 21.1513 10.3565 21.1909C10.396 21.2305 10.443 21.2619 10.4948 21.2833C10.5465 21.3048 10.6019 21.3158 10.6579 21.3158H15.234L15.2355 21.3159L15.2376 21.3158H15.9158V23.33C15.8702 23.3137 15.8221 23.3053 15.7737 23.3052H13.5C13.444 23.3052 13.3886 23.3162 13.3368 23.3376C13.2851 23.3591 13.2381 23.3905 13.1985 23.43C13.1589 23.4696 13.1275 23.5166 13.1061 23.5684C13.0847 23.6201 13.0737 23.6755 13.0737 23.7315C13.0737 23.7875 13.0847 23.8429 13.1061 23.8947C13.1276 23.9464 13.159 23.9934 13.1985 24.033C13.2381 24.0726 13.2851 24.104 13.3369 24.1254C13.3886 24.1468 13.444 24.1578 13.5 24.1578H15.7737C15.8221 24.1577 15.8702 24.1494 15.9158 24.133V26.0052C15.9158 26.0536 15.9205 26.1008 15.9272 26.1473H14.6369C14.5809 26.1473 14.5255 26.1584 14.4738 26.1798C14.422 26.2012 14.375 26.2326 14.3354 26.2722C14.2959 26.3118 14.2645 26.3588 14.243 26.4105C14.2216 26.4622 14.2106 26.5177 14.2106 26.5736C14.2106 26.6296 14.2216 26.6851 14.243 26.7368C14.2644 26.7885 14.2958 26.8355 14.3354 26.8751C14.375 26.9147 14.422 26.9461 14.4737 26.9675C14.5255 26.9889 14.5809 27 14.6369 26.9999H19.999C20.055 27 20.1104 26.9889 20.1621 26.9675C20.2139 26.9461 20.2609 26.9147 20.3005 26.8751C20.34 26.8355 20.3714 26.7885 20.3929 26.7368C20.4143 26.6851 20.4253 26.6296 20.4253 26.5736C20.4253 26.5177 20.4143 26.4622 20.3929 26.4105C20.3714 26.3588 20.34 26.3118 20.3004 26.2722C20.2609 26.2326 20.2139 26.2012 20.1621 26.1798C20.1104 26.1584 20.055 26.1473 19.999 26.1473H18.9744L21.0316 23.7471V26.5736C21.0316 26.6296 21.0426 26.6851 21.0641 26.7368C21.0855 26.7885 21.1169 26.8355 21.1565 26.8751C21.196 26.9147 21.243 26.9461 21.2948 26.9675C21.3465 26.9889 21.4019 27 21.4579 26.9999H26.0053C26.5538 26.9999 27.0001 26.5537 27.0001 26.0052V20.8895C27 20.7081 26.8866 20.5536 26.7269 20.492ZM4.42721 10.4104C4.42721 7.26653 6.98488 4.70886 10.1287 4.70886C13.2726 4.70886 15.8302 7.26653 15.8302 10.4104C15.8302 12.4402 14.7639 14.2254 13.1622 15.2359L11.6084 11.778C11.941 11.4183 12.1448 10.9378 12.1448 10.4104C12.1448 9.29876 11.2405 8.39431 10.1288 8.39431C9.0171 8.39431 8.11271 9.29871 8.11271 10.4104C8.11271 10.9378 8.31653 11.4183 8.64918 11.778L7.09536 15.2359C5.49355 14.2254 4.42721 12.4402 4.42721 10.4104ZM9.36093 12.2742C9.60438 12.3749 9.86529 12.4267 10.1287 12.4265C10.3922 12.4266 10.6531 12.3749 10.8966 12.2742L12.4073 15.6363C11.7091 15.9419 10.9385 16.1119 10.1288 16.1119C9.31911 16.1119 8.54845 15.9419 7.85025 15.6363L9.36093 12.2742ZM8.96532 10.4104C8.96532 9.76888 9.48723 9.24697 10.1287 9.24697C10.7702 9.24697 11.2921 9.76888 11.2921 10.4104C11.2921 11.0519 10.7702 11.5738 10.1287 11.5738C9.48718 11.5738 8.96532 11.052 8.96532 10.4104ZM10.1287 18.2878C9.0209 18.2878 7.94665 18.0635 6.95271 17.6333L7.50062 16.4139C8.30561 16.7677 9.1945 16.9646 10.1286 16.9646C11.0628 16.9646 11.9517 16.7677 12.7567 16.4139L13.3045 17.633C12.3103 18.0633 11.2356 18.2878 10.1287 18.2878ZM21.0316 22.4371L17.8513 26.1473H16.9105C16.8729 26.1473 16.8367 26.1323 16.8101 26.1057C16.7834 26.079 16.7685 26.0429 16.7684 26.0052V21.3158H21.0316V22.4371ZM26.1474 26.0053C26.1474 26.043 26.1324 26.0791 26.1057 26.1057C26.0791 26.1324 26.043 26.1474 26.0053 26.1474H21.8842V21.3158H22.5805C22.6365 21.3158 22.692 21.3048 22.7437 21.2834C22.7954 21.262 22.8424 21.2306 22.882 21.191C22.9216 21.1514 22.953 21.1044 22.9744 21.0527C22.9958 21.0009 23.0069 20.9455 23.0068 20.8895C23.0069 20.8335 22.9958 20.7781 22.9744 20.7264C22.953 20.6746 22.9216 20.6276 22.882 20.588C22.8424 20.5484 22.7954 20.517 22.7437 20.4956C22.692 20.4742 22.6365 20.4632 22.5805 20.4632H18.0731C19.1916 19.7819 20.2019 18.9434 21.0893 17.9573C21.1847 17.8515 21.3155 17.7932 21.4578 17.7932C21.6002 17.7932 21.731 17.8514 21.8263 17.9573C22.7138 18.9434 23.7241 19.7819 24.8426 20.4632H23.9732C23.9172 20.4632 23.8617 20.4742 23.81 20.4956C23.7583 20.517 23.7113 20.5484 23.6717 20.588C23.6321 20.6276 23.6007 20.6746 23.5793 20.7264C23.5578 20.7781 23.5468 20.8335 23.5468 20.8895C23.5468 20.9455 23.5578 21.0009 23.5793 21.0527C23.6007 21.1044 23.6321 21.1514 23.6717 21.191C23.7113 21.2306 23.7583 21.262 23.81 21.2834C23.8617 21.3048 23.9172 21.3158 23.9732 21.3158H26.1473V26.0053H26.1474Z" fill="#D02128"/>
<path d="M26.5737 17.621H24.3C24.244 17.621 24.1886 17.632 24.1369 17.6535C24.0851 17.6749 24.0381 17.7063 23.9985 17.7459C23.959 17.7855 23.9276 17.8325 23.9061 17.8842C23.8847 17.9359 23.8737 17.9914 23.8737 18.0473C23.8737 18.1033 23.8847 18.1588 23.9061 18.2105C23.9276 18.2622 23.959 18.3092 23.9985 18.3488C24.0381 18.3884 24.0851 18.4198 24.1369 18.4412C24.1886 18.4626 24.244 18.4736 24.3 18.4736H26.5737C26.6297 18.4737 26.6851 18.4626 26.7369 18.4412C26.7886 18.4198 26.8356 18.3884 26.8752 18.3488C26.9148 18.3092 26.9462 18.2622 26.9676 18.2105C26.989 18.1588 27 18.1033 27 18.0473C27 17.9914 26.989 17.9359 26.9676 17.8842C26.9461 17.8325 26.9147 17.7855 26.8752 17.7459C26.8356 17.7063 26.7886 17.6749 26.7368 17.6535C26.6851 17.632 26.6297 17.621 26.5737 17.621ZM6.11054 9.09473C6.05456 9.09472 5.99912 9.10574 5.9474 9.12717C5.89567 9.14859 5.84867 9.17999 5.80908 9.21958C5.7695 9.25916 5.7381 9.30616 5.71667 9.35789C5.69525 9.40961 5.68423 9.46505 5.68424 9.52103V9.57788C5.68422 9.63387 5.69524 9.68931 5.71666 9.74104C5.73808 9.79277 5.76948 9.83977 5.80907 9.87936C5.84866 9.91894 5.89566 9.95035 5.94739 9.97176C5.99911 9.99318 6.05456 10.0042 6.11054 10.0042C6.16653 10.0042 6.22197 9.99318 6.2737 9.97176C6.32543 9.95035 6.37243 9.91894 6.41202 9.87936C6.45161 9.83977 6.48301 9.79277 6.50443 9.74104C6.52584 9.68931 6.53686 9.63387 6.53685 9.57788V9.52103C6.53685 9.40797 6.49193 9.29954 6.41199 9.21959C6.33204 9.13964 6.22361 9.09473 6.11054 9.09473ZM26.5737 9.66315C26.5177 9.66314 26.4623 9.67416 26.4105 9.69558C26.3588 9.71699 26.3118 9.74839 26.2722 9.78798C26.2326 9.82757 26.2012 9.87457 26.1798 9.9263C26.1584 9.97803 26.1474 10.0335 26.1474 10.0895V10.1463C26.1474 10.2023 26.1584 10.2577 26.1798 10.3095C26.2012 10.3612 26.2327 10.4082 26.2722 10.4478C26.3118 10.4874 26.3588 10.5188 26.4105 10.5402C26.4623 10.5616 26.5177 10.5726 26.5737 10.5726C26.6297 10.5726 26.6851 10.5616 26.7369 10.5402C26.7886 10.5188 26.8356 10.4874 26.8752 10.4478C26.9148 10.4082 26.9462 10.3612 26.9676 10.3095C26.989 10.2577 27 10.2023 27 10.1463V10.0895C27 10.0335 26.989 9.97803 26.9676 9.92631C26.9461 9.87459 26.9147 9.82759 26.8752 9.788C26.8356 9.74841 26.7886 9.71701 26.7368 9.69559C26.6851 9.67417 26.6297 9.66315 26.5737 9.66315ZM12.9316 7.73054C12.9876 7.73056 13.043 7.71954 13.0947 7.69812C13.1465 7.6767 13.1935 7.6453 13.2331 7.60571C13.2726 7.56612 13.304 7.51912 13.3255 7.4674C13.3469 7.41567 13.3579 7.36023 13.3579 7.30424V7.24739C13.3579 7.1914 13.3469 7.13596 13.3255 7.08424C13.304 7.03251 13.2726 6.98551 13.2331 6.94592C13.1935 6.90633 13.1465 6.87493 13.0947 6.85351C13.043 6.83209 12.9876 6.82107 12.9316 6.82109C12.8756 6.82108 12.8202 6.8321 12.7684 6.85352C12.7167 6.87494 12.6697 6.90635 12.6301 6.94593C12.5905 6.98552 12.5591 7.03252 12.5377 7.08424C12.5163 7.13597 12.5053 7.19141 12.5053 7.24739V7.30424C12.5053 7.36022 12.5163 7.41566 12.5377 7.46739C12.5591 7.51911 12.5905 7.56611 12.6301 7.6057C12.6697 7.64529 12.7167 7.67669 12.7684 7.69811C12.8202 7.71953 12.8756 7.73055 12.9316 7.73054ZM26.5737 15.3474H25.2947V5.21996C25.2947 5.16398 25.2837 5.10854 25.2623 5.05681C25.2409 5.00508 25.2095 4.95808 25.1699 4.91849C25.1303 4.8789 25.0833 4.8475 25.0316 4.82608C24.9799 4.80466 24.9244 4.79365 24.8684 4.79366C24.8124 4.79365 24.757 4.80468 24.7053 4.8261C24.6536 4.84752 24.6066 4.87892 24.567 4.91851C24.5274 4.95809 24.496 5.00509 24.4746 5.05682C24.4531 5.10854 24.4421 5.16398 24.4421 5.21996V15.3473H23.5895V5.20103C23.5895 5.14505 23.5785 5.08961 23.5571 5.03788C23.5357 4.98615 23.5043 4.93915 23.4647 4.89956C23.4251 4.85997 23.3781 4.82857 23.3264 4.80715C23.2746 4.78573 23.2192 4.77471 23.1632 4.77473C23.1072 4.77472 23.0518 4.78574 23.0001 4.80717C22.9483 4.82859 22.9013 4.85999 22.8617 4.89958C22.8222 4.93916 22.7908 4.98616 22.7693 5.03789C22.7479 5.08961 22.7369 5.14505 22.7369 5.20103V15.3473H20.3211C20.2651 15.3473 20.2097 15.3584 20.1579 15.3798C20.1062 15.4012 20.0592 15.4326 20.0196 15.4722C19.98 15.5118 19.9486 15.5588 19.9272 15.6105C19.9058 15.6622 19.8948 15.7177 19.8948 15.7736C19.8948 15.8296 19.9058 15.8851 19.9272 15.9368C19.9486 15.9885 19.98 16.0355 20.0196 16.0751C20.0592 16.1147 20.1062 16.1461 20.1579 16.1675C20.2097 16.1889 20.2651 16.2 20.3211 16.1999H26.5737C26.6297 16.2 26.6851 16.1889 26.7369 16.1675C26.7886 16.1461 26.8356 16.1147 26.8752 16.0751C26.9148 16.0355 26.9462 15.9885 26.9676 15.9368C26.989 15.8851 27 15.8296 27 15.7736C27 15.7177 26.989 15.6622 26.9676 15.6105C26.9461 15.5588 26.9147 15.5118 26.8752 15.4722C26.8356 15.4326 26.7886 15.4012 26.7368 15.3798C26.6851 15.3584 26.6297 15.3474 26.5737 15.3474ZM0.426305 18.4737C0.482292 18.4737 0.537733 18.4627 0.589461 18.4413C0.641189 18.4199 0.68819 18.3885 0.727779 18.3489C0.767367 18.3093 0.798768 18.2623 0.820187 18.2105C0.841606 18.1588 0.852623 18.1034 0.852609 18.0474V17.9905C0.852609 17.755 0.661764 17.5642 0.426305 17.5642C0.190846 17.5642 0 17.755 0 17.9905V18.0474C0 18.1605 0.0449141 18.2689 0.124862 18.3488C0.204809 18.4288 0.313242 18.4737 0.426305 18.4737ZM10.1287 2.6885C10.9452 2.6885 11.6096 2.02416 11.6096 1.20762V1.10215C11.6096 0.576282 11.1818 0.1485 10.656 0.1485H9.60135C9.07548 0.1485 8.64775 0.576282 8.64775 1.10215V1.20762C8.6478 2.02416 9.3121 2.6885 10.1287 2.6885ZM9.50036 1.10215H9.50041C9.50041 1.04646 9.54571 1.00116 9.60135 1.00116H10.656C10.7116 1.00116 10.7569 1.04646 10.7569 1.10215V1.20762C10.7569 1.55408 10.4751 1.83589 10.1286 1.83589C9.78217 1.83589 9.50036 1.55408 9.50036 1.20762V1.10215ZM1.68739 15.8667V15.972C1.68739 16.7886 2.35174 17.453 3.16828 17.453C3.98487 17.453 4.64922 16.7886 4.64922 15.972V15.8667C4.64922 15.3408 4.22149 14.913 3.69563 14.913H3.59559C3.02047 14.1047 2.60566 13.2094 2.36266 12.2496C2.33491 12.14 2.26476 12.0459 2.16763 11.988C2.0705 11.9301 1.95436 11.9132 1.84475 11.941C1.73515 11.9687 1.64105 12.0389 1.58317 12.136C1.52528 12.2331 1.50835 12.3493 1.5361 12.4589C1.75525 13.3262 2.10577 14.155 2.57549 14.9163C2.08027 14.9502 1.68739 15.3629 1.68739 15.8667ZM2.54 15.8667C2.54 15.811 2.58536 15.7657 2.64099 15.7657H3.69563C3.75126 15.7657 3.79656 15.811 3.79656 15.8667V15.972C3.79656 16.3185 3.51469 16.6004 3.16823 16.6004C2.82176 16.6004 2.53995 16.3185 2.53995 15.972L2.54 15.8667ZM4.40527 1.98946C4.46126 1.98947 4.5167 1.97845 4.56843 1.95703C4.62016 1.93562 4.66716 1.90422 4.70675 1.86463C4.74633 1.82504 4.77774 1.77804 4.79915 1.72631C4.82057 1.67458 4.83159 1.61914 4.83158 1.56315V1.50631C4.83158 1.27079 4.64073 1.08 4.40527 1.08C4.16981 1.08 3.97897 1.27079 3.97897 1.50631V1.56315C3.97895 1.61914 3.98997 1.67458 4.01139 1.72631C4.03281 1.77804 4.06421 1.82504 4.1038 1.86463C4.14339 1.90422 4.19039 1.93562 4.24212 1.95703C4.29384 1.97845 4.34928 1.98947 4.40527 1.98946ZM3.16828 5.64142C3.88731 5.64142 4.48806 5.12626 4.62138 4.44567C4.6476 4.43029 4.67212 4.41217 4.69452 4.39161C5.66046 3.49935 6.83975 2.85362 8.10496 2.52429C8.15913 2.51019 8.21 2.48555 8.25465 2.45179C8.2993 2.41803 8.33687 2.37581 8.3652 2.32753C8.39353 2.27925 8.41208 2.22587 8.41978 2.17042C8.42748 2.11497 8.42418 2.05855 8.41008 2.00438C8.396 1.9502 8.37137 1.89932 8.33762 1.85466C8.30386 1.80999 8.26164 1.77242 8.21335 1.74408C8.16507 1.71575 8.11168 1.6972 8.05622 1.68951C8.00077 1.68182 7.94434 1.68513 7.89017 1.69926C6.63214 2.02669 5.45163 2.63735 4.44978 3.47356C4.27523 3.24765 4.00254 3.10136 3.69568 3.10136H2.64099C2.11512 3.10136 1.68739 3.52914 1.68739 4.05501V4.16048C1.68739 4.97707 2.35174 5.64142 3.16828 5.64142ZM2.54 4.05506C2.54 3.99938 2.58536 3.95408 2.64099 3.95408H3.69563C3.75126 3.95408 3.79656 3.99938 3.79656 4.05506V4.16053C3.79656 4.507 3.51469 4.78881 3.16823 4.78881C2.82176 4.78881 2.53995 4.507 2.53995 4.16053L2.54 4.05506ZM1.48094 11.5472C2.29748 11.5472 2.96183 10.8829 2.96183 10.0664V9.96089C2.96183 9.50611 2.64157 9.12521 2.2149 9.03045C2.33188 8.27914 2.55618 7.54853 2.88093 6.86101C2.9292 6.75876 2.93488 6.64153 2.89672 6.5351C2.85856 6.42866 2.77967 6.34175 2.67743 6.29348C2.57518 6.24521 2.45795 6.23953 2.35152 6.27769C2.24509 6.31586 2.15817 6.39474 2.1099 6.49698C1.73462 7.29136 1.48055 8.13752 1.35617 9.00724H0.953596C0.427729 9.00719 0 9.43497 0 9.96084V10.0663C0 10.8829 0.664348 11.5472 1.48094 11.5472ZM0.852609 9.96084C0.852609 9.90515 0.897908 9.85985 0.953543 9.85985H2.00818C2.06381 9.85985 2.10911 9.90515 2.10911 9.96084V10.0663C2.10911 10.4128 1.8273 10.6946 1.48083 10.6946C1.13437 10.6946 0.852557 10.4128 0.852557 10.0664L0.852609 9.96084ZM0.426305 1.16527C0.482292 1.16529 0.537733 1.15427 0.589461 1.13285C0.641189 1.11143 0.68819 1.08003 0.727779 1.04044C0.767367 1.00085 0.798768 0.953851 0.820187 0.902123C0.841606 0.850395 0.852623 0.794954 0.852609 0.738967V0.68212C0.852609 0.446608 0.661764 0.255815 0.426305 0.255815C0.190846 0.255815 0 0.446608 0 0.68212V0.738967C0 0.85203 0.0449141 0.960463 0.124862 1.04041C0.204809 1.12036 0.313242 1.16527 0.426305 1.16527Z" fill="#D02128"/>
</svg>
