<svg width="105" height="170" viewBox="0 0 105 170" fill="none" xmlns="http://www.w3.org/2000/svg">
<g opacity="0.24">
<path d="M47.5789 77.9438C50.6376 84.6866 52.2795 91.9855 52.4032 99.3885H63.9481C62.855 89.7701 56.5634 81.5311 47.5723 77.9438H47.5789Z" fill="white"/>
<path d="M37.8935 76.0688C34.5498 76.0688 29.7871 85.052 29.2065 99.3883H46.5789C45.9983 85.052 41.2356 76.0688 37.8935 76.0688Z" fill="white"/>
<path fill-rule="evenodd" clip-rule="evenodd" d="M2.91452 64.4097H72.863C74.4715 64.4124 75.7747 65.7157 75.7775 67.3242V166.429C75.7747 168.038 74.4715 169.341 72.863 169.344H2.91452C1.30601 169.341 0.00274724 168.038 0 166.429V67.3242C0.00274724 65.7157 1.30601 64.4124 2.91452 64.4097ZM11.6448 140.195H5.82241V146.018H11.6448V140.195ZM58.2971 157.684H5.82241V151.862H58.2904L58.2971 157.684ZM64.1344 157.684H69.9568V151.862H64.1344V157.684ZM69.9567 146.025H17.4887V140.202H69.9567V146.025ZM8.27131 114.573C13.2341 126.555 24.9254 134.366 37.8937 134.366C55.5917 134.343 69.9329 120.001 69.9567 102.303C69.9567 89.3352 62.1448 77.6438 50.1637 72.6811C38.1825 67.7183 24.3917 70.4615 15.2217 79.6315C6.05174 88.8014 3.30856 102.592 8.27131 114.573Z" fill="white"/>
<path d="M11.8311 105.218C12.9232 114.835 19.2127 123.074 28.2019 126.662C25.145 119.919 23.5031 112.621 23.3777 105.218H11.8311Z" fill="white"/>
<path d="M11.8311 99.3885H23.3777C23.5017 91.9855 25.1436 84.6867 28.2019 77.9438C19.2127 81.5325 12.9232 89.7713 11.8311 99.3885H11.8311Z" fill="white"/>
<path d="M37.8935 128.537C41.2373 128.537 46 119.554 46.5805 105.218H29.2065C29.7871 119.547 34.5498 128.537 37.8935 128.537Z" fill="white"/>
<path d="M47.5791 126.662C56.5721 123.078 62.8647 114.837 63.955 105.218H52.41C52.2846 112.621 50.6427 119.919 47.5858 126.662H47.5791Z" fill="white"/>
<path d="M78.7018 20.688V11.9428C78.6275 10.389 77.3461 9.16748 75.7906 9.16748C74.2351 9.16748 72.9537 10.389 72.8794 11.9428V20.688C72.8796 21.9439 72.0752 23.0588 70.8832 23.4545L55.3823 28.6197V29.4332H69.9566C71.5658 29.4341 72.8702 30.7385 72.8711 32.3477V38.1701C72.8707 39.1445 72.3839 40.0545 71.5735 40.5956L64.254 45.4697L74.7043 41.3009C75.3989 41.0258 76.1723 41.0258 76.8669 41.3009L87.3223 45.4747L80.0027 40.6005C79.1912 40.0602 78.7036 39.15 78.7035 38.1751V32.3527C78.7044 30.7435 80.0087 29.4391 81.618 29.4382H96.1922V28.6247L80.6964 23.4678C79.5044 23.0721 78.7 21.9573 78.7001 20.7013L78.7018 20.688Z" fill="white"/>
<path fill-rule="evenodd" clip-rule="evenodd" d="M32.063 0.283203H102.011C103.62 0.28595 104.923 1.58922 104.926 3.19772V160.6C104.923 162.209 103.62 163.512 102.011 163.515H81.6164V67.3238C81.61 62.4969 77.6981 58.5857 72.8712 58.5802H29.1484V3.19772C29.1512 1.58922 30.4545 0.28595 32.063 0.283203ZM93.2828 157.686H99.1052V131.452H93.2828V157.686ZM99.1052 125.623H93.2828V119.8H99.1052V125.623ZM93.2828 113.963H99.1052V70.24H93.2828V113.963ZM99.1052 64.4112H93.2828V58.5888H99.1052V64.4112ZM99.0971 35.2608C100.706 35.2599 102.011 33.9555 102.012 32.3463L102.023 26.5056C102.023 25.2496 101.219 24.1348 100.027 23.7391L84.5312 18.5822V11.943C84.4652 7.16061 80.5696 3.31837 75.7868 3.31837C71.004 3.31837 67.1084 7.16061 67.0424 11.943V18.5822L51.5499 23.7641C50.3579 24.1598 49.5535 25.2746 49.5536 26.5305V32.3529C49.5546 33.9622 50.8589 35.2665 52.4682 35.2674H67.0491V36.6232L59.6014 41.5872C58.791 42.1283 58.3042 43.0382 58.3039 44.0127V49.835C58.3061 50.8004 58.7855 51.7023 59.5844 52.2442C60.3834 52.7861 61.3985 52.8981 62.2963 52.5433L75.786 47.1451L89.2839 52.5366C90.1817 52.8914 91.1969 52.7795 91.9958 52.2375C92.7948 51.6956 93.2741 50.7938 93.2764 49.8284V44.006C93.276 43.0316 92.7892 42.1217 91.9789 41.5806L84.5312 36.6166V35.2608H99.0971Z" fill="white"/>
</g>
</svg>
