<svg width="30" height="40" viewBox="0 0 30 40" fill="none" xmlns="http://www.w3.org/2000/svg">
<path fill-rule="evenodd" clip-rule="evenodd" d="M24.2387 10.4334C26.6861 13.7299 29.4567 17.4617 29.914 23.419C29.914 23.419 30 24.584 30 25C29.9907 33.2633 23.3072 39.9664 15.044 40H15.033C15.0221 40.0016 15.0109 40.0016 15 40C6.71961 39.9906 0.00936852 33.2804 0 25C0 24.716 0 24.432 0.017 24.149C0.261 15.636 4.457 13.504 4.635 13.418C4.87445 13.3016 5.15514 13.3066 5.39025 13.4316C5.62536 13.5566 5.78656 13.7864 5.824 14.05C5.832 14.106 6.6 19.189 10 19.915C9.9597 17.074 10.2476 14.2379 10.858 11.463C12.1369 6.92974 14.8894 2.95167 18.681 0.157006C18.9344 -0.0264891 19.2697 -0.0508861 19.547 0.0940057C19.8248 0.236693 19.9997 0.522667 20 0.835006C20 4.72202 21.957 7.35896 24.2228 10.412L24.228 10.419L24.2387 10.4334ZM10 33.006C9.91579 35.8553 12.1511 38.2363 15 38.332C17.8491 38.2353 20.0838 35.8534 19.999 33.004C19.999 32.849 19.989 32.705 19.978 32.562C19.8073 30.6528 19.0626 28.84 17.842 27.362C17.0965 26.4152 16.5157 25.3496 16.124 24.21C15.3271 25.1336 14.7502 26.226 14.437 27.405C14.1861 28.652 14.0787 29.9236 14.117 31.195C14.117 31.6551 13.7441 32.028 13.284 32.028C12.047 31.985 10.9593 31.197 10.533 30.035C10.1812 30.8726 10.002 31.7725 10.006 32.681C10 32.806 10 32.906 10 33.006Z" fill="#D02128"/>
</svg>
