<svg width="297" height="285" viewBox="0 0 297 285" fill="none" xmlns="http://www.w3.org/2000/svg">
<path d="M53.6476 254.247C66.4989 245.281 69.4128 228.619 68.8898 213.676C68.8151 211.21 69.114 208.521 67.9185 206.354C66.723 204.187 63.9585 202.693 61.717 203.739C59.8491 204.635 59.0272 206.727 57.9812 208.521C56.5616 210.911 54.5442 212.854 52.1533 214.124C50.5842 214.946 48.5669 215.469 46.9978 214.573C44.8311 213.377 44.6069 210.388 44.6069 207.923C44.6069 203.29 44.6816 198.658 44.6816 194.026C44.6816 191.56 44.6816 189.02 43.9345 186.629C43.1873 184.312 41.4688 182.071 39.0779 181.398C36.687 180.726 33.773 182.071 33.3247 184.537C33.25 185.583 33.1753 186.629 33.25 187.6C33.1753 188.646 32.727 189.767 31.7557 190.066C30.7843 190.364 29.7383 189.617 29.0659 188.945C26.5255 186.404 24.7323 183.192 23.1632 179.979C21.5195 176.766 19.9504 173.478 17.6342 170.714C15.318 167.949 12.1052 165.783 8.51878 165.633C4.93239 165.409 1.19655 167.651 0.299955 171.088C-0.596645 174.524 1.4207 178.111 3.6622 180.95C6.94974 185.134 10.835 188.87 15.1686 191.933C15.9904 192.382 16.6629 193.129 17.1112 194.026C17.6342 195.669 16.0652 197.313 14.4214 197.836C12.5535 198.434 10.5361 198.284 8.66822 198.509C6.8003 198.733 4.63352 199.629 3.88635 201.422C2.84032 203.963 5.0071 206.653 7.09917 208.371C11.2833 211.883 16.0652 214.573 21.1459 216.515C23.0138 217.188 24.8817 217.785 26.3761 219.056C27.8704 220.326 28.767 222.567 27.8704 224.286C26.9738 226.004 24.6576 226.602 22.7897 226.228C20.847 225.855 19.1285 224.809 17.3353 224.136C13.8984 222.866 9.4901 223.09 7.32332 226.004C5.9037 227.947 5.75427 230.637 6.50144 232.953C7.32332 235.194 8.5935 237.286 10.2373 239.08C15.6169 245.58 22.7149 250.511 30.6349 253.425C38.4802 256.339 45.8771 257.086 53.6476 254.247Z" fill="#FF725E"/>
<path d="M3.81152 167.875C3.88624 167.949 3.96096 168.024 4.03567 168.099L4.78284 168.771C5.45529 169.369 6.42661 170.191 7.62207 171.312C11.059 174.45 14.1971 177.887 17.1111 181.548C18.979 183.864 20.8469 186.479 22.8643 189.318C24.8816 192.158 26.9737 195.221 29.1405 198.509C31.382 201.945 33.3993 205.457 35.2672 209.118C36.2385 210.986 37.0604 213.004 37.957 215.021L40.5721 221.148C43.9344 228.918 46.923 236.913 49.3887 245.057C51.406 251.707 52.8256 258.506 53.4981 265.455C53.9464 270.087 54.0958 274.794 53.7222 279.501C53.5728 281.145 53.4981 282.415 53.3487 283.312C53.2739 283.76 53.2739 284.059 53.1992 284.283C53.1992 284.433 53.1992 284.507 53.1992 284.657C53.1992 284.582 53.2739 284.433 53.2739 284.358C53.2739 284.134 53.3487 283.76 53.4234 283.387C53.5728 282.49 53.7222 281.22 53.8717 279.576C54.2453 274.869 54.2453 270.162 53.797 265.529C53.1245 258.581 51.7796 251.781 49.7623 245.057C47.2966 236.913 44.3079 228.918 40.871 221.073L38.2559 214.946C37.3593 212.929 36.5374 210.911 35.5661 209.044C33.6982 205.382 31.6808 201.871 29.3646 198.434C27.2725 195.146 25.1058 192.083 23.0884 189.244C21.0711 186.404 19.1284 183.789 17.2605 181.548C14.3466 177.887 11.1338 174.524 7.62207 171.386C6.42661 170.266 5.45529 169.444 4.78284 168.921L4.03567 168.323L3.81152 167.875Z" fill="#263238"/>
<path d="M35.4912 208.819C35.6406 208.446 35.7154 208.147 35.7154 207.773C35.8648 207.101 36.0142 206.055 36.1637 204.859C36.5372 202.394 36.9108 198.957 37.2844 195.146C37.658 191.336 38.1063 187.973 38.4799 185.508C38.704 184.312 38.8535 183.266 38.9282 182.594C39.0029 182.22 39.0776 181.847 39.0776 181.548C38.9282 181.847 38.8535 182.22 38.7787 182.594C38.6293 183.266 38.4052 184.238 38.181 185.508C37.7327 187.973 37.2097 191.41 36.8361 195.146C36.4625 198.957 36.0889 202.244 35.8648 204.859C35.7154 206.055 35.6406 207.026 35.5659 207.773C35.4912 208.147 35.4912 208.446 35.4912 208.819Z" fill="#263238"/>
<path d="M3.5874 202.917C4.0357 202.992 4.40929 203.066 4.85759 203.066C5.67947 203.141 6.87493 203.216 8.29455 203.44C11.2085 203.739 15.2432 204.336 19.6515 205.158C24.0598 205.98 28.0197 206.952 30.859 207.699C32.2786 208.072 33.3993 208.371 34.2212 208.595C34.5948 208.745 35.0431 208.819 35.4914 208.894C35.1178 208.67 34.7442 208.521 34.2959 208.446C33.5488 208.147 32.3533 207.773 30.9337 207.4C28.0945 206.578 24.1345 205.607 19.7262 204.71C15.9904 203.963 12.1798 203.44 8.29455 203.141C6.80022 202.992 5.60475 202.992 4.78287 202.917C4.484 202.842 4.0357 202.842 3.5874 202.917Z" fill="#263238"/>
<path d="M49.3882 244.31C49.4629 244.16 49.5376 244.086 49.6123 243.936L50.1353 242.815C50.5836 241.769 51.2561 240.35 52.0033 238.482C53.5723 234.821 55.5149 229.665 57.607 224.062C59.6991 218.458 61.6417 213.228 63.0613 209.567L64.7798 205.233C65.004 204.785 65.0787 204.336 65.2281 204.038C65.3028 203.888 65.3028 203.739 65.3775 203.589C65.3028 203.739 65.2281 203.813 65.1534 203.963L64.6304 205.084C64.1821 206.055 63.5096 207.549 62.7625 209.417C61.1934 213.078 59.2508 218.159 57.1587 223.837C55.0666 229.516 53.124 234.671 51.7044 238.332L49.9859 242.666L49.5376 243.862C49.4629 244.011 49.4629 244.16 49.3882 244.31Z" fill="#263238"/>
<path d="M7.02441 230.637C7.17385 230.711 7.32328 230.786 7.47271 230.786L8.66818 231.234L13.2259 232.729C17.0364 233.999 22.3413 235.717 28.1692 237.735C33.9971 239.752 39.302 241.471 43.1873 242.591C45.1299 243.189 46.6989 243.637 47.745 243.936L49.0152 244.235C49.1646 244.31 49.314 244.31 49.4635 244.31C49.314 244.235 49.1646 244.16 49.0152 244.16L47.8197 243.712L43.262 242.218C39.4514 240.948 34.1466 239.229 28.3187 237.212C22.4908 235.194 17.1859 233.476 13.3753 232.355C11.4327 231.757 9.86365 231.309 8.81761 231.01L7.54743 230.711C7.32328 230.711 7.17385 230.637 7.02441 230.637Z" fill="#263238"/>
<path d="M175.51 247.523L92.5746 247.149C82.6373 247.074 74.5679 239.005 74.5679 228.993L75.4645 21.0565C75.5392 11.0445 83.6086 3.0498 93.6206 3.0498L176.556 3.42339C186.568 3.4981 194.563 11.5675 194.563 21.5795L193.666 229.516C193.666 239.453 185.522 247.523 175.51 247.523Z" fill="#263238"/>
<path d="M176.406 10.6709L160.342 10.5962C158.175 10.5962 156.382 12.4641 156.382 14.6309V17.5448C156.457 19.7863 154.663 21.5795 152.422 21.5795L121.116 21.4301C118.874 21.3554 117.156 19.5622 117.23 17.3207V14.4067C117.305 12.2399 115.512 10.372 113.345 10.2973H107.667L93.6199 10.2226C86.5965 10.2226 80.9181 15.8263 80.9181 22.8497L80.0215 225.78C80.0215 232.729 85.6252 238.482 92.5739 238.482L175.36 238.855C182.309 238.855 188.062 233.252 188.062 226.228L188.958 23.298C189.033 16.3494 183.355 10.6709 176.406 10.6709Z" fill="white"/>
<path d="M157.578 111.015H104.305V162.346H157.578V111.015Z" fill="#FF725E"/>
<path d="M119.024 96.6697L104.305 111.015H157.578L167.814 96.6697H119.024Z" fill="#FF725E"/>
<path opacity="0.1" d="M119.024 96.6697L104.305 111.015H157.578L167.814 96.6697H119.024Z" fill="black"/>
<path d="M157.578 162.346L167.814 147.851V96.6697L157.578 111.015V162.346Z" fill="#FF725E"/>
<path opacity="0.3" d="M157.578 162.346L167.814 147.851V96.6697L157.578 111.015V162.346Z" fill="black"/>
<path d="M143.606 132.31H115.812V135.448H143.606V132.31Z" fill="#FF725E"/>
<path opacity="0.2" d="M143.606 132.31H115.812V135.448H143.606V132.31Z" fill="black"/>
<path d="M138.674 137.839H120.892V140.827H138.674V137.839Z" fill="#FF725E"/>
<path opacity="0.2" d="M138.674 137.839H120.892V140.827H138.674V137.839Z" fill="black"/>
<path d="M115.139 94.6524C115.064 93.9799 114.99 93.3822 114.84 92.7098C114.392 90.9913 113.346 89.4969 111.926 88.3762C110.955 87.629 109.834 87.1807 108.639 86.9566C107.294 86.7324 105.874 86.8071 104.529 87.3302C103.857 87.5543 103.185 87.9279 102.587 88.3762C101.989 88.8245 101.391 89.4222 100.943 90.02C98.9257 92.7845 98.9257 96.5203 100.943 99.2101C101.391 99.8826 101.989 100.406 102.587 100.854C103.185 101.302 103.857 101.676 104.529 101.9C106.995 102.797 109.834 102.423 111.926 100.779C113.346 99.7331 114.392 98.1641 114.84 96.4456C114.99 95.9973 115.139 95.3248 115.139 94.6524C115.214 95.3248 115.139 95.9973 114.99 96.595C114.541 98.3882 113.57 99.9573 112.076 101.078C109.909 102.797 106.995 103.245 104.38 102.273C102.886 101.75 101.541 100.704 100.569 99.4343C98.4026 96.5203 98.4026 92.635 100.569 89.7211C101.541 88.4509 102.886 87.4049 104.38 86.8819C105.725 86.3588 107.219 86.2841 108.639 86.583C111.777 87.1807 114.243 89.5717 114.915 92.635C115.139 93.3075 115.214 93.9799 115.139 94.6524Z" fill="#263238"/>
<path d="M103.633 93.5316C103.633 92.4109 104.231 91.6637 105.202 91.6637C106.098 91.6637 106.771 92.4109 106.771 93.5316C106.771 94.6524 106.098 95.3996 105.202 95.3996C104.305 95.3996 103.633 94.6524 103.633 93.5316ZM106.248 93.5316C106.248 92.635 105.8 92.112 105.202 92.112C104.529 92.112 104.156 92.635 104.156 93.5316C104.156 94.4282 104.529 94.9513 105.202 94.9513C105.8 94.9513 106.248 94.4282 106.248 93.5316ZM109.311 91.7384H109.909L105.202 98.6124H104.604L109.311 91.7384ZM107.817 96.8192C107.817 95.6984 108.489 94.9513 109.386 94.9513C110.283 94.9513 110.955 95.6984 110.955 96.8192C110.955 97.9399 110.357 98.6871 109.386 98.6871C108.489 98.6871 107.817 97.9399 107.817 96.8192ZM110.432 96.8192C110.432 95.9226 110.058 95.3996 109.386 95.3996C108.714 95.3996 108.34 95.9226 108.34 96.8192C108.34 97.7158 108.788 98.2388 109.386 98.2388C109.984 98.2388 110.432 97.6411 110.432 96.8192Z" fill="#263238"/>
<path d="M149.21 179.68C149.21 181.174 148.164 182.444 145.773 182.444C144.652 182.444 143.531 182.146 142.56 181.548L143.307 180.054C143.98 180.577 144.802 180.801 145.698 180.801C146.669 180.801 147.267 180.427 147.267 179.68C147.267 179.007 146.819 178.559 145.325 178.559H143.158L143.606 173.852H148.687V175.421H145.175L145.026 176.99H145.698C148.239 177.14 149.21 178.26 149.21 179.68Z" fill="#263238"/>
<path d="M150.032 178.186C150.032 175.421 151.601 173.852 153.618 173.852C155.635 173.852 157.205 175.421 157.205 178.186C157.205 180.95 155.71 182.519 153.618 182.519C151.526 182.444 150.032 180.95 150.032 178.186ZM155.262 178.186C155.262 176.318 154.589 175.496 153.618 175.496C152.647 175.496 151.974 176.243 151.974 178.186C151.974 180.054 152.647 180.875 153.618 180.875C154.589 180.875 155.262 180.054 155.262 178.186Z" fill="#263238"/>
<path d="M162.136 175.795C162.21 176.691 161.613 177.513 160.641 177.588C160.567 177.588 160.492 177.588 160.342 177.588C160.044 177.588 159.67 177.513 159.371 177.364L159.67 176.766C159.894 176.915 160.118 176.915 160.342 176.915C160.865 176.915 161.239 176.542 161.314 176.094C161.314 176.019 161.314 176.019 161.314 175.944C161.09 176.168 160.791 176.243 160.492 176.243C159.894 176.318 159.371 175.869 159.296 175.272V175.197C159.296 174.524 159.819 174.076 160.492 174.076H160.567C161.613 174.151 162.136 174.749 162.136 175.795ZM161.314 175.197C161.314 174.898 161.09 174.674 160.791 174.674H160.716C160.417 174.599 160.193 174.823 160.118 175.122C160.044 175.421 160.268 175.645 160.567 175.72C160.641 175.72 160.716 175.72 160.716 175.72C161.015 175.795 161.239 175.571 161.314 175.272C161.314 175.272 161.314 175.272 161.314 175.197Z" fill="#263238"/>
<path d="M165.273 175.795C165.348 176.691 164.75 177.513 163.779 177.588C163.704 177.588 163.63 177.588 163.48 177.588C163.181 177.588 162.808 177.513 162.509 177.364L162.808 176.841C163.032 176.99 163.256 176.99 163.405 176.99C163.928 176.99 164.302 176.691 164.377 176.168C164.377 176.094 164.377 176.094 164.377 176.019C164.153 176.243 163.854 176.318 163.555 176.318C162.957 176.392 162.434 175.944 162.359 175.346V175.272C162.359 174.599 162.882 174.151 163.555 174.151H163.63C164.676 174.151 165.273 174.749 165.273 175.795ZM164.377 175.197C164.377 174.898 164.153 174.674 163.854 174.674H163.779C163.48 174.674 163.256 174.898 163.256 175.197C163.256 175.496 163.48 175.72 163.779 175.72C164.078 175.795 164.377 175.571 164.377 175.197C164.377 175.272 164.377 175.272 164.377 175.197Z" fill="#263238"/>
<path d="M165.274 178.783H159.296V179.53H165.274V178.783Z" fill="#263238"/>
<path d="M131.352 176.467H100.569V177.438H131.352V176.467Z" fill="#263238"/>
<path d="M119.248 179.456H100.569V180.427H119.248V179.456Z" fill="#263238"/>
<path d="M166.768 218.906L105.201 218.607C104.604 218.607 104.081 217.935 104.081 217.038L104.155 200.974C104.155 200.152 104.678 199.405 105.276 199.405L166.843 199.704C167.44 199.704 167.963 200.376 167.963 201.273L167.889 217.412C167.963 218.234 167.44 218.906 166.768 218.906Z" fill="#FF725E"/>
<path d="M133.519 209.865C133.519 210.687 132.921 211.136 131.8 211.136H129.708V206.354H131.725C132.771 206.354 133.369 206.802 133.369 207.624C133.369 208.147 133.07 208.521 132.622 208.745C133.07 208.745 133.519 209.268 133.519 209.865ZM132.996 209.865C132.996 209.268 132.547 208.969 131.725 208.969H130.082V210.762H131.725C132.547 210.762 132.996 210.463 132.996 209.865ZM130.156 206.727V208.446H131.651C132.398 208.446 132.846 208.147 132.846 207.549C132.846 206.951 132.398 206.653 131.651 206.653H130.156V206.727Z" fill="white"/>
<path d="M134.565 209.118V206.354H135.088V209.118C135.088 210.239 135.611 210.762 136.508 210.762C137.405 210.762 137.928 210.239 137.928 209.118V206.354H138.376V209.118C138.376 210.538 137.629 211.21 136.508 211.21C135.313 211.21 134.565 210.463 134.565 209.118Z" fill="white"/>
<path d="M141.364 209.567V211.285H140.915V209.641L139.047 206.428H139.57L141.139 209.118L142.708 206.428H143.157L141.364 209.567Z" fill="white"/>
<path d="M115.811 55.725H92.5742V67.605H115.811V55.725Z" fill="#FF725E"/>
<path d="M97.655 51.5409L92.5742 55.725H115.886L119.323 51.5409H97.655Z" fill="#FF725E"/>
<path opacity="0.2" d="M97.655 51.5409L92.5742 55.725H115.886L119.323 51.5409H97.655Z" fill="black"/>
<path d="M115.886 67.605L119.323 63.0473V51.5409L115.886 55.725V67.605Z" fill="#FF725E"/>
<path opacity="0.1" d="M115.886 67.605L119.323 63.0473V51.5409L115.886 55.725V67.605Z" fill="black"/>
<path d="M111.926 59.5356H96.0859V60.731H111.926V59.5356Z" fill="#FF725E"/>
<path opacity="0.1" d="M111.926 59.5356H96.0859V60.731H111.926V59.5356Z" fill="black"/>
<path d="M109.087 61.7771H99.2241V62.9725H109.087V61.7771Z" fill="#FF725E"/>
<path opacity="0.1" d="M109.087 61.7771H99.2241V62.9725H109.087V61.7771Z" fill="black"/>
<path d="M109.834 73.9559H99.2241V75.5996H109.834V73.9559Z" fill="#263238"/>
<path d="M92.5742 55.725C92.9478 55.6503 93.3214 55.6503 93.695 55.6503L96.7583 55.5756C99.3734 55.5756 102.96 55.5009 106.92 55.5009L115.886 55.5756L115.736 55.6503L118.277 52.6617C118.576 52.2881 118.874 51.9145 119.248 51.6156C119.024 52.0639 118.725 52.4375 118.351 52.8111L115.886 55.8745L115.811 55.9492H115.886L106.92 56.0239C102.96 56.0239 99.3734 56.0239 96.7583 55.9492L93.695 55.8745C93.3214 55.7998 92.9478 55.7998 92.5742 55.725Z" fill="#FF725E"/>
<g opacity="0.2">
<path d="M92.5742 55.725C92.9478 55.6503 93.3214 55.6503 93.695 55.6503L96.7583 55.5756C99.3734 55.5756 102.96 55.5009 106.92 55.5009L115.886 55.5756L115.736 55.6503L118.277 52.6617C118.576 52.2881 118.874 51.9145 119.248 51.6156C119.024 52.0639 118.725 52.4375 118.351 52.8111L115.886 55.8745L115.811 55.9492H115.886L106.92 56.0239C102.96 56.0239 99.3734 56.0239 96.7583 55.9492L93.695 55.8745C93.3214 55.7998 92.9478 55.7998 92.5742 55.725Z" fill="black"/>
</g>
<path d="M115.886 67.605C115.662 65.6623 115.588 63.645 115.662 61.7024C115.588 59.685 115.662 57.7424 115.886 55.725C116.111 57.7424 116.185 59.685 116.111 61.7024C116.111 63.645 116.111 65.5876 115.886 67.605Z" fill="#FF725E"/>
<g opacity="0.2">
<path d="M115.886 67.605C115.662 65.6623 115.588 63.645 115.662 61.7024C115.588 59.685 115.662 57.7424 115.886 55.725C116.111 57.7424 116.185 59.685 116.111 61.7024C116.111 63.645 116.111 65.5876 115.886 67.605Z" fill="black"/>
</g>
<path d="M143.009 73.9559H132.399V75.5996H143.009V73.9559Z" fill="#263238"/>
<path d="M129.026 49.143L128.872 67.5233L145.533 67.6629L145.687 49.2826L129.026 49.143Z" fill="#FF725E"/>
<path d="M133.892 45.4141L128.961 49.2247H145.623L149.06 45.4141H133.892Z" fill="#FF725E"/>
<path d="M145.623 67.605L149.06 63.0472V45.4141L145.623 49.2247V67.605Z" fill="#FF725E"/>
<path d="M140.99 56.6216H132.547V57.8171H140.99V56.6216Z" fill="#FF725E"/>
<path opacity="0.2" d="M140.99 56.6216H132.547V57.8171H140.99V56.6216Z" fill="black"/>
<path d="M139.497 58.8631H134.267V60.0586H139.497V58.8631Z" fill="#FF725E"/>
<path opacity="0.2" d="M139.497 58.8631H134.267V60.0586H139.497V58.8631Z" fill="black"/>
<path d="M128.961 49.2247C129.26 49.15 129.559 49.15 129.783 49.15L132.099 49.0752C134.042 49.0005 136.806 49.0005 139.795 49.0005H145.623L145.473 49.0752C146.519 47.9545 147.416 46.9832 148.014 46.3854C148.313 46.0119 148.686 45.713 149.06 45.4141C148.836 45.7877 148.537 46.1613 148.163 46.5349C147.565 47.2073 146.743 48.1786 145.697 49.2994L145.623 49.3741H145.548H139.72C136.731 49.3741 133.967 49.3741 132.024 49.2994L129.708 49.2247C129.559 49.2247 129.26 49.2247 128.961 49.2247Z" fill="#FF725E"/>
<g opacity="0.3">
<path d="M128.961 49.2247C129.26 49.15 129.559 49.15 129.783 49.15L132.1 49.0752C134.042 49.0005 136.807 49.0005 139.795 49.0005H145.623L145.474 49.0752C146.52 47.9545 147.416 46.9832 148.014 46.3854C148.313 46.0119 148.687 45.713 149.06 45.4141C148.836 45.7877 148.537 46.1613 148.164 46.5349C147.566 47.2073 146.744 48.1786 145.698 49.2994L145.623 49.3741H145.549H139.721C136.732 49.3741 133.967 49.3741 132.025 49.2994L129.709 49.2247C129.559 49.2247 129.26 49.2247 128.961 49.2247Z" fill="black"/>
</g>
<path d="M145.623 67.605C145.548 67.605 145.399 63.4956 145.399 58.4148C145.399 53.3341 145.474 49.2247 145.623 49.2247C145.773 49.2247 145.847 53.3341 145.847 58.4148C145.847 63.4956 145.698 67.605 145.623 67.605Z" fill="#FF725E"/>
<g opacity="0.3">
<path d="M145.623 67.605C145.548 67.605 145.399 63.4956 145.399 58.4148C145.399 53.3341 145.474 49.2247 145.623 49.2247C145.773 49.2247 145.847 53.3341 145.847 58.4148C145.847 63.4956 145.698 67.605 145.623 67.605Z" fill="black"/>
</g>
<path d="M172.521 73.9559H161.911V75.5996H172.521V73.9559Z" fill="#263238"/>
<path d="M159.67 56.0239C160.567 55.8745 161.389 55.8745 162.285 55.8745C163.929 55.8745 166.171 55.7997 168.636 55.7997C170.803 55.7997 172.821 55.7997 174.39 55.8745L174.315 55.9492C174.987 55.202 175.51 54.679 175.959 54.2307C176.183 54.0066 176.332 53.7824 176.631 53.633C176.482 53.8571 176.332 54.156 176.108 54.3054C175.734 54.7537 175.211 55.3514 174.614 56.0986L174.539 56.1733H174.464C172.97 56.1733 170.953 56.248 168.711 56.248C166.245 56.248 164.004 56.248 162.36 56.1733C161.389 56.1733 160.567 56.0986 159.67 56.0239Z" fill="#FF725E"/>
<path d="M174.315 56.0239H159.67V67.605H174.315V56.0239Z" fill="#FF725E"/>
<path opacity="0.2" d="M174.315 56.0239H159.67V67.605H174.315V56.0239Z" fill="black"/>
<path d="M162.734 53.633L159.67 56.0239H174.315L176.482 53.633H162.734Z" fill="#FF725E"/>
<path d="M174.314 67.605L176.481 64.7657V53.633L174.314 56.0239V67.605Z" fill="#FF725E"/>
<path opacity="0.1" d="M174.314 67.605L176.481 64.7657V53.633L174.314 56.0239V67.605Z" fill="black"/>
<path d="M170.504 60.4322H163.779V61.3288H170.504V60.4322Z" fill="#FF725E"/>
<path d="M169.309 62.0759H165.125V62.9725H169.309V62.0759Z" fill="#FF725E"/>
<path d="M174.314 67.605C174.09 65.6623 174.015 63.7197 174.09 61.7771C174.015 59.8344 174.09 57.8918 174.314 56.0239C174.538 57.9665 174.538 59.9092 174.538 61.7771C174.613 63.7197 174.538 65.6623 174.314 67.605Z" fill="#FF725E"/>
<path d="M195.236 0.210541L193.742 2.97506L190.977 4.54411L193.742 6.03844L195.236 8.80295L196.805 6.03844L199.569 4.54411L196.805 2.97506L195.236 0.210541Z" fill="#FF725E"/>
<path d="M65.3033 71.7144L63.7342 74.4789L60.9697 75.9732L63.7342 77.5423L65.3033 80.3068L66.7976 77.5423L69.5621 75.9732L66.7976 74.4789L65.3033 71.7144Z" fill="#FF725E"/>
<path d="M206.369 12.0157L205.397 13.7342L203.679 14.6308L205.397 15.6021L206.369 17.3206L207.265 15.6021L208.984 14.6308L207.265 13.7342L206.369 12.0157Z" fill="#FF725E"/>
<path d="M56.9349 55.725L56.0383 57.4435L54.3198 58.3401L56.0383 59.3114L56.9349 61.0299L57.9062 59.3114L59.55 58.3401L57.9062 57.4435L56.9349 55.725Z" fill="#FF725E"/>
<path d="M268.011 250.063L262.482 245.729L270.552 235.344L278.696 241.62L278.248 242.292C276.156 245.281 267.563 257.311 265.546 258.73C263.155 260.449 268.011 250.063 268.011 250.063Z" fill="#FF725E"/>
<path d="M264.797 258.655C264.723 258.581 267.637 254.695 271.372 249.914C275.108 245.132 278.246 241.396 278.321 241.471C278.396 241.545 275.482 245.431 271.746 250.212C268.01 254.92 264.872 258.73 264.797 258.655Z" fill="#263238"/>
<path d="M268.983 251.184C268.983 251.333 268.609 251.333 268.161 251.333C267.712 251.333 267.414 251.258 267.339 251.184C267.339 251.034 267.712 250.885 268.161 250.885C268.609 250.885 268.983 251.034 268.983 251.184Z" fill="#263238"/>
<path d="M268.833 252.08C268.758 252.23 268.384 252.155 267.936 252.155C267.488 252.08 267.114 252.006 267.114 251.856C267.114 251.707 267.488 251.632 268.011 251.707C268.534 251.781 268.907 252.006 268.833 252.08Z" fill="#263238"/>
<path d="M275.857 244.534C275.782 244.534 275.632 244.31 275.558 243.936C275.334 243.413 275.259 242.815 275.259 242.218C275.259 241.62 275.483 241.022 275.857 240.574C276.155 240.2 276.454 240.126 276.454 240.2C276.454 240.275 276.305 240.425 276.081 240.798C275.782 241.246 275.707 241.769 275.632 242.292C275.632 242.815 275.707 243.338 275.782 243.862C275.857 244.235 275.857 244.534 275.857 244.534Z" fill="#263238"/>
<path d="M267.936 250.362C267.861 250.287 268.085 250.063 268.384 249.839C268.683 249.615 268.982 249.54 269.057 249.615C269.131 249.689 268.982 249.988 268.683 250.212C268.309 250.511 268.011 250.511 267.936 250.362Z" fill="#263238"/>
<path d="M267.488 249.839C267.413 249.764 267.563 249.391 267.787 249.092C268.086 248.793 268.385 248.569 268.46 248.643C268.534 248.718 268.385 249.017 268.161 249.391C267.862 249.689 267.638 249.914 267.488 249.839Z" fill="#263238"/>
<path d="M231.624 161.15C231.624 161.15 215.186 204.71 217.428 212.854C219.669 220.998 263.902 253.351 263.902 253.351L275.931 236.091C275.931 236.091 241.412 208.745 241.337 207.25C241.262 205.756 255.01 169.518 255.01 169.518L231.624 161.15Z" fill="#263238"/>
<path d="M263.079 240.051L262.93 239.976C262.855 239.902 262.706 239.827 262.481 239.677L260.838 238.557C259.418 237.585 257.401 236.091 254.86 234.298C249.854 230.637 243.13 225.407 235.957 219.205C234.164 217.636 232.445 216.142 230.727 214.647L228.261 212.481C227.439 211.808 226.692 210.986 226.169 210.09C225.721 209.118 225.571 208.072 225.87 207.101C226.094 206.13 226.319 205.233 226.543 204.336C226.991 202.543 227.514 200.974 227.888 199.48L229.905 192.456C230.129 191.635 230.279 191.037 230.428 190.514L230.577 189.991C230.503 189.991 230.503 189.916 230.503 189.916L230.577 189.841L230.652 189.916C230.652 189.916 230.652 189.991 230.577 189.991C230.577 190.14 230.503 190.29 230.503 190.514C230.428 190.962 230.279 191.635 230.054 192.456C229.606 194.175 228.934 196.566 228.112 199.555C227.664 201.049 227.215 202.693 226.767 204.411C226.543 205.308 226.319 206.204 226.094 207.176C225.87 208.147 225.945 209.118 226.393 209.94C226.916 210.837 227.589 211.584 228.411 212.182L230.876 214.348C232.52 215.843 234.313 217.337 236.106 218.831C243.279 224.958 250.004 230.263 254.935 233.999L260.838 238.407L262.407 239.603L262.855 239.902C263.005 240.051 263.079 240.051 263.079 240.051Z" fill="#455A64"/>
<path d="M259.119 245.356C259.045 245.281 261.286 242.143 264.2 238.332C267.114 234.522 269.505 231.459 269.655 231.533C269.729 231.608 267.488 234.746 264.574 238.557C261.585 242.367 259.194 245.431 259.119 245.356Z" fill="#455A64"/>
<path d="M260.539 78.2894C262.033 81.2034 262.78 83.7438 265.694 85.2381C267.039 85.9105 268.608 86.2841 269.43 87.5543C270.252 88.8992 269.878 90.9166 270.999 92.0373C272.568 93.7558 275.781 92.3362 277.574 93.9052C279.143 95.2501 278.62 98.1641 280.339 99.3595C281.31 100.032 282.58 99.8826 283.701 100.331C285.494 101.003 286.316 103.095 286.615 105.038C286.839 106.532 286.69 108.101 286.017 109.596C285.345 111.015 284.075 112.061 282.506 112.286C280.488 112.51 278.172 111.09 276.528 112.286C276.005 112.809 275.557 113.332 275.183 113.929C273.465 116.171 270.177 116.544 268.011 114.826C267.488 114.452 267.114 114.004 266.815 113.406C265.694 111.538 265.769 108.923 264.125 107.429C263.154 106.756 262.108 106.308 260.987 106.009C259.866 105.636 258.746 104.963 258.447 103.843C258.073 102.871 257.55 101.975 256.878 101.153C256.056 99.8826 254.935 101.452 253.814 100.854C252.694 100.256 253.142 99.0607 253.067 97.7905" fill="#263238"/>
<path d="M241.262 120.654L227.066 115.872C227.066 115.872 220.79 133.953 218.847 134.103C208.238 135.074 196.806 131.562 192.846 130.143C192.472 129.694 191.949 129.171 191.426 128.499C190.978 127.901 190.679 127.304 190.455 126.556C190.156 125.735 189.932 124.838 189.857 123.941C189.932 123.493 189.558 123.045 189.11 123.045C188.886 123.045 188.587 123.119 188.438 123.269C187.989 123.867 187.84 126.183 188.886 128.574C189.932 131.039 186.196 129.097 184.851 128.35C183.506 127.602 179.173 125.735 178.65 125.959C177.828 126.332 178.127 127.229 179.472 127.901C180.817 128.574 184.851 130.815 184.478 131.488C184.104 132.16 177.155 128.723 177.155 128.723C177.155 128.723 175.811 127.752 175.288 128.499C174.391 129.919 182.012 133.206 182.759 133.505C183.282 133.729 182.909 134.476 182.311 134.252C181.788 134.028 175.586 130.516 174.69 132.011C174.017 133.131 180.966 134.775 181.863 136.195C182.759 137.614 176.707 134.402 176.109 135.522C175.885 135.896 175.736 136.27 179.472 137.614C182.236 138.436 185.001 139.184 187.765 139.707V139.781C187.765 139.781 225.049 156.443 233.118 140.379C241.636 123.269 241.262 120.654 241.262 120.654Z" fill="#E5BAAB"/>
<path d="M255.235 105.636L261.436 105.785L266.367 119.907L262.333 136.045C261.137 140.753 266.442 150.242 266.367 155.397L231.624 161.001L230.877 137.764V137.017L218.848 131.039L222.808 121.326C228.934 107.055 239.544 106.159 239.544 106.159L255.235 105.636Z" fill="#FF725E"/>
<g opacity="0.2">
<path d="M255.234 105.636L261.435 105.785L266.366 119.907L262.332 136.045C261.136 140.753 266.441 150.242 266.366 155.397L231.623 161.001L230.876 137.764V137.017L218.847 131.039L222.807 121.326C228.933 107.055 239.543 106.159 239.543 106.159L255.234 105.636Z" fill="white"/>
</g>
<path d="M261.735 105.86C261.735 105.86 261.66 105.86 261.51 105.935C261.286 106.009 261.137 106.084 260.913 106.084C260.091 106.233 259.344 106.308 258.522 106.308L258.597 106.159L260.987 109.969L261.137 110.193L260.838 110.119C259.493 109.895 258.074 109.82 256.654 109.969L256.803 109.82C256.878 111.389 257.102 112.958 257.476 114.527L257.551 114.826L257.252 114.751C255.683 114.452 254.188 113.855 252.769 113.107L253.068 112.958C252.769 114.378 252.47 115.797 252.171 117.292L252.096 117.59L251.872 117.366C251.274 116.843 250.677 116.32 250.079 115.797C249.556 115.274 249.033 114.676 248.51 114.004H248.809L244.849 117.142L244.625 117.366L244.55 117.067C244.251 115.648 244.027 114.303 243.728 113.033L243.952 113.182L239.693 114.676L239.394 114.751L239.469 114.452C239.917 112.734 240.291 111.239 240.665 109.82L240.739 109.969L237.078 109.297H236.929L237.003 109.147L238.647 106.756L239.095 106.159C239.17 106.009 239.245 105.935 239.245 105.935C239.245 106.009 239.17 106.084 239.095 106.159L238.722 106.756L237.153 109.147L237.078 108.998L240.814 109.596H240.963V109.745L239.768 114.378L239.544 114.153L243.803 112.659L244.027 112.584L244.102 112.809L244.923 116.843L244.625 116.694L248.585 113.556L248.734 113.406L248.883 113.556C249.332 114.153 249.855 114.676 250.378 115.274C250.901 115.797 251.498 116.395 252.096 116.843L251.797 116.993C252.096 115.498 252.395 114.079 252.694 112.659L252.769 112.36L252.993 112.51C254.412 113.257 255.832 113.78 257.401 114.153L257.177 114.378C256.803 112.809 256.579 111.239 256.504 109.596V109.446H256.654C258.074 109.297 259.493 109.372 260.913 109.67L260.763 109.895C259.867 108.4 259.12 107.055 258.447 106.009L258.372 105.86H258.522C259.344 105.86 260.091 105.785 260.913 105.71C261.436 105.86 261.735 105.785 261.735 105.86Z" fill="#455A64"/>
<path d="M268.533 111.762C268.533 111.762 268.309 111.688 267.786 111.538C267.039 111.314 266.292 111.314 265.62 111.464L265.694 111.389C265.844 112.211 266.068 113.182 266.367 114.303C266.666 115.424 267.039 116.694 267.413 118.113L267.487 118.338L267.263 118.263C265.47 117.74 263.378 117.366 261.211 116.619L261.435 116.47C261.66 118.636 261.66 120.953 261.809 123.493V123.717H261.585C259.567 123.344 257.625 122.821 255.682 122.148C255.458 122.073 255.159 121.999 255.084 122.073C254.935 122.223 254.786 122.447 254.786 122.671L254.188 124.165C253.74 125.211 253.366 126.183 252.918 127.229L252.768 127.528L252.544 127.229L248.584 122.298L248.285 121.924H248.584L242.233 126.332L242.009 126.482L241.934 126.258C241.187 124.165 240.515 122.148 239.842 120.205L240.141 120.28C237.9 121.7 235.509 122.895 233.043 123.867L232.744 123.941V123.642C233.193 120.43 233.641 117.516 233.94 114.975L234.164 115.125C232.371 115.872 230.428 116.171 228.485 116.021H228.336L228.411 115.872L229.756 112.286C229.905 111.912 230.054 111.613 230.129 111.389C230.129 111.314 230.204 111.165 230.279 111.09C230.279 111.165 230.204 111.314 230.204 111.389C230.129 111.613 229.98 111.912 229.905 112.36C229.606 113.182 229.158 114.452 228.635 116.021L228.56 115.872C230.503 115.947 232.371 115.648 234.164 114.901L234.388 114.826V115.05C234.014 117.59 233.641 120.504 233.267 123.717L233.043 123.568C235.509 122.596 237.825 121.401 240.066 119.981L240.291 119.832L240.365 120.056L242.457 126.033L242.159 125.959L248.509 121.55L248.659 121.476L248.734 121.625L249.032 121.999L252.992 126.93L252.619 127.005L253.889 123.941L254.487 122.447C254.561 122.148 254.711 121.924 254.935 121.7C255.01 121.625 255.084 121.625 255.234 121.55C255.309 121.55 255.383 121.55 255.458 121.55C255.608 121.55 255.757 121.625 255.832 121.625C257.7 122.298 259.642 122.821 261.66 123.194L261.435 123.418C261.286 120.878 261.361 118.487 261.137 116.395V116.171L261.361 116.245C263.527 116.993 265.62 117.441 267.413 117.964L267.263 118.113C266.964 116.694 266.591 115.424 266.292 114.303C265.993 113.182 265.769 112.136 265.694 111.314V111.239H265.769C266.516 111.09 267.263 111.09 268.01 111.314C268.085 111.464 268.384 111.613 268.533 111.762Z" fill="#455A64"/>
<path d="M231.101 136.867C230.802 136.793 230.578 136.643 230.353 136.494C229.681 136.045 229.158 135.522 228.71 134.85C228.112 133.879 227.813 132.683 227.888 131.562C227.962 128.947 229.457 126.631 231.698 125.361L231.624 125.51C231.922 123.418 232.147 121.55 232.371 120.28C232.445 119.608 232.595 118.935 232.744 118.188C232.744 118.861 232.67 119.608 232.595 120.28C232.445 121.55 232.221 123.418 231.997 125.585V125.66L231.922 125.734C229.83 126.93 228.411 129.171 228.336 131.562C228.261 132.683 228.485 133.729 229.008 134.7C229.382 135.373 229.905 135.896 230.503 136.419C230.727 136.568 230.876 136.718 231.101 136.867Z" fill="#455A64"/>
<path d="M232.37 121.252C232.296 121.326 231.922 120.803 231.623 120.131C231.324 119.458 231.1 118.861 231.25 118.861C231.324 118.786 231.698 119.309 231.997 119.981C232.296 120.654 232.52 121.177 232.37 121.252Z" fill="#455A64"/>
<path d="M254.86 105.86L255.906 81.4275L246.193 74.1053L237.376 78.4389C237.376 78.4389 237.078 89.4969 237.376 94.2788C237.675 99.0607 242.532 99.5837 242.532 99.5837C242.532 99.5837 242.457 102.423 242.308 105.337C242.158 108.774 244.848 111.688 248.285 111.837C248.36 111.837 248.509 111.837 248.584 111.837C251.946 111.837 254.711 109.222 254.86 105.86Z" fill="#E5BAAB"/>
<path d="M238.348 86.5083C238.348 86.8819 238.647 87.106 238.945 87.106C239.319 87.106 239.543 86.8071 239.543 86.5083C239.543 86.1347 239.244 85.9105 238.945 85.9105C238.647 85.9105 238.348 86.1347 238.348 86.5083Z" fill="#263238"/>
<path d="M237.75 85.8358C237.825 85.9105 238.274 85.537 238.946 85.4622C239.618 85.3875 240.067 85.7611 240.141 85.6864C240.216 85.6117 240.067 85.537 239.843 85.3875C239.245 85.0139 238.423 85.0139 237.9 85.4622C237.825 85.6117 237.75 85.7611 237.75 85.8358Z" fill="#263238"/>
<path d="M245.446 86.5083C245.446 86.8819 245.745 87.106 246.044 87.106C246.417 87.106 246.641 86.8071 246.641 86.5083C246.641 86.1347 246.342 85.9105 246.044 85.9105C245.745 85.9105 245.446 86.1347 245.446 86.5083Z" fill="#263238"/>
<path d="M245.072 85.8358C245.147 85.9105 245.595 85.537 246.268 85.4622C246.94 85.3875 247.388 85.7611 247.463 85.6864C247.538 85.6117 247.388 85.537 247.164 85.3875C246.567 85.0139 245.745 85.0139 245.222 85.4622C245.072 85.6117 245.072 85.7611 245.072 85.8358Z" fill="#263238"/>
<path d="M244.923 92.0373C243.952 92.5603 242.831 92.9339 241.71 93.158C242.233 93.8305 243.13 94.1294 243.877 93.7558C244.624 93.6063 245.073 92.8592 244.923 92.112V92.0373Z" fill="white"/>
<path d="M242.532 99.5837C244.848 99.509 247.015 98.7618 248.883 97.4169C248.883 97.4169 247.464 100.929 242.607 100.779L242.532 99.5837Z" fill="#D78776"/>
<path d="M269.879 95.2501C269.281 95.2501 268.683 95.1007 268.16 94.8765C267.338 94.4282 266.74 93.8305 266.292 93.0086C265.769 92.0373 265.246 90.9913 264.873 89.9452C263.976 87.7037 263.304 85.6117 262.855 84.1173C262.781 83.8932 262.706 83.669 262.631 83.4449C262.556 83.2207 262.556 82.9219 262.482 82.7724C259.867 72.7604 251.05 70.8925 249.332 70.8925C247.464 70.8925 244.176 69.8465 239.469 74.7778C238.722 75.5249 238.124 76.3468 237.676 77.2434C236.63 78.5883 235.883 80.0826 235.584 81.7264C235.36 82.4736 235.359 83.2955 235.509 84.1173C235.584 84.1173 235.584 83.2207 235.957 81.8011C236.181 80.9792 236.48 80.1574 236.854 79.4102C236.406 81.2781 236.63 83.2207 237.302 84.9392L239.021 84.4909L245.147 82.3989C244.624 80.5309 245.446 78.14 245.895 77.0193L245.969 76.9445C246.642 81.054 249.929 84.1921 254.039 84.7898L255.159 100.48C263.304 98.7618 263.079 87.8532 263.005 85.6864C263.378 86.9566 263.827 88.3762 264.424 89.8705C264.798 90.9166 265.321 91.9626 265.919 92.9339C266.442 93.7558 267.189 94.4282 268.011 94.8765C268.608 95.1754 269.281 95.2501 269.879 95.1754C270.103 95.1754 270.327 95.1007 270.551 94.9513C270.551 95.1754 270.327 95.2501 269.879 95.2501Z" fill="#263238"/>
<path d="M242.682 91.4396C242.308 91.3648 241.935 91.2901 241.636 91.2901C241.487 91.2901 241.262 91.2901 241.262 91.1407C241.262 90.9913 241.262 90.7671 241.337 90.6177L241.785 89.2728C242.084 88.3015 242.383 87.4049 242.533 86.7324C242.682 86.3588 242.757 86.06 242.757 85.6864C242.607 85.9853 242.458 86.3588 242.308 86.6577C242.084 87.2554 241.785 88.152 241.487 89.1234C241.337 89.5717 241.188 90.0947 241.038 90.4683C240.964 90.6924 240.889 90.9165 240.964 91.1407C241.038 91.2901 241.113 91.3648 241.262 91.3648C241.337 91.3648 241.487 91.3648 241.561 91.3648C242.01 91.4396 242.308 91.4396 242.682 91.4396Z" fill="#263238"/>
<path d="M256.429 91.2154C256.355 90.3935 256.429 89.6464 256.728 88.8245C256.952 88.0773 257.625 87.4796 258.447 87.3302C259.418 87.2554 260.24 88.0026 260.389 88.8992C260.539 89.8705 260.016 90.7671 259.194 91.2154C258.372 91.6637 257.401 91.6637 256.504 91.2901" fill="#E5BAAB"/>
<path d="M257.774 90.4683C257.774 90.3936 258.073 90.543 258.372 90.4683C258.82 90.3188 259.119 89.9452 259.119 89.4222C259.119 89.1981 259.119 88.9739 258.969 88.7498C258.82 88.6003 258.671 88.6004 258.446 88.6004C258.073 88.6004 257.849 88.7498 257.774 88.6751C257.699 88.6003 257.923 88.4509 258.372 88.3015C258.671 88.2268 258.969 88.3015 259.194 88.4509C259.418 88.6751 259.567 89.0486 259.492 89.4222C259.492 89.7211 259.343 90.0947 259.119 90.3188C258.969 90.543 258.671 90.6924 258.446 90.6924C257.998 90.7671 257.774 90.543 257.774 90.4683Z" fill="#D78776"/>
<path d="M250.452 281.295V274.271L263.528 274.196L263.602 284.433L262.78 284.507C259.194 284.732 244.4 285.404 241.934 284.657C239.319 283.91 250.452 281.295 250.452 281.295Z" fill="#FF725E"/>
<path d="M241.71 284.059C241.71 283.91 246.642 283.835 252.619 283.835C258.671 283.835 263.528 283.91 263.528 284.059C263.528 284.208 258.671 284.283 252.619 284.283C246.642 284.283 241.71 284.208 241.71 284.059Z" fill="#263238"/>
<path d="M250.228 282.714C250.153 282.789 249.855 282.49 249.63 282.191C249.406 281.818 249.182 281.519 249.257 281.444C249.332 281.369 249.705 281.519 250.004 281.892C250.303 282.266 250.303 282.714 250.228 282.714Z" fill="#263238"/>
<path d="M249.406 283.237C249.257 283.312 249.033 282.938 248.809 282.565C248.584 282.191 248.435 281.818 248.51 281.743C248.584 281.668 248.958 281.892 249.182 282.341C249.406 282.789 249.481 283.162 249.406 283.237Z" fill="#263238"/>
<path d="M259.717 283.984C259.642 283.984 259.792 283.685 260.016 283.312C260.315 282.789 260.689 282.415 261.137 282.042C261.585 281.668 262.183 281.519 262.781 281.519C263.229 281.519 263.453 281.743 263.453 281.743C263.453 281.818 263.154 281.743 262.781 281.818C262.258 281.892 261.809 282.116 261.361 282.415C260.913 282.714 260.539 283.088 260.24 283.536C259.941 283.835 259.717 284.059 259.717 283.984Z" fill="#263238"/>
<path d="M250.228 281.444C250.303 281.369 250.602 281.369 250.901 281.519C251.2 281.668 251.498 281.818 251.498 281.892C251.498 281.967 251.125 282.042 250.751 281.967C250.303 281.818 250.154 281.519 250.228 281.444Z" fill="#263238"/>
<path d="M250.378 280.772C250.378 280.622 250.752 280.547 251.2 280.547C251.648 280.547 251.947 280.622 251.947 280.772C251.947 280.921 251.573 280.996 251.125 280.996C250.677 280.996 250.378 280.846 250.378 280.772Z" fill="#263238"/>
<path d="M238.796 159.955L231.623 161.15L235.732 166.231C236.928 190.14 236.629 213.377 237.75 224.883C237.899 226.677 245.296 281.668 244.549 280.398L266.366 281.295L259.866 226.004L262.929 176.915C266.292 171.087 267.263 164.214 265.694 157.713L265.171 155.546" fill="#455A64"/>
<path d="M253.815 73.5823C252.694 73.134 251.872 72.2374 251.573 71.1166C251.274 69.9959 251.648 68.7257 252.544 67.9785C253.441 67.2314 254.786 67.0819 255.832 67.6797C256.579 68.2027 257.177 69.0246 257.476 69.9212C257.7 70.5189 257.774 71.1914 257.7 71.7891C257.401 72.6857 256.654 73.4329 255.682 73.5823C254.786 73.7317 253.814 73.8064 252.843 73.657" fill="#263238"/>
<path d="M273.091 86.8818C273.166 86.583 273.166 86.2094 273.166 85.9105C273.091 85.5369 272.867 85.1634 272.643 84.9392C272.269 84.5656 271.821 84.3415 271.373 84.192C270.775 84.0426 270.177 83.9679 269.505 84.0426C268.832 84.1173 268.085 84.192 267.338 84.192C266.516 84.2668 265.62 84.0426 264.872 83.5943C264.125 83.0713 263.602 82.2494 263.453 81.3528C262.93 79.7838 262.183 78.2894 261.062 77.094C260.165 76.0479 259.119 75.226 257.998 74.4789C256.878 73.8811 255.757 73.3581 254.562 73.0593C254.562 73.0593 254.636 73.0593 254.86 73.0593C255.01 73.0593 255.309 73.134 255.608 73.2087C256.504 73.4328 257.401 73.8064 258.223 74.2547C259.418 74.9272 260.539 75.8238 261.435 76.8698C262.556 78.14 263.453 79.6343 263.976 81.2781C264.125 82.1 264.574 82.8471 265.246 83.2954C265.918 83.669 266.74 83.8932 267.487 83.8185C268.235 83.8185 268.982 83.7437 269.654 83.669C270.327 83.5943 270.999 83.669 271.597 83.8932C272.12 84.0426 272.643 84.3415 272.942 84.7898C273.241 85.0886 273.39 85.4622 273.465 85.9105C273.465 86.1347 273.465 86.4335 273.39 86.6577C273.166 86.8071 273.091 86.8818 273.091 86.8818Z" fill="#263238"/>
<path d="M259.268 91.1407C259.268 91.066 259.642 91.3649 259.642 92.0373C259.642 92.4109 259.492 92.7845 259.194 93.0086C258.82 93.3075 258.372 93.4569 257.923 93.3822C257.475 93.3075 257.027 93.0086 256.803 92.5603C256.653 92.2614 256.579 91.8131 256.728 91.4396C256.952 90.8418 257.326 90.6924 257.326 90.6924C257.326 90.6924 257.102 90.9913 256.952 91.5143C256.877 91.8131 256.952 92.112 257.102 92.3362C257.326 92.635 257.625 92.8592 257.923 92.9339C258.297 93.0086 258.596 92.8592 258.895 92.635C259.119 92.4109 259.268 92.1867 259.343 91.8879C259.418 91.5143 259.194 91.2154 259.268 91.1407Z" fill="#E0E0E0"/>
<path d="M257.326 74.4789C255.757 72.9099 253.665 71.7891 251.498 71.3408C253.814 71.2661 256.056 72.4616 257.326 74.4789Z" fill="#FF725E"/>
<path d="M260.09 90.2441C260.09 90.1694 260.315 90.1694 260.464 90.3935C260.539 90.543 260.539 90.6924 260.464 90.8418C260.389 91.066 260.165 91.1407 259.941 91.1407C259.642 91.1407 259.343 90.9165 259.269 90.543C259.269 90.4682 259.269 90.4682 259.269 90.3935C259.269 90.1694 259.418 90.0947 259.493 90.0947C259.567 90.0947 259.493 90.2441 259.567 90.3935C259.567 90.543 259.717 90.6924 259.941 90.6924C260.09 90.6924 260.165 90.6177 260.165 90.4682V90.3935C260.165 90.3935 260.09 90.3188 260.09 90.2441Z" fill="#E0E0E0"/>
<path d="M255.01 105.113C255.085 105.412 255.085 105.636 255.085 105.935C255.085 106.682 254.935 107.429 254.636 108.101C254.263 109.147 253.59 110.044 252.694 110.791C250.527 112.584 247.389 112.734 244.998 111.239C244.026 110.642 243.279 109.82 242.756 108.849C242.383 108.176 242.159 107.504 242.084 106.756C242.009 106.458 242.009 106.233 242.084 105.935C242.233 106.906 242.532 107.877 243.055 108.699C243.578 109.596 244.325 110.343 245.222 110.941C247.463 112.286 250.377 112.136 252.469 110.492C253.291 109.82 253.964 108.998 254.337 108.027C254.786 107.055 254.935 106.084 255.01 105.113Z" fill="#455A64"/>
<path d="M253.441 276.363C253.441 276.289 253.366 276.214 253.366 276.139C253.366 275.99 253.291 275.766 253.291 275.541C253.217 275.018 253.142 274.196 252.992 273.225C252.768 271.208 252.395 268.369 252.021 264.782C251.199 257.609 250.228 247.747 249.331 236.838C248.435 225.93 247.837 215.992 247.463 208.819C247.239 205.233 247.165 202.319 247.09 200.302C247.09 199.33 247.015 198.509 247.015 197.986C247.015 197.761 247.015 197.537 247.015 197.388C247.015 197.537 247.015 197.761 247.09 197.986C247.165 198.583 247.165 199.33 247.239 200.302C247.389 202.319 247.538 205.233 247.762 208.819C248.211 215.992 248.883 225.93 249.705 236.838C250.602 247.747 251.498 257.684 252.245 264.782C252.619 268.369 252.918 271.208 253.142 273.225C253.217 274.196 253.291 274.944 253.366 275.541C253.366 275.766 253.441 275.99 253.441 276.139C253.441 276.214 253.441 276.289 253.441 276.363Z" fill="#263238"/>
<path d="M265.619 276.438C265.321 276.513 265.096 276.587 264.798 276.587C264.275 276.662 263.453 276.662 262.481 276.737C260.539 276.812 257.849 276.886 254.935 276.812C252.021 276.737 249.331 276.662 247.389 276.587L245.072 276.513C244.774 276.513 244.475 276.513 244.25 276.438C244.549 276.363 244.848 276.363 245.072 276.363C245.595 276.363 246.417 276.363 247.389 276.363C249.331 276.363 252.021 276.438 254.935 276.438C257.849 276.513 260.539 276.513 262.481 276.438H264.798C265.096 276.363 265.321 276.363 265.619 276.438Z" fill="#263238"/>
<path d="M261.735 105.86C261.735 105.935 260.465 106.308 258.522 106.458L258.672 106.159L260.091 108.475L260.988 109.969L261.212 110.343L260.764 110.268C259.419 110.044 257.999 109.969 256.58 109.895C256.953 109.745 257.401 109.67 257.775 109.67C258.821 109.596 259.792 109.67 260.838 109.82L260.614 110.119L259.718 108.624L258.298 106.233L258.149 105.935H258.448C259.419 105.86 260.241 105.86 260.764 105.785C261.137 105.86 261.436 105.785 261.735 105.86Z" fill="#455A64"/>
<path d="M268.534 111.762C268.534 111.837 267.488 111.538 265.62 111.538L265.769 111.389C266.218 113.107 266.815 115.498 267.488 118.188L267.563 118.487L267.264 118.412L262.482 117.142L261.212 116.769L261.436 116.544C261.511 119.085 261.66 121.55 261.735 123.568V123.792L261.511 123.717L256.953 122.447L255.683 122.073C255.533 121.999 255.384 121.999 255.234 121.924C255.384 121.924 255.533 121.924 255.683 121.999L256.953 122.298L261.511 123.418L261.286 123.568C261.212 121.476 261.062 119.159 260.913 116.544V116.245L261.212 116.32L262.482 116.694L267.189 118.039L266.965 118.263C266.367 115.573 265.769 113.182 265.396 111.464V111.314H265.545C266.292 111.389 267.04 111.464 267.712 111.613C268.086 111.613 268.31 111.688 268.534 111.762Z" fill="#455A64"/>
<path d="M269.505 130.666C269.281 130.516 269.131 130.292 268.982 130.068C268.683 129.694 268.31 129.022 267.861 128.275H268.085C266.89 130.666 265.47 132.907 263.827 134.999L263.677 135.224L263.528 134.999C262.781 134.028 262.033 133.057 261.286 132.011L259.568 129.769H259.867L257.102 132.235L255.832 133.281L255.234 133.804L254.935 134.028L254.861 134.103H254.786C254.786 134.177 254.562 134.028 254.562 133.953V133.879L254.636 134.028L254.487 134.103L254.412 133.953C253.964 132.459 253.665 131.264 253.441 130.442C253.292 129.993 253.292 129.545 253.292 129.097C253.292 129.097 253.366 129.545 253.59 130.367C253.815 131.189 254.188 132.384 254.636 133.879L254.487 133.804C254.562 133.804 254.562 133.804 254.636 133.804C254.711 133.804 254.786 133.879 254.786 133.953V134.028C254.786 134.028 254.786 134.028 254.711 134.028L254.636 133.953C254.636 133.953 254.636 133.879 254.562 133.879L254.487 133.804L254.562 133.729L254.861 133.505L255.458 132.982C255.832 132.608 256.28 132.235 256.654 131.861L259.344 129.396L259.493 129.246L259.642 129.396L261.361 131.637C262.183 132.683 262.93 133.654 263.602 134.626H263.304C264.873 132.534 266.367 130.292 267.637 128.051L267.712 127.901L267.787 128.051C268.235 128.873 268.534 129.545 268.833 129.919C269.43 130.442 269.505 130.666 269.505 130.666Z" fill="#455A64"/>
<path d="M256.28 120.056C256.28 120.28 256.205 120.579 256.131 120.803C256.056 121.252 255.832 121.924 255.608 122.746C255.159 124.39 254.412 126.631 253.441 129.022C252.47 131.413 251.498 133.58 250.751 135.074C250.378 135.821 250.079 136.419 249.78 136.867C249.705 137.091 249.556 137.316 249.406 137.465C249.705 136.643 250.079 135.747 250.527 134.925C251.199 133.356 252.171 131.264 253.067 128.873C254.039 126.482 254.786 124.315 255.309 122.671C255.608 121.775 255.907 120.878 256.28 120.056Z" fill="#455A64"/>
<path d="M261.735 105.86C261.735 105.935 260.465 106.308 258.522 106.458L258.672 106.159L260.091 108.475L260.988 109.969L261.212 110.343L260.764 110.268C259.419 110.044 257.999 109.969 256.58 109.895C256.953 109.745 257.401 109.67 257.775 109.67C258.821 109.596 259.792 109.67 260.838 109.82L260.614 110.119L259.718 108.624L258.298 106.233L258.149 105.935H258.448C259.419 105.86 260.241 105.86 260.764 105.785C261.137 105.86 261.436 105.785 261.735 105.86Z" fill="#455A64"/>
<path d="M256.28 120.056C256.28 120.28 256.205 120.579 256.131 120.803C256.056 121.252 255.832 121.924 255.608 122.746C255.159 124.39 254.412 126.631 253.441 129.022C252.47 131.413 251.498 133.58 250.751 135.074C250.378 135.821 250.079 136.419 249.78 136.867C249.705 137.091 249.556 137.316 249.406 137.465C249.705 136.643 250.079 135.747 250.527 134.925C251.199 133.356 252.171 131.264 253.067 128.873C254.039 126.482 254.786 124.315 255.309 122.671C255.608 121.775 255.907 120.878 256.28 120.056Z" fill="#455A64"/>
<path d="M169.682 170.191L187.017 110.567C187.913 107.504 191.126 105.71 194.189 106.607L291.844 135.074C294.907 135.971 296.701 139.184 295.804 142.247L278.47 201.871C277.573 204.934 274.36 206.727 271.297 205.831L173.642 177.364C170.579 176.467 168.786 173.254 169.682 170.191Z" fill="#FF725E"/>
<path d="M183.655 153.006L181.861 159.058L181.264 158.909L182.833 153.454L181.413 153.006L181.563 152.483L183.655 153.006Z" fill="white"/>
<path d="M189.781 160.328L189.632 160.851L185.373 159.656L185.522 159.208L188.735 157.489C189.632 157.041 189.856 156.667 190.005 156.219C190.23 155.546 189.856 154.949 188.959 154.65C188.362 154.426 187.689 154.5 187.092 154.874L186.793 154.351C187.54 153.903 188.362 153.828 189.184 154.127C190.379 154.5 190.977 155.322 190.678 156.368C190.528 156.966 190.155 157.414 189.109 157.937L186.494 159.357L189.781 160.328Z" fill="white"/>
<path d="M196.431 161.15L195.236 160.777L194.788 162.346L194.19 162.196L194.638 160.627L191.201 159.656L191.351 159.208L195.759 156.144L196.431 156.368L192.247 159.357L194.862 160.104L195.236 158.685L195.834 158.834L195.46 160.254L196.655 160.627L196.431 161.15Z" fill="white"/>
<path d="M205.696 163.84L204.501 163.466L204.052 165.035L203.454 164.886L203.903 163.317L200.466 162.346L200.615 161.897L204.949 158.834L205.621 159.058L201.437 162.047L204.052 162.794L204.426 161.374L205.024 161.524L204.65 162.943L205.845 163.317L205.696 163.84Z" fill="white"/>
<path d="M211.001 165.185C210.702 166.231 209.73 166.829 208.311 166.38C207.489 166.156 206.816 165.708 206.368 164.961L206.816 164.587C207.19 165.185 207.788 165.633 208.535 165.857C209.581 166.156 210.253 165.783 210.478 165.11C210.702 164.438 210.403 163.691 208.834 163.242L207.564 162.869L208.759 159.955L212.047 160.926L211.897 161.449L209.133 160.627L208.385 162.495L209.133 162.719C210.851 163.168 211.299 164.139 211.001 165.185Z" fill="white"/>
<path d="M216.978 166.903C216.679 167.949 215.558 168.547 214.512 168.248C214.437 168.248 214.437 168.248 214.363 168.174C212.794 167.725 212.196 166.38 212.794 164.438C213.391 162.42 214.811 161.673 216.455 162.122C216.978 162.271 217.426 162.495 217.8 162.869L217.426 163.317C217.127 163.018 216.754 162.794 216.305 162.719C215.035 162.346 213.914 162.943 213.466 164.587C213.391 164.737 213.391 164.886 213.317 165.11C213.84 164.512 214.736 164.363 215.483 164.587C216.53 164.737 217.202 165.783 217.053 166.754C217.053 166.754 216.978 166.829 216.978 166.903ZM216.38 166.754C216.604 166.007 216.156 165.26 215.483 165.035C215.409 165.035 215.334 165.035 215.259 164.961C214.587 164.587 213.765 164.886 213.391 165.558C213.018 166.231 213.317 167.053 213.989 167.426C214.139 167.501 214.288 167.576 214.437 167.576C215.11 167.875 215.932 167.576 216.231 166.903C216.305 166.829 216.38 166.829 216.38 166.754Z" fill="white"/>
<path d="M225.196 169.369C224.898 170.415 223.926 170.938 222.507 170.49C221.685 170.266 221.012 169.817 220.564 169.07L221.012 168.622C221.386 169.22 221.984 169.668 222.656 169.892C223.627 170.191 224.375 169.892 224.599 169.145C224.823 168.398 224.449 167.8 223.328 167.501L222.88 167.352L223.03 166.903L225.346 165.26L222.282 164.363L222.432 163.84L226.317 164.961L226.168 165.409L223.851 167.053C225.047 167.501 225.495 168.398 225.196 169.369Z" fill="white"/>
<path d="M231.324 171.087C231.025 172.134 229.904 172.731 228.858 172.358C228.783 172.358 228.783 172.358 228.708 172.283C227.139 171.835 226.542 170.49 227.139 168.547C227.737 166.455 229.157 165.783 230.801 166.231C231.324 166.38 231.772 166.604 232.145 166.978L231.772 167.426C231.473 167.128 231.099 166.903 230.651 166.829C229.381 166.455 228.26 167.053 227.812 168.697C227.737 168.846 227.737 168.995 227.737 169.22C228.26 168.622 229.157 168.472 229.904 168.697C230.95 168.846 231.622 169.892 231.473 170.863C231.324 170.938 231.324 171.013 231.324 171.087ZM230.651 170.863C230.875 170.116 230.427 169.369 229.68 169.145C229.605 169.145 229.53 169.145 229.53 169.145C228.858 168.771 228.036 169.07 227.662 169.743C227.289 170.415 227.588 171.237 228.26 171.611C228.41 171.685 228.559 171.76 228.708 171.76C229.381 172.059 230.203 171.76 230.502 171.087C230.651 171.013 230.651 170.938 230.651 170.863Z" fill="white"/>
<path d="M238.048 168.472L237.899 168.921L233.714 173.777L233.042 173.553L237.151 168.771L234.013 167.875L233.714 168.995L233.117 168.846L233.64 167.128L238.048 168.472Z" fill="white"/>
<path d="M246.715 170.938L246.566 171.386L242.382 176.243L241.709 176.019L245.819 171.237L242.681 170.34L242.382 171.461L241.784 171.312L242.307 169.593L246.715 170.938Z" fill="white"/>
<path d="M251.423 177.065C251.124 178.111 250.003 178.559 248.584 178.111C247.164 177.663 246.417 176.766 246.79 175.72C247.015 174.973 247.687 174.524 248.359 174.599C247.836 174.226 247.612 173.628 247.762 172.955C248.061 171.984 249.032 171.611 250.377 171.984C251.647 172.358 252.319 173.18 252.021 174.226C251.871 174.823 251.273 175.272 250.676 175.272C251.273 175.571 251.572 176.318 251.423 177.065ZM250.75 176.841C250.975 176.094 250.452 175.421 249.405 175.122C248.359 174.823 247.538 175.122 247.313 175.869C247.089 176.617 247.612 177.289 248.658 177.588C249.704 177.887 250.526 177.588 250.75 176.841ZM249.555 174.674C250.526 174.973 251.199 174.674 251.348 174.001C251.572 173.404 251.049 172.731 250.153 172.507C249.256 172.208 248.509 172.507 248.359 173.18C248.21 173.852 248.584 174.375 249.555 174.674Z" fill="white"/>
<path d="M257.625 177.364C257.027 179.456 255.607 180.203 253.964 179.68C253.441 179.53 252.992 179.306 252.619 178.933L252.992 178.484C253.291 178.783 253.665 179.007 254.113 179.082C255.458 179.456 256.504 178.858 256.952 177.214C257.027 177.065 257.027 176.915 257.102 176.691C256.579 177.289 255.682 177.438 254.935 177.214C253.889 177.065 253.216 176.019 253.366 175.047C253.366 174.973 253.366 174.898 253.441 174.823C253.739 173.777 254.86 173.18 255.831 173.478C255.906 173.478 255.981 173.553 255.981 173.553C257.699 174.076 258.222 175.496 257.625 177.364ZM257.176 175.944C257.326 175.122 256.803 174.375 255.981 174.226C255.981 174.226 255.981 174.226 255.906 174.226C255.234 173.927 254.412 174.3 254.113 174.973C253.814 175.645 254.188 176.467 254.86 176.766C254.935 176.766 255.01 176.841 255.159 176.841C255.981 177.065 256.803 176.766 257.176 175.944Z" fill="white"/>
<path d="M264.647 176.168L262.854 182.22L262.256 182.071L263.825 176.617L262.405 176.168L262.555 175.645L264.647 176.168Z" fill="white"/>
<path d="M268.01 183.49L267.86 184.013L263.602 182.818L263.751 182.37L266.964 180.651C267.86 180.203 268.085 179.829 268.234 179.381C268.458 178.709 268.085 178.111 267.113 177.812C266.515 177.588 265.843 177.663 265.245 178.036L264.946 177.513C265.694 177.065 266.516 176.99 267.337 177.289C268.533 177.663 269.131 178.484 268.832 179.53C268.682 180.128 268.309 180.577 267.263 181.1L264.648 182.519L268.01 183.49Z" fill="white"/>
<path d="M273.539 183.864C273.24 184.835 272.269 185.433 270.849 184.985C270.027 184.761 269.355 184.238 268.906 183.565L269.355 183.192C269.728 183.789 270.326 184.238 270.998 184.462C271.97 184.761 272.717 184.462 272.866 183.715C273.016 182.967 272.717 182.37 271.596 182.071L271.148 181.921L271.297 181.473L273.539 179.904L270.475 179.007L270.625 178.484L274.51 179.605L274.361 180.054L272.044 181.697C273.315 182.071 273.763 182.893 273.539 183.864Z" fill="white"/>
<path d="M226.818 176.548L226.044 179.202L274.394 193.288L275.167 190.633L226.818 176.548Z" fill="white"/>
<path d="M248.838 188.651L248.065 191.305L272.885 198.536L273.659 195.881L248.838 188.651Z" fill="white"/>
<path d="M189.408 132.683L202.558 136.494C204.5 137.091 205.621 139.109 205.098 141.051L202.782 149.121C202.184 151.063 200.167 152.184 198.224 151.661L185.074 147.851C183.131 147.253 182.011 145.236 182.534 143.293L184.85 135.224C185.448 133.206 187.465 132.085 189.408 132.683Z" fill="#263238"/>
<path d="M182.683 142.546L182.981 141.574L193.442 144.638C194.637 145.011 195.907 144.264 196.281 143.069C196.655 141.873 195.907 140.603 194.712 140.23L184.252 137.166L184.551 136.195L195.011 139.258C196.729 139.856 197.626 141.724 197.028 143.442C196.505 145.086 194.787 145.983 193.143 145.609L182.683 142.546Z" fill="white"/>
<path d="M196.884 142.734L196.59 143.738L203.762 145.836L204.055 144.832L196.884 142.734Z" fill="white"/>
<path d="M191.895 119.879L190.599 124.327L242.817 139.546L244.113 135.099L191.895 119.879Z" fill="white"/>
<path d="M269.877 130.442L257.026 121.999C257.026 121.999 250.75 140.08 248.807 140.23C238.198 141.201 226.766 137.689 222.806 136.27C222.432 135.821 221.909 135.298 221.386 134.626C220.938 134.028 220.639 133.43 220.415 132.683C220.116 131.861 219.892 130.965 219.817 130.068C219.892 129.62 219.518 129.171 219.07 129.171C218.846 129.171 218.547 129.246 218.398 129.396C217.949 129.993 217.8 132.235 218.846 134.701C219.892 137.166 216.156 135.224 214.811 134.476C213.466 133.804 209.133 131.861 208.535 132.085C207.713 132.459 208.012 133.356 209.357 134.028C210.777 134.701 214.737 136.942 214.363 137.614C213.989 138.287 207.041 134.701 207.041 134.701C207.041 134.701 205.696 133.729 205.173 134.476C204.276 135.896 211.897 139.183 212.644 139.482C213.167 139.707 212.719 140.454 212.196 140.23C211.673 140.005 205.397 136.494 204.5 137.913C203.828 139.034 210.777 140.678 211.673 142.097C212.57 143.517 206.518 140.304 205.92 141.425C205.696 141.873 205.546 142.172 209.282 143.517C212.047 144.339 214.811 145.086 217.576 145.609V145.684C217.576 145.684 255.756 162.794 262.929 146.282C270.849 128.947 269.877 130.442 269.877 130.442Z" fill="#E5BAAB"/>
<path d="M261.435 105.785C261.435 105.785 273.09 107.13 271.895 121.027C271.148 129.62 268.682 137.913 264.797 145.609L249.48 137.614C252.917 130.741 255.532 123.493 257.176 116.021L261.435 105.785Z" fill="#FF725E"/>
<g opacity="0.2">
<path d="M261.434 105.785C261.434 105.785 273.089 107.13 271.894 121.027C271.147 129.62 268.681 137.913 264.796 145.609L249.479 137.614C252.916 130.741 255.531 123.493 257.175 116.021L261.434 105.785Z" fill="white"/>
</g>
<path d="M268.532 111.762C268.532 111.837 267.486 111.538 265.619 111.538L265.768 111.389C266.216 113.107 266.814 115.498 267.486 118.188L267.561 118.487L267.262 118.412L262.48 117.142L261.21 116.769L261.434 116.544C261.509 119.085 261.659 121.55 261.733 123.568V123.792L261.509 123.717L256.951 122.447L255.681 122.073C255.532 121.999 255.382 121.999 255.233 121.924C255.382 121.924 255.532 121.924 255.681 121.999L256.951 122.298L261.509 123.418L261.285 123.568C261.21 121.476 261.061 119.159 260.911 116.544V116.245L261.21 116.32L262.48 116.694L267.188 118.039L266.963 118.263C266.366 115.573 265.768 113.182 265.394 111.464V111.314H265.544C266.291 111.389 267.038 111.464 267.711 111.613C268.084 111.613 268.308 111.688 268.532 111.762Z" fill="#455A64"/>
<path d="M269.505 130.666C269.28 130.516 269.131 130.292 268.982 130.068C268.683 129.694 268.309 129.022 267.861 128.275H268.085C266.889 130.666 265.47 132.907 263.826 134.999L263.677 135.224L263.527 134.999C262.78 134.028 262.033 133.057 261.286 132.011L259.567 129.769H259.866L257.102 132.235L255.831 133.281L255.234 133.804L254.935 134.028L254.86 134.103H254.785C254.785 134.177 254.561 134.028 254.561 133.953V133.879L254.636 134.028L254.486 134.103L254.412 133.953C253.963 132.459 253.665 131.264 253.44 130.442C253.291 129.993 253.291 129.545 253.291 129.097C253.291 129.097 253.366 129.545 253.59 130.367C253.814 131.189 254.188 132.384 254.636 133.879L254.486 133.804C254.561 133.804 254.561 133.804 254.636 133.804C254.711 133.804 254.785 133.879 254.785 133.953V134.028C254.785 134.028 254.785 134.028 254.711 134.028L254.636 133.953C254.636 133.953 254.636 133.879 254.561 133.879L254.486 133.804L254.561 133.729L254.86 133.505L255.458 132.982C255.831 132.608 256.28 132.235 256.653 131.861L259.343 129.396L259.493 129.246L259.642 129.396L261.36 131.637C262.182 132.683 262.929 133.654 263.602 134.626H263.303C264.872 132.534 266.366 130.292 267.637 128.051L267.711 127.901L267.786 128.051C268.234 128.873 268.533 129.545 268.832 129.919C269.43 130.442 269.505 130.666 269.505 130.666Z" fill="#455A64"/>
</svg>
