<svg width="20" height="20" viewBox="0 0 20 20" fill="none" xmlns="http://www.w3.org/2000/svg">
<g clip-path="url(#clip0_97_2483)">
<path d="M3.33333 5.83318H5.83333C6.05435 5.83318 6.26631 5.74538 6.42259 5.5891C6.57887 5.43282 6.66667 5.22086 6.66667 4.99985V4.16651C6.66667 3.72449 6.84226 3.30056 7.15482 2.988C7.46738 2.67544 7.89131 2.49985 8.33333 2.49985C8.77536 2.49985 9.19928 2.67544 9.51184 2.988C9.8244 3.30056 10 3.72449 10 4.16651V4.99985C10 5.22086 10.0878 5.43282 10.2441 5.5891C10.4004 5.74538 10.6123 5.83318 10.8333 5.83318H13.3333C13.5543 5.83318 13.7663 5.92098 13.9226 6.07726C14.0789 6.23354 14.1667 6.4455 14.1667 6.66651V9.16651C14.1667 9.38753 14.2545 9.59949 14.4107 9.75577C14.567 9.91205 14.779 9.99985 15 9.99985H15.8333C16.2754 9.99985 16.6993 10.1754 17.0118 10.488C17.3244 10.8006 17.5 11.2245 17.5 11.6665C17.5 12.1085 17.3244 12.5325 17.0118 12.845C16.6993 13.1576 16.2754 13.3332 15.8333 13.3332H15C14.779 13.3332 14.567 13.421 14.4107 13.5773C14.2545 13.7335 14.1667 13.9455 14.1667 14.1665V16.6665C14.1667 16.8875 14.0789 17.0995 13.9226 17.2558C13.7663 17.4121 13.5543 17.4998 13.3333 17.4998H10.8333C10.6123 17.4998 10.4004 17.4121 10.2441 17.2558C10.0878 17.0995 10 16.8875 10 16.6665V15.8332C10 15.3912 9.8244 14.9672 9.51184 14.6547C9.19928 14.3421 8.77536 14.1665 8.33333 14.1665C7.89131 14.1665 7.46738 14.3421 7.15482 14.6547C6.84226 14.9672 6.66667 15.3912 6.66667 15.8332V16.6665C6.66667 16.8875 6.57887 17.0995 6.42259 17.2558C6.26631 17.4121 6.05435 17.4998 5.83333 17.4998H3.33333C3.11232 17.4998 2.90036 17.4121 2.74408 17.2558C2.5878 17.0995 2.5 16.8875 2.5 16.6665V14.1665C2.5 13.9455 2.5878 13.7335 2.74408 13.5773C2.90036 13.421 3.11232 13.3332 3.33333 13.3332H4.16667C4.60869 13.3332 5.03262 13.1576 5.34518 12.845C5.65774 12.5325 5.83333 12.1085 5.83333 11.6665C5.83333 11.2245 5.65774 10.8006 5.34518 10.488C5.03262 10.1754 4.60869 9.99985 4.16667 9.99985H3.33333C3.11232 9.99985 2.90036 9.91205 2.74408 9.75577C2.5878 9.59949 2.5 9.38753 2.5 9.16651V6.66651C2.5 6.4455 2.5878 6.23354 2.74408 6.07726C2.90036 5.92098 3.11232 5.83318 3.33333 5.83318" stroke="white" stroke-width="2" stroke-linecap="round" stroke-linejoin="round"/>
</g>
<defs>
<clipPath id="clip0_97_2483">
<rect width="20" height="20" fill="white"/>
</clipPath>
</defs>
</svg>
