<svg width="75" height="90" viewBox="0 0 75 90" fill="none" xmlns="http://www.w3.org/2000/svg">
<path d="M36.8086 43.6931C42.721 43.6931 47.8408 41.5724 52.0241 37.3884C56.2074 33.2053 58.3279 28.0869 58.3279 22.1738C58.3279 16.2625 56.2074 11.1435 52.0234 6.95886C47.8394 2.77628 42.7203 0.655762 36.8086 0.655762C30.8954 0.655762 25.7768 2.77628 21.5937 6.95955C17.4106 11.1428 15.2892 16.2619 15.2892 22.1738C15.2892 28.0869 17.4104 33.206 21.5944 37.3893C25.7783 41.5719 30.8975 43.6931 36.8086 43.6931ZM74.4616 69.3567C74.3408 67.6159 74.0969 65.7167 73.7376 63.7115C73.375 61.691 72.9082 59.7811 72.3491 58.0354C71.7719 56.231 70.9866 54.4494 70.0161 52.7418C69.0085 50.9695 67.8252 49.4263 66.4973 48.1564C65.1088 46.828 63.4088 45.7599 61.4429 44.9805C59.484 44.2058 57.3128 43.8131 54.9906 43.8131C54.0785 43.8131 53.1966 44.1873 51.4931 45.2964C50.2822 46.0849 49.0678 46.8678 47.8497 47.6451C46.6794 48.391 45.0939 49.0897 43.1354 49.7222C41.2249 50.3405 39.2849 50.654 37.3702 50.654C35.4556 50.654 33.5162 50.3405 31.6035 49.7222C29.6473 49.0902 28.0618 48.3917 26.8927 47.6458C25.5368 46.7795 24.3101 45.9888 23.246 45.2955C21.5446 44.1866 20.6618 43.8123 19.7499 43.8123C17.4268 43.8123 15.2565 44.2056 13.2981 44.9814C11.3336 45.7592 9.63295 46.8273 8.24306 48.1571C6.91599 49.4277 5.73201 50.9701 4.72585 52.7418C3.75598 54.4492 2.97073 56.2303 2.39262 58.0361C1.83422 59.7818 1.36743 61.691 1.00482 63.7115C0.645528 65.714 0.401578 67.6138 0.280824 69.3588C0.160702 71.1148 0.101163 72.8745 0.102311 74.6346C0.102311 79.2985 1.58486 83.074 4.50842 85.8584C7.39587 88.6063 11.2164 90.0002 15.8624 90.0002H58.8821C63.5282 90.0002 67.3473 88.607 70.2354 85.8586C73.1597 83.076 74.6422 79.2999 74.6422 74.6339C74.6415 72.8338 74.5809 71.0581 74.4616 69.3567Z" fill="white"/>
</svg>
