<svg width="28" height="28" viewBox="0 0 28 28" fill="none" xmlns="http://www.w3.org/2000/svg">
<path d="M24.9375 10.9375C25.9438 10.9375 26.8625 11.7688 27.125 12.6875C26.425 6.125 20.7812 0.875 14 0.875C7.21875 0.875 1.575 6.125 0.875 12.6875C1.1375 11.7688 2.05625 10.9375 3.0625 10.9375C4.2875 10.9375 5.25 11.4625 5.25 12.6875C5.25 11.4625 6.2125 10.9375 7.4375 10.9375C8.6625 10.9375 9.625 11.4625 9.625 12.6875C9.625 11.4625 10.5875 10.9375 11.8125 10.9375C13.0375 10.9375 14 11.4625 14 12.6875C14 11.4625 14.9625 10.9375 16.1875 10.9375C17.4125 10.9375 18.375 11.4625 18.375 12.6875C18.375 11.4625 19.3375 10.9375 20.5625 10.9375C21.7875 10.9375 22.75 11.4625 22.75 12.6875C22.75 11.4625 23.7125 10.9375 24.9375 10.9375ZM14.875 25.8125H13.125C11.4187 25.8125 10.0625 24.4562 10.0625 22.75H11.8125C11.8125 23.4937 12.3813 24.0625 13.125 24.0625H14.875C15.6187 24.0625 16.1875 23.4937 16.1875 22.75C16.1875 22.0063 15.6187 21.4375 14.875 21.4375H13.125C11.4187 21.4375 10.0625 20.0812 10.0625 18.375C10.0625 16.6687 11.4187 15.3125 13.125 15.3125H14.875C16.5813 15.3125 17.9375 16.6687 17.9375 18.375H16.1875C16.1875 17.6313 15.6187 17.0625 14.875 17.0625H13.125C12.3813 17.0625 11.8125 17.6313 11.8125 18.375C11.8125 19.1187 12.3813 19.6875 13.125 19.6875H14.875C16.5813 19.6875 17.9375 21.0438 17.9375 22.75C17.9375 24.4562 16.5813 25.8125 14.875 25.8125Z" fill="white"/>
<path d="M13.125 14H14.875V27.125H13.125V14Z" fill="white"/>
</svg>
