<svg width="89" height="89" viewBox="0 0 89 89" fill="none" xmlns="http://www.w3.org/2000/svg">
<path d="M79.4643 0H55.625C53.0966 0.00210436 50.6724 1.00743 48.8846 2.79527C47.0967 4.58311 46.0914 7.00733 46.0893 9.53571V33.375C46.0914 35.9034 47.0967 38.3276 48.8846 40.1154C50.6724 41.9033 53.0966 42.9086 55.625 42.9107H79.4643C81.9927 42.9086 84.4169 41.9033 86.2047 40.1154C87.9926 38.3276 88.9979 35.9034 89 33.375V9.53571C88.9979 7.00733 87.9926 4.58311 86.2047 2.79527C84.4169 1.00743 81.9927 0.00210436 79.4643 0ZM75.9679 28.2893C75.9649 29.6147 75.436 30.8847 74.4973 31.8204C73.5587 32.7561 72.287 33.2809 70.9616 33.2796H64.1277C62.8023 33.2809 61.5306 32.7561 60.5919 31.8204C59.6533 30.8847 59.1244 29.6147 59.1214 28.2893V11.2204C59.1214 10.7989 59.2889 10.3946 59.5869 10.0966C59.885 9.79851 60.2892 9.63107 60.7107 9.63107C61.1322 9.63107 61.5365 9.79851 61.8345 10.0966C62.1326 10.3946 62.3 10.7989 62.3 11.2204V28.2893C62.3034 28.7715 62.4975 29.2328 62.84 29.5723C63.1825 29.9118 63.6454 30.1019 64.1277 30.1011H70.9616C71.4439 30.1019 71.9068 29.9118 72.2493 29.5723C72.5918 29.2328 72.7859 28.7715 72.7893 28.2893V11.2204C72.7893 10.7989 72.9567 10.3946 73.2548 10.0966C73.5528 9.79851 73.9571 9.63107 74.3786 9.63107C74.8001 9.63107 75.2043 9.79851 75.5024 10.0966C75.8004 10.3946 75.9679 10.7989 75.9679 11.2204V28.2893ZM79.4643 46.0893H55.625C53.0966 46.0914 50.6724 47.0967 48.8846 48.8846C47.0967 50.6724 46.0914 53.0966 46.0893 55.625V79.4643C46.0914 81.9927 47.0967 84.4169 48.8846 86.2047C50.6724 87.9926 53.0966 88.9979 55.625 89H79.4643C81.9927 88.9979 84.4169 87.9926 86.2047 86.2047C87.9926 84.4169 88.9979 81.9927 89 79.4643V55.625C88.9979 53.0966 87.9926 50.6724 86.2047 48.8846C84.4169 47.0967 81.9927 46.0914 79.4643 46.0893ZM74.3786 79.3689H60.7107C60.425 79.3687 60.1446 79.2919 59.8987 79.1466C59.6527 79.0012 59.4502 78.7926 59.3121 78.5425C59.1797 78.2869 59.1173 78.0008 59.1313 77.7133C59.1452 77.4258 59.2351 77.1471 59.3916 76.9055L71.4066 58.8989H60.7107C60.2892 58.8989 59.885 58.7315 59.5869 58.4334C59.2889 58.1354 59.1214 57.7312 59.1214 57.3096C59.1214 56.8881 59.2889 56.4839 59.5869 56.1858C59.885 55.8878 60.2892 55.7204 60.7107 55.7204H74.3786C74.6643 55.7206 74.9447 55.7974 75.1906 55.9427C75.4366 56.0881 75.6391 56.2966 75.7771 56.5468C75.9096 56.8024 75.972 57.0885 75.958 57.376C75.9441 57.6635 75.8542 57.9422 75.6977 58.1838L63.6827 76.1904H74.3786C74.8001 76.1904 75.2043 76.3578 75.5024 76.6559C75.8004 76.9539 75.9679 77.3581 75.9679 77.7796C75.9679 78.2011 75.8004 78.6054 75.5024 78.9034C75.2043 79.2015 74.8001 79.3689 74.3786 79.3689ZM33.375 46.0893H9.53571C7.00733 46.0914 4.58311 47.0967 2.79527 48.8846C1.00743 50.6724 0.00210436 53.0966 0 55.625V79.4643C0.00210436 81.9927 1.00743 84.4169 2.79527 86.2047C4.58311 87.9926 7.00733 88.9979 9.53571 89H33.375C35.9034 88.9979 38.3276 87.9926 40.1154 86.2047C41.9033 84.4169 42.9086 81.9927 42.9107 79.4643V55.625C42.9086 53.0966 41.9033 50.6724 40.1154 48.8846C38.3276 47.0967 35.9034 46.0914 33.375 46.0893ZM23.0446 75.2209C23.0446 75.6424 22.8772 76.0466 22.5792 76.3447C22.2811 76.6427 21.8769 76.8102 21.4554 76.8102C21.0339 76.8102 20.6296 76.6427 20.3316 76.3447C20.0335 76.0466 19.8661 75.6424 19.8661 75.2209V54.735C19.8661 54.3135 20.0335 53.9093 20.3316 53.6112C20.6296 53.3132 21.0339 53.1457 21.4554 53.1457C21.8769 53.1457 22.2811 53.3132 22.5792 53.6112C22.8772 53.9093 23.0446 54.3135 23.0446 54.735V75.2209ZM32.5486 0H10.3621C7.61406 0.000421388 4.97865 1.09228 3.03547 3.03547C1.09228 4.97865 0.000421388 7.61406 0 10.3621V32.5486C0.000421388 35.2967 1.09228 37.9321 3.03547 39.8752C4.97865 41.8184 7.61406 42.9103 10.3621 42.9107H32.5486C35.2967 42.9103 37.9321 41.8184 39.8752 39.8752C41.8184 37.9321 42.9103 35.2967 42.9107 32.5486V10.3621C42.9103 7.61406 41.8184 4.97865 39.8752 3.03547C37.9321 1.09228 35.2967 0.000421388 32.5486 0ZM33.4068 33.2796H16.7352C15.7533 33.2788 14.8119 32.8884 14.1177 32.1941C13.4234 31.4998 13.033 30.5585 13.0321 29.5766V13.3341C13.033 12.3523 13.4234 11.4109 14.1177 10.7166C14.8119 10.0223 15.7533 9.63191 16.7352 9.63107H26.1755C27.1574 9.63191 28.0988 10.0223 28.793 10.7166C29.4873 11.4109 29.8777 12.3523 29.8786 13.3341V29.5766C29.875 29.7531 29.8537 29.9288 29.815 30.1011H33.4068C33.8283 30.1011 34.2325 30.2685 34.5306 30.5666C34.8286 30.8646 34.9961 31.2689 34.9961 31.6904C34.9961 32.1119 34.8286 32.5161 34.5306 32.8142C34.2325 33.1122 33.8283 33.2796 33.4068 33.2796Z" fill="white"/>
<path d="M26.1762 12.8096H16.7359C16.4462 12.8096 16.2114 13.0444 16.2114 13.334V29.5765C16.2114 29.8662 16.4462 30.101 16.7359 30.101H26.1762C26.4659 30.101 26.7007 29.8662 26.7007 29.5765V13.334C26.7007 13.0444 26.4659 12.8096 26.1762 12.8096Z" fill="white"/>
</svg>
