<svg width="46" height="48" viewBox="0 0 46 48" fill="none" xmlns="http://www.w3.org/2000/svg">
<path d="M37.8153 41.1541C41.9365 37.1161 44.4947 31.4889 44.4947 25.2634C44.4947 12.9766 34.5342 3.01611 22.2473 3.01611C9.96046 3.01611 0 12.9766 0 25.2634C0 28.0593 0.517223 30.7341 1.45878 33.1991L37.8153 41.1541Z" fill="#FF4F56"/>
<path d="M34.1333 1.01855H5.17952C3.10391 1.01855 1.42139 2.70117 1.42139 4.77678V33.0999C2.08517 34.8611 2.97033 36.5306 4.05554 38.0684L35.2277 43.3304C36.1729 42.6506 37.0635 41.898 37.8916 41.0796V4.77678C37.8916 2.70117 36.2089 1.01855 34.1333 1.01855Z" fill="#F55359"/>
<path d="M13.7664 38.7918C12.8659 37.7936 13.5116 36.8722 13.7672 36.5784C13.826 36.5113 13.8585 36.4252 13.8587 36.336V31.3922C13.8587 31.3031 13.8263 31.2165 13.7668 31.15C12.8978 30.1795 13.5329 29.23 13.7755 28.9338C13.8293 28.8682 13.8587 28.786 13.8587 28.7012V23.7517C13.8587 23.6617 13.8261 23.5741 13.7654 23.5077C12.8107 22.4647 13.4331 21.6089 13.7282 21.3019C13.7682 21.2598 13.7978 21.2089 13.8144 21.1532C13.8311 21.0976 13.8345 21.0389 13.8243 20.9817L12.3029 12.2013C12.2898 12.1286 12.2553 12.0615 12.2039 12.0085C10.2002 9.92105 11.426 7.87131 11.9159 7.21843C12.001 7.10501 12.0209 6.95155 11.9551 6.82597C11.8378 6.60223 11.9303 6.41508 12.0093 6.31165C12.0601 6.24518 12.0904 6.16537 12.0904 6.08164V4.47749C12.0904 4.40548 12.0637 4.33729 12.0215 4.27899C11.8857 4.09175 11.9156 3.90396 11.9723 3.77012C11.999 3.70759 12.0078 3.63892 11.9978 3.57169C11.9879 3.50446 11.9595 3.4413 11.9159 3.38919C11.1262 2.4451 11.5678 1.6284 11.8744 1.24738C11.9264 1.18248 11.9546 1.10173 11.9544 1.01855H5.17943C3.10391 1.01846 1.42139 2.70108 1.42139 4.77669V33.0998C2.08517 34.861 2.97033 36.5306 4.05554 38.0683L13.8588 39.7232V39.0346C13.8588 38.9451 13.8263 38.8581 13.7664 38.7918Z" fill="#D02128"/>
<path d="M14.5089 21.3481C10.451 16.4055 5.99044 16.9893 3.98193 17.6222V37.965C8.00149 43.7342 14.6829 47.5104 22.2473 47.5104C27.1377 47.5104 31.6585 45.9312 35.3304 43.2568V28.7561C34.8027 28.3311 34.259 27.8404 33.6975 27.2789C28.2013 21.7826 23.6684 32.5047 14.5089 21.3481Z" fill="#E9EFFF"/>
<path d="M13.8386 44.1768C13.8519 44.1382 13.8587 44.0982 13.8587 44.0573V39.0346C13.8587 38.9451 13.8262 38.8581 13.7662 38.7917C12.8657 37.7935 13.5114 36.8721 13.767 36.5784C13.8258 36.5113 13.8584 36.4252 13.8586 36.336V31.3922C13.8586 31.3031 13.8262 31.2165 13.7667 31.15C12.8977 30.1795 13.5328 29.23 13.7753 28.9338C13.8291 28.8682 13.8586 28.786 13.8586 28.7012V23.7517C13.8586 23.6617 13.826 23.5741 13.7652 23.5077C12.8106 22.4647 13.433 21.6089 13.7281 21.3018C13.7681 21.2597 13.7976 21.2088 13.8143 21.1532C13.831 21.0976 13.8344 21.0388 13.8242 20.9817L13.7367 20.4773C9.89795 16.4794 5.86368 17.0292 3.98193 17.6222V37.9651C6.48351 41.5556 10.0163 44.3738 14.1511 45.9906C13.5567 45.1825 13.7667 44.3869 13.8386 44.1768Z" fill="#D3DCFB"/>
<path d="M14.5088 21.538C23.6682 32.6946 28.2011 21.9725 33.6974 27.4688C34.2589 28.0304 34.8026 28.5211 35.3303 28.946V6.81494H3.98193V17.8121C5.99044 17.1792 10.451 16.5953 14.5088 21.538Z" fill="#FFB8A4"/>
<path d="M3.98193 17.8121C5.87031 17.2171 9.9261 16.666 13.7769 20.7097L12.3027 12.2015C12.2897 12.1288 12.2552 12.0616 12.2038 12.0086C10.2001 9.92119 11.4258 7.87145 11.9157 7.21857C12.0008 7.10515 12.0208 6.95169 11.9549 6.82611C11.953 6.8223 11.9521 6.81866 11.9502 6.81494H3.98193V17.8121Z" fill="#FF5057"/>
<path d="M29.6655 21.1805H9.27802C8.79748 21.1805 8.4043 20.7874 8.4043 20.3068V12.9528C8.4043 12.4723 8.79748 12.0791 9.27802 12.0791H29.6655C30.146 12.0791 30.5392 12.4723 30.5392 12.9528V20.3068C30.5392 20.7874 30.146 21.1805 29.6655 21.1805Z" fill="#4FABF7"/>
<path d="M15.5475 19.5091V13.7497C15.5475 12.8306 16.2995 12.0786 17.2186 12.0786H9.27802C8.79748 12.0786 8.4043 12.4718 8.4043 12.9523V20.3064C8.4043 20.787 8.79748 21.1802 9.27802 21.1802H17.2186C16.2995 21.1802 15.5475 20.4281 15.5475 19.5091Z" fill="#1E9EF4"/>
<path d="M34.1332 3.57959H5.17937C4.52077 3.57959 3.98193 4.11843 3.98193 4.77703V7.00483H35.3303V4.77694C35.3304 4.11843 34.7916 3.57959 34.1332 3.57959Z" fill="#F82C34"/>
<path d="M11.955 6.82631C11.8377 6.60257 11.9303 6.41542 12.0093 6.31199C12.06 6.24553 12.0903 6.16571 12.0903 6.08199V4.47774C12.0903 4.40573 12.0636 4.33754 12.0214 4.27924C11.8857 4.092 11.9155 3.90422 11.9723 3.77037C11.9984 3.70899 12.0064 3.64324 11.9984 3.57959H5.17937C4.52086 3.57959 3.98193 4.11843 3.98193 4.77703V7.00483H11.9928C11.9964 6.94302 11.9834 6.88138 11.955 6.82631Z" fill="#B80C13"/>
<path d="M7.86531 5.29252C7.86531 5.80765 7.4477 6.22517 6.93265 6.22517C6.41752 6.22517 6 5.80756 6 5.29252C6 4.77747 6.41761 4.35986 6.93265 4.35986C7.4477 4.35986 7.86531 4.77738 7.86531 5.29252Z" fill="#FF4155"/>
<path d="M10.4444 5.29252C10.4444 5.80765 10.0268 6.22517 9.51176 6.22517C8.99671 6.22517 8.5791 5.80756 8.5791 5.29252C8.5791 4.77747 8.99671 4.35986 9.51176 4.35986C10.0268 4.35986 10.4444 4.77738 10.4444 5.29252Z" fill="#FFDD40"/>
<path d="M13.023 5.29252C13.023 5.80765 12.6055 6.22517 12.0904 6.22517C11.5752 6.22517 11.1577 5.80756 11.1577 5.29252C11.1577 4.77747 11.5753 4.35986 12.0904 4.35986C12.6054 4.35986 13.023 4.77738 13.023 5.29252Z" fill="#38C674"/>
<path d="M25.4437 6.00329H16.0854C15.6925 6.00329 15.374 5.68484 15.374 5.29193C15.374 4.89902 15.6925 4.58057 16.0854 4.58057H25.4436C25.537 4.58055 25.6296 4.59895 25.7159 4.63469C25.8022 4.67044 25.8806 4.72283 25.9467 4.78889C26.0127 4.85495 26.0651 4.93338 26.1009 5.01969C26.1366 5.106 26.155 5.19851 26.155 5.29193C26.155 5.38534 26.1366 5.47784 26.1009 5.56415C26.0651 5.65046 26.0127 5.72888 25.9467 5.79494C25.8806 5.86099 25.8022 5.91339 25.7159 5.94914C25.6296 5.98489 25.5371 6.00329 25.4437 6.00329Z" fill="#3C58A0"/>
<path d="M22.4277 19.3933C22.3343 19.3933 22.2418 19.3749 22.1555 19.3392C22.0692 19.3034 21.9908 19.251 21.9247 19.185C21.8587 19.1189 21.8063 19.0405 21.7705 18.9542C21.7348 18.8679 21.7164 18.7754 21.7164 18.6819V14.5777C21.7164 14.1848 22.0348 13.8663 22.4277 13.8663C22.8207 13.8663 23.1391 14.1848 23.1391 14.5777V18.6819C23.1391 18.7754 23.1207 18.8679 23.085 18.9542C23.0492 19.0405 22.9968 19.1189 22.9308 19.185C22.8647 19.251 22.7863 19.3034 22.7 19.3392C22.6137 19.3749 22.5212 19.3933 22.4277 19.3933ZM27.1369 19.3933H24.3988C24.2707 19.3933 24.145 19.3587 24.0349 19.2931C23.9248 19.2276 23.8345 19.1335 23.7735 19.0208C23.7124 18.9082 23.6829 18.7812 23.6881 18.6532C23.6932 18.5251 23.7329 18.4009 23.8029 18.2936L25.7606 15.289H24.4831C24.0902 15.289 23.7717 14.9706 23.7717 14.5777C23.7717 14.1848 24.0902 13.8663 24.4831 13.8663H27.0732C27.6373 13.8663 27.977 14.4937 27.6692 14.966L25.7114 17.9706H27.1369C27.3255 17.9706 27.5065 18.0455 27.6399 18.1789C27.7733 18.3123 27.8482 18.4933 27.8482 18.6819C27.8482 18.8706 27.7733 19.0516 27.6399 19.185C27.5065 19.3184 27.3255 19.3933 27.1369 19.3933ZM18.9904 19.3933H18.9871C17.9359 19.3921 16.8763 18.5863 16.8763 17.4019V14.5777C16.8763 14.389 16.9513 14.2081 17.0847 14.0747C17.2181 13.9412 17.399 13.8663 17.5877 13.8663C17.7763 13.8663 17.9573 13.9412 18.0907 14.0747C18.2241 14.2081 18.299 14.389 18.299 14.5777V17.4019C18.299 17.5456 18.3228 17.6797 18.6145 17.8661C18.7243 17.9362 18.8467 17.9704 18.9889 17.9706H18.9903C19.3263 17.9706 19.7282 17.7478 19.7282 17.3989V14.5776C19.7282 14.3889 19.8032 14.208 19.9366 14.0746C20.07 13.9412 20.2509 13.8662 20.4396 13.8662C20.6282 13.8662 20.8092 13.9412 20.9426 14.0746C21.076 14.208 21.1509 14.3889 21.1509 14.5776V17.3989C21.1509 18.5918 20.0732 19.3933 18.9904 19.3933ZM15.4239 19.1684L14.1109 17.8554C13.9802 17.7215 13.9075 17.5414 13.9087 17.3543C13.9099 17.1671 13.9847 16.988 14.117 16.8556C14.2494 16.7233 14.4285 16.6484 14.6157 16.6472C14.8028 16.646 14.9829 16.7187 15.1169 16.8493L16.4299 18.1623C16.496 18.2283 16.5484 18.3067 16.5841 18.393C16.6199 18.4794 16.6383 18.5719 16.6383 18.6653C16.6383 18.7587 16.6199 18.8512 16.5841 18.9375C16.5484 19.0238 16.496 19.1022 16.4299 19.1683C16.3639 19.2344 16.2854 19.2868 16.1991 19.3225C16.1128 19.3583 16.0203 19.3767 15.9269 19.3767C15.8335 19.3767 15.741 19.3583 15.6547 19.3226C15.5684 19.2868 15.49 19.2344 15.4239 19.1684Z" fill="#E9EFFF"/>
<path d="M13.8587 19.3932C12.3349 19.3932 11.0952 18.1536 11.0952 16.6298C11.0952 15.1059 12.3349 13.8662 13.8587 13.8662C15.3825 13.8662 16.6222 15.1059 16.6222 16.6298C16.6221 18.1536 15.3825 19.3932 13.8587 19.3932ZM13.8587 15.2889C13.1193 15.2889 12.5179 15.8904 12.5179 16.6298C12.5179 17.3691 13.1193 17.9705 13.8587 17.9705C14.598 17.9705 15.1995 17.3691 15.1995 16.6298C15.1994 15.8904 14.598 15.2889 13.8587 15.2889Z" fill="#E9EFFF"/>
<path d="M45.4881 9.87653C45.4881 4.9861 41.5237 1.02162 36.6332 1.02162C31.7428 1.02162 27.7783 4.9861 27.7783 9.87653C27.7783 14.767 31.7428 18.7314 36.6332 18.7314C41.5237 18.7314 45.4881 14.767 45.4881 9.87653Z" fill="#FFDD40"/>
<path d="M27.7837 9.87368C27.7837 14.7641 31.7481 18.7286 36.6386 18.7286C38.9246 18.7286 41.0081 17.8622 42.5791 16.44C42.5389 16.3854 42.4833 16.344 42.4193 16.3212C41.9569 16.1582 41.8717 15.7565 41.8754 15.4683C41.8776 15.2979 41.7523 15.1498 41.5842 15.1215C40.9079 15.0075 40.7575 14.5409 40.7358 14.2242C40.7243 14.0548 40.5858 13.9221 40.4166 13.9074C38.6478 13.7541 38.3684 12.3839 38.3275 11.8411C38.3226 11.7743 38.2987 11.7104 38.2585 11.6569C38.2183 11.6034 38.1636 11.5626 38.1008 11.5394C37.6281 11.3641 36.5057 10.9434 35.8071 10.6449C35.0986 10.342 35.2333 8.79546 35.3242 8.1433C35.3468 7.98122 35.2497 7.83039 35.0959 7.77436C33.739 7.27966 34.0438 5.58397 34.2369 4.87942C34.2811 4.71806 34.2071 4.54535 34.0559 4.4737C33.5005 4.21046 33.5273 3.66599 33.6117 3.32221C33.6509 3.16257 33.5753 2.99985 33.4297 2.92367C33.0523 2.72626 33.0138 2.3111 33.0359 2.03469C33.0421 1.95509 33.02 1.87587 32.9734 1.81104C29.912 3.2048 27.7837 6.29061 27.7837 9.87368Z" fill="#FFB332"/>
<path d="M41.3166 14.5597C43.9031 11.9732 43.9031 7.77973 41.3166 5.19328C38.7302 2.60683 34.5367 2.60683 31.9503 5.19328C29.3638 7.77973 29.3638 11.9732 31.9503 14.5596C34.5367 17.1461 38.7302 17.1461 41.3166 14.5597Z" fill="#E9EFFF"/>
<path d="M41.0043 14.8516C40.8094 14.6616 40.7483 14.4158 40.7353 14.2244C40.7237 14.055 40.5853 13.9223 40.4161 13.9076C38.6473 13.7543 38.3679 12.3841 38.3269 11.8413C38.3221 11.7745 38.2981 11.7106 38.2579 11.6571C38.2178 11.6036 38.163 11.5628 38.1003 11.5396C37.6276 11.3643 36.5051 10.9436 35.8066 10.6451C35.098 10.3422 35.2328 8.79566 35.3237 8.1435C35.3463 7.98142 35.2492 7.83059 35.0954 7.77456C33.7385 7.27986 34.0432 5.58417 34.2364 4.87962C34.2806 4.71826 34.2066 4.54555 34.0554 4.4739C33.8023 4.35395 33.6709 4.17552 33.61 3.98438C31.4757 5.08402 30.0151 7.30774 30.0151 9.87397C30.0151 13.5318 32.9804 16.497 36.6381 16.497C38.3113 16.4969 39.8386 15.8751 41.0043 14.8516Z" fill="#D3DCFB"/>
<path d="M38.001 9.87351H43.2612C43.2612 6.21572 40.296 3.25049 36.6382 3.25049V8.51071C37.3683 8.56111 37.9506 9.14335 38.001 9.87351Z" fill="#FF4155"/>
<path d="M30.0551 25.7387L28.1223 23.8059C28.0588 23.7423 27.9834 23.6919 27.9003 23.6575C27.8173 23.6231 27.7283 23.6054 27.6384 23.6055H13.6689V28.8398H27.6383C27.7282 28.8398 27.8172 28.8221 27.9002 28.7877C27.9832 28.7534 28.0587 28.703 28.1222 28.6394L30.055 26.7066C30.1834 26.5783 30.2555 26.4042 30.2555 26.2227C30.2555 26.0411 30.1835 25.867 30.0551 25.7387ZM30.0551 33.3806L28.1223 31.4478C28.0588 31.3843 27.9833 31.3339 27.9003 31.2995C27.8173 31.2651 27.7283 31.2474 27.6384 31.2474H13.6689V36.4818H27.6383C27.7282 36.4818 27.8172 36.4641 27.9002 36.4297C27.9832 36.3953 28.0587 36.3449 28.1222 36.2814L30.055 34.3486C30.1834 34.2202 30.2555 34.0461 30.2555 33.8646C30.2555 33.6831 30.1835 33.509 30.0551 33.3806ZM30.0551 41.0224L28.1223 39.0897C28.0588 39.0261 27.9833 38.9757 27.9003 38.9413C27.8173 38.907 27.7283 38.8893 27.6384 38.8893H13.6689V44.1236H27.6383C27.7282 44.1236 27.8172 44.1059 27.9002 44.0715C27.9832 44.0371 28.0587 43.9867 28.1222 43.9232L30.055 41.9904C30.1834 41.8621 30.2555 41.688 30.2555 41.5065C30.2555 41.3249 30.1835 41.1508 30.0551 41.0224Z" fill="#D3DCFB"/>
<path d="M18.5947 26.2226C18.5947 24.7772 19.7665 23.6055 21.2119 23.6055H13.6689V28.8398H21.2119C19.7665 28.8398 18.5947 27.6681 18.5947 26.2226ZM18.5947 33.8646C18.5947 32.4192 19.7665 31.2474 21.2119 31.2474H13.6689V36.4817H21.2119C19.7665 36.4817 18.5947 35.31 18.5947 33.8646ZM18.5947 41.5064C18.5947 40.061 19.7665 38.8893 21.2119 38.8893H13.6689V44.1236H21.2119C19.7665 44.1236 18.5947 42.9519 18.5947 41.5064Z" fill="#BEC8F7"/>
<path d="M8.5791 39.5735V42.8169C9.17837 43.2839 9.8011 43.72 10.4449 44.1235H13.8588V38.8892H9.2635C9.17363 38.8891 9.08463 38.9068 9.0016 38.9412C8.91856 38.9756 8.84311 39.026 8.77956 39.0896C8.71601 39.1531 8.66559 39.2285 8.6312 39.3116C8.5968 39.3946 8.5791 39.4836 8.5791 39.5735Z" fill="#38C674"/>
<path d="M13.8588 31.2476H9.2635C9.082 31.2476 8.90794 31.3197 8.77959 31.448C8.65124 31.5763 8.57913 31.7504 8.5791 31.9319V35.7975C8.5791 35.8874 8.5968 35.9764 8.6312 36.0594C8.66559 36.1424 8.71601 36.2179 8.77956 36.2814C8.84311 36.345 8.91856 36.3954 9.0016 36.4298C9.08463 36.4641 9.17363 36.4818 9.2635 36.4818H13.8588V31.2476Z" fill="#FFDD40"/>
<path d="M13.8588 23.6055H9.2635C9.082 23.6055 8.90794 23.6776 8.77959 23.8059C8.65124 23.9342 8.57913 24.1083 8.5791 24.2898V28.1554C8.5791 28.2453 8.5968 28.3343 8.6312 28.4173C8.66559 28.5003 8.71601 28.5758 8.77956 28.6393C8.84311 28.7029 8.91856 28.7533 9.0016 28.7877C9.08463 28.822 9.17363 28.8397 9.2635 28.8397H13.8588V23.6055Z" fill="#FF4155"/>
<path d="M36.6382 17.3282C32.5277 17.3282 29.1836 13.9841 29.1836 9.87356C29.1836 5.76301 32.5277 2.41895 36.6382 2.41895C40.7487 2.41895 44.0927 5.76301 44.0927 9.87356C44.0927 13.9841 40.7487 17.3282 36.6382 17.3282ZM36.6382 4.08212C33.4449 4.08212 30.8468 6.68014 30.8468 9.87347C30.8468 13.0668 33.4448 15.6648 36.6382 15.6648C39.8316 15.6648 42.4296 13.0668 42.4296 9.87347C42.4296 6.68014 39.8315 4.08212 36.6382 4.08212Z" fill="#FFB332"/>
<path d="M41.7972 15.247C41.7438 15.1804 41.6679 15.1357 41.5838 15.1212C40.9075 15.0073 40.7571 14.5407 40.7354 14.224C40.7303 14.1548 40.7036 14.0889 40.659 14.0357C39.6165 15.0431 38.199 15.6649 36.6382 15.6649C33.4449 15.6649 30.8469 13.0668 30.8469 9.87352C30.8469 7.54837 32.2249 5.54014 34.2065 4.61928C34.1732 4.5557 34.1202 4.50456 34.0555 4.47345C33.5001 4.21021 33.5269 3.66574 33.6113 3.32196C33.6315 3.23945 33.6209 3.15242 33.5815 3.07715C30.9916 4.24662 29.1836 6.85208 29.1836 9.87361C29.1836 13.9842 32.5277 17.3282 36.6382 17.3282C38.6391 17.3281 40.4568 16.5343 41.7972 15.247Z" fill="#FF9100"/>
<path d="M36.6381 12.2777C35.3124 12.2777 34.2339 11.1992 34.2339 9.87347C34.2339 8.54773 35.3125 7.46924 36.6381 7.46924C37.9639 7.46924 39.0424 8.54773 39.0424 9.87347C39.0424 11.1992 37.9638 12.2777 36.6381 12.2777ZM36.6381 9.13251C36.2295 9.13251 35.8971 9.46494 35.8971 9.87347C35.8971 10.282 36.2295 10.6144 36.6381 10.6144C37.0467 10.6144 37.3791 10.282 37.3791 9.87347C37.3791 9.46494 37.0467 9.13251 36.6381 9.13251Z" fill="#3C58A0"/>
<path d="M36.6387 9.13247C36.4182 9.13247 36.2066 9.04485 36.0507 8.8889C35.8947 8.73295 35.8071 8.52143 35.8071 8.30088V5.83598C35.8071 5.37669 36.1794 5.00439 36.6387 5.00439C37.098 5.00439 37.4703 5.37669 37.4703 5.83598V8.30088C37.4703 8.76017 37.098 9.13247 36.6387 9.13247Z" fill="#3C58A0"/>
</svg>
