<svg width="45" height="41" viewBox="0 0 45 41" fill="none" xmlns="http://www.w3.org/2000/svg">
<path d="M2.53614 39.8906H42.7549M18.0862 16.2292V25.1962M12.5908 3.32812H16.2471V12.4688H12.5908V3.32812ZM21.7315 3.32812H25.3877V12.4688H21.7315V3.32812Z" stroke="#D02128" stroke-width="2" stroke-miterlimit="10" stroke-linecap="round" stroke-linejoin="round"/>
<path d="M18.1212 34.4175H27.174H18.1212Z" fill="#D02128"/>
<path d="M18.1212 34.4175H27.174" stroke="white" stroke-width="2" stroke-miterlimit="10" stroke-linecap="round" stroke-linejoin="round"/>
<path d="M10.7317 37.9783C12.6984 37.9783 14.2928 36.3839 14.2928 34.4171C14.2928 32.4504 12.6984 30.856 10.7317 30.856C8.76487 30.856 7.17047 32.4504 7.17047 34.4171C7.17047 36.3839 8.76487 37.9783 10.7317 37.9783Z" stroke="#D02128" stroke-width="2" stroke-linecap="round" stroke-linejoin="round"/>
<path d="M34.4753 37.9783C36.4421 37.9783 38.0365 36.3839 38.0365 34.4171C38.0365 32.4504 36.4421 30.856 34.4753 30.856C32.5085 30.856 30.9141 32.4504 30.9141 34.4171C30.9141 36.3839 32.5085 37.9783 34.4753 37.9783Z" stroke="#D02128" stroke-width="2" stroke-linecap="round" stroke-linejoin="round"/>
<path d="M41.7238 34.4172H43.3069C43.1515 25.2766 35.8409 25.3918 33.1462 25.1962M33.1462 25.1962C32.7111 25.1651 32.6033 24.8854 32.4954 24.4649C31.9232 22.2547 29.5539 16.1579 21.0331 16.2018C20.8155 16.2018 18.8631 16.2018 18.651 16.2073C8.47201 16.5071 7.09909 22.5088 6.92542 24.5655C6.89069 24.9676 6.58356 25.2547 6.19417 25.3643C1.69333 26.6276 1.87614 34.4172 1.87614 34.4172H3.15583M33.1462 25.1962H6.53603M21.7314 3.32813V1.5H16.247V3.32813H12.5908V12.4688H25.3877V3.32813H21.7314Z" stroke="#D02128" stroke-width="2" stroke-miterlimit="10" stroke-linecap="round" stroke-linejoin="round"/>
</svg>
