<svg width="206" height="225" viewBox="0 0 206 225" fill="none" xmlns="http://www.w3.org/2000/svg">
<path d="M128.263 8.13201C127.922 8.13201 127.495 8.04652 127.154 7.87554C126.385 7.36259 126.129 6.3367 126.641 5.4818L129.714 0.779808C130.226 0.0103918 131.25 -0.24608 132.104 0.266864C132.872 0.779808 133.128 1.8057 132.616 2.6606L129.543 7.36259C129.202 7.79005 128.775 8.04652 128.263 8.13201Z" fill="#292A2C"/>
<path d="M128.35 6.08114C128.263 5.99444 128.263 5.99444 128.35 6.08114V6.08114Z" fill="#8A1CD1"/>
<path d="M128.35 6.08114C128.263 5.99444 128.263 5.99444 128.35 6.08114V6.08114Z" fill="#8A1CD1"/>
<path d="M121.435 48.2271C121.264 48.4836 121.179 48.5691 121.179 48.5691C121.094 48.6546 121.008 48.7401 120.838 48.7401C120.752 48.7401 120.667 48.7401 120.582 48.6546L107.95 40.4475L105.048 38.5667L92.4157 30.3596C92.245 30.1886 92.1596 30.0176 92.3304 29.7611C92.3304 29.7611 92.4157 29.5902 92.5864 29.4192C94.5495 26.5125 108.547 7.10611 126.641 5.99473C127.068 5.99473 127.495 5.90924 128.007 5.90924H128.092C128.178 5.90924 128.178 5.90924 128.263 5.99473C128.263 5.99473 128.349 5.99473 128.349 6.08022C128.434 6.08022 128.434 6.16571 128.519 6.2512C128.69 6.67866 128.861 7.10611 129.031 7.53356C135.262 24.6317 123.227 45.3205 121.435 48.2271Z" fill="white"/>
<path d="M139.103 56.9472C138.506 57.8021 137.738 58.315 136.799 58.4005C135.604 58.486 134.665 57.8876 134.665 57.8876L120.582 48.7401C120.667 48.8256 120.753 48.8256 120.838 48.8256C120.923 48.8256 121.094 48.7401 121.179 48.6546C121.179 48.6546 121.265 48.4836 121.436 48.3126C123.228 45.4059 135.262 24.6317 129.032 7.61905C128.861 7.1916 128.69 6.76415 128.52 6.33669C128.52 6.2512 128.434 6.16571 128.349 6.16571C145.334 17.1085 150.113 39.9345 139.103 56.9472Z" fill="#FFAEA6"/>
<path d="M128.349 6.08021C128.263 5.99472 128.263 5.99472 128.349 6.08021C128.178 5.99472 128.178 5.99472 128.093 5.99472H128.007C127.581 5.99472 127.069 5.99472 126.642 6.08021C108.547 7.27708 94.5498 26.6835 92.5867 29.5047C92.416 29.7611 92.3307 29.8466 92.3307 29.8466C92.16 30.0176 92.2453 30.2741 92.416 30.4451L78.4185 21.2976C77.0528 20.3572 76.8821 19.2458 76.9675 18.3909C77.0528 17.536 77.4796 16.852 77.4796 16.852C83.7102 7.27708 93.6963 1.29273 105.048 0.26684C113.327 -0.502576 121.35 1.5492 128.349 6.08021Z" fill="#FFAEA6"/>
<path d="M108.035 40.533L86.9537 73.0194L84.0518 71.1386L105.133 38.6522L108.035 40.533Z" fill="#292A2C"/>
<path d="M128.263 8.13201C127.922 8.13201 127.495 8.04652 127.154 7.87554C126.385 7.36259 126.129 6.3367 126.641 5.4818L129.714 0.779808C130.226 0.0103918 131.25 -0.24608 132.104 0.266864C132.872 0.779808 133.128 1.8057 132.616 2.6606L129.543 7.36259C129.202 7.79005 128.775 8.04652 128.263 8.13201Z" fill="#292A2C"/>
<path d="M17.9048 52.1597C17.9048 52.1597 13.2105 47.2012 18.0756 42.4993C23.0259 37.7973 27.7202 42.6702 27.7202 42.6702L84.308 99.2651L74.4926 108.755L17.9048 52.1597Z" fill="#292A2C"/>
<path d="M92.7579 80.9701V122.006H31.3051C31.3051 122.006 24.4771 122.006 24.4771 115.166V80.9701H92.7579Z" fill="#862C17"/>
<path d="M92.7579 80.9701V92.5113C89.856 94.8196 86.4419 96.7859 83.2839 98.2392C74.3221 102.428 64.0799 104.907 55.2034 104.907C43.1689 104.907 31.4758 100.376 24.4771 93.9647V80.9701H92.7579Z" fill="#702313"/>
<path d="M58.6177 77.5505V60.4523C58.6177 60.4523 58.6177 53.6131 65.4458 53.6131H96.1721C96.1721 53.6131 103 53.6131 103 60.4523V77.5505H58.6177Z" fill="#FFAEA6"/>
<path d="M85.9298 65.5817C85.9298 76.0116 80.4674 85.1591 72.1883 90.2885C67.7501 93.0242 62.5437 94.6486 56.9105 94.6486C40.8645 94.6486 27.8911 81.654 27.8911 65.5817C27.8911 54.6389 33.8657 45.2349 42.7422 40.191C46.9244 37.7973 51.7894 36.5149 56.9105 36.5149C72.9565 36.5149 85.9298 49.5095 85.9298 65.5817Z" fill="white"/>
<path d="M85.9293 65.5817C85.9293 76.0116 80.4669 85.1591 72.1878 90.2885C91.7332 38.7376 42.7417 40.191 42.7417 40.191C46.9239 37.7973 51.7889 36.5149 56.91 36.5149C72.956 36.5149 85.9293 49.5095 85.9293 65.5817Z" fill="#67A7F9"/>
<path d="M72.1883 90.2886C67.7501 93.0243 62.5437 94.6486 56.9105 94.6486C40.8645 94.6486 27.8911 81.654 27.8911 65.5817C27.8911 54.6389 33.8657 45.235 42.7422 40.191C42.5715 40.9604 33.695 87.4674 72.1883 90.2886Z" fill="#FEB752"/>
<path d="M24.4771 80.9701C24.4771 87.8093 38.1332 98.0682 55.2034 98.0682C72.2737 98.0682 92.7579 87.8093 92.7579 80.9701C92.7579 74.1308 75.6877 70.7112 55.2034 70.7112C34.7192 70.7112 24.4771 77.5504 24.4771 80.9701Z" fill="#B26052"/>
<path d="M55.2036 92.5113C57.7962 92.5113 59.8979 90.4062 59.8979 87.8093C59.8979 85.2125 57.7962 83.1074 55.2036 83.1074C52.611 83.1074 50.5093 85.2125 50.5093 87.8093C50.5093 90.4062 52.611 92.5113 55.2036 92.5113Z" fill="#702313"/>
<path d="M99.5859 63.8719C94.1234 63.8719 88.917 67.6335 88.917 79.2603V122.091H109.828V64.4704L99.5859 63.8719Z" fill="#702313"/>
<path d="M134.921 121.151H109.828C109.828 121.151 109.828 87.7238 109.828 79.2603V77.5504C109.828 74.1308 106.414 63.8719 99.5859 63.8719C99.5859 63.8719 132.702 60.7943 139.103 66.6931C140.896 68.3175 142.859 72.763 144.481 78.4054C149.09 94.6486 150.455 121.151 134.921 121.151Z" fill="#862C17"/>
<path d="M137.994 112.858C137.14 113.969 136.372 114.311 134.921 114.311H116.656V90.4595C120.326 91.8274 124.764 92.9388 129.373 92.9388C133.214 92.9388 136.799 92.1693 140.042 90.6305C141.408 100.376 140.725 109.182 137.994 112.858Z" fill="#702313"/>
<path d="M144.481 78.3199C131.934 95.076 109.828 79.1748 109.828 79.1748V77.465C109.828 74.0453 106.414 63.7865 99.5859 63.7865C99.5859 63.7865 132.702 60.7088 139.103 66.6076C140.896 68.3175 142.859 72.6775 144.481 78.3199Z" fill="#B26052"/>
<path d="M129.373 83.6203C131.306 83.6203 132.872 82.051 132.872 80.1152C132.872 78.1793 131.306 76.61 129.373 76.61C127.44 76.61 125.874 78.1793 125.874 80.1152C125.874 82.051 127.44 83.6203 129.373 83.6203Z" fill="#702313"/>
<path d="M205.421 204.077C205.421 210.916 198.593 210.916 198.593 210.916H7.4067C0.578613 210.916 0.578613 204.077 0.578613 204.077C0.578613 204.077 0.578613 201.341 0.578613 197.237V166.461C0.578613 156.202 31.305 118.586 44.9612 118.586C44.9612 118.586 120.07 118.586 126.898 118.586C128.435 118.586 130.312 119.954 132.275 122.091C139.189 129.443 149.089 149.192 149.089 149.192C149.089 149.192 174.268 148.935 180.755 151.072C187.754 153.381 190.57 154.065 193.301 159.707C193.813 160.733 194.24 161.844 194.496 163.127C195.008 165.093 195.264 167.316 195.264 169.966V197.323H198.678C198.593 197.237 205.421 197.237 205.421 204.077Z" fill="#FFAEA6"/>
<path d="M195.179 180.139H0.578613V197.237H195.179V180.139Z" fill="#F46D72"/>
<path d="M44.9613 125.425H64.592V149.363H17.6489C26.7815 137.821 39.5842 125.425 44.9613 125.425Z" fill="#292A2C"/>
<path d="M116.656 149.363H70.3105V125.425H105.475C108.206 127.392 116.656 139.104 116.656 149.363Z" fill="#292A2C"/>
<path d="M17.6488 173.3V180.139C17.6488 180.139 17.6488 183.559 14.2348 183.559H0.578613V169.88H14.2348C14.2348 169.88 17.6488 169.88 17.6488 173.3Z" fill="white"/>
<path d="M195.179 169.88V180.139H179.816C176.402 180.139 176.402 176.72 176.402 176.72V163.041H194.411C194.923 165.007 195.179 167.23 195.179 169.88Z" fill="white"/>
<path d="M149.004 149.106L130.312 149.363C126.898 149.363 116.656 128.845 120.07 125.425C122.716 122.775 129.288 122.177 132.275 122.091C139.103 129.358 149.004 149.106 149.004 149.106Z" fill="#292A2C"/>
<path opacity="0.6" d="M205.421 204.077C205.421 210.916 198.593 210.916 198.593 210.916H7.4067C0.578613 210.916 0.578613 204.077 0.578613 204.077C0.578613 204.077 0.578613 201.341 0.578613 197.237H198.593C198.593 197.237 205.421 197.237 205.421 204.077Z" fill="#292A2C"/>
<path d="M149.089 224.594C161.345 224.594 171.281 214.643 171.281 202.367C171.281 190.091 161.345 180.139 149.089 180.139C136.833 180.139 126.898 190.091 126.898 202.367C126.898 214.643 136.833 224.594 149.089 224.594Z" fill="#292A2C"/>
<path d="M149.089 212.626C154.746 212.626 159.331 208.033 159.331 202.367C159.331 196.701 154.746 192.108 149.089 192.108C143.433 192.108 138.847 196.701 138.847 202.367C138.847 208.033 143.433 212.626 149.089 212.626Z" fill="white"/>
<path d="M36.3407 224.594C48.5966 224.594 58.532 214.643 58.532 202.367C58.532 190.091 48.5966 180.139 36.3407 180.139C24.0848 180.139 14.1494 190.091 14.1494 202.367C14.1494 214.643 24.0848 224.594 36.3407 224.594Z" fill="#292A2C"/>
<path d="M36.3408 212.626C41.9973 212.626 46.5829 208.033 46.5829 202.367C46.5829 196.701 41.9973 192.108 36.3408 192.108C30.6842 192.108 26.0986 196.701 26.0986 202.367C26.0986 208.033 30.6842 212.626 36.3408 212.626Z" fill="white"/>
<path d="M17.6488 176.72V180.139C17.6488 180.139 17.6488 183.559 14.2348 183.559H0.578613V176.72H17.6488Z" fill="#FEB752"/>
<path d="M195.179 171.59V180.139H179.816C176.402 180.139 176.402 176.72 176.402 176.72V171.59H195.179Z" fill="#FEB752"/>
<g opacity="0.2">
<path d="M70.3957 149.363H64.5918V197.237H70.3957V149.363Z" fill="white"/>
</g>
<path d="M111.535 164.665H95.4891C94.4648 164.665 93.6113 163.811 93.6113 162.785C93.6113 161.759 94.4648 160.904 95.4891 160.904H111.535C111.791 160.904 112.133 160.904 112.133 160.22C112.218 159.194 112.986 158.425 114.01 158.425C115.034 158.425 115.803 159.28 115.803 160.22C115.803 162.101 114.693 164.665 111.535 164.665Z" fill="#292A2C"/>
<path d="M70.3957 71.1386V210.916H64.5918V71.1386C64.5918 70.3692 64.9332 69.5998 65.4453 69.0869C65.9574 68.5739 66.7256 68.232 67.4937 68.232C68.2619 68.232 69.03 68.5739 69.5421 69.0869C70.0543 69.5998 70.3957 70.3692 70.3957 71.1386Z" fill="#B67C59"/>
<path d="M111.023 63.4445V210.916H105.219V63.4445C105.219 62.6751 105.561 61.9057 106.073 61.3927C106.585 60.8798 107.353 60.5378 108.121 60.5378C108.889 60.5378 109.657 60.8798 110.17 61.3927C110.682 61.9057 111.023 62.5896 111.023 63.4445Z" fill="#B67C59"/>
<path d="M112.9 142.267C109.913 142.267 107.438 144.746 107.438 147.738C107.438 150.731 109.913 153.21 112.9 153.21H124.764C127.752 153.21 130.227 150.731 130.227 147.738C130.227 144.746 127.752 142.267 124.764 142.267H112.9Z" fill="#F46D72"/>
</svg>
