<svg width="280" height="306" viewBox="0 0 280 306" fill="none" xmlns="http://www.w3.org/2000/svg">
<path d="M173.965 11.0795C173.499 11.0795 172.918 10.963 172.453 10.7301C171.406 10.0312 171.057 8.63348 171.755 7.4687L175.941 1.06245C176.639 0.0141584 178.035 -0.335273 179.197 0.36359C180.244 1.06245 180.593 2.46018 179.895 3.62495L175.709 10.0312C175.244 10.6136 174.662 10.963 173.965 11.0795Z" fill="#292A2C"/>
<path d="M174.082 8.28537C173.964 8.16724 173.964 8.16724 174.082 8.28537V8.28537Z" fill="#8A1CD1"/>
<path d="M174.082 8.28537C173.964 8.16724 173.964 8.16724 174.082 8.28537V8.28537Z" fill="#8A1CD1"/>
<path d="M164.662 65.707C164.429 66.0565 164.313 66.1729 164.313 66.1729C164.196 66.2894 164.08 66.4059 163.848 66.4059C163.731 66.4059 163.615 66.4059 163.499 66.2894L146.288 55.1076L142.334 52.5451L125.124 41.3633C124.891 41.1303 124.775 40.8974 125.008 40.5479C125.008 40.5479 125.124 40.315 125.356 40.082C128.031 36.1218 147.102 9.68146 171.755 8.16726C172.336 8.16726 172.918 8.05078 173.616 8.05078H173.732C173.848 8.05078 173.848 8.05078 173.964 8.16726C173.964 8.16726 174.081 8.16726 174.081 8.28374C174.197 8.28374 174.197 8.40021 174.313 8.51669C174.546 9.09908 174.778 9.68146 175.011 10.2638C183.5 33.5593 167.104 61.7468 164.662 65.707Z" fill="white"/>
<path d="M188.734 77.5879C187.92 78.7527 186.873 79.4515 185.594 79.568C183.966 79.6845 182.687 78.8691 182.687 78.8691L163.5 66.4061C163.616 66.5225 163.732 66.5225 163.848 66.5225C163.965 66.5225 164.197 66.4061 164.313 66.2896C164.313 66.2896 164.43 66.0566 164.662 65.8237C167.104 61.8635 183.501 33.5595 175.012 10.3805C174.779 9.79812 174.547 9.21573 174.314 8.63335C174.314 8.51687 174.198 8.40039 174.082 8.40039C197.223 23.3095 203.735 54.4089 188.734 77.5879Z" fill="#2B639E"/>
<path d="M174.081 8.28354C173.965 8.16706 173.965 8.16706 174.081 8.28354C173.849 8.16706 173.849 8.16706 173.733 8.16706H173.616C173.035 8.16706 172.337 8.16706 171.756 8.28354C147.103 9.91422 128.032 36.3546 125.357 40.1983C125.125 40.5477 125.008 40.6642 125.008 40.6642C124.776 40.8972 124.892 41.2466 125.125 41.4796L106.054 29.0165C104.193 27.7352 103.96 26.221 104.077 25.0563C104.193 23.8915 104.774 22.9597 104.774 22.9597C113.263 9.91422 126.869 1.76081 142.335 0.363081C153.615 -0.685214 164.546 2.11024 174.081 8.28354Z" fill="#2B639E"/>
<path d="M146.405 55.2241L117.682 99.4855L113.729 96.923L142.451 52.6616L146.405 55.2241Z" fill="#292A2C"/>
<path d="M173.965 11.0795C173.499 11.0795 172.918 10.963 172.453 10.7301C171.406 10.0312 171.057 8.63348 171.755 7.4687L175.941 1.06245C176.639 0.0141584 178.035 -0.335273 179.197 0.36359C180.244 1.06245 180.593 2.46018 179.895 3.62495L175.709 10.0312C175.244 10.6136 174.662 10.963 173.965 11.0795Z" fill="#292A2C"/>
<path d="M23.6064 71.0657C23.6064 71.0657 17.2107 64.31 23.839 57.9038C30.5837 51.4975 36.9794 58.1367 36.9794 58.1367L114.078 135.245L100.705 148.174L23.6064 71.0657Z" fill="#292A2C"/>
<path d="M125.59 110.318V166.227H41.8635C41.8635 166.227 32.5605 166.227 32.5605 156.909V110.318H125.59Z" fill="#862C17"/>
<path d="M125.59 110.318V126.043C121.636 129.188 116.985 131.867 112.682 133.847C100.472 139.554 86.5177 142.932 74.4239 142.932C58.0274 142.932 42.0961 136.759 32.5605 128.023V110.318H125.59Z" fill="#702313"/>
<path d="M79.0757 105.66V82.3641C79.0757 82.3641 79.0757 73.0459 88.3786 73.0459H130.242C130.242 73.0459 139.545 73.0459 139.545 82.3641V105.66H79.0757Z" fill="#FFAEA6"/>
<path d="M116.287 89.3528C116.287 103.563 108.845 116.026 97.5649 123.015C91.518 126.742 84.4245 128.955 76.7495 128.955C54.8875 128.955 37.2119 111.25 37.2119 89.3528C37.2119 74.4437 45.352 61.6312 57.4459 54.759C63.1439 51.4976 69.7723 49.7505 76.7495 49.7505C98.6115 49.7505 116.287 67.455 116.287 89.3528Z" fill="white"/>
<path d="M116.287 89.3528C116.287 103.563 108.844 116.026 97.5643 123.015C124.194 52.7789 57.4453 54.759 57.4453 54.759C63.1434 51.4976 69.7717 49.7505 76.749 49.7505C98.6109 49.7505 116.287 67.455 116.287 89.3528Z" fill="#67A7F9"/>
<path d="M97.5649 123.014C91.518 126.741 84.4245 128.954 76.7495 128.954C54.8875 128.954 37.2119 111.25 37.2119 89.3521C37.2119 74.443 45.352 61.6305 57.4459 54.7583C57.2133 55.8066 45.1194 119.17 97.5649 123.014Z" fill="#FEB752"/>
<path d="M32.5605 110.318C32.5605 119.636 51.1665 133.613 74.4239 133.613C97.6813 133.613 125.59 119.636 125.59 110.318C125.59 100.999 102.333 96.3403 74.4239 96.3403C46.515 96.3403 32.5605 105.659 32.5605 110.318Z" fill="#B26052"/>
<path d="M74.4241 126.042C77.9564 126.042 80.8199 123.174 80.8199 119.636C80.8199 116.098 77.9564 113.23 74.4241 113.23C70.8918 113.23 68.0283 116.098 68.0283 119.636C68.0283 123.174 70.8918 126.042 74.4241 126.042Z" fill="#702313"/>
<path d="M134.893 87.0229C127.45 87.0229 120.357 92.1479 120.357 107.989V166.344H148.847V87.8383L134.893 87.0229Z" fill="#702313"/>
<path d="M183.036 165.062H148.848C148.848 165.062 148.848 119.52 148.848 107.988V105.659C148.848 101 144.196 87.0226 134.893 87.0226C134.893 87.0226 180.012 82.8294 188.734 90.8663C191.176 93.0794 193.851 99.1362 196.06 106.824C202.34 128.954 204.2 165.062 183.036 165.062Z" fill="#862C17"/>
<path d="M187.222 153.764C186.059 155.278 185.012 155.744 183.035 155.744H158.15V123.247C163.15 125.111 169.197 126.625 175.477 126.625C180.71 126.625 185.594 125.577 190.013 123.48C191.873 136.758 190.943 148.756 187.222 153.764Z" fill="#702313"/>
<path d="M196.06 106.708C178.966 129.537 148.848 107.872 148.848 107.872V105.543C148.848 100.884 144.196 86.9064 134.893 86.9064C134.893 86.9064 180.012 82.7132 188.734 90.7501C191.176 93.0797 193.851 99.02 196.06 106.708Z" fill="#B26052"/>
<path d="M175.477 113.929C178.11 113.929 180.245 111.79 180.245 109.153C180.245 106.516 178.11 104.377 175.477 104.377C172.844 104.377 170.709 106.516 170.709 109.153C170.709 111.79 172.844 113.929 175.477 113.929Z" fill="#702313"/>
<path d="M279.089 278.045C279.089 287.363 269.786 287.363 269.786 287.363H9.30296C0 287.363 0 278.045 0 278.045C0 278.045 0 274.318 0 268.727V226.795C0 212.818 41.8633 161.568 60.4693 161.568C60.4693 161.568 162.802 161.568 172.105 161.568C174.198 161.568 176.756 163.432 179.431 166.343C188.85 176.36 202.339 203.267 202.339 203.267C202.339 203.267 236.644 202.917 245.482 205.829C255.018 208.974 258.855 209.906 262.576 217.593C263.274 218.991 263.855 220.505 264.204 222.253C264.902 224.932 265.251 227.96 265.251 231.571V268.843H269.902C269.786 268.727 279.089 268.727 279.089 278.045Z" fill="white"/>
<path d="M265.134 245.432H0V268.727H265.134V245.432Z" fill="white"/>
<path d="M60.4692 170.886H87.2152V203.5H23.2573C35.7 187.775 53.1431 170.886 60.4692 170.886Z" fill="#292A2C"/>
<path d="M158.151 203.5H95.0068V170.886H142.917C146.638 173.565 158.151 189.523 158.151 203.5Z" fill="#292A2C"/>
<path d="M23.2574 236.114V245.432C23.2574 245.432 23.2574 250.091 18.6059 250.091H0V231.455H18.6059C18.6059 231.455 23.2574 231.455 23.2574 236.114Z" fill="#292A2C"/>
<path d="M265.134 231.454V245.432H244.203C239.551 245.432 239.551 240.773 239.551 240.773V222.136H264.088C264.786 224.815 265.134 227.844 265.134 231.454Z" fill="#292A2C"/>
<path d="M202.223 203.151L176.756 203.5C172.104 203.5 158.15 175.546 162.801 170.887C166.406 167.276 175.36 166.461 179.43 166.344C188.733 176.245 202.223 203.151 202.223 203.151Z" fill="#292A2C"/>
<path opacity="0.6" d="M279.089 278.045C279.089 287.363 269.786 287.363 269.786 287.363H9.30296C0 287.363 0 278.045 0 278.045C0 278.045 0 274.318 0 268.727H269.786C269.786 268.727 279.089 268.727 279.089 278.045Z" fill="#999999"/>
<path d="M202.339 306C219.037 306 232.574 292.441 232.574 275.716C232.574 258.99 219.037 245.432 202.339 245.432C185.641 245.432 172.104 258.99 172.104 275.716C172.104 292.441 185.641 306 202.339 306Z" fill="#292A2C"/>
<path d="M202.339 289.693C210.046 289.693 216.294 283.435 216.294 275.716C216.294 267.996 210.046 261.738 202.339 261.738C194.632 261.738 188.385 267.996 188.385 275.716C188.385 283.435 194.632 289.693 202.339 289.693Z" fill="white"/>
<path d="M48.7244 306C65.4225 306 78.959 292.441 78.959 275.716C78.959 258.99 65.4225 245.432 48.7244 245.432C32.0263 245.432 18.4897 258.99 18.4897 275.716C18.4897 292.441 32.0263 306 48.7244 306Z" fill="#292A2C"/>
<path d="M48.7245 289.693C56.4313 289.693 62.6789 283.435 62.6789 275.716C62.6789 267.996 56.4313 261.738 48.7245 261.738C41.0176 261.738 34.77 267.996 34.77 275.716C34.77 283.435 41.0176 289.693 48.7245 289.693Z" fill="white"/>
<path d="M23.2574 240.773V245.432C23.2574 245.432 23.2574 250.091 18.6059 250.091H0V240.773H23.2574Z" fill="#FEB752"/>
<path d="M265.134 233.784V245.432H244.203C239.551 245.432 239.551 240.773 239.551 240.773V233.784H265.134Z" fill="#FEB752"/>
<g opacity="0.2">
<path d="M95.1228 203.5H87.2153V268.727H95.1228V203.5Z" fill="white"/>
</g>
<path d="M151.173 224.35H129.311C127.916 224.35 126.753 223.185 126.753 221.787C126.753 220.389 127.916 219.225 129.311 219.225H151.173C151.522 219.225 151.987 219.225 151.987 218.293C152.104 216.895 153.15 215.847 154.546 215.847C155.941 215.847 156.988 217.011 156.988 218.293C156.988 220.855 155.476 224.35 151.173 224.35Z" fill="#292A2C"/>
<path d="M95.1228 96.9231V287.363H87.2153V96.9231C87.2153 95.8748 87.6805 94.8265 88.3782 94.1277C89.0759 93.4288 90.1225 92.9629 91.1691 92.9629C92.2157 92.9629 93.2622 93.4288 93.96 94.1277C94.6577 94.8265 95.1228 95.8748 95.1228 96.9231Z" fill="#B67C59"/>
<path d="M150.476 86.4402V287.363H142.568V86.4402C142.568 85.3919 143.034 84.3436 143.731 83.6448C144.429 82.9459 145.476 82.48 146.522 82.48C147.569 82.48 148.615 82.9459 149.313 83.6448C150.011 84.3436 150.476 85.2754 150.476 86.4402Z" fill="#B67C59"/>
<path d="M153.034 193.833C148.964 193.833 145.591 197.21 145.591 201.287C145.591 205.364 148.964 208.742 153.034 208.742H169.198C173.268 208.742 176.64 205.364 176.64 201.287C176.64 197.21 173.268 193.833 169.198 193.833H153.034Z" fill="#F46D72"/>
</svg>
