<svg width="27" height="26" viewBox="0 0 27 26" fill="none" xmlns="http://www.w3.org/2000/svg">
<path d="M1.40674 24.625H26.1567M10.976 10.0641V15.5823M7.59424 2.125H9.84424V7.75H7.59424V2.125ZM13.2192 2.125H15.4692V7.75H13.2192V2.125Z" stroke="white" stroke-miterlimit="10" stroke-linecap="round" stroke-linejoin="round"/>
<path d="M10.9973 21.2567H16.5683H10.9973Z" fill="black"/>
<path d="M10.9973 21.2567H16.5683" stroke="white" stroke-miterlimit="10" stroke-linecap="round" stroke-linejoin="round"/>
<path d="M6.45005 23.4482C7.66038 23.4482 8.64155 22.4671 8.64155 21.2567C8.64155 20.0464 7.66038 19.0652 6.45005 19.0652C5.23971 19.0652 4.25854 20.0464 4.25854 21.2567C4.25854 22.4671 5.23971 23.4482 6.45005 23.4482Z" stroke="white" stroke-linecap="round" stroke-linejoin="round"/>
<path d="M21.0616 23.4482C22.2719 23.4482 23.2531 22.4671 23.2531 21.2567C23.2531 20.0464 22.2719 19.0652 21.0616 19.0652C19.8513 19.0652 18.8701 20.0464 18.8701 21.2567C18.8701 22.4671 19.8513 23.4482 21.0616 23.4482Z" stroke="white" stroke-linecap="round" stroke-linejoin="round"/>
<path d="M25.5223 21.2568H26.4965C26.4009 15.6318 21.902 15.7026 20.2438 15.5823M20.2438 15.5823C19.976 15.5631 19.9096 15.391 19.8433 15.1323C19.4911 13.7721 18.0331 10.0203 12.7895 10.0473C12.6556 10.0473 11.4541 10.0473 11.3236 10.0506C5.05963 10.2351 4.21476 13.9285 4.10789 15.1941C4.08651 15.4416 3.89751 15.6183 3.65789 15.6858C0.888135 16.4631 1.00064 21.2568 1.00064 21.2568H1.78814M20.2438 15.5823H3.86826M13.2193 2.125V1H9.84426V2.125H7.59426V7.75H15.4693V2.125H13.2193Z" stroke="white" stroke-miterlimit="10" stroke-linecap="round" stroke-linejoin="round"/>
</svg>
