<svg width="28" height="28" viewBox="0 0 28 28" fill="none" xmlns="http://www.w3.org/2000/svg">
<path d="M3.22656 26.6758C3.22656 27.1749 3.63253 27.5795 4.13332 27.5795H6.85159C7.35238 27.5795 7.75835 27.1749 7.75835 26.6758V25.772H3.22656V26.6758Z" fill="white"/>
<path d="M20.4453 26.6758C20.4453 27.1749 20.8513 27.5795 21.3521 27.5795H24.0713C24.5721 27.5795 24.9781 27.1749 24.9781 26.6758V25.772H20.4453V26.6758Z" fill="white"/>
<ellipse cx="19.6173" cy="19.5263" rx="0.367307" ry="0.366102" fill="white"/>
<ellipse cx="15.9396" cy="19.5263" rx="0.367307" ry="0.366102" fill="white"/>
<ellipse cx="12.2628" cy="19.5263" rx="0.367307" ry="0.366102" fill="white"/>
<path fill-rule="evenodd" clip-rule="evenodd" d="M25.8808 16.7393H2.3191C1.56847 16.7393 0.959961 17.3458 0.959961 18.0939V23.5136C0.959696 23.8731 1.10277 24.2179 1.35769 24.4722C1.61261 24.7264 1.95846 24.8693 2.3191 24.8693H25.8808C26.6314 24.8693 27.2399 24.2628 27.2399 23.5146V18.0939C27.2399 17.3458 26.6314 16.7393 25.8808 16.7393ZM5.03837 20.8043C4.28774 20.8043 3.67924 20.1978 3.67924 19.4496C3.67924 18.7014 4.28774 18.0949 5.03837 18.0949C5.789 18.0949 6.39751 18.7014 6.39751 19.4496C6.39751 20.1978 5.789 20.8043 5.03837 20.8043ZM8.66241 18.0949C7.91217 18.0955 7.30427 18.7018 7.30427 19.4496C7.30427 19.8094 7.44788 20.1544 7.70341 20.4086C7.95895 20.6627 8.30542 20.8051 8.66641 20.8043C9.41665 20.8026 10.0236 20.1954 10.0225 19.4476C10.0214 18.6998 9.41265 18.0944 8.66241 18.0949ZM10.4739 23.5146H9.56716C9.31677 23.5146 9.11378 23.3123 9.11378 23.0627C9.11378 22.8132 9.31677 22.6109 9.56716 22.6109H10.4739C10.6359 22.6109 10.7856 22.697 10.8666 22.8368C10.9475 22.9766 10.9475 23.1489 10.8666 23.2887C10.7856 23.4285 10.6359 23.5146 10.4739 23.5146ZM12.2884 23.5146H13.1952C13.3572 23.5146 13.5068 23.4285 13.5878 23.2887C13.6688 23.1489 13.6688 22.9766 13.5878 22.8368C13.5068 22.697 13.3572 22.6109 13.1952 22.6109H12.2884C12.038 22.6109 11.8351 22.8132 11.8351 23.0627C11.8351 23.3123 12.038 23.5146 12.2884 23.5146ZM12.2884 20.8043C11.7387 20.8043 11.2431 20.4742 11.0328 19.968C10.8224 19.4618 10.9387 18.8791 11.3274 18.4917C11.7161 18.1043 12.3007 17.9884 12.8086 18.198C13.3164 18.4077 13.6476 18.9017 13.6476 19.4496C13.6476 20.1978 13.0391 20.8043 12.2884 20.8043ZM15.0067 23.5146H15.9135C16.0754 23.5146 16.2251 23.4285 16.3061 23.2887C16.3871 23.1489 16.3871 22.9766 16.3061 22.8368C16.2251 22.697 16.0754 22.6109 15.9135 22.6109H15.0067C14.7563 22.6109 14.5533 22.8132 14.5533 23.0627C14.5533 23.3123 14.7563 23.5146 15.0067 23.5146ZM15.9135 20.8043C15.163 20.8037 14.555 20.197 14.5553 19.4489C14.5557 18.7009 15.1643 18.0947 15.9148 18.0949C16.6653 18.0951 17.2736 18.7016 17.2736 19.4496C17.2736 19.8091 17.1303 20.1538 16.8752 20.4079C16.6201 20.6619 16.2741 20.8045 15.9135 20.8043ZM17.726 23.5146H18.6327C18.8831 23.5146 19.0861 23.3123 19.0861 23.0627C19.0861 22.8132 18.8831 22.6109 18.6327 22.6109H17.726C17.4756 22.6109 17.2726 22.8132 17.2726 23.0627C17.2726 23.3123 17.4756 23.5146 17.726 23.5146ZM19.5395 20.8043C18.9898 20.8043 18.4942 20.4742 18.2838 19.968C18.0735 19.4618 18.1897 18.8791 18.5784 18.4917C18.9672 18.1043 19.5517 17.9884 20.0596 18.198C20.5675 18.4077 20.8986 18.9017 20.8986 19.4496C20.8986 20.1978 20.2901 20.8043 19.5395 20.8043ZM21.9089 19.968C22.1192 20.4742 22.6148 20.8043 23.1645 20.8043C23.9152 20.8043 24.5237 20.1978 24.5237 19.4496C24.5237 18.9017 24.1925 18.4077 23.6847 18.198C23.1768 17.9884 22.5922 18.1043 22.2035 18.4917C21.8148 18.8791 21.6985 19.4618 21.9089 19.968Z" fill="white"/>
<ellipse cx="23.2941" cy="19.5263" rx="0.367307" ry="0.366102" fill="white"/>
<ellipse cx="8.58606" cy="19.5263" rx="0.367307" ry="0.366102" fill="white"/>
<ellipse cx="4.90832" cy="19.5263" rx="0.367307" ry="0.366102" fill="white"/>
<path d="M20.4456 7.25462V11.7715C20.1952 11.7715 19.9922 11.9739 19.9922 12.2234V15.8366H22.7115V12.2224C22.7115 11.9729 22.5085 11.7705 22.2581 11.7705V7.25462C22.2418 6.76743 21.8409 6.38086 21.3518 6.38086C20.8628 6.38086 20.4618 6.76743 20.4456 7.25462Z" fill="white"/>
<path d="M15.4612 6.3506C15.7116 6.3506 15.9146 6.14828 15.9146 5.89871C15.9179 3.406 17.9444 1.38608 20.4454 1.38279C20.6958 1.38279 20.8987 1.18047 20.8987 0.930895C20.8987 0.681322 20.6958 0.479004 20.4454 0.479004C17.4437 0.482303 15.0111 2.90685 15.0078 5.89871C15.0078 6.14828 15.2108 6.3506 15.4612 6.3506Z" fill="white"/>
<path d="M20.8987 2.73754C20.8987 2.48796 20.6957 2.28564 20.4453 2.28564C18.4442 2.28784 16.8225 3.90421 16.8203 5.89878C16.8203 6.14835 17.0233 6.35067 17.2737 6.35067C17.5241 6.35067 17.7271 6.14835 17.7271 5.89878C17.7282 4.40235 18.945 3.18953 20.4463 3.18843C20.696 3.18788 20.8982 2.98633 20.8987 2.73754Z" fill="white"/>
<path d="M19.0862 6.35076C19.3366 6.35076 19.5396 6.14845 19.5396 5.89887C19.5396 5.39973 19.9455 4.99509 20.4463 4.99509C20.6967 4.99509 20.8997 4.79277 20.8997 4.5432C20.8997 4.29363 20.6967 4.09131 20.4463 4.09131C19.9653 4.09104 19.5038 4.2814 19.1637 4.62044C18.8235 4.95948 18.6325 5.4194 18.6328 5.89887C18.6328 6.01872 18.6806 6.13366 18.7656 6.21841C18.8506 6.30315 18.9659 6.35076 19.0862 6.35076Z" fill="white"/>
<path d="M22.2581 0.479004C22.0961 0.479004 21.9464 0.565134 21.8654 0.704949C21.7844 0.844765 21.7844 1.01703 21.8654 1.15684C21.9464 1.29666 22.0961 1.38279 22.2581 1.38279C24.759 1.38608 26.7855 3.406 26.7889 5.89871C26.7889 6.14828 26.9918 6.3506 27.2422 6.3506C27.4926 6.3506 27.6956 6.14828 27.6956 5.89871C27.6923 2.90685 25.2598 0.482303 22.2581 0.479004Z" fill="white"/>
<path d="M22.2581 3.18943C23.7594 3.19053 24.9762 4.40335 24.9773 5.89978C24.9773 6.14935 25.1803 6.35167 25.4307 6.35167C25.6811 6.35167 25.8841 6.14935 25.8841 5.89978C25.8824 3.90443 24.26 2.28729 22.2581 2.28564C22.0077 2.28564 21.8047 2.48796 21.8047 2.73754C21.8047 2.98711 22.0077 3.18943 22.2581 3.18943Z" fill="white"/>
<path d="M22.2581 4.99607C22.4986 4.99607 22.7292 5.09129 22.8992 5.26078C23.0693 5.43027 23.1648 5.66015 23.1648 5.89985C23.1648 6.14942 23.3678 6.35174 23.6182 6.35174C23.8686 6.35174 24.0716 6.14942 24.0716 5.89985C24.0718 5.42037 23.8809 4.96046 23.5407 4.62142C23.2006 4.28237 22.7391 4.09202 22.2581 4.09229C22.0077 4.09229 21.8047 4.2946 21.8047 4.54418C21.8047 4.79375 22.0077 4.99607 22.2581 4.99607Z" fill="white"/>
<path d="M5.94459 7.25461V11.7715C5.6942 11.7715 5.49121 11.9738 5.49121 12.2234V15.8365H8.21049V12.2224C8.21049 11.9728 8.0075 11.7705 7.75711 11.7705V7.25461C7.76811 6.92473 7.59782 6.61512 7.3129 6.44694C7.02797 6.27876 6.67372 6.27876 6.3888 6.44694C6.10388 6.61512 5.93359 6.92473 5.94459 7.25461Z" fill="white"/>
<path d="M1.41359 5.89871C1.4169 3.406 3.44347 1.38608 5.94438 1.38279C6.19478 1.38279 6.39776 1.18047 6.39776 0.930895C6.39776 0.681322 6.19478 0.479004 5.94438 0.479004C2.94268 0.482303 0.510145 2.90685 0.506836 5.89871C0.506836 6.14828 0.709821 6.3506 0.960215 6.3506C1.21061 6.3506 1.41359 6.14828 1.41359 5.89871Z" fill="white"/>
<path d="M6.39775 2.73754C6.39775 2.48796 6.19476 2.28564 5.94437 2.28564C3.94323 2.28784 2.32154 3.90421 2.31934 5.89878C2.31934 6.14835 2.52232 6.35067 2.77272 6.35067C3.02311 6.35067 3.22609 6.14835 3.22609 5.89878C3.22775 4.40313 4.44379 3.19108 5.94437 3.18943C6.19476 3.18943 6.39775 2.98711 6.39775 2.73754Z" fill="white"/>
<path d="M4.58522 6.35076C4.83561 6.35076 5.03859 6.14845 5.03859 5.89887C5.03859 5.39973 5.44456 4.99509 5.94535 4.99509C6.19575 4.99509 6.39873 4.79277 6.39873 4.5432C6.39873 4.29363 6.19575 4.09131 5.94535 4.09131C5.4643 4.09104 5.00287 4.2814 4.66271 4.62044C4.32255 4.95948 4.13157 5.4194 4.13184 5.89887C4.13184 6.14845 4.33482 6.35076 4.58522 6.35076Z" fill="white"/>
<path d="M7.75807 1.38279C10.259 1.38608 12.2855 3.406 12.2889 5.89871C12.2889 6.14828 12.4918 6.3506 12.7422 6.3506C12.9926 6.3506 13.1956 6.14828 13.1956 5.89871C13.1923 2.90685 10.7598 0.482303 7.75807 0.479004C7.50767 0.479004 7.30469 0.681322 7.30469 0.930895C7.30469 1.18047 7.50767 1.38279 7.75807 1.38279Z" fill="white"/>
<path d="M7.75807 3.18943C9.25942 3.19053 10.4762 4.40335 10.4773 5.89978C10.4773 6.14935 10.6803 6.35167 10.9307 6.35167C11.1811 6.35167 11.3841 6.14935 11.3841 5.89978C11.3824 3.90443 9.75998 2.28729 7.75807 2.28564C7.50767 2.28564 7.30469 2.48796 7.30469 2.73754C7.30469 2.98711 7.50767 3.18943 7.75807 3.18943Z" fill="white"/>
<path d="M7.75807 4.99607C7.99855 4.99607 8.22919 5.09129 8.39924 5.26078C8.56929 5.43027 8.66483 5.66015 8.66483 5.89985C8.66483 6.14942 8.86781 6.35174 9.1182 6.35174C9.3686 6.35174 9.57158 6.14942 9.57158 5.89985C9.57185 5.42037 9.38087 4.96046 9.04071 4.62142C8.70055 4.28237 8.23912 4.09202 7.75807 4.09229C7.50767 4.09229 7.30469 4.2946 7.30469 4.54418C7.30469 4.79375 7.50767 4.99607 7.75807 4.99607Z" fill="white"/>
</svg>
