<svg width="35" height="31" viewBox="0 0 35 31" fill="none" xmlns="http://www.w3.org/2000/svg">
<path fill-rule="evenodd" clip-rule="evenodd" d="M31.491 1.099L34.491 6.172C34.6899 6.5149 34.7964 6.90359 34.8 7.3V8.752C34.7997 10.2857 33.8067 11.6427 32.345 12.107V29.6C32.3357 30.0141 31.9962 30.3443 31.582 30.342H3.15901C2.75949 30.3316 2.44394 29.9995 2.45401 29.6V12.093C0.999376 11.6275 0.00910714 10.2793 7.36718e-06 8.752V7.362C-0.00116883 6.90563 0.138521 6.46003 0.400007 6.086L3.98001 0.953C4.39756 0.355823 5.08033 6.62203e-05 5.80901 0H29.577C30.3636 0.00518888 31.09 0.422257 31.491 1.099ZM13.979 28.85H20.82V18.738H13.979V28.85ZM30.858 28.85H22.307V18C22.2951 17.5829 21.9543 17.2505 21.537 17.249H13.22C13.0245 17.2511 12.8379 17.3308 12.7012 17.4705C12.5645 17.6102 12.4889 17.7985 12.491 17.994V17.999V28.85H3.94101V12.237C4.68616 12.143 5.38226 11.8149 5.92901 11.3C6.62055 12.7472 8.03607 13.7115 9.63598 13.8253C11.2359 13.9391 12.7736 13.1848 13.663 11.85C14.497 13.1 15.9037 13.847 17.4064 13.8377C18.9091 13.8284 20.3065 13.0642 21.125 11.804C22.0094 13.151 23.5485 13.92 25.1567 13.8185C26.7649 13.717 28.195 12.7605 28.903 11.313C29.4425 11.8159 30.1257 12.1376 30.857 12.233L30.858 28.85ZM31.5061 10.7781C32.5402 10.6674 33.3215 9.78998 33.312 8.75L33.31 7.297C33.3111 7.16432 33.2766 7.03377 33.21 6.919L30.217 1.848C30.0828 1.62213 29.8397 1.48348 29.577 1.483H5.80901C5.56635 1.48258 5.33886 1.60099 5.20001 1.8L1.61901 6.934C1.53213 7.05899 1.48602 7.20779 1.48701 7.36V8.75C1.48195 9.81233 2.30061 10.697 3.36015 10.7743C4.41968 10.8515 5.35797 10.0948 5.50701 9.043L5.53001 8.7C5.56467 8.30607 5.90146 8.00808 6.29668 8.02166C6.6919 8.03523 7.00745 8.35562 7.01501 8.751C7.01501 8.89944 7.00566 9.04774 6.98701 9.195L6.97401 9.395C7.00955 11.0158 8.3371 12.3093 9.95829 12.3028C11.5795 12.2962 12.8965 10.9921 12.919 9.371C12.9337 8.97098 13.2622 8.65427 13.6625 8.65427C14.0628 8.65427 14.3913 8.97098 14.406 9.371V9.401C14.3927 10.4755 14.9603 11.4736 15.8906 12.0115C16.8209 12.5494 17.9691 12.5434 18.8937 11.9958C19.8183 11.4483 20.3755 10.4443 20.351 9.37C20.351 8.95894 20.6839 8.62555 21.095 8.625H21.156C21.5671 8.62555 21.9 8.95894 21.9 9.37C21.95 10.9686 23.2562 12.2409 24.8555 12.249C26.4549 12.2571 27.7738 10.998 27.84 9.4C27.7999 9.18599 27.7799 8.96873 27.78 8.751C27.7865 8.3591 28.0958 8.03941 28.4873 8.02014C28.8788 8.00087 29.2181 8.28863 29.263 8.678L29.312 9.178C29.5227 10.1965 30.472 10.8887 31.5061 10.7781Z" fill="#D02128"/>
<path fill-rule="evenodd" clip-rule="evenodd" d="M5.65098 17.548H10.335C10.5323 17.548 10.7215 17.6264 10.8611 17.7659C11.0006 17.9054 11.079 18.0947 11.079 18.292V22.679C11.079 22.8763 11.0006 23.0656 10.8611 23.2051C10.7215 23.3446 10.5323 23.423 10.335 23.423H5.65098C5.45366 23.423 5.26442 23.3446 5.12489 23.2051C4.98537 23.0656 4.90698 22.8763 4.90698 22.679V18.292C4.90698 18.0947 4.98537 17.9054 5.12489 17.7659C5.26442 17.6264 5.45366 17.548 5.65098 17.548ZM6.39098 21.935H9.59098V19.035H6.39098V21.935Z" fill="#D02128"/>
<path fill-rule="evenodd" clip-rule="evenodd" d="M24.389 17.548H29.073C29.2703 17.548 29.4596 17.6264 29.5991 17.7659C29.7386 17.9054 29.817 18.0947 29.817 18.292V22.679C29.817 22.8763 29.7386 23.0656 29.5991 23.2051C29.4596 23.3446 29.2703 23.423 29.073 23.423H24.389C24.1917 23.423 24.0025 23.3446 23.8629 23.2051C23.7234 23.0656 23.645 22.8763 23.645 22.679V18.292C23.645 18.0947 23.7234 17.9054 23.8629 17.7659C24.0025 17.6264 24.1917 17.548 24.389 17.548ZM25.129 21.935H28.329V19.035H25.129V21.935Z" fill="#D02128"/>
</svg>
