<svg width="304" height="209" viewBox="0 0 304 209" fill="none" xmlns="http://www.w3.org/2000/svg">
<path d="M303.487 203.361H0.865601V208.946H303.487V203.361Z" fill="#E8E5E3"/>
<path d="M280.589 41.7371H21.4176V185.639H280.589V41.7371Z" fill="white"/>
<path opacity="0.5" d="M280.589 41.7371H21.4176V54.6938H280.589V41.7371Z" fill="#E8E5E3"/>
<path d="M280.589 145.912H21.4176V173.129H280.589V145.912Z" fill="#2B639E"/>
<path opacity="0.2" d="M146.964 66.7568H95.5839V169.219H146.964V66.7568Z" fill="#79CAD0"/>
<path d="M146.964 68.8418H95.5839V165.273H146.964V68.8418Z" fill="url(#paint0_linear_1004_9015)"/>
<mask id="mask0_1004_9015" style="mask-type:luminance" maskUnits="userSpaceOnUse" x="95" y="68" width="52" height="98">
<path d="M146.964 68.8418H95.5839V165.273H146.964V68.8418Z" fill="white"/>
</mask>
<g mask="url(#mask0_1004_9015)">
<path opacity="0.5" d="M146.555 76.5488L79.4999 154.215L87.4675 160.842L152.214 81.3145L146.555 76.5488Z" fill="url(#paint1_linear_1004_9015)"/>
<path opacity="0.5" d="M154.522 92.5959L87.4669 170.262L95.4718 176.889L160.181 97.3616L154.522 92.5959Z" fill="url(#paint2_linear_1004_9015)"/>
</g>
<path d="M146.964 70.2938V165.459C146.778 165.459 146.591 165.496 146.442 165.533V165.57H143.017V70.2566H146.442V70.2938C146.591 70.2566 146.778 70.2938 146.964 70.2938Z" fill="#CFD1D2"/>
<path opacity="0.2" d="M208.173 66.7568H156.793V169.219H208.173V66.7568Z" fill="#79CAD0"/>
<path d="M208.136 66.4219H155.676V165.31H208.136V66.4219Z" fill="url(#paint3_linear_1004_9015)"/>
<mask id="mask1_1004_9015" style="mask-type:luminance" maskUnits="userSpaceOnUse" x="155" y="66" width="54" height="100">
<path d="M208.136 66.4219H155.676V165.31H208.136V66.4219Z" fill="white"/>
</mask>
<g mask="url(#mask1_1004_9015)">
<path opacity="0.5" d="M208.807 65.6028L141.752 143.269L149.757 149.896L214.466 70.3685L208.807 65.6028Z" fill="url(#paint4_linear_1004_9015)"/>
<path opacity="0.5" d="M216.811 81.6497L149.756 159.316L157.724 165.943L222.471 86.4154L216.811 81.6497Z" fill="url(#paint5_linear_1004_9015)"/>
</g>
<path d="M208.136 70.2941V165.459C207.95 165.459 207.763 165.496 207.615 165.533V165.571H204.189V70.2568H207.615V70.2941C207.801 70.2568 207.987 70.2941 208.136 70.2941Z" fill="#CFD1D2"/>
<path d="M164.053 62.8103H155.08H93.8711V173.129H155.08H161.745H208.173V165.496V165.31V121.376V114.6V70.6662V69.1025V62.8103H164.053ZM164.053 70.6662H204.711V79.1924H158.506V70.6662H164.053ZM143.501 70.6662V79.1924H97.2964V70.6662H143.501ZM143.501 165.31H97.2964V156.56H143.501V165.31ZM97.2964 149.784V83.7719H143.501V149.784H97.2964ZM204.711 165.31H161.745H158.506V151.311H204.711V165.31ZM158.506 151.534V83.7719H204.711V151.534H158.506Z" fill="white"/>
<path opacity="0.2" d="M72.0158 86.5642H35.3051V159.8H72.0158V86.5642Z" fill="#79CAD0"/>
<path d="M70.601 88.0908H35.3051V157.007H70.601V88.0908Z" fill="url(#paint6_linear_1004_9015)"/>
<mask id="mask2_1004_9015" style="mask-type:luminance" maskUnits="userSpaceOnUse" x="35" y="88" width="36" height="70">
<path d="M70.601 88.0908H35.3051V157.007H70.601V88.0908Z" fill="white"/>
</mask>
<g mask="url(#mask2_1004_9015)">
<path opacity="0.5" d="M64.7929 84.5537L27.3375 131.205L35.3052 137.833L70.4522 89.3194L64.7929 84.5537Z" fill="url(#paint7_linear_1004_9015)"/>
<path opacity="0.5" d="M72.7607 100.601L35.3053 147.252L43.3102 153.88L78.4199 105.366L72.7607 100.601Z" fill="url(#paint8_linear_1004_9015)"/>
</g>
<path d="M72.016 89.1332V157.119C71.9043 157.119 71.7554 157.156 71.6437 157.156H69.1864V89.0215H71.6437C71.7554 89.0959 71.8671 89.0959 72.016 89.1332Z" fill="#CFD1D2"/>
<path d="M74.2125 83.772H34.0764V162.592H74.2125V83.772ZM69.5585 89.3568V95.4256H36.5337V89.3568H69.5585ZM69.5585 157.007H36.5337V150.752H69.5585V157.007ZM36.5337 145.912V98.7392H69.5585V145.912H36.5337Z" fill="white"/>
<path opacity="0.2" d="M263.203 86.5642H226.492V159.8H263.203V86.5642Z" fill="#79CAD0"/>
<path d="M263.165 88.0908H226.938V157.007H263.165V88.0908Z" fill="url(#paint9_linear_1004_9015)"/>
<mask id="mask3_1004_9015" style="mask-type:luminance" maskUnits="userSpaceOnUse" x="226" y="88" width="38" height="70">
<path d="M263.165 88.0908H226.938V157.007H263.165V88.0908Z" fill="white"/>
</mask>
<g mask="url(#mask3_1004_9015)">
<path opacity="0.5" d="M257.767 84.926L220.311 131.54L228.279 138.168L263.426 89.6545L257.767 84.926Z" fill="url(#paint10_linear_1004_9015)"/>
<path opacity="0.5" d="M265.734 100.973L228.279 147.587L236.283 154.215L271.393 105.739L265.734 100.973Z" fill="url(#paint11_linear_1004_9015)"/>
</g>
<path d="M263.201 89.1332V157.119C263.089 157.119 262.94 157.156 262.829 157.156H260.371V89.0215H262.829C262.94 89.0959 263.052 89.0959 263.201 89.1332Z" fill="#CFD1D2"/>
<path d="M265.399 83.772H225.263V162.592H265.399V83.772ZM260.745 89.3568V95.4256H227.72V89.3568H260.745ZM260.745 157.007H227.72V150.752H260.745V157.007ZM227.72 145.912V98.7392H260.745V145.912H227.72Z" fill="white"/>
<path d="M151.022 62.8103V173.129H208.173V62.8103H151.022ZM204.71 165.31H158.505V156.56H204.71V165.31ZM204.71 149.784H158.505V83.7719H204.71V149.784ZM204.71 79.1551H158.505V70.629H204.71V79.1551Z" fill="white"/>
<path d="M147.113 124.764H146.852C146.554 124.764 146.331 124.541 146.331 124.243V111.733C146.331 111.435 146.554 111.212 146.852 111.212H147.113C147.411 111.212 147.634 111.435 147.634 111.733V124.243C147.634 124.541 147.411 124.764 147.113 124.764Z" fill="#CACACA"/>
<path d="M154.894 124.764H155.155C155.453 124.764 155.676 124.541 155.676 124.243V111.733C155.676 111.435 155.453 111.212 155.155 111.212H154.894C154.596 111.212 154.373 111.435 154.373 111.733V124.243C154.373 124.541 154.634 124.764 154.894 124.764Z" fill="#CACACA"/>
<path d="M303.339 203.361H227.348V172.31H300.732C302.147 172.31 303.301 173.464 303.301 174.879V203.361H303.339Z" fill="white"/>
<path d="M250.916 175.66H234.757V181.431H250.916V175.66Z" fill="#E8E5E3"/>
<path d="M270.09 175.66H253.931V181.431H270.09V175.66Z" fill="#E8E5E3"/>
<path d="M289.265 175.66H273.106V181.431H289.265V175.66Z" fill="#E8E5E3"/>
<path d="M300.322 175.66H292.243V181.431H300.322V175.66Z" fill="#E8E5E3"/>
<path d="M250.916 194.463H234.757V200.234H250.916V194.463Z" stroke="black" stroke-width="1.1846" stroke-miterlimit="10"/>
<path d="M270.09 194.463H253.931V200.234H270.09V194.463Z" fill="#E8E5E3"/>
<path d="M289.264 194.463H273.105V200.234H289.264V194.463Z" fill="#E8E5E3"/>
<path d="M300.322 194.463H292.243V200.234H300.322V194.463Z" fill="#E8E5E3"/>
<path d="M284.164 185.043H300.36V190.814H284.164V185.043Z" fill="#E8E5E3"/>
<path d="M264.989 185.043H281.185V190.814H264.989V185.043Z" fill="#E8E5E3"/>
<path d="M245.852 185.043H262.011V190.814H245.852V185.043Z" fill="#E8E5E3"/>
<path d="M234.796 190.839H242.875V185.068H234.796V190.839Z" stroke="#E8E5E3" stroke-width="0.8377" stroke-miterlimit="10"/>
<path d="M0.865601 203.361H76.8561V172.31H3.43461C2.0198 172.31 0.865601 173.464 0.865601 174.879V203.361Z" fill="white"/>
<path d="M54.1817 181.394H68.4787C69 181.394 69.4095 180.985 69.4095 180.463V176.554C69.4095 176.033 69 175.623 68.4787 175.623H54.1817C53.6604 175.623 53.2509 176.033 53.2509 176.554V180.463C53.2509 180.985 53.6976 181.394 54.1817 181.394Z" fill="#E8E5E3"/>
<path d="M35.0444 181.394H49.3415C49.8628 181.394 50.2723 180.985 50.2723 180.463V176.554C50.2723 176.033 49.8628 175.623 49.3415 175.623H35.0444C34.5232 175.623 34.1136 176.033 34.1136 176.554V180.463C34.1136 180.985 34.5232 181.394 35.0444 181.394Z" fill="#E8E5E3"/>
<path d="M15.8695 181.394H30.1666C30.6879 181.394 31.0974 180.985 31.0974 180.463V176.554C31.0974 176.033 30.6879 175.623 30.1666 175.623H15.8695C15.3483 175.623 14.9387 176.033 14.9387 176.554V180.463C14.9387 180.985 15.3483 181.394 15.8695 181.394Z" fill="#E8E5E3"/>
<path d="M4.81215 181.394H11.0299C11.5511 181.394 11.9607 180.985 11.9607 180.463V176.554C11.9607 176.033 11.5511 175.623 11.0299 175.623H4.81215C4.2909 175.623 3.88135 176.033 3.88135 176.554V180.463C3.88135 180.985 4.2909 181.394 4.81215 181.394Z" fill="#E8E5E3"/>
<path d="M53.2921 200.238H69.4508V194.467H53.2921V200.238Z" fill="#E8E5E3" stroke="black" stroke-width="1.1846" stroke-miterlimit="10"/>
<path d="M35.0444 200.234H49.3415C49.8628 200.234 50.2723 199.824 50.2723 199.303V195.393C50.2723 194.872 49.8628 194.463 49.3415 194.463H35.0444C34.5232 194.463 34.1136 194.872 34.1136 195.393V199.303C34.1136 199.824 34.5232 200.234 35.0444 200.234Z" fill="#E8E5E3"/>
<path d="M15.8695 200.234H30.1666C30.6879 200.234 31.0974 199.824 31.0974 199.303V195.393C31.0974 194.872 30.6879 194.463 30.1666 194.463H15.8695C15.3483 194.463 14.9387 194.872 14.9387 195.393V199.303C14.9387 199.824 15.3483 200.234 15.8695 200.234Z" fill="#E8E5E3"/>
<path d="M4.81215 200.234H11.0299C11.5511 200.234 11.9607 199.824 11.9607 199.303V195.393C11.9607 194.872 11.5511 194.463 11.0299 194.463H4.81215C4.2909 194.463 3.88135 194.872 3.88135 195.393V199.303C3.88135 199.824 4.2909 200.234 4.81215 200.234Z" fill="#E8E5E3"/>
<path d="M19.1092 185.043H4.81215C4.2909 185.043 3.88135 185.453 3.88135 185.974V189.883C3.88135 190.404 4.2909 190.814 4.81215 190.814H19.1092C19.6305 190.814 20.04 190.404 20.04 189.883V185.974C20.04 185.49 19.6305 185.043 19.1092 185.043Z" fill="#E8E5E3"/>
<path d="M38.2832 185.043H23.9861C23.4648 185.043 23.0553 185.453 23.0553 185.974V189.883C23.0553 190.404 23.4648 190.814 23.9861 190.814H38.2832C38.8044 190.814 39.214 190.404 39.214 189.883V185.974C39.214 185.49 38.8044 185.043 38.2832 185.043Z" fill="#E8E5E3"/>
<path d="M57.4207 185.043H43.1237C42.6024 185.043 42.1929 185.453 42.1929 185.974V189.883C42.1929 190.404 42.6024 190.814 43.1237 190.814H57.4207C57.942 190.814 58.3515 190.404 58.3515 189.883V185.974C58.3515 185.49 57.942 185.043 57.4207 185.043Z" fill="#E8E5E3"/>
<path d="M69.4467 185.043H61.3673V190.814H69.4467V185.043Z" fill="#E8E5E3" stroke="#E8E5E3" stroke-width="0.8377" stroke-miterlimit="10"/>
<path d="M228.055 172.31H168.744H143.762H76.7814L39.0282 203.361H46.4746H138.475H163.457H255.458H262.904L228.055 172.31Z" fill="#E8E5E3"/>
<path d="M222.061 172.31H167.851H144.804H82.9248L47.9268 203.361H139.517H162.564H254.155L222.061 172.31Z" fill="white"/>
<path d="M224.592 182.362H79.2388V178.974C79.2388 177.894 80.0951 177.038 81.1748 177.038H222.656C223.736 177.038 224.592 177.894 224.592 178.974V182.362Z" fill="#E8E5E3"/>
<path d="M232.97 190.628H70.8243V187.686C70.8243 186.383 71.9041 185.303 73.2072 185.303H230.55C231.853 185.303 232.932 186.383 232.932 187.686V190.628H232.97Z" fill="#E8E5E3"/>
<path d="M240.267 198.93H63.5272V195.505C63.5272 194.463 64.3835 193.606 65.426 193.606H238.331C239.374 193.606 240.23 194.463 240.23 195.505V198.93H240.267Z" fill="#E8E5E3"/>
<path d="M231.517 14.7439V10.3877C231.517 4.654 226.863 0 221.13 0H80.8766C75.1429 0 70.4889 4.654 70.4889 10.3877V14.7439H7.04563C3.24797 14.7439 0.157715 17.8341 0.157715 21.6318V33.8811H303.487V21.669C303.487 17.8713 300.396 14.7811 296.599 14.7811H231.517V14.7439Z" fill="#2B639E"/>
<path d="M296.748 33.8811H6.86011V43.1146H296.748V33.8811Z" fill="white"/>
<path d="M230.773 43.189H216.737H6.86011V48.2897H216.737H230.773H296.748V43.189H230.773Z" fill="#2B639E"/>
<g filter="url(#filter0_d_1004_9015)">
<path d="M59.0967 81.1284H38.768C38.768 81.1284 36.683 94.5319 48.8579 95.3883C53.3257 95.7234 59.3573 93.7873 59.0967 81.1284Z" fill="url(#paint12_linear_1004_9015)"/>
<path d="M38.693 81.1284H59.0217L72.4996 43.189H56.2293L38.693 81.1284Z" fill="#2B639E"/>
<path d="M79.4992 81.1284H59.1705C59.1705 81.1284 57.0855 94.5319 69.2604 95.3883C73.7282 95.7234 79.7598 93.7873 79.4992 81.1284Z" fill="white"/>
<path d="M59.171 81.1284H79.4997L88.7704 43.189H72.5001L59.171 81.1284Z" fill="white"/>
<path d="M99.4185 81.1284H79.0898C79.0898 81.1284 77.0048 94.5319 89.1797 95.3883C93.6475 95.7234 99.6791 93.7873 99.4185 81.1284Z" fill="url(#paint13_linear_1004_9015)"/>
<path d="M79.202 81.1284H99.5307L105.786 43.189H88.3239L79.202 81.1284Z" fill="#2B639E"/>
<path d="M119.338 81.1284H99.0091C99.0091 81.1284 96.9241 94.5319 109.099 95.3883C113.567 95.7234 119.598 93.7873 119.338 81.1284Z" fill="white"/>
<path d="M99.0092 81.1284H119.338L123.21 43.189H105.748L99.0092 81.1284Z" fill="white"/>
<path d="M139.815 81.1284H119.487C119.487 81.1284 117.402 94.5319 129.577 95.3883C134.044 95.7234 140.076 93.7873 139.815 81.1284Z" fill="url(#paint14_linear_1004_9015)"/>
<path d="M119.487 81.1284H139.816L140.3 43.189H122.838L119.487 81.1284Z" fill="#2B639E"/>
<path d="M160.293 81.1284H139.964C139.964 81.1284 137.879 94.5319 150.054 95.3883C154.522 95.7234 160.553 93.7873 160.293 81.1284Z" fill="white"/>
<path d="M139.965 81.1284H160.293V43.189H140.3L139.965 81.1284Z" fill="white"/>
</g>
<g filter="url(#filter1_d_1004_9015)">
<path d="M241.905 81.1284H262.234C262.234 81.1284 264.319 94.5319 252.144 95.3883C247.676 95.7234 241.645 93.7873 241.905 81.1284Z" fill="url(#paint15_linear_1004_9015)"/>
<path d="M262.234 81.1284H241.905L228.427 43.189H244.698L262.234 81.1284Z" fill="#2B639E"/>
<path d="M221.428 81.1284H241.757C241.757 81.1284 243.842 94.5319 231.667 95.3883C227.199 95.7234 221.167 93.7873 221.428 81.1284Z" fill="white"/>
<path d="M241.757 81.1284H221.428L212.157 43.189H228.427L241.757 81.1284Z" fill="white"/>
<path d="M200.95 81.1284H221.279C221.279 81.1284 223.364 94.5319 211.189 95.3883C206.721 95.7234 200.69 93.7873 200.95 81.1284Z" fill="url(#paint16_linear_1004_9015)"/>
<path d="M221.279 81.1284H200.951L194.696 43.189H212.157L221.279 81.1284Z" fill="#2B639E"/>
<path d="M181.032 81.1284H201.36C201.36 81.1284 203.445 94.5319 191.27 95.3883C186.803 95.7234 180.771 93.7873 181.032 81.1284Z" fill="white"/>
<path d="M201.36 81.1284H181.031L177.159 43.189H194.621L201.36 81.1284Z" fill="white"/>
<path d="M160.554 81.1284H180.882C180.882 81.1284 182.967 94.5319 170.792 95.3883C166.325 95.7234 160.293 93.7873 160.554 81.1284Z" fill="url(#paint17_linear_1004_9015)"/>
<path d="M180.882 81.1284H160.554L160.032 43.189H177.531L180.882 81.1284Z" fill="#2B639E"/>
</g>
<defs>
<filter id="filter0_d_1004_9015" x="34.6323" y="43.189" width="129.669" height="60.2336" filterUnits="userSpaceOnUse" color-interpolation-filters="sRGB">
<feFlood flood-opacity="0" result="BackgroundImageFix"/>
<feColorMatrix in="SourceAlpha" type="matrix" values="0 0 0 0 0 0 0 0 0 0 0 0 0 0 0 0 0 0 127 0" result="hardAlpha"/>
<feOffset dy="4"/>
<feGaussianBlur stdDeviation="2"/>
<feComposite in2="hardAlpha" operator="out"/>
<feColorMatrix type="matrix" values="0 0 0 0 0 0 0 0 0 0 0 0 0 0 0 0 0 0 0.25 0"/>
<feBlend mode="normal" in2="BackgroundImageFix" result="effect1_dropShadow_1004_9015"/>
<feBlend mode="normal" in="SourceGraphic" in2="effect1_dropShadow_1004_9015" result="shape"/>
</filter>
<filter id="filter1_d_1004_9015" x="156.032" y="43.189" width="110.337" height="60.2336" filterUnits="userSpaceOnUse" color-interpolation-filters="sRGB">
<feFlood flood-opacity="0" result="BackgroundImageFix"/>
<feColorMatrix in="SourceAlpha" type="matrix" values="0 0 0 0 0 0 0 0 0 0 0 0 0 0 0 0 0 0 127 0" result="hardAlpha"/>
<feOffset dy="4"/>
<feGaussianBlur stdDeviation="2"/>
<feComposite in2="hardAlpha" operator="out"/>
<feColorMatrix type="matrix" values="0 0 0 0 0 0 0 0 0 0 0 0 0 0 0 0 0 0 0.25 0"/>
<feBlend mode="normal" in2="BackgroundImageFix" result="effect1_dropShadow_1004_9015"/>
<feBlend mode="normal" in="SourceGraphic" in2="effect1_dropShadow_1004_9015" result="shape"/>
</filter>
<linearGradient id="paint0_linear_1004_9015" x1="121.286" y1="174.149" x2="121.286" y2="130.785" gradientUnits="userSpaceOnUse">
<stop offset="0.00015432" stop-color="#B4BDD5"/>
<stop offset="1" stop-color="#5F73A5"/>
</linearGradient>
<linearGradient id="paint1_linear_1004_9015" x1="143.044" y1="84.8923" x2="94.7953" y2="143.732" gradientUnits="userSpaceOnUse">
<stop stop-color="white"/>
<stop offset="1" stop-color="#FCE073" stop-opacity="0"/>
</linearGradient>
<linearGradient id="paint2_linear_1004_9015" x1="151.025" y1="100.942" x2="102.776" y2="159.783" gradientUnits="userSpaceOnUse">
<stop stop-color="white"/>
<stop offset="1" stop-color="#FCE073" stop-opacity="0"/>
</linearGradient>
<linearGradient id="paint3_linear_1004_9015" x1="181.922" y1="174.372" x2="181.922" y2="129.913" gradientUnits="userSpaceOnUse">
<stop offset="0.00015432" stop-color="#B4BDD5"/>
<stop offset="1" stop-color="#5F73A5"/>
</linearGradient>
<linearGradient id="paint4_linear_1004_9015" x1="205.316" y1="73.9676" x2="157.067" y2="132.808" gradientUnits="userSpaceOnUse">
<stop stop-color="white"/>
<stop offset="1" stop-color="#FCE073" stop-opacity="0"/>
</linearGradient>
<linearGradient id="paint5_linear_1004_9015" x1="213.297" y1="90.0175" x2="165.048" y2="148.858" gradientUnits="userSpaceOnUse">
<stop stop-color="white"/>
<stop offset="1" stop-color="#FCE073" stop-opacity="0"/>
</linearGradient>
<linearGradient id="paint6_linear_1004_9015" x1="52.951" y1="163.323" x2="52.951" y2="132.335" gradientUnits="userSpaceOnUse">
<stop offset="0.00015432" stop-color="#B4BDD5"/>
<stop offset="1" stop-color="#5F73A5"/>
</linearGradient>
<linearGradient id="paint7_linear_1004_9015" x1="65.817" y1="91.9619" x2="37.6755" y2="126.281" gradientUnits="userSpaceOnUse">
<stop stop-color="white"/>
<stop offset="1" stop-color="#FCE073" stop-opacity="0"/>
</linearGradient>
<linearGradient id="paint8_linear_1004_9015" x1="73.7981" y1="108.012" x2="45.6566" y2="142.331" gradientUnits="userSpaceOnUse">
<stop stop-color="white"/>
<stop offset="1" stop-color="#FCE073" stop-opacity="0"/>
</linearGradient>
<linearGradient id="paint9_linear_1004_9015" x1="245.072" y1="163.323" x2="245.072" y2="132.335" gradientUnits="userSpaceOnUse">
<stop offset="0.00015432" stop-color="#B4BDD5"/>
<stop offset="1" stop-color="#5F73A5"/>
</linearGradient>
<linearGradient id="paint10_linear_1004_9015" x1="258.791" y1="92.3124" x2="230.649" y2="126.631" gradientUnits="userSpaceOnUse">
<stop stop-color="white"/>
<stop offset="1" stop-color="#FCE073" stop-opacity="0"/>
</linearGradient>
<linearGradient id="paint11_linear_1004_9015" x1="266.771" y1="108.362" x2="238.63" y2="142.681" gradientUnits="userSpaceOnUse">
<stop stop-color="white"/>
<stop offset="1" stop-color="#FCE073" stop-opacity="0"/>
</linearGradient>
<linearGradient id="paint12_linear_1004_9015" x1="48.8653" y1="81.955" x2="48.8653" y2="100.426" gradientUnits="userSpaceOnUse">
<stop offset="0.00067845" stop-color="#2B639E"/>
<stop offset="1" stop-color="#53A7FF"/>
</linearGradient>
<linearGradient id="paint13_linear_1004_9015" x1="89.1871" y1="81.955" x2="89.1871" y2="100.426" gradientUnits="userSpaceOnUse">
<stop offset="0.00067845" stop-color="#2B639E"/>
<stop offset="1" stop-color="#53A7FF"/>
</linearGradient>
<linearGradient id="paint14_linear_1004_9015" x1="129.584" y1="81.955" x2="129.584" y2="100.426" gradientUnits="userSpaceOnUse">
<stop offset="0.00067845" stop-color="#2B639E"/>
<stop offset="1" stop-color="#53A7FF"/>
</linearGradient>
<linearGradient id="paint15_linear_1004_9015" x1="252.13" y1="81.955" x2="252.13" y2="100.426" gradientUnits="userSpaceOnUse">
<stop offset="0.00067845" stop-color="#2B639E"/>
<stop offset="1" stop-color="#53A7FF"/>
</linearGradient>
<linearGradient id="paint16_linear_1004_9015" x1="211.175" y1="81.955" x2="211.175" y2="100.426" gradientUnits="userSpaceOnUse">
<stop offset="0.00067845" stop-color="#2B639E"/>
<stop offset="1" stop-color="#53A7FF"/>
</linearGradient>
<linearGradient id="paint17_linear_1004_9015" x1="170.778" y1="81.955" x2="170.778" y2="100.426" gradientUnits="userSpaceOnUse">
<stop offset="0.00067845" stop-color="#2B639E"/>
<stop offset="1" stop-color="#53A7FF"/>
</linearGradient>
</defs>
</svg>
