<svg width="366" height="240" viewBox="0 0 366 240" fill="none" xmlns="http://www.w3.org/2000/svg">
<path d="M200.379 230.969C134.571 220.09 82.4775 183.634 68.8866 135.026C66.5743 126.767 55.1709 85.9854 78.1857 54.2288C81.8537 49.1634 93.8394 33.1354 115.706 27.9619C149.218 20.0269 175.967 44.6802 178.413 47.0091C196.404 23.1293 223.02 10.0125 248.006 13.9633C283.988 19.6609 301.28 58.3377 305.68 79.0818C316.485 130.019 274.955 192.259 200.379 230.969Z" fill="white"/>
<path d="M56.2019 40.7793C56.676 40.2553 60.6768 35.7222 59.4042 31.8296C59.2129 31.2557 58.797 29.9748 57.5577 29.3343C57.4246 29.2678 55.7611 28.4443 54.3388 29.4341C53.1909 30.2409 53.0994 31.6133 53.0911 31.7963C52.9414 31.6549 51.4692 30.2243 49.789 30.6235C48.1338 31.0228 47.3021 32.9608 47.2771 34.1751C47.2272 36.7702 50.7705 39.5067 56.2019 40.7793Z" fill="#E589AC"/>
<path d="M357.773 20.1848C357.532 19.9187 355.486 17.6064 356.135 15.6102C356.234 15.3107 356.442 14.662 357.083 14.3376C357.149 14.3043 358.006 13.8801 358.73 14.3875C359.32 14.8034 359.362 15.502 359.362 15.5935C359.437 15.5187 360.193 14.7867 361.05 14.9947C361.899 15.1943 362.323 16.1841 362.331 16.8079C362.356 18.1387 360.551 19.5361 357.773 20.1848Z" fill="#E589AC"/>
<path d="M360.934 73.6753C360.693 73.4091 358.647 71.0969 359.295 69.1006C359.395 68.8012 359.603 68.1524 360.244 67.828C360.31 67.7948 361.167 67.3706 361.89 67.8779C362.481 68.2938 362.523 68.9925 362.523 69.084C362.597 69.0091 363.354 68.2772 364.211 68.4851C365.059 68.6848 365.484 69.6746 365.492 70.2984C365.517 71.6292 363.712 73.0265 360.934 73.6753Z" fill="#E589AC"/>
<path d="M196.121 102.105C195.006 101.423 185.607 95.509 185.84 87.9733C185.873 86.8587 185.948 84.3884 187.811 82.6167C188.011 82.4254 190.523 80.1131 193.542 81.1279C195.988 81.9596 196.853 84.3302 196.961 84.6462C197.144 84.3135 198.999 81.0281 202.176 80.87C205.303 80.712 207.774 83.698 208.447 85.8273C209.87 90.3854 205.037 97.0478 196.121 102.105Z" fill="#BD1E2D"/>
<path d="M181.814 71.8122C181.007 71.7956 174.129 71.5627 171.9 67.4538C171.567 66.8466 170.843 65.4992 171.284 63.9687C171.334 63.8024 171.958 61.7812 173.888 61.382C175.451 61.0659 176.657 62.064 176.815 62.2054C176.807 61.9725 176.782 59.627 178.429 58.554C180.059 57.4893 182.305 58.3211 183.336 59.2527C185.524 61.2406 185.017 66.3226 181.814 71.8122Z" fill="#BD1E2D"/>
<path d="M196.104 71.8121C195.763 71.5709 192.877 69.4832 193.11 67.0794C193.143 66.7218 193.218 65.9316 193.85 65.4076C193.917 65.3494 194.773 64.659 195.713 65.0499C196.478 65.366 196.703 66.1478 196.736 66.2477C196.803 66.1478 197.46 65.1331 198.483 65.1497C199.489 65.1664 200.213 66.1728 200.379 66.8632C200.737 68.352 199.057 70.3815 196.104 71.8121Z" fill="#BD1E2D"/>
<path d="M188.028 54.6697C187.77 54.4867 185.591 52.9146 185.765 51.1014C185.79 50.8352 185.849 50.2364 186.323 49.8371C186.373 49.7955 187.013 49.2715 187.728 49.571C188.302 49.8122 188.477 50.3944 188.502 50.4776C188.552 50.4027 189.051 49.6375 189.816 49.6458C190.573 49.6541 191.122 50.4194 191.247 50.9434C191.529 52.0579 190.257 53.5884 188.028 54.6697Z" fill="#BD1E2D"/>
<path d="M64.2119 6.04494C64.4531 5.77878 66.4992 3.46649 65.8504 1.47026C65.7506 1.17083 65.5427 0.522059 64.9022 0.197673C64.8357 0.164402 63.979 -0.259795 63.2553 0.247578C62.6648 0.663458 62.6232 1.36214 62.6232 1.45363C62.5483 1.37877 61.7914 0.646823 60.9347 0.854762C60.0863 1.05438 59.6621 2.04418 59.6538 2.668C59.6289 3.99049 61.4421 5.39617 64.2119 6.04494Z" fill="#E589AC"/>
<path d="M4.55829 26.5728C4.7995 26.3066 6.84563 23.9943 6.19686 21.9981C6.09705 21.6987 5.88911 21.0499 5.24865 20.7255C5.18211 20.6922 4.3254 20.268 3.60177 20.7754C3.01122 21.1913 2.96963 21.89 2.96963 21.9815C2.89478 21.9066 2.13788 21.1747 1.28116 21.3826C0.432769 21.5905 0.00857191 22.5803 0.00025432 23.1958C-0.0246985 24.5266 1.78854 25.924 4.55829 26.5728Z" fill="#E589AC"/>
<path d="M115.49 110.239C115.49 110.239 103.654 131.665 103.654 136.548C103.654 141.43 110.117 160.527 110.117 160.527L115.49 110.239Z" fill="#DB1928"/>
<path d="M184.867 183.501C184.709 191.918 176.45 227.359 176.45 227.359C175.976 227.742 174.32 228.973 171.867 228.981C169.38 228.99 167.7 227.742 167.226 227.359C167.259 224.806 167.325 221.005 167.409 216.372C167.508 210.633 167.633 204.386 167.708 202.39C167.866 198.389 164.63 188.35 168.839 183.334C168.673 183.393 151.738 189.689 140.443 192.193C137.632 192.816 135.161 193.207 133.398 193.207C128.457 193.207 126.553 186.769 125.846 181.047C125.721 180.024 125.629 179.026 125.571 178.094C125.355 174.825 125.471 172.33 125.471 172.33L125.679 172.147L132.591 166.017L136.01 170.043L136.717 170.875C136.717 170.875 137.931 170.65 139.952 170.326C147.812 169.053 167.816 166.225 175.161 168.928C184.385 172.33 185.034 175.083 184.867 183.501Z" fill="#313131"/>
<path d="M145.866 231.892C140.851 241.441 95.2036 226.228 95.2036 226.228L96.1768 216.513C96.1768 216.513 109.127 216.189 115.44 215.058C121.712 213.935 130.187 218.551 130.304 218.618L107.996 187.493L107.023 186.137C106.807 185.838 106.624 185.539 106.457 185.239C104.553 181.729 105.725 177.994 105.725 177.994L125.679 172.147L133.889 169.743C133.889 169.743 134.155 170.567 134.612 172.031C135.003 173.278 135.527 174.992 136.151 177.055C137.357 181.072 138.913 186.412 140.451 192.201C144.585 207.738 148.669 226.553 145.866 231.892Z" fill="#313131"/>
<path d="M141.758 74.9894C141.683 75.1807 141.591 75.3637 141.5 75.5301C141.5 75.5301 141.5 75.5384 141.491 75.5384C141.209 76.0541 140.884 76.4284 140.726 76.5947C140.718 76.603 140.71 76.6197 140.693 76.628C140.685 76.6446 140.668 76.6529 140.66 76.6696C140.651 76.6779 140.643 76.6862 140.635 76.6945C140.635 76.6945 140.635 76.7028 140.626 76.7028C140.618 76.7112 140.618 76.7112 140.61 76.7195C140.585 76.7444 140.56 76.7694 140.535 76.7943C140.51 76.8193 140.493 76.8359 140.468 76.8526C140.443 76.8775 140.418 76.8941 140.393 76.9191C140.368 76.9357 140.344 76.9607 140.319 76.9773C140.294 77.0023 140.269 77.0189 140.244 77.0355C140.219 77.0605 140.186 77.0771 140.161 77.1021C140.136 77.1187 140.111 77.1353 140.086 77.152C140.003 77.2102 139.919 77.2601 139.836 77.31C139.803 77.335 139.761 77.3516 139.728 77.3766C139.678 77.4015 139.628 77.4348 139.578 77.4597C139.029 77.7508 138.406 77.9588 137.699 78.1501C136.551 78.4745 135.336 79.1399 134.197 79.9883C134.13 80.0382 134.072 80.0798 134.006 80.1297C133.947 80.1796 133.881 80.2212 133.823 80.2711C132.018 81.71 130.886 83.2987 130.171 84.4049C128.499 87.0083 127.485 90.011 126.877 92.5312C126.345 94.7271 126.12 96.5569 126.021 97.4053C125.796 97.3055 125.447 97.1475 125.014 96.9229C122.943 95.8583 118.901 93.363 116.747 88.8964C116.455 88.2892 116.189 87.6405 115.981 86.9501C115.524 85.4862 114.509 82.2257 115.948 78.8737C116.913 76.6363 118.551 75.3304 119.599 74.507C122.153 72.4858 124.84 71.7372 126.553 71.4295C126.852 70.7058 127.576 69.2336 129.14 68.011C131.103 66.4805 133.174 66.2892 133.931 66.2559C134.821 66.206 136.967 66.2143 138.905 67.6283C141.666 69.6246 142.431 73.3009 141.758 74.9894Z" fill="#302E32"/>
<g style="mix-blend-mode:multiply">
<path d="M141.758 74.9895C141.674 75.1808 141.591 75.3638 141.5 75.5301C141.5 75.5301 141.5 75.5385 141.491 75.5385C141.267 75.9543 141.017 76.3037 140.726 76.5948C140.718 76.6031 140.71 76.6198 140.693 76.6281C140.685 76.6447 140.668 76.653 140.66 76.6697C140.651 76.678 140.643 76.6863 140.635 76.6946C140.635 76.6946 140.635 76.7029 140.626 76.7029C140.618 76.7112 140.618 76.7112 140.61 76.7196C140.585 76.7445 140.56 76.7695 140.535 76.7944C140.51 76.8194 140.493 76.836 140.468 76.8526C140.443 76.8776 140.418 76.8942 140.393 76.9192C140.369 76.9358 140.344 76.9608 140.319 76.9774C140.294 77.0024 140.269 77.019 140.244 77.0356C140.219 77.0606 140.186 77.0772 140.161 77.1022C140.136 77.1188 140.111 77.1354 140.086 77.1521C140.003 77.2103 139.919 77.2602 139.836 77.3101C139.803 77.3351 139.761 77.3517 139.728 77.3767C139.678 77.4016 139.628 77.4349 139.578 77.4598C139.445 78.4413 138.206 79.4061 137.316 79.8137C137.033 79.9468 135.977 80.3959 134.696 80.1298C134.505 80.0882 134.338 80.0383 134.197 79.9884C134.13 80.0383 134.072 80.0799 134.006 80.1298C133.947 80.1797 133.881 80.2213 133.823 80.2712C132.3 81.4772 130.961 82.991 130.171 84.405C128.774 86.9252 127.884 89.7699 126.877 92.5313C126.328 94.0451 125.738 95.5256 125.014 96.923C122.943 95.8583 118.901 93.3631 116.747 88.8965C116.946 88.647 117.154 88.5139 117.362 88.5056C117.836 88.489 118.327 89.1211 118.826 90.3854C118.801 89.329 118.768 88.2727 118.734 87.2164C119.624 87.3993 120.514 87.5907 121.404 87.7736C121.147 87.075 120.897 86.3846 120.639 85.6859C121.421 85.4114 122.203 85.137 122.985 84.8625C123.259 83.332 123.7 82.8579 124.099 82.7498C124.557 82.6334 125.081 82.9162 125.663 82.5918C125.779 82.5252 125.888 82.4254 125.987 82.2757C126.37 81.7018 126.428 80.8285 126.645 80.1714C126.927 79.2814 127.36 78.6659 128.208 78.2417C129.373 77.6595 130.362 77.5097 131.652 77.5097C131.843 77.5097 132.384 77.4266 132.517 77.5596C132.683 77.726 132.558 78.2583 132.583 78.4829C133.141 78.2916 133.706 78.0421 134.288 77.884C134.787 77.7426 135.295 77.6345 135.786 77.4765C136.21 77.3351 136.609 77.0689 137.033 76.9608C137.2 77.2103 137.133 77.5763 137.158 77.8591C137.624 77.7177 138.04 77.3184 138.439 77.0356C138.705 76.8526 138.98 76.6613 139.246 76.47C139.445 76.3203 139.637 76.1706 139.811 76.0126C140.527 75.3472 141.25 74.374 141.516 73.4258C141.799 72.3778 141.458 70.9388 140.951 70.0073C140.468 69.1006 139.728 68.2855 138.896 67.6201C141.666 69.6247 142.431 73.301 141.758 74.9895Z" fill="#D0D2D3"/>
</g>
<path d="M135.885 108.884C135.885 108.884 121.429 104.084 123.8 102.304C126.17 100.524 126.553 89.3539 126.553 89.2625L134.879 93.0137L135.511 93.2965C134.712 94.594 134.521 96.9313 134.612 99.4016C134.779 103.91 135.885 108.884 135.885 108.884Z" fill="#F7AD8D"/>
<g style="mix-blend-mode:multiply">
<path d="M134.613 99.3932C134.538 99.3516 130.753 97.1641 129.713 96.2076C128.665 95.2344 126.877 90.7512 126.877 90.7512L134.879 93.0053L135.511 93.2881C134.704 94.5939 134.513 96.9229 134.613 99.3932Z" fill="#E5E6E7"/>
</g>
<path d="M137.931 76.3535L139.12 80.8866V82.6666C139.12 82.6666 143.254 86.293 143.254 86.5093C143.254 86.7255 140.9 88.1645 140.9 88.1645C140.9 88.1645 142.572 92.2651 141.707 93.5626C140.842 94.8602 134.804 95.667 132.533 95.2927C130.271 94.9184 129.239 95.7751 127.193 90.4352C127.193 90.4352 122.826 88.3309 123.575 85.5278C124.332 82.7248 126.162 84.9373 126.378 85.3116C126.594 85.6858 127.617 77.6511 127.617 77.6511L137.931 76.3535Z" fill="#F7AD8D"/>
<path d="M124.39 99.9339L136.368 106.896L136.717 112.261L121.529 103.602C121.529 103.602 123.159 99.2186 124.39 99.9339Z" fill="#BD1E2D"/>
<path d="M141.059 135.591L140.976 136.174L140.926 136.548L136.21 169.693C136.143 169.81 136.085 169.935 136.018 170.051C135.619 170.758 135.137 171.423 134.613 172.031C131.868 175.241 127.767 177.213 125.571 178.094C124.648 178.468 124.066 178.643 124.066 178.643C110.25 180.997 107.115 183.817 106.449 185.239C106.2 185.771 106.3 186.104 106.308 186.137C101.933 178.593 107.015 170.392 109.019 167.597C109.435 167.015 109.726 166.666 109.76 166.608C109.976 166.283 111.107 134.294 111.54 128.305C111.972 122.316 114.077 113.741 115.474 110.231C116.88 106.721 120.922 104.35 120.922 104.35L121.512 103.594L125.821 106.047L135.86 111.77L136.018 112.502L141.059 135.591Z" fill="#EC1C24"/>
<g style="mix-blend-mode:plus-darker">
<path d="M141.059 135.591L140.926 136.548C137.332 135.051 133.465 133.071 129.597 130.526C118.268 123.082 117.462 113.209 122.485 107.869C124.407 105.823 129.93 108.451 136.043 112.518L141.059 135.591Z" fill="#E5E6E7"/>
</g>
<path d="M158.65 128.954C158.168 128.147 128.557 101.597 123.533 106.946C118.51 112.286 119.316 122.159 130.645 129.603C141.974 137.047 153.302 139.634 157.677 139.634C162.044 139.634 189.076 117.95 189.076 117.95L184.709 112.261L158.65 128.954Z" fill="#EC1C24"/>
<path d="M185.841 113.175C186.365 112.635 188.12 110.846 189.808 109.773C190.066 109.607 190.673 109.241 191.48 109.233C191.937 109.233 192.686 109.341 192.786 109.699C192.844 109.898 192.686 110.098 192.561 110.256C191.671 111.387 190.049 112.601 190.049 112.601C196.512 111.37 199.182 109.798 200.405 108.559C200.704 108.26 201.927 106.945 202.301 107.178C202.534 107.328 202.326 108.052 202.251 108.31C201.652 110.331 198.708 115.18 192.395 117.209C191.563 117.476 190.449 117.767 189.076 117.941C187.995 116.361 186.922 114.764 185.841 113.175Z" fill="#F7AD8D"/>
<path d="M193.368 237.316C192.478 239.254 167.958 239.012 166.011 236.908C165.113 235.926 164.681 234.537 164.647 233.182C164.614 231.626 165.105 230.121 166.011 229.389C167.708 228.016 167.234 226.636 167.234 226.636C167.592 227.01 169.147 228.565 171.701 228.765C174.254 228.965 176.034 227.675 176.45 227.359C178.421 228.815 180.176 229.68 181.316 230.312C183.977 231.793 187.088 233.265 188.91 233.265C191.23 233.265 192.769 234.122 193.343 235.244C193.676 235.885 193.692 236.609 193.368 237.316Z" fill="white"/>
<path d="M193.368 237.315C192.478 239.253 167.957 239.012 166.011 236.908C165.113 235.926 164.68 234.537 164.647 233.182C164.863 233.972 165.362 234.72 166.419 235.045C169.089 235.86 190.789 237.482 192.153 236.592C192.686 236.243 193.068 235.743 193.343 235.253C193.675 235.885 193.692 236.608 193.368 237.315Z" fill="#414141"/>
<path d="M183.744 232.824L175.643 228.782C174.953 227.526 175.76 227.185 176.092 226.96C176.408 226.744 176.3 226.503 177.132 227.393C179.586 228.723 182.039 230.063 184.493 231.393C184.876 231.601 185.025 232.075 184.826 232.466C184.626 232.857 184.144 233.024 183.744 232.824Z" fill="#414141"/>
<path d="M96.1102 217.179H90.9949C89.5643 217.811 88.5828 219.167 88.483 220.68C88.3665 222.435 89.4395 224.116 91.1529 224.806C92.5253 225.072 93.8894 225.347 95.2618 225.613L96.1102 217.179Z" fill="#F7AD8D"/>
<path d="M91.4442 224.648L88.1254 234.72C88.1254 234.72 90.5126 235.852 90.995 238.122C91.0116 238.214 91.0283 238.305 91.0366 238.388C91.2778 240.36 88.9738 240.019 87.2687 239.902C85.4888 239.777 83.7504 239.661 82.2532 236.218C80.7561 232.782 82.6608 219.1 82.8604 217.769C82.9768 217.029 83.5424 216.322 84.3326 215.856C84.9648 215.473 85.73 215.249 86.5035 215.266C88.2419 215.307 91.727 217.187 91.727 217.187L90.3878 218.426C88.2086 221.005 91.4442 224.648 91.4442 224.648Z" fill="white"/>
<path d="M87.277 239.902C85.4971 239.778 83.7587 239.661 82.2615 236.218C80.7644 232.783 82.6691 219.1 82.8687 217.769C82.9851 217.029 83.5507 216.322 84.3409 215.856C83.9916 220.63 82.9602 235.369 83.4343 236.184C83.9999 237.158 86.229 239.096 87.6014 239.096C88.9738 239.096 89.8305 239.47 90.4294 238.896C90.629 238.705 90.8453 238.53 91.0366 238.389C91.2861 240.36 88.9821 240.019 87.277 239.902Z" fill="#414141"/>
<path d="M139.57 77.4432C139.437 78.4246 138.198 79.3895 137.308 79.797C137.025 79.9301 135.968 80.3793 134.688 80.1131C134.496 80.0715 134.33 80.0216 134.189 79.9717C134.047 79.9218 133.922 79.8719 133.823 79.822C134.022 79.8054 134.355 79.7388 134.721 79.5392C135.037 79.3645 135.328 79.1316 135.461 78.8987C134.812 78.8239 133.956 79.1233 133.307 79.2647C132.866 79.3562 132.409 79.4976 132.001 79.6224C131.394 79.8137 130.778 79.9384 130.329 80.3959C130.154 79.8553 130.471 79.3978 130.687 78.9154C129.888 78.7324 128.94 79.5725 128.749 80.2711C128.599 80.8367 128.375 81.5105 128.291 82.1093C128.208 82.7082 128.399 83.2488 128.183 83.8061C127.909 84.4965 127.676 84.5381 127.451 85.1369C126.969 86.3929 127.726 87.6488 127.568 87.7071C127.435 87.757 126.911 86.8254 126.553 85.9687C126.129 84.9456 126.229 84.7377 125.796 83.9974C125.688 83.8144 125.571 83.6398 125.53 83.3653C125.497 83.149 125.588 82.8496 125.688 82.5751C125.738 82.442 125.779 82.309 125.804 82.2008C125.813 82.1676 125.821 82.126 125.829 82.0927C126.021 81.0031 126.096 79.8969 126.278 78.8072C126.403 78.0836 126.528 77.3683 126.57 76.6364C126.578 76.4118 126.52 76.0292 126.628 75.8296C127.019 75.081 128.549 75.1142 129.863 75.1226C134.796 75.1558 135.636 74.6235 137.665 75.4885C138.256 75.7381 138.905 76.0209 139.279 76.4534C139.304 76.4783 139.329 76.5116 139.345 76.5365C139.462 76.6863 139.545 76.8526 139.578 77.0439C139.587 77.1853 139.587 77.3184 139.57 77.4432Z" fill="#312E34"/>
<path d="M137.582 81.602C137.391 81.3525 136.642 81.3192 136.326 81.261C135.794 81.1695 135.261 81.1695 134.737 81.2942C134.122 81.444 133.398 81.5188 132.833 81.8016C132.591 81.9181 132.383 82.0927 132.142 82.2175C132.017 81.9763 132.383 81.5604 132.541 81.3774C132.733 81.1528 132.974 81.053 133.232 80.9283C133.797 80.6538 134.446 80.4458 135.07 80.3959C135.661 80.3543 136.65 80.2712 137.208 80.4542C137.474 80.5373 137.399 80.4791 137.44 80.8118C137.482 81.0198 137.54 81.2111 137.582 81.602Z" fill="#662D90"/>
<path d="M135.871 84.6743C136.383 84.5616 136.667 83.8774 136.505 83.1462C136.344 82.4149 135.799 81.9135 135.288 82.0262C134.776 82.1389 134.492 82.823 134.653 83.5543C134.814 84.2855 135.36 84.7869 135.871 84.6743Z" fill="#662D90"/>
<path d="M136.234 82.966C136.284 83.1823 136.201 83.3819 136.051 83.4152C135.902 83.4485 135.744 83.2987 135.694 83.0825C135.644 82.8662 135.727 82.6666 135.877 82.6333C136.026 82.6084 136.193 82.7581 136.234 82.966Z" fill="white"/>
<path d="M140.9 89.4121C140.9 89.4121 138.347 90.5849 136.717 89.5618C136.717 89.5618 138.239 91.9573 140.019 91.5581C141.807 91.1505 140.9 89.4121 140.9 89.4121Z" fill="#FFF0F9"/>
<path opacity="0.24" d="M135.735 87.732C136.626 87.732 137.349 87.2926 137.349 86.7505C137.349 86.2085 136.626 85.769 135.735 85.769C134.844 85.769 134.122 86.2085 134.122 86.7505C134.122 87.2926 134.844 87.732 135.735 87.732Z" fill="#BD1E2D"/>
<g style="mix-blend-mode:multiply">
<path d="M139.57 77.4432C139.437 78.4246 138.198 79.3895 137.308 79.797C137.025 79.9301 135.968 80.3793 134.688 80.1131C134.496 80.0715 134.33 80.0216 134.189 79.9717C134.047 79.9218 133.922 79.8719 133.823 79.822C134.022 79.8054 134.355 79.7388 134.721 79.5392C135.037 79.3645 135.328 79.1316 135.461 78.8987C134.812 78.8239 133.956 79.1233 133.307 79.2647C132.866 79.3562 132.409 79.4976 132.001 79.6224C131.394 79.8137 130.778 79.9384 130.329 80.3959C130.154 79.8553 130.471 79.3978 130.687 78.9154C129.888 78.7324 128.94 79.5725 128.749 80.2711C128.599 80.8367 128.375 81.5105 128.291 82.1093C128.208 82.7082 128.399 83.2488 128.183 83.8061C127.909 84.4965 127.676 84.5381 127.451 85.1369C126.969 86.3929 127.726 87.6488 127.568 87.7071C127.435 87.757 126.911 86.8254 126.553 85.9687C126.129 84.9456 126.229 84.7377 125.796 83.9974C125.688 83.8144 125.571 83.6398 125.53 83.3653C125.497 83.149 125.588 82.8496 125.688 82.5751C125.738 82.442 125.779 82.309 125.804 82.2008C125.888 82.0594 125.971 81.9263 126.062 81.7933C126.378 81.2776 126.32 80.8201 126.37 80.2212C126.428 79.4311 127.152 78.9819 127.767 78.566C128.549 78.0337 129.489 77.6761 130.446 77.7343C130.87 77.7592 131.926 77.7759 132.234 78.1086C132.483 78.3747 132.242 78.7324 132.292 79.1067C133.141 78.9154 133.964 78.6326 134.796 78.3498C135.32 78.1751 136.06 77.8008 136.601 77.8091C137.041 77.8091 136.883 77.9173 136.95 78.3082C137.815 77.7842 138.555 77.152 139.279 76.4534C139.395 76.6031 139.545 76.8526 139.578 77.0439C139.587 77.1853 139.587 77.3184 139.57 77.4432Z" fill="#D0D2D3"/>
</g>
<path d="M120.656 76.0207C119.791 76.4948 118.809 76.894 118.485 77.9171C118.335 78.3912 118.302 78.8736 118.194 79.356C118.726 78.9568 119.391 78.7904 119.949 78.4411C119.99 78.6075 119.882 78.7738 119.816 78.9235C119.691 79.198 119.591 79.4808 119.508 79.7636C119.807 79.8468 120.348 79.2729 120.581 79.1065C120.597 79.4226 120.423 79.8385 120.273 80.1046C120.506 79.8634 120.797 79.6555 121.071 79.4642C121.047 79.7969 120.98 80.1213 120.955 80.4623C121.346 80.3874 121.587 80.0464 121.92 79.8717C121.961 80.1795 121.97 80.6037 121.862 80.8948C122.078 80.7451 122.336 80.271 122.594 80.2294C122.569 80.5704 122.619 80.9198 122.544 81.2525C122.876 81.2441 123.301 80.77 123.6 80.6037C123.608 80.8366 123.7 81.0944 123.733 81.3273C124.282 80.9697 124.781 80.3375 125.114 79.7719C125.197 79.6056 125.305 79.4475 125.43 79.3061C125.513 79.223 125.596 79.1315 125.671 79.04C125.679 78.9984 125.704 78.9734 125.721 78.9318C125.114 79.1897 124.59 79.5806 124.008 79.8884C124.049 79.5058 124.565 78.8404 124.315 78.4577C124.074 78.5243 123.833 78.6324 123.625 78.7655C123.625 78.3829 123.617 77.8422 123.45 77.4929C123.084 77.5844 122.793 77.9337 122.469 78.1084C122.269 77.7424 122.502 77.2517 122.361 76.8857C121.87 77.0354 121.396 77.5428 121.03 77.8755C120.98 77.6093 121.03 77.2683 121.022 76.9855C120.797 76.9689 120.556 77.2933 120.356 77.3765C120.29 76.8691 120.93 76.4033 121.005 75.9292C120.864 75.9292 120.689 76.0706 120.656 76.0207Z" fill="#414042"/>
<path d="M128.94 68.9509C128.208 69.7328 127.85 70.5895 127.659 71.1468C128.507 70.34 130.479 68.718 133.381 68.3105C134.421 68.1608 136.933 67.8114 138.813 69.2504C140.21 70.3233 140.643 71.9286 140.718 71.8954C140.801 71.8538 140.435 69.8243 138.954 68.4602C136.467 66.1313 131.41 66.2976 128.94 68.9509Z" fill="#414042"/>
<g style="mix-blend-mode:multiply">
<path d="M136.209 169.685C136.143 169.802 136.085 169.926 136.018 170.043L136.725 170.875C136.725 170.875 137.939 170.65 139.961 170.326C139.553 171.365 139.145 172.38 138.771 173.362C138.156 174.934 137.274 176.123 136.159 177.046C134.962 178.036 133.481 178.735 131.768 179.3C129.855 179.932 127.867 180.506 125.862 181.047C122.618 181.912 119.316 182.694 116.189 183.467C112.662 184.332 110.184 185.663 108.004 187.493L107.031 186.137C106.815 185.838 106.632 185.539 106.466 185.239C106.216 185.771 106.316 186.104 106.324 186.137C101.949 178.593 107.031 170.392 109.036 167.597C111.207 166.092 113.428 164.745 115.598 163.697C121.113 161.027 127.21 159.03 131.56 154.531C134.521 151.47 136.725 147.286 138.039 143.285C138.838 140.848 138.846 138.112 139.819 135.791C140.21 135.924 140.601 136.049 140.984 136.174L140.934 136.548L136.209 169.685Z" fill="#E5E6E7"/>
<path d="M136.209 169.685C136.143 169.802 136.085 169.926 136.018 170.043L136.725 170.875C136.725 170.875 137.939 170.65 139.961 170.326C139.553 171.365 139.145 172.38 138.771 173.362C138.156 174.934 137.274 176.123 136.159 177.046C134.962 178.036 133.481 178.735 131.768 179.3C129.855 179.932 127.867 180.506 125.862 181.047C122.618 181.912 119.316 182.694 116.189 183.467C112.662 184.332 110.184 185.663 108.004 187.493L107.031 186.137C106.815 185.838 106.632 185.539 106.466 185.239C106.216 185.771 106.316 186.104 106.324 186.137C101.949 178.593 107.031 170.392 109.036 167.597C111.207 166.092 113.428 164.745 115.598 163.697C121.113 161.027 127.21 159.03 131.56 154.531C134.521 151.47 136.725 147.286 138.039 143.285C138.838 140.848 138.846 138.112 139.819 135.791C140.21 135.924 140.601 136.049 140.984 136.174L140.934 136.548L136.209 169.685Z" stroke="#F0F1F1" stroke-miterlimit="10"/>
</g>
<path d="M259.925 44.2475C259.468 43.3908 258.786 42.3012 257.888 41.7273C257.779 43.1912 257.804 44.6135 257.505 46.0608C257.172 47.6661 256.399 48.7889 255.692 50.1863C255.65 49.13 255.351 48.1485 255.076 47.2086C254.752 47.716 254.827 48.24 254.702 48.8139C254.477 49.8286 254.012 50.6105 253.546 51.5171C252.198 54.1039 250.402 55.8339 247.748 57.1148C243.581 59.1277 239.023 59.2109 234.44 58.6869C231.762 58.3791 229.375 57.9799 227.304 56.1916C225.69 54.8026 225.233 52.6317 224.992 50.5273C224.642 47.5912 224.501 44.6634 224.359 41.694C224.276 39.9141 224.085 38.1591 222.862 36.7201C222.263 36.0214 221.049 35.356 220.467 35.7054C220.142 35.8967 220.226 36.2793 219.868 36.6203C219.294 37.1693 218.263 36.953 217.805 36.8615C212.44 35.7636 210.694 31.4052 210.694 31.4052C209.33 27.9866 210.727 24.8592 211.051 24.0358C211.259 23.5035 211.534 23.0044 211.85 22.5386C213.097 20.6838 215.085 19.2864 217.057 18.305C218.412 17.6229 219.793 17.3568 221.207 17.2486C222.48 17.1571 223.777 17.1987 225.108 17.1987C226.206 17.1987 227.337 17.074 228.377 17.4399C229.624 17.8808 231.063 19.0951 232.153 19.877C233.234 20.6505 234.224 21.291 235.297 21.815C236.012 22.1643 236.769 22.4638 237.618 22.7216C239.015 23.1375 240.404 23.387 241.826 22.8547C243.224 22.339 244.613 21.4157 246.052 21.1413C246.201 22.1643 245.212 23.8445 244.53 24.7095C246.384 24.7178 248.189 24.0025 250.102 24.1106C252.157 24.2188 255.875 25.6744 257.438 27.105C256.748 27.1549 254.494 27.4294 253.987 28.0948C253.338 28.9515 254.71 29.3341 255.509 29.8664C257.239 31.0226 259.967 32.9356 259.534 35.3976C259.476 35.4059 259.418 35.4059 259.368 35.4059C258.645 35.4059 258.021 34.9734 257.364 34.6574C257.172 35.0816 257.414 35.8135 257.788 36.612C258.345 37.7764 259.202 39.0823 259.476 39.7644C259.934 40.8789 260.674 43.0831 259.925 44.2475Z" fill="#7C0B36"/>
<g style="mix-blend-mode:multiply">
<path d="M259.925 44.2475C259.468 43.3908 258.786 42.3012 257.888 41.7273C257.779 43.1912 257.804 44.6135 257.505 46.0607C257.172 47.666 256.399 48.7889 255.692 50.1863C255.65 49.1299 255.351 48.1484 255.076 47.2085C254.752 47.7159 254.827 48.2399 254.702 48.8138C254.477 49.8286 254.012 50.6104 253.546 51.5171C252.198 54.1038 250.402 55.8339 247.748 57.1148C243.581 59.1277 239.023 59.2108 234.44 58.6868C231.762 58.3791 229.375 57.9798 227.304 56.1916C225.69 54.8025 225.233 52.6316 224.992 50.5273C224.642 47.5912 224.501 44.6634 224.359 41.694C224.276 39.914 224.085 38.159 222.862 36.7201C222.263 36.0214 221.049 35.356 220.467 35.7053C220.142 35.8966 220.226 36.2792 219.868 36.6203C219.294 37.1692 218.263 36.953 217.805 36.8615C212.44 35.7635 210.694 31.4051 210.694 31.4051C209.33 27.9866 210.727 24.8592 211.051 24.0357C211.259 23.5034 211.534 23.0044 211.85 22.5386C211.434 24.7843 210.902 29.5254 213.646 32.7526C214.578 33.8505 216.657 35.6804 217.614 35.1314C218.105 34.8486 218.163 33.9919 218.121 33.2849C217.772 32.869 217.764 32.5613 217.689 32.0622C218.703 31.9125 219.776 32.3034 220.808 32.0705C221.19 31.9874 221.59 31.8127 221.989 31.7462C222.588 31.6463 223.228 31.7129 223.777 31.4966C223.669 30.9144 223.137 30.3654 223.195 29.7582C225.499 29.8331 228.294 30.407 230.282 31.6047C230.797 31.9125 231.113 32.0456 231.346 32.6029C231.488 32.9356 231.471 33.3182 231.646 33.6342C231.987 33.1435 233.068 33.21 233.592 33.2849C234.532 33.4263 234.781 33.9836 235.181 34.7987C235.596 35.6471 235.854 36.6369 236.32 37.452C236.753 38.2006 237.451 38.866 238.1 39.4732C240.404 41.6108 242.924 43.0498 245.935 43.9148C246.917 44.1976 247.907 44.0479 248.871 44.4388C249.412 44.6551 250.077 44.9378 250.56 45.229C250.834 45.3953 251.001 45.6698 251.317 45.8112C251.35 44.8297 251.275 43.8566 251.258 42.8751C252.015 42.8169 253.03 42.7337 253.795 42.9915C253.862 42.0017 253.471 41.1949 253.113 40.3133C253.571 40.1968 253.97 40.7208 254.378 40.8955C254.96 40.2301 254.527 39.0573 254.702 38.2755C255.01 38.4252 255.326 38.5749 255.658 38.6581C255.841 37.6683 255.725 36.5953 255.725 35.5889C256.474 35.8135 257.139 36.2127 257.813 36.6286C258.37 37.793 259.227 39.0989 259.501 39.7809C259.934 40.8789 260.674 43.083 259.925 44.2475Z" fill="#D0D2D3"/>
</g>
<path d="M217.132 34.7571C217.132 34.7571 220.475 46.41 224.252 46.9507C228.028 47.4913 232.453 43.9813 233.101 39.7726C233.75 35.5639 231.97 32.5446 230.623 31.4134C229.275 30.2822 219.078 29.5253 217.839 31.4134C216.591 33.3015 217.132 34.7571 217.132 34.7571Z" fill="#F9BFA2"/>
<path d="M229.325 44.8464L232.619 54.6694L239.198 48.032L233.118 36.4207L229.325 44.8464Z" fill="#F9BFA2"/>
<path d="M259.227 143.335L258.387 157.117C258.387 157.117 262.354 151.669 266.155 150.222C269.956 148.775 283.032 144.774 283.231 144.208C283.431 143.643 288.13 140.482 289.503 144.533C290.875 148.575 287.24 159.263 286.55 159.945C285.86 160.636 283.473 159.538 283.473 156.909C283.473 154.281 284.404 148.375 284.404 148.375C284.687 148.109 278.366 154.006 273.641 157.766C262.229 166.791 255.476 172.13 250.942 170.55C244.979 168.471 243.107 154.497 245.478 137.047L259.227 143.335Z" fill="#EDB196"/>
<path d="M260.291 143.202L231.77 146.845C231.77 146.845 225.565 128.571 227.861 113.924C228.077 112.577 228.36 111.254 228.726 109.99C229.267 108.127 229.982 106.372 230.922 104.766C230.922 104.766 254.228 102.537 257.746 109.1C257.746 109.1 257.888 109.79 258.112 110.971C258.212 111.479 258.32 112.069 258.445 112.743C259.742 119.913 262.229 135.808 260.291 143.202Z" fill="#7C0B36"/>
<path d="M222.205 56.3662C222.205 56.3662 218.479 46.9507 222.746 43.6902L227.329 55.3182C227.329 55.3182 222.172 55.4513 222.205 56.3662Z" fill="#DB9377"/>
<path d="M224.792 66.9128L228.843 59.951L225.125 55.3181L221.59 56.0667L224.792 66.9128Z" fill="#B71352"/>
<path d="M258.595 111.553C258.595 111.553 258.453 111.321 258.112 110.963C256.316 109.025 248.988 103.361 228.726 109.981C228.743 109.907 229.267 107.345 229.949 103.968C231.105 98.212 231.28 86.6256 231.529 84.2385C231.937 80.4373 222.987 79.2645 222.987 74.5734C222.987 71.9451 224.634 67.1292 226.09 63.4112C227.229 60.4834 228.244 58.2293 228.244 58.2293L229.084 57.173L232.161 53.3053C232.161 53.3053 235.264 52.9643 239.198 48.032C239.198 48.032 248.397 49.2464 251.225 52.0827C252.024 52.8811 252.431 55.8838 252.598 59.7931C252.839 65.3825 252.614 72.8267 252.356 78.2914C252.157 82.5916 251.949 85.6608 251.949 85.6608C253.413 89.254 254.868 93.4377 256.091 98.1621C256.748 100.699 257.272 103.128 257.68 105.432C258.079 107.594 258.37 109.64 258.595 111.553Z" fill="#D91C5C"/>
<path d="M234.931 146.438L250.585 224.041C245.769 228.565 242.176 232.067 240.529 233.731C240.346 233.914 240.046 234.221 240.113 234.546C240.354 235.768 245.669 236.633 249.736 234.72C252.714 233.323 254.211 230.72 254.852 229.381C255.276 229.073 258.237 226.91 257.821 225.413C257.696 224.964 257.048 223.791 256.931 223.583C256.723 223.209 256.54 222.901 256.415 222.702C256.865 212.962 256.274 204.968 255.567 199.154C254.328 188.999 251.558 175.849 251.558 175.849L254.012 144L234.931 146.438Z" fill="#F9BFA2"/>
<g style="mix-blend-mode:multiply">
<path d="M251.957 85.6608C250.078 88.9379 247.516 91.3999 244.031 91.4831C237.402 91.6495 229.5 72.4525 226.09 63.4029C227.229 60.4751 228.252 58.2211 228.252 58.2211L229.092 57.1647L230.473 55.4347L240.887 69.4332C240.887 69.4332 242.259 52.7148 245.295 51.018C248.331 49.3212 252.149 56.9734 252.149 56.9734C252.323 57.8967 252.481 58.8282 252.623 59.7848C252.864 65.3742 252.639 72.8184 252.382 78.2831C252.165 82.5833 251.957 85.6608 251.957 85.6608Z" fill="#E5E6E7"/>
</g>
<g style="mix-blend-mode:multiply">
<path d="M229.941 54.6694L224.235 55.9254C224.235 55.9254 234.757 87.9481 243.648 87.7319C252.54 87.5073 254.453 66.7965 251.683 52.5152C251.683 52.5152 248.971 49.471 245.935 51.1677C242.9 52.8645 241.835 72.5606 241.835 72.5606L229.941 54.6694Z" fill="#D91C5C"/>
</g>
<path d="M235.139 47.6828C233.891 47.4416 232.319 47.5164 231.604 46.2522C230.78 44.7883 231.13 42.7172 231.13 41.0869C231.13 39.4484 230.972 37.8264 230.73 36.2128C230.622 35.4975 230.29 34.4412 229.816 33.8922C229.475 33.493 228.892 33.0854 228.443 32.8193C227.869 32.4699 227.179 32.2786 226.572 31.9958C226.147 31.7962 225.657 31.5383 225.183 31.555C225.64 32.0457 226.023 32.7444 226.214 33.4015C225.748 33.2934 225.341 32.9523 224.883 32.8109C224.459 32.6862 223.977 32.7028 223.552 32.786C222.413 33.0022 220.442 32.6279 219.668 33.7924C220.325 34.2249 221.448 33.9588 222.08 33.5762C222.022 33.8839 221.548 34.2083 221.315 34.4162C220.783 34.8903 220.217 35.2563 219.568 35.5641C218.92 35.8635 218.287 35.8801 217.58 35.8469C217.248 35.8302 216.341 35.8718 216.2 35.5641C214.802 34.5493 214.561 33.1353 215.01 31.8627C215.035 31.7879 215.06 31.7213 215.093 31.6465C215.152 31.5134 215.21 31.3886 215.276 31.2555C215.493 30.8563 215.784 30.4737 216.116 30.141C217.306 28.9682 218.645 27.9451 220.009 26.9886C221.54 25.9156 223.594 26.2317 225.349 26.4812C227.586 26.7973 229.549 27.7622 230.897 29.6502C231.645 30.6983 232.194 31.8627 232.535 33.0937C232.785 33.9754 232.918 34.882 232.951 35.7969C232.985 36.9281 232.976 38.1342 232.644 39.2155C232.361 40.1304 231.937 41.1285 231.803 42.0684C231.654 43.1164 231.778 44.4639 232.161 45.4537C232.644 46.7346 234.116 46.9508 235.139 47.6828Z" fill="#7C0B36"/>
<path opacity="0.14" d="M225.462 42.2696C226.702 41.6482 227.312 40.3554 226.825 39.382C226.337 38.4086 224.936 38.1232 223.696 38.7445C222.455 39.3659 221.845 40.6587 222.333 41.6321C222.821 42.6055 224.221 42.8909 225.462 42.2696Z" fill="#BD1E2D"/>
<path d="M225.066 55.551C225.066 55.551 221.964 52.931 222.155 47.483C222.155 47.483 221.398 44.7548 221.914 44.0312C222.43 43.2992 222.721 43.8981 222.721 43.8981C222.721 43.8981 222.671 40.5045 223.561 40.6376C224.451 40.7624 224.384 41.2032 224.384 41.2032C224.384 41.2032 224.26 38.9075 225.075 39.0157C225.882 39.1238 225.748 40.7125 225.748 40.7125C225.748 40.7125 226.031 39.6644 226.564 39.9556C227.096 40.255 226.123 46.3767 226.905 47.1004C227.686 47.8323 227.387 43.6985 228.926 42.8085C230.465 41.9185 229.408 44.1559 229.275 44.7215C229.142 45.2871 228.976 48.5809 228.926 50.3026C228.876 52.0327 229.749 54.5945 229.749 54.5945L225.125 55.6841L225.066 55.551Z" fill="#E5E6E7"/>
<path d="M224.925 55.6094C224.925 55.6094 221.823 52.9893 222.014 47.5413C222.014 47.5413 221.257 44.8132 221.773 44.0895C222.289 43.3576 222.58 43.9564 222.58 43.9564C222.58 43.9564 222.987 40.7791 223.42 40.6959C224.301 40.5213 224.243 41.2615 224.243 41.2615C224.243 41.2615 224.118 38.9659 224.934 39.074C225.74 39.1821 225.607 40.7708 225.607 40.7708C225.607 40.7708 225.824 39.9141 226.422 40.0139C227.604 40.2052 226.622 45.437 227.071 46.2188C227.595 47.1504 227.254 43.7651 228.793 42.8752C230.332 41.9852 229.275 44.2226 229.142 44.7882C229.009 45.3538 228.843 48.6476 228.793 50.3693C228.743 52.0994 229.616 54.6612 229.616 54.6612L224.992 55.7508L224.925 55.6094Z" fill="#EFB297"/>
<path d="M258.187 225.746C257.971 226.611 257.015 228.374 255.035 229.239C255.035 229.239 253.005 236.525 242.326 235.91C242.326 235.91 239.614 236.035 240.238 234.304C240.296 234.13 240.396 233.938 240.529 233.731C242.01 231.402 250.585 224.041 250.585 224.041C250.585 224.041 253.604 225.604 256.416 222.701C256.416 222.701 257.655 224.049 258.071 225.039C258.179 225.313 258.237 225.563 258.187 225.746Z" fill="#EE4136"/>
<path d="M250.36 224.232C250.36 224.232 252.065 225.862 254.061 225.072C256.058 224.273 250.277 221.454 250.36 224.232Z" fill="#EE4136"/>
<path d="M251.558 227.176L249.254 225.097C249.254 225.072 249.229 224.856 249.395 224.689C249.537 224.556 249.703 224.556 249.745 224.556C250.51 225.247 251.283 225.937 252.048 226.636C252.048 226.677 252.057 226.835 251.949 226.977C251.799 227.151 251.591 227.168 251.558 227.176Z" fill="white"/>
<path d="M249.329 228.848L247.025 226.769C247.025 226.744 247 226.527 247.166 226.361C247.308 226.228 247.474 226.228 247.516 226.228C248.281 226.918 249.055 227.609 249.82 228.307C249.82 228.349 249.828 228.507 249.72 228.648C249.579 228.823 249.362 228.84 249.329 228.848Z" fill="white"/>
<path d="M247.466 230.345L245.162 228.266C245.162 228.241 245.137 228.025 245.303 227.858C245.445 227.725 245.611 227.725 245.652 227.725C246.418 228.416 247.191 229.106 247.956 229.805C247.956 229.846 247.965 230.004 247.857 230.146C247.715 230.32 247.499 230.337 247.466 230.345Z" fill="white"/>
<path d="M286.4 142.445C287.748 142.445 289.062 142.262 290.168 143.169C290.609 143.526 291.133 143.992 291.266 144.558C291.424 145.215 291.324 146.146 291.258 146.82C291.15 147.893 290.717 148.875 290.551 149.948C290.384 151.012 290.293 152.102 290.01 153.141C289.553 154.78 289.195 156.568 288.322 158.057C287.981 158.648 287.548 159.205 287.074 159.679C286.8 159.954 286.45 160.236 286.234 160.569C286.226 160.153 286.384 159.729 286.492 159.338C286.625 158.856 286.625 158.357 286.758 157.874C286.949 157.167 287.157 156.46 287.373 155.753C287.889 154.073 287.848 152.227 288.363 150.538C288.862 148.908 289.852 147.228 289.686 145.464C289.619 144.716 289.128 144.175 288.546 143.751C287.939 143.285 286.866 143.061 286.4 142.445Z" fill="#594A42"/>
<path d="M283.132 144.109C283.456 144.134 284.122 144.225 284.729 144.707C285.719 145.498 286.159 147.02 285.644 147.785C285.228 148.4 284.587 148.251 284.255 148.517L284.055 148.991C284.055 148.991 281.834 156.627 282.741 158.664C283.648 160.702 286.126 160.794 286.717 160.253C287.307 159.712 290.069 149.64 290.227 146.845C290.352 144.5 289.728 143.801 288.713 143.202C287.707 142.603 285.236 141.455 283.132 144.109Z" fill="#EE4136"/>
<path d="M286.392 150.014H284.071C284.063 150.014 283.922 149.914 283.922 149.748C283.922 149.581 284.063 149.498 284.071 149.49C284.845 149.49 285.618 149.49 286.392 149.49C286.508 149.523 286.592 149.623 286.592 149.748C286.592 149.864 286.508 149.981 286.392 150.014Z" fill="white"/>
<path d="M285.943 152.102H283.622C283.614 152.102 283.473 152.002 283.473 151.835C283.473 151.669 283.614 151.586 283.622 151.578C284.396 151.578 285.169 151.578 285.943 151.578C286.059 151.611 286.143 151.711 286.143 151.835C286.151 151.952 286.068 152.068 285.943 152.102Z" fill="white"/>
<path d="M285.594 154.198H283.273C283.265 154.198 283.123 154.098 283.123 153.932C283.123 153.765 283.265 153.682 283.273 153.674C284.047 153.674 284.82 153.674 285.594 153.674C285.71 153.707 285.793 153.807 285.793 153.932C285.802 154.056 285.718 154.165 285.594 154.198Z" fill="white"/>
<path d="M222.987 37.2691C223.245 37.9096 223.062 38.5833 222.571 38.7829C222.08 38.9826 221.481 38.6249 221.224 37.9928C220.966 37.3523 221.149 36.6786 221.639 36.479C222.122 36.2793 222.721 36.637 222.987 37.2691Z" fill="#7C0B36"/>
<path d="M222.222 37.0694C222.222 37.0694 223.22 37.1858 223.486 36.6868C223.486 36.6868 223.603 37.7265 222.58 37.6267L222.222 37.0694Z" fill="#7C0B36"/>
<path d="M221.989 37.7765C222.088 37.9511 222.088 38.1341 221.989 38.1924C221.889 38.2506 221.723 38.1591 221.623 37.9844C221.523 37.8097 221.523 37.6268 221.623 37.5685C221.723 37.5103 221.889 37.6018 221.989 37.7765Z" fill="#FFF0F9"/>
<path d="M219.252 37.1942C219.66 36.8365 220.034 36.4123 220.533 36.1628C221.207 35.8301 221.789 35.672 222.538 35.6637C222.979 35.6637 223.394 35.6804 223.827 35.7386C223.927 35.7552 224.018 35.7635 224.118 35.7552C224.035 35.7219 223.894 35.539 223.794 35.4558C223.586 35.2894 223.328 35.1314 223.07 35.0482C222.762 34.9401 222.363 34.9318 222.039 34.9318C221.714 34.9318 221.365 34.8902 221.057 34.9401C220.683 35.0066 220.234 35.2312 219.893 35.3976C219.419 35.6305 218.878 35.8883 218.853 36.4705C218.828 36.8864 218.828 37.1359 219.252 37.1942Z" fill="#7C0B36"/>
<path d="M221.34 43.6236C221.34 43.6236 221.024 43.9397 219.519 43.973C219.336 43.973 219.194 43.9064 219.07 43.7817C220.043 43.6237 220.309 43.607 220.891 43.632L221.34 43.6236Z" fill="#E5E6E7"/>
<path d="M222.612 43.998C222.762 45.2956 222.92 46.5931 223.07 47.8824L222.612 43.998Z" fill="#E5E6E7"/>
<path d="M222.612 43.998C222.671 44.3224 222.712 44.6468 222.762 44.9629C222.804 45.2873 222.845 45.6117 222.887 45.936C222.92 46.2604 222.962 46.5848 222.995 46.9092L223.045 47.3999C223.053 47.5663 223.07 47.7243 223.078 47.8907C223.053 47.7326 223.028 47.5663 223.003 47.4083L222.937 46.9258C222.895 46.6015 222.854 46.2771 222.812 45.9527C222.779 45.6283 222.737 45.3039 222.704 44.9795C222.671 44.6468 222.637 44.3224 222.612 43.998Z" fill="#F0F1F1"/>
<path d="M224.243 41.0786C224.318 43.1746 224.393 45.2624 224.476 47.3584L224.243 41.0786Z" fill="#E5E6E7"/>
<path d="M224.243 41.0786C224.276 41.6026 224.31 42.1266 224.335 42.6423C224.36 43.1663 224.376 43.6903 224.401 44.2143C224.418 44.7384 224.434 45.2624 224.451 45.7864L224.468 46.5682C224.468 46.8261 224.476 47.0922 224.476 47.3501C224.459 47.0922 224.443 46.8261 224.426 46.5682L224.385 45.7864C224.36 45.2624 224.343 44.7384 224.318 44.2143C224.301 43.6903 224.285 43.1663 224.268 42.6423C224.251 42.1266 224.243 41.6026 224.243 41.0786Z" fill="#F0F1F1"/>
<path d="M225.623 40.6626C225.698 42.7586 225.773 44.8463 225.856 46.9424L225.623 40.6626Z" fill="#E5E6E7"/>
<path d="M225.623 40.6626C225.656 41.1866 225.69 41.7106 225.715 42.2346C225.739 42.7586 225.756 43.2826 225.781 43.8066C225.798 44.3307 225.814 44.8547 225.831 45.3787L225.848 46.1605C225.848 46.4184 225.856 46.6845 225.856 46.9424C225.839 46.6845 225.823 46.4184 225.806 46.1605L225.764 45.3787C225.739 44.8547 225.723 44.3307 225.698 43.8066C225.681 43.2826 225.665 42.7586 225.648 42.2346C225.64 41.7023 225.623 41.1866 225.623 40.6626Z" fill="#F0F1F1"/>
<path d="M221.34 43.6237C221.34 43.6237 221.024 43.9398 219.519 43.9731C219.336 43.9731 219.194 43.9065 219.069 43.7817C218.213 42.8834 218.878 39.0657 218.878 39.0657L221.165 43.2993L221.34 43.6237Z" fill="#F9BFA2"/>
<g style="mix-blend-mode:multiply">
<path d="M258.112 110.963C258.212 111.47 258.32 112.061 258.445 112.735C246.526 109.108 232.694 112.502 227.861 113.924C228.077 112.577 228.36 111.254 228.726 109.99C228.743 109.915 229.267 107.353 229.949 103.976C238.998 100.874 250.959 103.46 257.696 105.44C258.087 107.603 258.378 109.649 258.603 111.562C258.595 111.553 258.445 111.329 258.112 110.963Z" fill="#E5E6E7"/>
</g>
<g style="mix-blend-mode:multiply">
<path d="M235.139 47.6826C233.891 47.4414 232.319 47.5162 231.604 46.252C230.78 44.7881 231.13 42.717 231.13 41.0868C231.13 39.4482 230.972 37.8263 230.73 36.2126C230.622 35.4973 230.29 34.441 229.816 33.892C229.475 33.4928 228.892 33.0852 228.443 32.8191C227.869 32.4697 227.179 32.2784 226.572 31.9956C226.147 31.796 225.657 31.5382 225.183 31.5548C225.64 32.0455 226.023 32.7442 226.214 33.4013C225.748 33.2932 225.341 32.9521 224.883 32.8107C224.459 32.686 223.977 32.7026 223.552 32.7858C222.413 33.0021 220.442 32.6278 219.668 33.7922C220.325 34.2247 221.448 33.9586 222.08 33.576C222.022 33.8837 221.548 34.2081 221.315 34.416C220.783 34.8901 220.217 35.2561 219.568 35.5639C218.92 35.8633 218.287 35.8799 217.58 35.8467C217.248 35.83 216.341 35.8716 216.2 35.5639C214.802 34.5491 214.561 33.1351 215.01 31.8625C215.559 32.6194 215.609 34.0251 216.582 34.4327C217.106 34.6573 217.988 34.6073 218.537 34.4992C218.529 34.2081 218.129 33.9835 218.146 33.7257C218.163 33.4096 218.495 33.393 218.761 33.2599C219.161 33.0686 219.46 32.7608 219.834 32.5363C221.007 31.8126 222.263 31.8875 223.577 31.8875C223.619 31.613 223.561 31.3968 223.511 31.1472C223.494 31.0641 223.361 30.6565 223.369 30.5983C223.511 29.9495 226.073 30.199 226.272 30.199C227.096 30.199 227.869 30.1658 228.634 30.5317C229.05 30.7314 229.45 31.0141 229.799 31.3053C230.223 31.6629 230.639 31.8459 231.121 32.1121C231.571 32.3616 232.011 32.528 232.369 32.9022C232.427 32.9605 232.486 33.027 232.544 33.0935C232.793 33.9752 232.926 34.8818 232.96 35.7968C232.993 36.928 232.985 38.134 232.652 39.2153C232.369 40.1302 231.945 41.1283 231.812 42.0682C231.662 43.1162 231.787 44.4637 232.169 45.4535C232.644 46.7344 234.116 46.9507 235.139 47.6826Z" fill="#D0D2D3"/>
</g>
<path d="M226.788 29.1676C226.938 29.151 227.138 29.2342 227.279 29.4005C227.304 28.7684 227.088 28.6353 227.021 28.1862C227.179 28.0448 227.379 28.4856 227.52 28.3525C227.753 28.1279 227.287 27.5623 227.212 27.4209C227.429 27.3211 227.662 27.4792 227.878 27.4043C227.836 26.8054 227.462 26.7472 227.47 26.1317C227.628 26.0485 227.861 26.0901 228.011 26.2482C227.944 25.9737 227.836 25.7657 227.753 25.5329C227.828 25.4414 227.961 25.4164 227.986 25.1586C227.911 24.9673 227.786 24.8342 227.686 24.8342C227.728 24.3684 228.077 24.3767 227.811 23.9775C227.853 23.7279 228.003 23.6697 228.019 23.4618C228.052 23.1124 227.919 22.9461 227.853 22.7631C227.953 22.7714 228.052 22.7132 228.136 22.5718C228.003 21.9812 227.67 21.9729 227.52 21.5404C227.578 21.5487 227.686 21.6569 227.736 21.582C227.795 21.4905 227.736 21.4656 227.77 21.3242C227.944 20.6754 227.612 20.5922 227.395 20.3676C227.612 20.3593 227.845 20.4425 228.052 20.3344C228.019 20.0848 227.845 20.01 227.761 19.8603C227.595 19.5192 227.479 19.3279 227.246 19.1699C227.013 19.0119 226.705 18.6126 226.472 18.6875C226.63 18.8788 226.979 18.9204 227.046 19.3362C226.888 19.5359 226.697 19.4028 226.539 19.5442C226.597 19.8353 226.888 20.0266 226.988 20.1763C226.755 20.4259 226.447 20.3094 226.198 20.5257C226.256 20.7669 226.431 20.8085 226.53 20.9831C226.514 21.2992 226.331 21.3242 226.297 21.6569C226.489 21.9812 226.722 22.2141 226.946 22.3472C226.938 22.3639 226.938 22.3805 226.93 22.4054C226.788 22.5635 226.614 22.4138 226.472 22.5967C226.505 22.7215 226.622 22.8546 226.614 23.0209C226.597 23.3287 225.965 23.4535 225.89 23.5034C226.015 23.8361 226.289 23.7446 226.389 24.1272C226.256 24.4932 226.023 24.2686 226.331 24.8342C226.647 25.3998 226.364 25.2085 226.181 25.7741C226.239 25.9986 226.381 25.9903 226.422 26.2648C226.356 26.2981 226.206 26.4062 226.198 26.6308C226.189 26.9635 226.397 27.0716 226.464 27.2296C226.347 27.3378 226.206 27.3461 226.081 27.3461C226.098 27.5374 226.206 27.6289 226.248 27.8202C226.281 27.9616 226.281 28.1113 226.306 28.2777C226.231 28.3608 226.131 28.3525 226.056 28.4856C226.239 28.8433 226.522 28.7934 226.788 29.1676Z" fill="#414042"/>
<path d="M212.324 24.6513C212.665 24.1356 213.189 23.387 213.63 23.3787C213.422 23.9276 213.073 24.3768 213.073 25.1087C213.181 24.9507 213.264 24.6845 213.43 24.7261C213.305 24.9091 213.197 25.1669 213.172 25.4747C213.314 25.4747 213.488 25.4581 213.638 25.4747C213.472 25.9821 212.989 25.6826 213.031 26.5726C213.555 26.6225 214.17 26.1401 214.67 26.4395C214.279 27.0384 213.563 26.7639 213.264 27.5541C213.339 27.5624 213.821 27.446 213.854 27.629C213.921 28.0365 213.289 28.128 213.181 28.3443C213.339 28.5522 213.605 28.4191 213.796 28.4857C214.129 28.5938 214.478 28.8017 214.803 29.0014C214.412 29.5087 213.58 28.9265 213.231 29.4921C213.372 29.7167 213.605 29.7915 213.796 29.7998C213.771 30.2157 213.746 30.5401 213.846 30.8728C213.439 30.4653 213.106 30.091 212.773 29.5586C212.673 29.3923 212.632 29.2342 212.49 29.2426C212.424 28.835 212.557 28.6187 212.657 28.3942C212.457 28.2445 212.232 27.5208 212.54 27.2796C212.49 27.2214 212.457 27.055 212.407 26.9968C212.665 26.2316 212.499 25.3333 212.324 24.6513Z" fill="#414042"/>
<path d="M259.543 35.3977C259.485 35.406 259.426 35.406 259.377 35.406C259.194 34.9486 259.044 34.4578 258.819 34.0419C258.354 33.1852 257.713 32.2786 257.023 31.5883C255.95 30.507 254.636 29.8499 253.33 29.1096C252.673 28.7353 251.957 28.6605 252.423 27.9951C252.822 27.4211 253.629 27.4211 254.186 27.0552C251.949 25.9739 249.362 26.0155 246.909 25.8907C246.135 25.8491 243.889 26.2234 243.473 25.5081C243.099 24.8593 244.164 24.0276 244.139 23.3206C243.715 23.3538 243.374 23.6533 242.958 23.7614C242.309 23.9278 241.411 23.778 240.77 23.6699C238.99 23.3705 236.952 22.8049 235.281 21.8151C235.996 22.1644 236.753 22.4639 237.601 22.7217C238.998 23.1376 240.388 23.3871 241.81 22.8548C243.207 22.3391 244.596 21.4158 246.035 21.1414C246.185 22.1644 245.195 23.8446 244.513 24.7096C246.368 24.7179 248.173 24.0026 250.086 24.1107C252.14 24.2189 255.858 25.6744 257.422 27.1051C256.732 27.155 254.478 27.4295 253.97 28.0949C253.321 28.9516 254.694 29.3342 255.492 29.8665C257.247 31.031 259.975 32.9357 259.543 35.3977Z" fill="#414042"/>
<path d="M249.404 29.8499C251.175 30.3655 252.015 31.53 253.596 32.4449C254.17 32.7776 254.968 33.0688 255.043 33.8257C254.253 33.3017 253.08 32.212 252.065 32.3451C252.074 32.9274 253.579 34.2083 254.145 34.7572C253.371 34.8986 251.433 34.15 250.826 33.651C251.475 33.7175 251.941 34.7656 252.681 35.0567C252.215 34.9735 251.666 34.6242 251.308 34.5826C251.616 34.9236 251.999 35.1482 252.065 35.5973C251.5 35.8052 250.818 35.3395 250.227 35.3311C250.884 35.7553 251.575 36.138 252.232 36.5622C251.833 36.5538 251.442 36.5039 251.109 36.3209C251.442 36.4707 251.774 36.7202 251.907 37.0279C251.467 36.9281 251.076 36.7202 250.643 36.5705C250.668 36.6952 250.643 36.8366 250.701 36.9863C249.778 37.0529 248.697 36.795 247.798 36.5289C248.389 36.5538 248.946 36.8865 249.287 37.3606C249.154 37.3357 249.013 37.3357 248.888 37.3107C249.029 37.8514 249.795 38.1674 250.161 38.6C249.637 38.5916 249.113 38.575 248.58 38.5833C248.639 38.9826 248.888 39.3402 249.212 39.5898C248.065 39.2986 247 38.7913 245.885 38.392C246.293 38.7247 246.9 38.8828 246.859 39.4733C246.551 39.5731 246.202 39.5648 245.869 39.5565C245.902 39.7145 245.827 39.9308 245.869 40.0805C245.403 40.2635 244.837 40.1637 244.372 40.0306C244.372 40.0805 244.388 40.1221 244.422 40.1553C244.006 39.8476 243.465 39.648 242.966 39.648C243.091 39.8642 243.116 40.1304 243.299 40.33C242.167 39.8975 242.276 39.2155 242.359 38.051C242.949 38.0427 243.473 38.417 244.022 38.5916C244.031 38.209 243.997 37.8264 244.047 37.4521C244.571 37.4521 245.245 37.893 245.702 38.1841C245.686 36.8117 245.919 36.1047 244.438 35.3311C245.611 35.2812 246.767 35.4476 247.932 35.5058C247.815 34.7739 245.653 34.0669 246.143 33.4015C246.293 33.1935 247.457 33.3017 247.665 33.285C247.416 33.0521 247.108 32.8608 246.784 32.7277C247.632 32.8276 248.397 33.0189 249.154 33.4181C248.996 32.5697 248.164 31.6631 247.624 31.1141C247.948 31.1141 248.281 31.1141 248.605 31.1058C248.63 30.7981 248.555 30.5069 248.381 30.2574C248.713 30.1909 248.664 30.0162 249.404 29.8499Z" fill="#414042"/>
<path d="M258.453 226.012C258.47 226.611 258.07 227.043 257.472 227.692C256.914 228.299 256.407 228.615 256.29 228.682C255.808 228.973 255.359 229.139 255.026 229.231C254.602 230.287 253.912 231.626 252.672 232.799C250.826 234.546 247.648 236.209 242.309 235.901C242.309 235.901 239.597 236.026 240.221 234.296C241.036 234.587 244.779 235.81 248.929 233.988C252.789 232.292 254.436 229.081 254.843 228.233C254.843 228.233 257.413 225.654 258.054 225.039C258.22 225.247 258.445 225.579 258.453 226.012Z" fill="#594A42"/>
</svg>
