<svg width="34" height="25" viewBox="0 0 34 25" fill="none" xmlns="http://www.w3.org/2000/svg">
<path d="M27.72 18.74C27.3417 18.74 27.035 19.0467 27.035 19.425V20.715C27.035 21.0933 27.3417 21.4 27.72 21.4C28.0983 21.4 28.405 21.0933 28.405 20.715V19.425C28.405 19.0467 28.0983 18.74 27.72 18.74V18.74Z" fill="#D02128"/>
<path d="M27.72 11.002C27.3417 11.002 27.035 11.3087 27.035 11.687V12.977C27.035 13.3553 27.3417 13.662 27.72 13.662C28.0983 13.662 28.405 13.3553 28.405 12.977V11.687C28.405 11.3087 28.0983 11.002 27.72 11.002Z" fill="#D02128"/>
<path d="M27.72 14.871C27.3417 14.871 27.035 15.1777 27.035 15.556V16.845C27.035 17.2233 27.3417 17.53 27.72 17.53C28.0983 17.53 28.405 17.2233 28.405 16.845V15.556C28.405 15.3743 28.3328 15.2001 28.2043 15.0716C28.0759 14.9432 27.9016 14.871 27.72 14.871V14.871Z" fill="#D02128"/>
<path d="M27.72 3.26401C27.3417 3.26401 27.035 3.57069 27.035 3.94901V5.23901C27.035 5.61732 27.3417 5.92401 27.72 5.92401C28.0983 5.92401 28.405 5.61732 28.405 5.23901V3.94901C28.405 3.57069 28.0983 3.26401 27.72 3.26401V3.26401Z" fill="#D02128"/>
<path d="M27.72 7.134C27.3417 7.134 27.035 7.44069 27.035 7.819V9.108C27.035 9.48632 27.3417 9.793 27.72 9.793C28.0983 9.793 28.405 9.48632 28.405 9.108V7.819C28.405 7.44069 28.0983 7.134 27.72 7.134V7.134Z" fill="#D02128"/>
<path fill-rule="evenodd" clip-rule="evenodd" d="M33.885 6.41C33.9063 7.20887 33.4737 7.95099 32.768 8.326C31.962 8.715 31.14 10.218 31.14 12.333C31.14 14.448 31.956 15.95 32.763 16.339C33.4687 16.714 33.9013 17.4561 33.88 18.255V21.921C33.8783 23.4337 32.6527 24.6598 31.14 24.662H3.73997C2.95569 24.6362 2.21686 24.2877 1.69812 23.6989C1.17938 23.1101 0.926758 22.3333 0.999974 21.552V18.252C0.977966 17.4535 1.41091 16.7116 2.11697 16.338C2.92397 15.949 3.73997 14.447 3.73997 12.332C3.73997 10.217 2.92397 8.715 2.11697 8.326C1.41025 7.95206 0.977196 7.20923 0.999974 6.41V2.741C1.00163 1.22826 2.22724 0.00220426 3.73997 0H31.145C32.6577 0.00220426 33.8833 1.22826 33.885 2.741V6.41ZM29.768 12.332C29.768 9.892 30.735 7.785 32.168 7.092H32.172C32.4006 6.94289 32.5316 6.68247 32.515 6.41V2.741C32.5139 1.98483 31.9011 1.3721 31.145 1.371H28.405C28.405 1.74932 28.0983 2.056 27.72 2.056C27.3417 2.056 27.035 1.74932 27.035 1.371H3.73997C2.9838 1.3721 2.37108 1.98483 2.36997 2.741V6.411C2.3527 6.68385 2.48428 6.94472 2.71397 7.093C4.15097 7.786 5.11397 9.893 5.11397 12.333C5.11397 14.773 4.14697 16.88 2.71397 17.573C2.48444 17.7205 2.3528 17.9807 2.36997 18.253V21.553C2.36997 22.593 2.92097 23.293 3.73997 23.293H27.03C27.03 22.9147 27.3367 22.608 27.715 22.608C28.0933 22.608 28.4 22.9147 28.4 23.293H31.142C31.8981 23.2919 32.5109 22.6792 32.512 21.923V18.254C32.5286 17.9813 32.3972 17.7207 32.168 17.572C30.731 16.879 29.768 14.772 29.768 12.332Z" fill="#D02128"/>
<path fill-rule="evenodd" clip-rule="evenodd" d="M22.732 7.222C22.552 8.6268 21.9341 9.93923 20.966 10.973L24.136 16.535C24.4124 17.1558 24.2834 17.8824 23.81 18.37L23.197 19.041C23.064 19.1863 22.8751 19.2674 22.6782 19.2638C22.4813 19.2602 22.2954 19.1721 22.168 19.022L17.889 13.973L17.112 14.631C16.124 15.47 15.024 16.402 14.124 17.078L14.724 18.272C14.8562 18.536 14.8046 18.8551 14.596 19.064L13.309 20.349C13.1802 20.4768 13.0063 20.5486 12.825 20.549H12.758C12.5549 20.5285 12.3716 20.4185 12.258 20.249L10.617 17.794L8.15596 16.156C7.98559 16.0415 7.87558 15.8565 7.85621 15.6522C7.83684 15.4478 7.91015 15.2455 8.05596 15.101L9.34296 13.816C9.55187 13.6081 9.87014 13.5566 10.134 13.688L11.334 14.288C12.0073 13.3975 12.9362 12.3055 13.7737 11.321L13.795 11.296C14.02 11.032 14.238 10.776 14.444 10.532L9.38696 6.261C9.2398 6.13775 9.15129 5.95826 9.14311 5.76648C9.13493 5.5747 9.20783 5.38833 9.34396 5.253L10.008 4.59C10.4661 4.1363 11.1469 3.9917 11.75 4.22L17.45 7.464C18.958 6.161 21.314 5.109 22.323 6.109C22.6055 6.40865 22.7532 6.81073 22.732 7.222ZM22.717 17.548L22.825 17.429H22.824C22.9161 17.3548 22.9518 17.2308 22.913 17.119L19.533 11.209C19.3807 10.9406 19.4261 10.6036 19.644 10.385C20.878 9.15 21.533 7.418 21.344 7.056C21.018 6.896 19.274 7.55 18.035 8.786C17.8168 9.00484 17.4789 9.04995 17.211 8.896L11.164 5.449C11.0945 5.47153 11.03 5.50717 10.974 5.554L10.839 5.689L15.848 9.919C16.1356 10.1614 16.174 10.5904 15.934 10.88C15.6462 11.2255 15.321 11.6077 14.981 12.0072C14.9322 12.0645 14.8832 12.1221 14.834 12.18L14.7891 12.2327C13.8202 13.3717 12.7302 14.6529 12.102 15.549C11.9068 15.8262 11.5384 15.9193 11.235 15.768L9.95996 15.132L9.61496 15.477L11.492 16.727C11.567 16.777 11.6315 16.8412 11.682 16.916L12.934 18.792L13.281 18.446L12.644 17.175C12.4916 16.871 12.5858 16.5012 12.865 16.307C13.7704 15.6735 15.0698 14.5726 16.2185 13.5994L16.232 13.588C16.3747 13.4679 16.5152 13.349 16.6529 13.2324C16.9658 12.9676 17.2642 12.715 17.542 12.488C17.8318 12.2509 18.2579 12.2892 18.501 12.574L22.717 17.548Z" fill="#D02128"/>
</svg>
