<svg width="40" height="30" viewBox="0 0 40 30" fill="none" xmlns="http://www.w3.org/2000/svg">
<path d="M34.2852 15C34.2852 18.1562 36.8438 20.7148 40 20.7148V29.2852H0V20.7148C3.15625 20.7148 5.71484 18.1562 5.71484 15C5.71484 11.8438 3.15625 9.28516 0 9.28516V0.714844H40V9.28516C36.8438 9.28516 34.2852 11.8438 34.2852 15Z" fill="#FD4B49"/>
<path d="M34.2852 15C34.2852 18.1562 36.8438 20.7148 40 20.7148V29.2852H20V0.714844H40V9.28516C36.8438 9.28516 34.2852 11.8438 34.2852 15Z" fill="#E70B69"/>
<path d="M5.37988 5.13361H34.6205V7.47736H5.37988V5.13361Z" fill="#F5F0FF"/>
<path d="M20 5.13361H34.6203V7.47736H20V5.13361Z" fill="#CECEF4"/>
<path d="M5.37988 22.5226H34.6205V24.8664H5.37988V22.5226Z" fill="#F5F0FF"/>
<path d="M20 22.5226H34.6203V24.8664H20V22.5226Z" fill="#CECEF4"/>
<path d="M26.1626 14.4L25.4954 12.3484L22.4438 11.9047L21.079 9.13983H18.9212L17.5563 11.9047L14.5048 12.3484L13.8384 14.4L16.0462 16.5531L15.5251 19.5922L17.2704 20.8601L20.0001 19.4258L22.7298 20.8601L24.4751 19.5922L23.954 16.5531L26.1626 14.4Z" fill="#FFCC66"/>
<path d="M23.9539 16.5531L24.475 19.5922L22.7297 20.8601L20 19.4258V9.13983H21.0789L22.4437 11.9047L25.4953 12.3484L26.1625 14.4L23.9539 16.5531Z" fill="#FFB366"/>
</svg>
