<svg width="84" height="89" viewBox="0 0 84 89" fill="none" xmlns="http://www.w3.org/2000/svg">
<path d="M52.8438 75.0938H30.5938C29.8561 75.0938 29.1487 75.3868 28.6271 75.9084C28.1055 76.4299 27.8125 77.1374 27.8125 77.875V80.6562C27.8125 85.2564 31.5561 89 36.1562 89H47.2812C51.8814 89 55.625 85.2564 55.625 80.6562V77.875C55.625 77.1374 55.332 76.4299 54.8104 75.9084C54.2888 75.3868 53.5814 75.0938 52.8438 75.0938ZM8.34375 38.9375H2.78125C2.04362 38.9375 1.33619 39.2305 0.814609 39.7521C0.293024 40.2737 0 40.9811 0 41.7188C0 42.4564 0.293024 43.1638 0.814609 43.6854C1.33619 44.207 2.04362 44.5 2.78125 44.5H8.34375C9.08138 44.5 9.78881 44.207 10.3104 43.6854C10.832 43.1638 11.125 42.4564 11.125 41.7188C11.125 40.9811 10.832 40.2737 10.3104 39.7521C9.78881 39.2305 9.08138 38.9375 8.34375 38.9375ZM80.6562 38.9375H75.0938C74.3561 38.9375 73.6487 39.2305 73.1271 39.7521C72.6055 40.2737 72.3125 40.9811 72.3125 41.7188C72.3125 42.4564 72.6055 43.1638 73.1271 43.6854C73.6487 44.207 74.3561 44.5 75.0938 44.5H80.6562C81.3939 44.5 82.1013 44.207 82.6229 43.6854C83.1445 43.1638 83.4375 42.4564 83.4375 41.7188C83.4375 40.9811 83.1445 40.2737 82.6229 39.7521C82.1013 39.2305 81.3939 38.9375 80.6562 38.9375ZM19.2713 19.2713C19.7927 18.7497 20.0856 18.0424 20.0856 17.3049C20.0856 16.5674 19.7927 15.8602 19.2713 15.3386L16.1535 12.2208C15.8969 11.9552 15.59 11.7433 15.2507 11.5975C14.9114 11.4518 14.5464 11.375 14.1771 11.3718C13.8079 11.3686 13.4416 11.439 13.0998 11.5788C12.758 11.7187 12.4475 11.9252 12.1863 12.1863C11.9252 12.4475 11.7187 12.758 11.5788 13.0998C11.439 13.4416 11.3686 13.8079 11.3718 14.1771C11.375 14.5464 11.4518 14.9114 11.5975 15.2507C11.7433 15.59 11.9552 15.8969 12.2208 16.1535L15.3358 19.2685C15.8624 19.7814 16.5685 20.0684 17.3035 20.0684C18.0386 20.0684 18.7447 19.7842 19.2713 19.2713ZM67.284 12.2208L64.169 15.3358C63.9104 15.5941 63.7053 15.9009 63.5653 16.2385C63.4253 16.5761 63.3533 16.938 63.3533 17.3035C63.3533 17.669 63.4253 18.031 63.5653 18.3686C63.7053 18.7062 63.9104 19.013 64.169 19.2713C65.1758 20.2809 67.0448 20.3254 68.0989 19.2713L71.2167 16.1535C71.4823 15.8969 71.6942 15.59 71.84 15.2507C71.9857 14.9114 72.0625 14.5464 72.0657 14.1771C72.0689 13.8079 71.9985 13.4416 71.8587 13.0998C71.7188 12.758 71.5123 12.4475 71.2512 12.1863C70.99 11.9252 70.6795 11.7187 70.3377 11.5788C69.9959 11.439 69.6296 11.3686 69.2604 11.3718C68.8911 11.375 68.5261 11.4518 68.1868 11.5975C67.8475 11.7433 67.5406 11.9552 67.284 12.2208ZM41.7188 11.125C42.4564 11.125 43.1638 10.832 43.6854 10.3104C44.207 9.78881 44.5 9.08138 44.5 8.34375V2.78125C44.5 2.04362 44.207 1.33619 43.6854 0.814609C43.1638 0.293024 42.4564 0 41.7188 0C40.9811 0 40.2737 0.293024 39.7521 0.814609C39.2305 1.33619 38.9375 2.04362 38.9375 2.78125V8.34375C38.9375 9.08138 39.2305 9.78881 39.7521 10.3104C40.2737 10.832 40.9811 11.125 41.7188 11.125ZM44.4583 16.8405C40.9518 16.4666 37.4059 16.8318 34.0493 17.9125C30.6926 18.9932 27.5997 20.7655 24.9701 23.115C22.3643 25.4635 20.2806 28.3329 18.8538 31.5376C17.427 34.7423 16.689 38.2108 16.6875 41.7188C16.6875 47.6372 18.7901 53.3722 22.5921 57.8583C24.8171 60.5089 26.3523 63.7045 27.1533 67.348C27.2896 67.9671 27.6333 68.521 28.1275 68.9181C28.6217 69.3152 29.2367 69.5315 29.8706 69.5312H53.5669C54.1979 69.5309 54.8101 69.316 55.3029 68.9218C55.7957 68.5276 56.1398 67.9775 56.2786 67.3619C57.0675 63.8189 58.6818 60.5122 60.99 57.7109C63.2788 54.9434 64.9468 51.714 65.8815 48.2464C66.8162 44.7788 66.9957 41.151 66.4079 37.6081C64.6696 26.7334 55.4387 18.0002 44.4583 16.8405ZM41.7188 52.8438C40.9811 52.8438 40.2737 52.5507 39.7521 52.0291C39.2305 51.5076 38.9375 50.8001 38.9375 50.0625C38.9375 49.3249 39.2305 48.6174 39.7521 48.0959C40.2737 47.5743 40.9811 47.2812 41.7188 47.2812C42.4564 47.2812 43.1638 47.5743 43.6854 48.0959C44.207 48.6174 44.5 49.3249 44.5 50.0625C44.5 50.8001 44.207 51.5076 43.6854 52.0291C43.1638 52.5507 42.4564 52.8438 41.7188 52.8438ZM44.5 41.7188C44.5 42.4564 44.207 43.1638 43.6854 43.6854C43.1638 44.207 42.4564 44.5 41.7188 44.5C40.9811 44.5 40.2737 44.207 39.7521 43.6854C39.2305 43.1638 38.9375 42.4564 38.9375 41.7188V33.375C38.9375 32.6374 39.2305 31.9299 39.7521 31.4084C40.2737 30.8868 40.9811 30.5938 41.7188 30.5938C42.4564 30.5938 43.1638 30.8868 43.6854 31.4084C44.207 31.9299 44.5 32.6374 44.5 33.375V41.7188Z" fill="white"/>
</svg>
