<svg width="29" height="35" viewBox="0 0 29 35" fill="none" xmlns="http://www.w3.org/2000/svg">
<path d="M19.385 2.666C19.0172 2.666 18.719 2.96418 18.719 3.332C18.719 3.69982 19.0172 3.998 19.385 3.998C19.7528 3.998 20.051 3.69982 20.051 3.332C20.0504 2.96441 19.7526 2.66655 19.385 2.666Z" fill="#D02128"/>
<path d="M8.72197 2.666C8.35415 2.666 8.05597 2.96418 8.05597 3.332C8.05597 3.69982 8.35415 3.998 8.72197 3.998C9.08979 3.998 9.38797 3.69982 9.38797 3.332C9.38742 2.96441 9.08956 2.66655 8.72197 2.666Z" fill="#D02128"/>
<path fill-rule="evenodd" clip-rule="evenodd" d="M27.916 32.995L23.506 28.388C25.2967 28.3203 26.714 26.85 26.716 25.058V5.283C26.7164 3.05612 25.1424 1.13958 22.958 0.707002C20.5874 0.237269 18.1766 0.000475735 15.76 8.12793e-07H12.24C9.85605 -0.000503809 7.47789 0.233963 5.13997 0.700002C2.96204 1.14081 1.39474 3.05291 1.38997 5.275V25.058C1.39219 26.8679 2.83757 28.3457 4.64697 28.388L0.186971 32.988C0.000377069 33.1801 -0.0529753 33.4653 0.0515513 33.7119C0.156078 33.9585 0.398145 34.1185 0.665971 34.118H5.43097C5.64467 34.1183 5.84551 34.016 5.97097 33.843L7.99297 31.053H20.173L22.195 33.843C22.3205 34.0159 22.5213 34.1181 22.735 34.118H27.435C27.7019 34.1181 27.9431 33.9589 28.0479 33.7134C28.1526 33.468 28.1007 33.1836 27.916 32.991V32.995ZM2.72597 25.059V5.278C2.72938 3.6913 3.848 2.32573 5.40297 2.01C7.65421 1.56036 9.94427 1.3336 12.24 1.333H15.761C18.0907 1.33363 20.4147 1.56205 22.7 2.015C24.2601 2.32391 25.3842 3.69261 25.384 5.283V25.058C25.384 26.1626 24.4885 27.058 23.384 27.058H4.72297C3.61879 27.0574 2.72397 26.1622 2.72397 25.058L2.72597 25.059ZM2.23997 32.79H5.09397L8.27797 28.39H6.50097L2.23997 32.79ZM8.96097 29.724L9.92697 28.391H18.244L19.21 29.724H8.96097ZM19.89 28.39L23.077 32.79H25.874L21.664 28.39H19.89Z" fill="#D02128"/>
<path fill-rule="evenodd" clip-rule="evenodd" d="M23.384 5.332H4.72398C4.35639 5.33255 4.05853 5.63041 4.05798 5.998V17.061C4.05853 17.4286 4.35639 17.7265 4.72398 17.727H23.384C23.7516 17.7265 24.0494 17.4286 24.05 17.061V5.998C24.0494 5.63041 23.7516 5.33255 23.384 5.332ZM13.384 16.395H5.38398V6.665H13.384V16.395ZM14.714 16.395H22.714V6.665H14.714V16.395Z" fill="#D02128"/>
<path d="M16.719 2.666H11.387C11.0189 2.666 10.7205 2.9644 10.7205 3.3325C10.7205 3.7006 11.0189 3.999 11.387 3.999H16.719C17.0871 3.999 17.3855 3.7006 17.3855 3.3325C17.3855 2.9644 17.0871 2.666 16.719 2.666Z" fill="#D02128"/>
<path fill-rule="evenodd" clip-rule="evenodd" d="M18.719 22.393C18.719 20.9206 19.9126 19.727 21.385 19.727C22.8567 19.7287 24.0493 20.9213 24.051 22.393C24.051 23.8654 22.8574 25.059 21.385 25.059C19.9126 25.059 18.719 23.8654 18.719 22.393ZM20.052 22.394C20.052 23.1302 20.6488 23.727 21.385 23.727C22.121 23.7264 22.7174 23.13 22.718 22.394C22.718 21.6578 22.1212 21.061 21.385 21.061C20.6488 21.061 20.052 21.6578 20.052 22.394Z" fill="#D02128"/>
<path fill-rule="evenodd" clip-rule="evenodd" d="M4.05695 22.393C4.05695 20.9206 5.25055 19.727 6.72295 19.727C8.19465 19.7287 9.38729 20.9213 9.38895 22.393C9.38895 23.8654 8.19534 25.059 6.72295 25.059C5.25055 25.059 4.05695 23.8654 4.05695 22.393ZM5.38995 22.394C5.38995 23.1302 5.98675 23.727 6.72295 23.727C7.45891 23.7264 8.05539 23.13 8.05595 22.394C8.05595 21.6578 7.45914 21.061 6.72295 21.061C5.98675 21.061 5.38995 21.6578 5.38995 22.394Z" fill="#D02128"/>
<path d="M16.719 20.393H11.387C11.0189 20.393 10.7205 20.6914 10.7205 21.0595C10.7205 21.4276 11.0189 21.726 11.387 21.726H16.719C17.0871 21.726 17.3855 21.4276 17.3855 21.0595C17.3855 20.6914 17.0871 20.393 16.719 20.393V20.393Z" fill="#D02128"/>
<path d="M16.719 23.059H11.387C11.0189 23.059 10.7205 23.3574 10.7205 23.7255C10.7205 24.0936 11.0189 24.392 11.387 24.392H16.719C17.0871 24.392 17.3855 24.0936 17.3855 23.7255C17.3855 23.3574 17.0871 23.059 16.719 23.059V23.059Z" fill="#D02128"/>
</svg>
