<svg width="27" height="27" viewBox="0 0 27 27" fill="none" xmlns="http://www.w3.org/2000/svg">
<path d="M23.97 5.69455L24.5783 6.30266L26.3117 4.57631C26.393 4.49541 26.4387 4.38562 26.4387 4.27113C26.4387 4.15664 26.393 4.04685 26.3117 3.96595L24.5783 2.24072L23.9655 2.85108L24.9593 3.84095H19.9424V4.70469H24.9639L23.97 5.69455Z" fill="white" stroke="white" stroke-width="0.3"/>
<path d="M21.3702 9.7556L21.983 9.14524L20.9891 8.15537H26.0106V7.29163H20.9891L21.983 6.30177L21.3702 5.69141L19.6368 7.41776C19.5555 7.49866 19.5098 7.60845 19.5098 7.72294C19.5098 7.83743 19.5555 7.94722 19.6368 8.02812L21.3702 9.7556Z" fill="white" stroke="white" stroke-width="0.3"/>
<path fill-rule="evenodd" clip-rule="evenodd" d="M25.9373 12.9795C25.3001 12.3423 24.2773 12.3025 23.5922 12.8883C23.2837 12.3645 22.7196 12.0427 22.1098 12.0426C21.9168 12.0401 21.725 12.0738 21.5445 12.1417C21.3435 12.2125 21.1581 12.3211 20.9983 12.4615C20.688 11.9367 20.123 11.6137 19.5115 11.6113C19.2063 11.6122 18.9069 11.6942 18.6442 11.8489V4.70365C18.6442 4.2454 18.4613 3.80596 18.1357 3.48214C17.8101 3.15832 17.3687 2.9767 16.9086 2.9773C16.6034 2.97815 16.304 3.06018 16.0413 3.21491V1.68225C16.0394 0.967789 15.4584 0.389064 14.741 0.387207H4.33845C3.62108 0.389064 3.04 0.967789 3.03813 1.68225V10.3163H2.60507C1.4084 10.3163 0.438124 11.2821 0.4375 12.4739V14.2386L1.30475 23.287V25.8557C1.30445 25.9703 1.34995 26.0803 1.4312 26.1614C1.51244 26.2425 1.62277 26.2881 1.73782 26.2881H11.2731C11.5123 26.2881 11.7062 26.095 11.7062 25.8568V23.4041L13.3197 21.1079H14.2514L14.741 22.4762V25.8545C14.741 26.0928 14.9349 26.2859 15.174 26.2859H23.8432C24.0824 26.2859 24.2763 26.0928 24.2763 25.8545V22.4762L26.2663 16.9244C26.3832 16.5991 26.4433 16.2563 26.4438 15.9109V14.2014C26.4444 13.7433 26.2622 13.3038 25.9373 12.9795ZM10.8398 25.4243H2.17062V23.698H10.8398V25.4243ZM2.13331 22.8344H11.0478L12.2611 21.1081H4.33819C3.62082 21.1062 3.03974 20.5275 3.03788 19.813V14.2004C3.03788 13.9622 3.23177 13.7691 3.47094 13.7691H5.63851C6.35666 13.7691 6.93883 13.1893 6.93883 12.4741C6.93883 11.7588 6.35666 11.179 5.63851 11.179H2.60595C1.88857 11.1809 1.30749 11.7596 1.30563 12.4741V14.2004L2.13331 22.8344ZM4.33809 20.2442C4.09892 20.2442 3.90503 20.0511 3.90503 19.8129V18.5178H11.7069V17.6541H3.90503V14.6327H5.63841C6.4244 14.6506 7.1585 14.2432 7.55678 13.568C7.95505 12.8929 7.95505 12.056 7.55678 11.3809C7.1585 10.7057 6.4244 10.2983 5.63841 10.3162H3.90503V1.68222C3.90503 1.44402 4.09892 1.25092 4.33809 1.25092H14.7406C14.9798 1.25092 15.1737 1.44402 15.1737 1.68222V10.5572C14.9104 10.3996 14.6091 10.316 14.3019 10.3151C13.3472 10.317 12.5738 11.0873 12.5719 12.0381V15.9097C12.5733 16.2551 12.6334 16.5977 12.7494 16.9232L13.9367 20.2385L4.33809 20.2442ZM15.6081 25.4245H16.9084V22.8344H15.6081V25.4245ZM19.0762 25.4245H17.7758V22.8344H19.0762V25.4245ZM19.9419 25.4245H21.2434L21.2422 22.8344H19.9419V25.4245ZM23.4111 25.4245H22.1108V22.8344H23.4111V25.4245ZM25.4531 16.6351C25.5357 16.4022 25.5781 16.157 25.5786 15.9099L25.5764 14.2016C25.5878 13.8858 25.4252 13.5889 25.1523 13.4276C24.8794 13.2663 24.5399 13.2663 24.267 13.4276C23.9942 13.5889 23.8315 13.8858 23.843 14.2016V15.9279H22.9814V13.7692C22.9801 13.2926 22.5926 12.9067 22.1141 12.9054C22.0197 12.905 21.926 12.921 21.8371 12.9527C21.7079 12.9914 21.5911 13.0628 21.4979 13.1599C21.3343 13.3208 21.2423 13.5402 21.2423 13.7692V15.4966H20.3751V13.3378C20.3582 12.8733 19.9752 12.5053 19.5084 12.5053C19.0416 12.5053 18.6586 12.8733 18.6417 13.3378V15.4955H17.7745V4.70384C17.7859 4.38802 17.6233 4.09118 17.3504 3.92989C17.0775 3.76859 16.738 3.76859 16.4651 3.92989C16.1923 4.09118 16.0296 4.38802 16.0411 4.70384V15.4921H15.1716V12.0383C15.1547 11.5737 14.7717 11.2057 14.3049 11.2057C13.8381 11.2057 13.455 11.5737 13.4382 12.0383V15.9099C13.439 16.1584 13.4814 16.405 13.5637 16.6396L15.4757 21.9707H23.5411L25.4531 16.6351Z" fill="white"/>
<path d="M23.5922 12.8883L23.4629 12.9645L23.5537 13.1186L23.6897 13.0023L23.5922 12.8883ZM25.9373 12.9795L25.8312 13.0856L25.8313 13.0857L25.9373 12.9795ZM22.1098 12.0426L22.1079 12.1926H22.1098L22.1098 12.0426ZM21.5445 12.1417L21.5943 12.2832L21.5973 12.2821L21.5445 12.1417ZM20.9983 12.4615L20.8692 12.5379L20.9614 12.6937L21.0974 12.5742L20.9983 12.4615ZM19.5115 11.6113L19.512 11.4613L19.511 11.4613L19.5115 11.6113ZM18.6442 11.8489H18.4942V12.1114L18.7203 11.9782L18.6442 11.8489ZM16.9086 2.9773L16.9084 2.8273L16.9081 2.8273L16.9086 2.9773ZM16.0413 3.21491H15.8913V3.47736L16.1174 3.34415L16.0413 3.21491ZM16.0413 1.68225H16.1913L16.1913 1.68186L16.0413 1.68225ZM14.741 0.387207L14.7414 0.237207H14.741V0.387207ZM4.33845 0.387207V0.237207L4.33806 0.237208L4.33845 0.387207ZM3.03813 1.68225L2.88813 1.68186V1.68225H3.03813ZM3.03813 10.3163V10.4663H3.18813V10.3163H3.03813ZM0.4375 12.4739L0.2875 12.4738V12.4739H0.4375ZM0.4375 14.2386H0.2875V14.2457L0.288184 14.2529L0.4375 14.2386ZM1.30475 23.287H1.45475V23.2798L1.45407 23.2727L1.30475 23.287ZM1.30475 25.8557L1.45475 25.8561V25.8557H1.30475ZM1.4312 26.1614L1.32521 26.2675L1.32521 26.2675L1.4312 26.1614ZM11.7062 23.4041L11.5834 23.3179L11.5562 23.3567V23.4041H11.7062ZM13.3197 21.1079V20.9579H13.2418L13.197 21.0217L13.3197 21.1079ZM14.2514 21.1079L14.3926 21.0574L14.357 20.9579H14.2514V21.1079ZM14.741 22.4762H14.891V22.4501L14.8822 22.4256L14.741 22.4762ZM24.2763 22.4762L24.1351 22.4256L24.1263 22.4501V22.4762H24.2763ZM26.2663 16.9244L26.1252 16.8736L26.1251 16.8738L26.2663 16.9244ZM26.4438 15.9109L26.5938 15.9111V15.9109H26.4438ZM26.4438 14.2014L26.2938 14.2012V14.2014H26.4438ZM2.17062 25.4243H2.02062V25.5743H2.17062V25.4243ZM10.8398 25.4243V25.5743H10.9898V25.4243H10.8398ZM2.17062 23.698V23.548H2.02062V23.698H2.17062ZM10.8398 23.698H10.9898V23.548H10.8398V23.698ZM11.0478 22.8344V22.9844H11.1258L11.1706 22.9207L11.0478 22.8344ZM2.13331 22.8344L1.98399 22.8487L1.997 22.9844H2.13331V22.8344ZM12.2611 21.1081L12.3838 21.1943L12.5498 20.9581H12.2611V21.1081ZM4.33819 21.1081L4.33781 21.2581H4.33819V21.1081ZM3.03788 19.813H2.88788L2.88788 19.8134L3.03788 19.813ZM2.60595 11.179V11.029L2.60556 11.029L2.60595 11.179ZM1.30563 12.4741L1.15563 12.4737V12.4741H1.30563ZM1.30563 14.2004H1.15563V14.2076L1.15631 14.2147L1.30563 14.2004ZM4.33809 20.2442V20.3942H4.33818L4.33809 20.2442ZM3.90503 18.5178V18.3678H3.75503V18.5178H3.90503ZM11.7069 18.5178V18.6678H11.8569V18.5178H11.7069ZM11.7069 17.6541H11.8569V17.5041H11.7069V17.6541ZM3.90503 17.6541H3.75503V17.8041H3.90503V17.6541ZM3.90503 14.6327V14.4827H3.75503V14.6327H3.90503ZM5.63841 14.6327L5.64182 14.4827H5.63841V14.6327ZM7.55678 13.568L7.68597 13.6443L7.55678 13.568ZM5.63841 10.3162V10.4663L5.64182 10.4662L5.63841 10.3162ZM3.90503 10.3162H3.75503V10.4662H3.90503V10.3162ZM15.1737 10.5572L15.0967 10.6859L15.3237 10.8218V10.5572H15.1737ZM14.3019 10.3151L14.3023 10.1651L14.3016 10.1651L14.3019 10.3151ZM12.5719 12.0381L12.4219 12.0378V12.0381H12.5719ZM12.5719 15.9097H12.4219L12.4219 15.9103L12.5719 15.9097ZM12.7494 16.9232L12.6082 16.9736L12.6082 16.9738L12.7494 16.9232ZM13.9367 20.2385L13.9368 20.3885L14.1497 20.3884L14.0779 20.188L13.9367 20.2385ZM16.9084 25.4245V25.5745H17.0584V25.4245H16.9084ZM15.6081 25.4245H15.4581V25.5745H15.6081V25.4245ZM16.9084 22.8344H17.0584V22.6844H16.9084V22.8344ZM15.6081 22.8344V22.6844H15.4581V22.8344H15.6081ZM17.7758 25.4245H17.6258V25.5745H17.7758V25.4245ZM19.0762 25.4245V25.5745H19.2262V25.4245H19.0762ZM17.7758 22.8344V22.6844H17.6258V22.8344H17.7758ZM19.0762 22.8344H19.2262V22.6844H19.0762V22.8344ZM21.2434 25.4245V25.5745H21.3934L21.3934 25.4244L21.2434 25.4245ZM19.9419 25.4245H19.7919V25.5745H19.9419V25.4245ZM21.2422 22.8344L21.3922 22.8343L21.3922 22.6844H21.2422V22.8344ZM19.9419 22.8344V22.6844H19.7919V22.8344H19.9419ZM22.1108 25.4245H21.9608V25.5745H22.1108V25.4245ZM23.4111 25.4245V25.5745H23.5611V25.4245H23.4111ZM22.1108 22.8344V22.6844H21.9608V22.8344H22.1108ZM23.4111 22.8344H23.5611V22.6844H23.4111V22.8344ZM25.5786 15.9099L25.7286 15.9102V15.9097L25.5786 15.9099ZM25.4531 16.6351L25.5943 16.6857L25.5945 16.6853L25.4531 16.6351ZM25.5764 14.2016L25.4263 14.1961L25.4264 14.2018L25.5764 14.2016ZM25.1523 13.4276L25.2286 13.2985L25.1523 13.4276ZM24.267 13.4276L24.1907 13.2985L24.267 13.4276ZM23.843 14.2016H23.9931L23.9929 14.1961L23.843 14.2016ZM23.843 15.9279V16.0779H23.993V15.9279H23.843ZM22.9814 15.9279H22.8314V16.0779H22.9814V15.9279ZM22.9814 13.7692H23.1314V13.7688L22.9814 13.7692ZM22.1141 12.9054L22.1134 13.0554L22.1137 13.0554L22.1141 12.9054ZM21.8371 12.9527L21.8802 13.0966L21.8875 13.094L21.8371 12.9527ZM21.4979 13.1599L21.6031 13.2669L21.6061 13.2638L21.4979 13.1599ZM21.2423 13.7692H21.3923V13.7691L21.2423 13.7692ZM21.2423 15.4966V15.6466H21.3923V15.4966H21.2423ZM20.3751 15.4966H20.2251V15.6466H20.3751V15.4966ZM20.3751 13.3378H20.5252L20.525 13.3324L20.3751 13.3378ZM18.6417 13.3378L18.4917 13.3324V13.3378H18.6417ZM18.6417 15.4955V15.6455H18.7917V15.4955H18.6417ZM17.7745 15.4955H17.6245V15.6455H17.7745V15.4955ZM17.7745 4.70384L17.6245 4.6984V4.70384H17.7745ZM17.3504 3.92989L17.2741 4.05901V4.05901L17.3504 3.92989ZM16.4651 3.92989L16.5415 4.05901V4.05901L16.4651 3.92989ZM16.0411 4.70384H16.1912L16.191 4.6984L16.0411 4.70384ZM16.0411 15.4921V15.6421H16.1911V15.4921H16.0411ZM15.1716 15.4921H15.0216V15.6421H15.1716V15.4921ZM15.1716 12.0383H15.3217L15.3215 12.0329L15.1716 12.0383ZM13.4382 12.0383L13.2882 12.0329V12.0383H13.4382ZM13.4382 15.9099H13.2882L13.2882 15.9104L13.4382 15.9099ZM13.5637 16.6396L13.4221 16.6893L13.4225 16.6903L13.5637 16.6396ZM15.4757 21.9707L15.3345 22.0214L15.3702 22.1207H15.4757V21.9707ZM23.5411 21.9707V22.1207H23.6467L23.6823 22.0213L23.5411 21.9707ZM23.6897 13.0023C24.3153 12.4674 25.2495 12.5038 25.8312 13.0856L26.0434 12.8735C25.3508 12.1808 24.2393 12.1376 23.4947 12.7743L23.6897 13.0023ZM22.1098 12.1926C22.6667 12.1927 23.1815 12.4866 23.4629 12.9645L23.7214 12.8122C23.3859 12.2424 22.7725 11.8927 22.1098 11.8926L22.1098 12.1926ZM21.5973 12.2821C21.7604 12.2207 21.9336 12.1904 22.1079 12.1926L22.1117 11.8926C21.9 11.8899 21.6897 11.9268 21.4916 12.0013L21.5973 12.2821ZM21.0974 12.5742C21.2427 12.4464 21.4114 12.3476 21.5943 12.2832L21.4946 12.0002C21.2756 12.0774 21.0735 12.1957 20.8993 12.3489L21.0974 12.5742ZM19.5109 11.7613C20.0698 11.7635 20.5859 12.0587 20.8692 12.5379L21.1274 12.3852C20.7901 11.8148 20.1762 11.4639 19.512 11.4613L19.5109 11.7613ZM18.7203 11.9782C18.96 11.837 19.2333 11.7621 19.5119 11.7613L19.511 11.4613C19.1793 11.4622 18.8537 11.5514 18.5681 11.7197L18.7203 11.9782ZM18.4942 4.70365V11.8489H18.7942V4.70365H18.4942ZM18.0299 3.58849C18.3272 3.88422 18.4942 4.28541 18.4942 4.70365H18.7942C18.7942 4.20539 18.5953 3.72769 18.2415 3.37579L18.0299 3.58849ZM16.9088 3.1273C17.3292 3.12675 17.7326 3.29274 18.0299 3.58849L18.2415 3.37579C17.8877 3.0239 17.4081 2.82665 16.9084 2.8273L16.9088 3.1273ZM16.1174 3.34415C16.3571 3.20296 16.6304 3.12807 16.909 3.1273L16.9081 2.8273C16.5764 2.82822 16.2508 2.91741 15.9652 3.08567L16.1174 3.34415ZM15.8913 1.68225V3.21491H16.1913V1.68225H15.8913ZM14.7406 0.537207C15.376 0.538851 15.8897 1.05129 15.8913 1.68264L16.1913 1.68186C16.1892 0.88429 15.5407 0.239276 14.7414 0.237208L14.7406 0.537207ZM4.33845 0.537207H14.741V0.237207H4.33845V0.537207ZM3.18813 1.68264C3.18978 1.05129 3.70343 0.538851 4.33884 0.537207L4.33806 0.237208C3.53872 0.239276 2.89022 0.88429 2.88813 1.68186L3.18813 1.68264ZM3.18813 10.3163V1.68225H2.88813V10.3163H3.18813ZM2.60507 10.4663H3.03813V10.1663H2.60507V10.4663ZM0.5875 12.474C0.588081 11.3656 1.49063 10.4663 2.60507 10.4663V10.1663C1.32616 10.1663 0.288168 11.1986 0.2875 12.4738L0.5875 12.474ZM0.5875 14.2386V12.4739H0.2875V14.2386H0.5875ZM1.45407 23.2727L0.586816 14.2242L0.288184 14.2529L1.15544 23.3013L1.45407 23.2727ZM1.45475 25.8557V23.287H1.15475V25.8557H1.45475ZM1.53719 26.0552C1.48415 26.0023 1.45456 25.9306 1.45475 25.8561L1.15476 25.8553C1.15435 26.0099 1.21575 26.1582 1.32521 26.2675L1.53719 26.0552ZM1.73782 26.1381C1.66242 26.1381 1.59024 26.1082 1.53718 26.0552L1.32521 26.2675C1.43464 26.3768 1.58311 26.4381 1.73782 26.4381V26.1381ZM11.2731 26.1381H1.73782V26.4381H11.2731V26.1381ZM11.5562 25.8568C11.5562 26.0116 11.43 26.1381 11.2731 26.1381V26.4381C11.5945 26.4381 11.8562 26.1784 11.8562 25.8568H11.5562ZM11.5562 23.4041V25.8568H11.8562V23.4041H11.5562ZM13.197 21.0217L11.5834 23.3179L11.8289 23.4903L13.4424 21.1942L13.197 21.0217ZM14.2514 20.9579H13.3197V21.2579H14.2514V20.9579ZM14.8822 22.4256L14.3926 21.0574L14.1102 21.1585L14.5998 22.5267L14.8822 22.4256ZM14.891 25.8545V22.4762H14.591V25.8545H14.891ZM15.174 26.1359C15.0171 26.1359 14.891 26.0093 14.891 25.8545H14.591C14.591 26.1762 14.8526 26.4359 15.174 26.4359V26.1359ZM23.8432 26.1359H15.174V26.4359H23.8432V26.1359ZM24.1263 25.8545C24.1263 26.0093 24.0001 26.1359 23.8432 26.1359V26.4359C24.1646 26.4359 24.4263 26.1762 24.4263 25.8545H24.1263ZM24.1263 22.4762V25.8545H24.4263V22.4762H24.1263ZM26.1251 16.8738L24.1351 22.4256L24.4175 22.5268L26.4075 16.975L26.1251 16.8738ZM26.2938 15.9106C26.2933 16.2388 26.2363 16.5646 26.1252 16.8736L26.4075 16.9751C26.5302 16.6337 26.5932 16.2738 26.5938 15.9111L26.2938 15.9106ZM26.2938 14.2014V15.9109H26.5938V14.2014H26.2938ZM25.8313 13.0857C26.1281 13.3818 26.2944 13.7831 26.2938 14.2012L26.5938 14.2016C26.5945 13.7035 26.3963 13.2257 26.0432 12.8734L25.8313 13.0857ZM2.17062 25.5743H10.8398V25.2743H2.17062V25.5743ZM2.02062 23.698V25.4243H2.32062V23.698H2.02062ZM10.8398 23.548H2.17062V23.848H10.8398V23.548ZM10.9898 25.4243V23.698H10.6898V25.4243H10.9898ZM11.0478 22.6844H2.13331V22.9844H11.0478V22.6844ZM12.1384 21.0218L10.9251 22.7482L11.1706 22.9207L12.3838 21.1943L12.1384 21.0218ZM4.33819 21.2581H12.2611V20.9581H4.33819V21.2581ZM2.88788 19.8134C2.88996 20.611 3.53847 21.256 4.33781 21.2581L4.33858 20.9581C3.70318 20.9564 3.18952 20.444 3.18788 19.8126L2.88788 19.8134ZM2.88788 14.2004V19.813H3.18788V14.2004H2.88788ZM3.47094 13.6191C3.1495 13.6191 2.88788 13.8788 2.88788 14.2004H3.18788C3.18788 14.0456 3.31403 13.9191 3.47094 13.9191V13.6191ZM5.63851 13.6191H3.47094V13.9191H5.63851V13.6191ZM6.78883 12.4741C6.78883 13.1059 6.27439 13.6191 5.63851 13.6191V13.9191C6.43892 13.9191 7.08883 13.2727 7.08883 12.4741H6.78883ZM5.63851 11.329C6.27439 11.329 6.78883 11.8423 6.78883 12.4741H7.08883C7.08883 11.6754 6.43892 11.029 5.63851 11.029V11.329ZM2.60595 11.329H5.63851V11.029H2.60595V11.329ZM1.45563 12.4745C1.45728 11.8431 1.97093 11.3307 2.60633 11.329L2.60556 11.029C1.80622 11.0311 1.15771 11.6761 1.15563 12.4737L1.45563 12.4745ZM1.45563 14.2004V12.4741H1.15563V14.2004H1.45563ZM2.28262 22.8201L1.45494 14.1861L1.15631 14.2147L1.98399 22.8487L2.28262 22.8201ZM3.75503 19.8129C3.75503 20.1345 4.01665 20.3942 4.33809 20.3942V20.0942C4.18118 20.0942 4.05503 19.9676 4.05503 19.8129H3.75503ZM3.75503 18.5178V19.8129H4.05503V18.5178H3.75503ZM11.7069 18.3678H3.90503V18.6678H11.7069V18.3678ZM11.5569 17.6541V18.5178H11.8569V17.6541H11.5569ZM3.90503 17.8041H11.7069V17.5041H3.90503V17.8041ZM3.75503 14.6327V17.6541H4.05503V14.6327H3.75503ZM5.63841 14.4827H3.90503V14.7827H5.63841V14.4827ZM7.42758 13.4918C7.05701 14.12 6.37373 14.4994 5.64182 14.4827L5.63499 14.7826C6.47508 14.8017 7.26 14.3663 7.68597 13.6443L7.42758 13.4918ZM7.42758 11.4571C7.79811 12.0852 7.79811 12.8637 7.42758 13.4918L7.68597 13.6443C8.11199 12.9221 8.11199 12.0268 7.68597 11.3046L7.42758 11.4571ZM5.64182 10.4662C6.37373 10.4495 7.05701 10.8289 7.42758 11.4571L7.68597 11.3046C7.26 10.5826 6.47508 10.1472 5.63499 10.1663L5.64182 10.4662ZM3.90503 10.4662H5.63841V10.1662H3.90503V10.4662ZM3.75503 1.68222V10.3162H4.05503V1.68222H3.75503ZM4.33809 1.10092C4.01665 1.10092 3.75503 1.3606 3.75503 1.68222H4.05503C4.05503 1.52744 4.18118 1.40092 4.33809 1.40092V1.10092ZM14.7406 1.10092H4.33809V1.40092H14.7406V1.10092ZM15.3237 1.68222C15.3237 1.3606 15.0621 1.10092 14.7406 1.10092V1.40092C14.8975 1.40092 15.0237 1.52744 15.0237 1.68222H15.3237ZM15.3237 10.5572V1.68222H15.0237V10.5572H15.3237ZM14.3015 10.4651C14.5817 10.4659 14.8565 10.5422 15.0967 10.6859L15.2507 10.4285C14.9642 10.257 14.6365 10.166 14.3023 10.1651L14.3015 10.4651ZM12.7219 12.0384C12.7236 11.1708 13.4296 10.4668 14.3022 10.4651L14.3016 10.1651C13.2649 10.1671 12.424 11.0038 12.4219 12.0378L12.7219 12.0384ZM12.7219 15.9097V12.0381H12.4219V15.9097H12.7219ZM12.8907 16.8728C12.7803 16.5633 12.7233 16.2375 12.7219 15.9091L12.4219 15.9103C12.4234 16.2727 12.4864 16.6322 12.6082 16.9736L12.8907 16.8728ZM14.0779 20.188L12.8907 16.8726L12.6082 16.9738L13.7955 20.2891L14.0779 20.188ZM4.33818 20.3942L13.9368 20.3885L13.9366 20.0885L4.338 20.0942L4.33818 20.3942ZM16.9084 25.2745H15.6081V25.5745H16.9084V25.2745ZM16.7584 22.8344V25.4245H17.0584V22.8344H16.7584ZM15.6081 22.9844H16.9084V22.6844H15.6081V22.9844ZM15.7581 25.4245V22.8344H15.4581V25.4245H15.7581ZM17.7758 25.5745H19.0762V25.2745H17.7758V25.5745ZM17.6258 22.8344V25.4245H17.9258V22.8344H17.6258ZM19.0762 22.6844H17.7758V22.9844H19.0762V22.6844ZM19.2262 25.4245V22.8344H18.9262V25.4245H19.2262ZM21.2434 25.2745H19.9419V25.5745H21.2434V25.2745ZM21.0922 22.8344L21.0934 25.4245L21.3934 25.4244L21.3922 22.8343L21.0922 22.8344ZM19.9419 22.9844H21.2422V22.6844H19.9419V22.9844ZM20.0919 25.4245V22.8344H19.7919V25.4245H20.0919ZM22.1108 25.5745H23.4111V25.2745H22.1108V25.5745ZM21.9608 22.8344V25.4245H22.2608V22.8344H21.9608ZM23.4111 22.6844H22.1108V22.9844H23.4111V22.6844ZM23.5611 25.4245V22.8344H23.2611V25.4245H23.5611ZM25.4286 15.9096C25.4282 16.1397 25.3887 16.368 25.3117 16.585L25.5945 16.6853C25.6828 16.4363 25.7281 16.1743 25.7286 15.9102L25.4286 15.9096ZM25.4264 14.2018L25.4286 15.9101L25.7286 15.9097L25.7264 14.2014L25.4264 14.2018ZM25.076 13.5568C25.3017 13.6902 25.4359 13.9355 25.4265 14.1961L25.7263 14.207C25.7397 13.836 25.5487 13.4877 25.2286 13.2985L25.076 13.5568ZM24.3434 13.5568C24.5691 13.4233 24.8502 13.4233 25.076 13.5568L25.2286 13.2985C24.9087 13.1094 24.5107 13.1094 24.1907 13.2985L24.3434 13.5568ZM23.9929 14.1961C23.9834 13.9355 24.1176 13.6902 24.3434 13.5568L24.1907 13.2985C23.8707 13.4877 23.6796 13.836 23.6931 14.207L23.9929 14.1961ZM23.993 15.9279V14.2016H23.693V15.9279H23.993ZM22.9814 16.0779H23.843V15.7779H22.9814V16.0779ZM22.8314 13.7692V15.9279H23.1314V13.7692H22.8314ZM22.1137 13.0554C22.5102 13.0564 22.8304 13.3761 22.8314 13.7695L23.1314 13.7688C23.1299 13.2091 22.6749 12.7569 22.1145 12.7554L22.1137 13.0554ZM21.8875 13.094C21.96 13.0681 22.0364 13.0551 22.1134 13.0554L22.1148 12.7554C22.003 12.7549 21.8919 12.7739 21.7867 12.8114L21.8875 13.094ZM21.6061 13.2638C21.6813 13.1854 21.7758 13.1277 21.8802 13.0964L21.794 12.809C21.6401 12.8551 21.5008 12.9402 21.3897 13.0561L21.6061 13.2638ZM21.3923 13.7691C21.3923 13.5805 21.4681 13.3996 21.6031 13.2669L21.3927 13.053C21.2005 13.242 21.0923 13.4999 21.0923 13.7692L21.3923 13.7691ZM21.3923 15.4966V13.7692H21.0923V15.4966H21.3923ZM20.3751 15.6466H21.2423V15.3466H20.3751V15.6466ZM20.2251 13.3378V15.4966H20.5251V13.3378H20.2251ZM19.5084 12.6553C19.895 12.6553 20.2113 12.9599 20.2252 13.3433L20.525 13.3324C20.5052 12.7866 20.0554 12.3553 19.5084 12.3553V12.6553ZM18.7916 13.3433C18.8055 12.9599 19.1218 12.6553 19.5084 12.6553V12.3553C18.9614 12.3553 18.5116 12.7866 18.4918 13.3324L18.7916 13.3433ZM18.7917 15.4955V13.3378H18.4917V15.4955H18.7917ZM17.7745 15.6455H18.6417V15.3455H17.7745V15.6455ZM17.6245 4.70384V15.4955H17.9245V4.70384H17.6245ZM17.2741 4.05901C17.4998 4.19244 17.634 4.43774 17.6246 4.6984L17.9244 4.70927C17.9378 4.3383 17.7468 3.98993 17.4267 3.80076L17.2741 4.05901ZM16.5415 4.05901C16.7672 3.92555 17.0483 3.92555 17.2741 4.05901L17.4267 3.80076C17.1068 3.61163 16.7088 3.61163 16.3888 3.80076L16.5415 4.05901ZM16.191 4.6984C16.1815 4.43774 16.3157 4.19244 16.5415 4.05901L16.3888 3.80076C16.0688 3.98993 15.8777 4.3383 15.8912 4.70927L16.191 4.6984ZM16.1911 15.4921V4.70384H15.8911V15.4921H16.1911ZM15.1716 15.6421H16.0411V15.3421H15.1716V15.6421ZM15.0216 12.0383V15.4921H15.3216V12.0383H15.0216ZM14.3049 11.3557C14.6915 11.3557 15.0078 11.6604 15.0217 12.0437L15.3215 12.0329C15.3017 11.4871 14.8518 11.0557 14.3049 11.0557V11.3557ZM13.5881 12.0437C13.602 11.6604 13.9183 11.3557 14.3049 11.3557V11.0557C13.7579 11.0557 13.3081 11.4871 13.2883 12.0329L13.5881 12.0437ZM13.5882 15.9099V12.0383H13.2882V15.9099H13.5882ZM13.7052 16.59C13.6285 16.3712 13.5889 16.1412 13.5882 15.9094L13.2882 15.9104C13.289 16.1757 13.3343 16.4389 13.4221 16.6893L13.7052 16.59ZM15.6169 21.9201L13.7049 16.589L13.4225 16.6903L15.3345 22.0214L15.6169 21.9201ZM23.5411 21.8207H15.4757V22.1207H23.5411V21.8207ZM25.3119 16.5845L23.3999 21.9201L23.6823 22.0213L25.5943 16.6857L25.3119 16.5845Z" fill="white"/>
<path fill-rule="evenodd" clip-rule="evenodd" d="M5.53511 4.77838C6.20593 3.16544 7.78627 2.11377 9.53922 2.11377C11.9328 2.11377 13.8732 4.04631 13.8732 6.43021C13.8732 8.17605 12.8173 9.74998 11.1978 10.4181C9.57826 11.0862 7.71413 10.7169 6.47461 9.4824C5.23509 8.2479 4.86429 6.39132 5.53511 4.77838ZM6.07117 6.43004C6.07117 8.33754 7.62379 9.88387 9.53905 9.88387C10.4588 9.88387 11.3409 9.51999 11.9912 8.87227C12.6416 8.22455 13.0069 7.34605 13.0069 6.43004C13.0069 4.52254 11.4543 2.97621 9.53905 2.97621C7.62379 2.97621 6.07117 4.52254 6.07117 6.43004Z" fill="white"/>
<path d="M11.1978 10.4181L11.1406 10.2794L11.1978 10.4181ZM6.47461 9.4824L6.58046 9.37611L6.47461 9.4824ZM11.9912 8.87227L11.8854 8.76599L11.9912 8.87227ZM9.53922 1.96377C7.72596 1.96377 6.09081 3.05163 5.39661 4.72078L5.67361 4.83598C6.32106 3.27924 7.84659 2.26377 9.53922 2.26377V1.96377ZM14.0232 6.43021C14.0232 3.96289 12.0151 1.96377 9.53922 1.96377V2.26377C11.8506 2.26377 13.7232 4.12972 13.7232 6.43021H14.0232ZM11.255 10.5567C12.9304 9.86558 14.0232 8.23708 14.0232 6.43021H13.7232C13.7232 8.11502 12.7042 9.63438 11.1406 10.2794L11.255 10.5567ZM6.36876 9.58868C7.65121 10.8659 9.57966 11.2479 11.255 10.5567L11.1406 10.2794C9.57686 10.9245 7.77704 10.5678 6.58046 9.37611L6.36876 9.58868ZM5.39661 4.72078C4.70237 6.39002 5.0862 8.31132 6.36876 9.58868L6.58046 9.37611C5.38398 8.18449 5.0262 6.39263 5.67361 4.83598L5.39661 4.72078ZM9.53905 9.73387C7.70606 9.73387 6.22117 8.25412 6.22117 6.43004H5.92117C5.92117 8.42096 7.54152 10.0339 9.53905 10.0339V9.73387ZM11.8854 8.76599C11.2632 9.38564 10.4192 9.73387 9.53905 9.73387V10.0339C10.4984 10.0339 11.4185 9.65433 12.0971 8.97855L11.8854 8.76599ZM12.8569 6.43004C12.8569 7.30607 12.5075 8.14635 11.8854 8.76599L12.0971 8.97855C12.7756 8.30275 13.1569 7.38603 13.1569 6.43004H12.8569ZM9.53905 3.12621C11.372 3.12621 12.8569 4.60596 12.8569 6.43004H13.1569C13.1569 4.43913 11.5366 2.82621 9.53905 2.82621V3.12621ZM6.22117 6.43004C6.22117 4.60596 7.70606 3.12621 9.53905 3.12621V2.82621C7.54152 2.82621 5.92117 4.43913 5.92117 6.43004H6.22117Z" fill="white"/>
<path d="M10.8399 7.29514C10.8369 7.84229 10.4902 8.32899 9.97264 8.51248V9.02149H9.10538V8.51248C8.58825 8.32862 8.24203 7.842 8.23926 7.29514H9.10651C9.10651 7.53334 9.3004 7.72644 9.53957 7.72644C9.77875 7.72644 9.97264 7.53334 9.97264 7.29514C9.97264 7.05693 9.77875 6.86383 9.53957 6.86383C8.91029 6.85879 8.37494 6.40566 8.26846 5.78795C8.16199 5.17023 8.51494 4.56522 9.10651 4.35144V3.84131H9.97377V4.35032C10.4913 4.5338 10.8381 5.02051 10.841 5.56766H9.97377C9.97377 5.32946 9.77988 5.13635 9.54071 5.13635C9.30153 5.13635 9.10764 5.32946 9.10764 5.56766C9.10764 5.80586 9.30153 5.99897 9.54071 5.99897C10.2581 6.00144 10.8387 6.58067 10.8399 7.29514Z" fill="white" stroke="white" stroke-width="0.3"/>
</svg>
