<svg width="18" height="30" viewBox="0 0 18 30" fill="none" xmlns="http://www.w3.org/2000/svg">
<path fill-rule="evenodd" clip-rule="evenodd" d="M17.0348 30H14.3165V26.475C14.3165 26.3727 14.2758 26.2745 14.2035 26.2022C14.1311 26.1298 14.033 26.0892 13.9306 26.0892C13.8283 26.0892 13.7302 26.1298 13.6578 26.2022C13.5855 26.2745 13.5448 26.3727 13.5448 26.475V29.9825H4.09213V26.475C4.07345 26.3889 4.02585 26.3117 3.95725 26.2564C3.88865 26.2011 3.80319 26.1709 3.71507 26.1709C3.62695 26.1709 3.54149 26.2011 3.47289 26.2564C3.40429 26.3117 3.3567 26.3889 3.33802 26.475V29.9825H0.602173C0.505876 29.9782 0.41467 29.938 0.34651 29.8698C0.27835 29.8017 0.238173 29.7105 0.233887 29.6142V24.2828C0.233887 21.1261 2.82943 18.5831 6.02125 18.5831H6.28431L8.47649 24.0899C8.50727 24.157 8.55668 24.214 8.61886 24.2539C8.68103 24.2938 8.75336 24.315 8.82724 24.315C8.90112 24.315 8.97344 24.2938 9.03562 24.2539C9.09779 24.214 9.14721 24.157 9.17799 24.0899L11.3877 18.5831H11.6157C14.825 18.5831 17.4206 21.1436 17.4206 24.2828V29.6142C17.4206 29.8246 17.2452 30 17.0348 30ZM7.09103 18.5831H10.581L8.82724 22.9149L7.09103 18.5831ZM8.82724 18.1447C7.93283 18.1447 7.07349 17.8115 6.37199 17.2152C5.62037 16.5172 5.1157 15.5941 4.93392 14.5846C4.45599 14.087 4.17547 13.4324 4.14474 12.7432C4.2776 12.8198 4.42457 12.8689 4.57684 12.8874C4.72912 12.906 4.88357 12.8936 5.03095 12.851C5.17832 12.8084 5.31559 12.7366 5.43452 12.6397C5.55345 12.5428 5.65161 12.4229 5.72311 12.2872C5.98388 11.8052 6.29548 11.3525 6.65259 10.9368C7.02235 11.2401 7.4627 11.4452 7.93283 11.5331C8.223 11.5764 8.51643 11.594 8.8097 11.5857L9.56381 11.5506H10.0198L10.6511 11.498H11.3877C11.5631 11.5506 11.8437 12.0943 11.9138 12.2521C12.0892 12.6379 12.5101 12.901 12.9485 12.901C13.0888 12.901 13.0538 12.901 13.1941 12.8659C13.3048 12.8409 13.4112 12.7996 13.5097 12.7432C13.4707 13.4202 13.1908 14.0609 12.7206 14.5495C12.5388 15.559 12.0341 16.4822 11.2825 17.1801C10.6077 17.786 9.73404 18.123 8.82724 18.1272V18.1447Z" fill="white"/>
<path fill-rule="evenodd" clip-rule="evenodd" d="M12.9485 12.1644C12.8743 12.1642 12.8018 12.1425 12.7396 12.1021C12.6774 12.0617 12.6281 12.0041 12.5978 11.9364C12.0541 10.7965 11.6683 10.7614 11.1071 10.7614H10.6161C10.2659 10.7893 9.915 10.8068 9.56381 10.814C9.07231 10.813 8.58098 10.7955 8.09066 10.7614C7.80434 10.7083 7.53202 10.5968 7.29065 10.4339C7.04928 10.2709 6.84403 10.0601 6.68767 9.8144C6.02566 10.4334 5.46887 11.156 5.03915 11.954C5.00342 12.0149 4.95164 12.0649 4.88946 12.0985C4.82728 12.132 4.75707 12.1478 4.68651 12.1442C4.61595 12.1406 4.54773 12.1177 4.48931 12.0779C4.43088 12.0382 4.38449 11.9832 4.35519 11.9189C4.28504 11.7435 3.60107 10.1301 4.1272 9.23566C4.17153 9.14978 4.23093 9.07255 4.30257 9.00768L4.35519 8.9726C4.84623 8.53417 5.28467 7.74498 5.58281 7.21886C5.88094 6.72781 5.98617 6.55243 6.19662 6.49982L6.2843 6.44721C7.15578 6.18718 8.05829 6.04561 8.96753 6.02631C10.0899 6.02631 11.0194 6.30691 11.7209 6.83303C12.6329 7.53453 13.1765 8.63939 13.2993 10.1476C13.3344 10.4984 13.3344 10.9368 13.3344 11.3226V11.7786C13.3298 11.8778 13.2872 11.9715 13.2153 12.0401C13.1435 12.1087 13.0479 12.1645 12.9485 12.1644ZM12.6504 3.83413L12.5101 3.79905C12.4634 3.77668 12.4218 3.74516 12.3875 3.70635C12.3533 3.66754 12.3273 3.62225 12.3109 3.57317C12.2945 3.52408 12.2882 3.47221 12.2923 3.42063C12.2964 3.36905 12.3108 3.31882 12.3347 3.27293C12.4826 3.00404 12.6406 2.7408 12.8082 2.48375C12.6373 2.53805 12.4677 2.59652 12.2996 2.65912C12.2283 2.68301 12.1516 2.68554 12.0789 2.66639C12.0062 2.64725 11.9406 2.60728 11.8903 2.55138C11.84 2.49548 11.8071 2.42611 11.7957 2.35177C11.7843 2.27744 11.7949 2.2014 11.8261 2.133L12.8784 0.256489C12.8971 0.203762 12.9272 0.155748 12.9663 0.115777C13.0055 0.0758054 13.0529 0.0448344 13.1052 0.025012C13.1576 0.00518957 13.2136 -0.00300959 13.2694 0.000983239C13.3252 0.00497607 13.3795 0.0210653 13.4285 0.0481348C13.4775 0.0752044 13.52 0.112606 13.5531 0.157746C13.5862 0.202885 13.609 0.254681 13.6201 0.309542C13.6312 0.364402 13.6302 0.421013 13.6172 0.475447C13.6042 0.529881 13.5795 0.580836 13.5448 0.624776L12.9836 1.60687L13.5623 1.4315C13.6335 1.41412 13.7082 1.41736 13.7775 1.44085C13.8469 1.46433 13.9082 1.50708 13.9542 1.56411C14.0002 1.62113 14.029 1.69007 14.0372 1.76286C14.0455 1.83565 14.0328 1.90929 14.0008 1.97516C14.0008 1.9927 13.2291 3.20278 13.0187 3.62368C12.9858 3.68811 12.9355 3.742 12.8735 3.77921C12.8115 3.81642 12.7227 3.83545 12.6504 3.83413ZM16.2105 7.35916H14.0534C13.9673 7.34048 13.8901 7.29288 13.8348 7.22428C13.7795 7.15569 13.7494 7.07022 13.7494 6.9821C13.7494 6.89398 13.7795 6.80852 13.8348 6.73992C13.8901 6.67132 13.9673 6.62373 14.0534 6.60505H15.1407L14.5269 6.13153C14.4724 6.08075 14.4338 6.0153 14.4157 5.94306C14.3977 5.87083 14.4009 5.7949 14.425 5.72445C14.4491 5.65399 14.493 5.59202 14.5516 5.546C14.6101 5.49998 14.6807 5.47189 14.7549 5.46511H16.9471C17.0034 5.4529 17.0617 5.45345 17.1178 5.46672C17.1738 5.48 17.2262 5.50566 17.271 5.54182C17.3159 5.57798 17.3521 5.62373 17.3769 5.6757C17.4018 5.72768 17.4147 5.78456 17.4147 5.84217C17.4147 5.89978 17.4018 5.95666 17.3769 6.00863C17.3521 6.0606 17.3159 6.10635 17.271 6.14251C17.2262 6.17868 17.1738 6.20434 17.1178 6.21761C17.0617 6.23088 17.0034 6.23143 16.9471 6.21922H15.8598L16.456 6.69273C16.5112 6.7446 16.5499 6.81156 16.5672 6.88525C16.5846 6.95895 16.5799 7.03613 16.5537 7.10717C16.5276 7.17822 16.4811 7.23999 16.42 7.2848C16.359 7.32961 16.2861 7.35547 16.2105 7.35916ZM4.58317 3.83413C4.51688 3.82921 4.45299 3.80726 4.39768 3.77039C4.34237 3.73351 4.29753 3.68298 4.2675 3.62368C3.95363 3.06267 3.62022 2.51283 3.26786 1.97516C3.23054 1.90879 3.21368 1.83287 3.21942 1.75694C3.22515 1.68102 3.25323 1.60849 3.30011 1.54848C3.34698 1.48848 3.41056 1.44369 3.48284 1.41975C3.55513 1.39582 3.63287 1.3938 3.7063 1.41396L4.30257 1.60687L3.74137 0.624776C3.71071 0.538597 3.71166 0.444327 3.74406 0.358786C3.77646 0.273244 3.8382 0.201996 3.91826 0.157752C3.99832 0.113509 4.09149 0.0991485 4.18116 0.117234C4.27082 0.135319 4.35115 0.184672 4.4078 0.256489L5.46004 2.133C5.49396 2.20308 5.50589 2.28178 5.49424 2.35877C5.4826 2.43575 5.44794 2.50741 5.39482 2.56433C5.34169 2.62125 5.27259 2.66077 5.19659 2.67769C5.12059 2.6946 5.04125 2.68813 4.969 2.65912C4.80673 2.59676 4.643 2.53829 4.47795 2.48375C4.64004 2.74682 4.79214 3.01592 4.93392 3.29047C4.9565 3.34827 4.96481 3.41067 4.95813 3.47237C4.95146 3.53407 4.93 3.59324 4.89557 3.64488C4.86115 3.69652 4.81478 3.73909 4.76039 3.76898C4.70601 3.79887 4.64522 3.8152 4.58317 3.81659V3.83413ZM3.23279 7.35916H1.04061C0.966452 7.35238 0.895841 7.32429 0.837296 7.27827C0.778751 7.23225 0.734774 7.17028 0.710671 7.09982C0.686567 7.02936 0.683368 6.95344 0.701458 6.8812C0.719548 6.80897 0.758155 6.74351 0.812621 6.69273L1.40889 6.20168H0.304035C0.217918 6.183 0.14079 6.13541 0.0854774 6.06681C0.0301646 5.99821 0 5.91275 0 5.82463C0 5.73651 0.0301646 5.65104 0.0854774 5.58245C0.14079 5.51385 0.217918 5.46625 0.304035 5.44757H2.49622C2.57184 5.45126 2.64471 5.47712 2.70574 5.52193C2.76678 5.56674 2.81328 5.62851 2.83945 5.69956C2.86563 5.77061 2.87032 5.84778 2.85294 5.92148C2.83557 5.99517 2.7969 6.06213 2.74174 6.114L2.12793 6.60505H3.21525C3.27155 6.59283 3.32987 6.59338 3.38594 6.60666C3.442 6.61993 3.49437 6.64559 3.53922 6.68175C3.58407 6.71792 3.62025 6.76366 3.64511 6.81564C3.66996 6.86761 3.68286 6.92449 3.68286 6.9821C3.68286 7.03971 3.66996 7.09659 3.64511 7.14857C3.62025 7.20054 3.58407 7.24628 3.53922 7.28245C3.49437 7.31861 3.442 7.34427 3.38594 7.35754C3.32987 7.37082 3.28909 7.37137 3.23279 7.35916Z" fill="white"/>
</svg>
