<svg width="23" height="40" viewBox="0 0 23 40" fill="none" xmlns="http://www.w3.org/2000/svg">
<path fill-rule="evenodd" clip-rule="evenodd" d="M22.2399 39.9997H18.6911V35.3976C18.6911 35.264 18.638 35.1359 18.5435 35.0414C18.4491 34.9469 18.321 34.8939 18.1874 34.8939C18.0538 34.8939 17.9257 34.9469 17.8312 35.0414C17.7367 35.1359 17.6837 35.264 17.6837 35.3976V39.9768H5.34276V35.3976C5.31838 35.2852 5.25624 35.1845 5.16668 35.1122C5.07712 35.04 4.96555 35.0007 4.8505 35.0007C4.73546 35.0007 4.62388 35.04 4.53432 35.1122C4.44477 35.1845 4.38263 35.2852 4.35824 35.3976V39.9768H0.786478C0.660757 39.9712 0.541685 39.9187 0.452699 39.8297C0.363713 39.7407 0.31126 39.6217 0.305664 39.4959V32.5356C0.305664 28.4143 3.69426 25.0944 7.86131 25.0944H8.20475L11.0667 32.2837C11.1069 32.3714 11.1714 32.4457 11.2526 32.4978C11.3338 32.5499 11.4282 32.5776 11.5247 32.5776C11.6211 32.5776 11.7155 32.5499 11.7967 32.4978C11.8779 32.4457 11.9424 32.3714 11.9826 32.2837L14.8675 25.0944H15.1651C19.3551 25.0944 22.7436 28.4372 22.7436 32.5356V39.4959C22.7436 39.7707 22.5147 39.9997 22.2399 39.9997ZM9.25796 25.0944H13.8142L11.5247 30.7497L9.25796 25.0944ZM11.5247 24.522C10.357 24.522 9.23507 24.087 8.31923 23.3085C7.33795 22.3973 6.67909 21.1921 6.44177 19.8742C5.8178 19.2245 5.45158 18.37 5.41145 17.4701C5.5849 17.5702 5.77678 17.6343 5.97558 17.6585C6.17439 17.6827 6.37603 17.6665 6.56843 17.6109C6.76084 17.5553 6.94004 17.4615 7.09532 17.335C7.25059 17.2085 7.37874 17.052 7.47208 16.8748C7.81253 16.2455 8.21934 15.6545 8.68556 15.1118C9.16829 15.5078 9.74319 15.7756 10.357 15.8903C10.7358 15.9468 11.1189 15.9698 11.5018 15.959L12.4863 15.9132H13.0816L13.9058 15.8445H14.8675C15.0964 15.9132 15.4628 16.6229 15.5543 16.829C15.7833 17.3327 16.3328 17.6762 16.9052 17.6762C17.0884 17.6762 17.0426 17.6762 17.2257 17.6304C17.3703 17.5978 17.5092 17.5437 17.6379 17.4701C17.5869 18.354 17.2214 19.1904 16.6075 19.8284C16.3702 21.1463 15.7114 22.3515 14.7301 23.2628C13.8492 24.0537 12.7085 24.4937 11.5247 24.4991V24.522Z" fill="#D02128"/>
<path fill-rule="evenodd" clip-rule="evenodd" d="M16.9049 16.7147C16.808 16.7143 16.7133 16.6861 16.6321 16.6333C16.5509 16.5805 16.4866 16.5054 16.447 16.417C15.7372 14.9288 15.2335 14.883 14.5008 14.883H13.8597C13.4026 14.9193 12.9445 14.9422 12.486 14.9517C11.8443 14.9503 11.2028 14.9274 10.5627 14.883C10.1889 14.8136 9.83338 14.6681 9.51826 14.4553C9.20314 14.2426 8.93517 13.9674 8.73104 13.6466C7.86676 14.4547 7.13984 15.3982 6.57882 16.4399C6.53219 16.5195 6.46459 16.5848 6.3834 16.6286C6.30222 16.6723 6.21057 16.693 6.11844 16.6883C6.02632 16.6836 5.93726 16.6536 5.86098 16.6018C5.78471 16.5499 5.72414 16.4781 5.68588 16.3941C5.5943 16.1652 4.70136 14.0587 5.38824 12.8911C5.44611 12.7789 5.52366 12.6781 5.6172 12.5934L5.68588 12.5476C6.32697 11.9752 6.89937 10.9449 7.2886 10.258C7.67783 9.61694 7.8152 9.38798 8.08995 9.31929L8.20443 9.25061C9.34219 8.91112 10.5205 8.7263 11.7075 8.70111C13.1728 8.70111 14.3863 9.06744 15.3022 9.75432C16.4927 10.6702 17.2025 12.1126 17.3628 14.0816C17.4086 14.5396 17.4086 15.112 17.4086 15.6157V16.211C17.4027 16.3405 17.347 16.4629 17.2532 16.5524C17.1594 16.642 17.0346 16.7148 16.9049 16.7147ZM16.5156 5.83912L16.3325 5.79333C16.2716 5.76412 16.2172 5.72296 16.1725 5.6723C16.1278 5.62163 16.0938 5.5625 16.0724 5.49842C16.051 5.43434 16.0428 5.36661 16.0481 5.29927C16.0535 5.23193 16.0723 5.16636 16.1035 5.10645C16.2966 4.7554 16.5028 4.41172 16.7217 4.07613C16.4985 4.14703 16.2772 4.22337 16.0577 4.30509C15.9646 4.33628 15.8645 4.33958 15.7695 4.31459C15.6746 4.2896 15.589 4.23741 15.5233 4.16443C15.4576 4.09146 15.4147 4.00088 15.3998 3.90384C15.385 3.8068 15.3988 3.70752 15.4395 3.61822L16.8133 1.16835C16.8378 1.09952 16.877 1.03683 16.9281 0.984648C16.9792 0.932463 17.0411 0.892029 17.1094 0.86615C17.1778 0.840271 17.2509 0.829567 17.3238 0.83478C17.3967 0.839993 17.4675 0.860998 17.5315 0.896338C17.5954 0.931679 17.6509 0.980508 17.6941 1.03944C17.7373 1.09837 17.7672 1.16599 17.7816 1.23762C17.7961 1.30924 17.7948 1.38315 17.7778 1.45421C17.7608 1.52528 17.7286 1.5918 17.6833 1.64917L16.9507 2.93134L17.7062 2.70238C17.7991 2.67969 17.8966 2.68393 17.9872 2.71458C18.0778 2.74524 18.1578 2.80106 18.2178 2.87551C18.2778 2.94996 18.3155 3.03996 18.3262 3.13499C18.337 3.23002 18.3205 3.32616 18.2786 3.41215C18.2786 3.43505 17.2712 5.01486 16.9965 5.56437C16.9536 5.64848 16.8879 5.71884 16.8069 5.76742C16.7259 5.816 16.6101 5.84084 16.5156 5.83912ZM21.1635 10.4412H18.3473C18.2349 10.4168 18.1342 10.3547 18.062 10.2651C17.9898 10.1756 17.9504 10.064 17.9504 9.94893C17.9504 9.83389 17.9898 9.72231 18.062 9.63275C18.1342 9.5432 18.2349 9.48106 18.3473 9.45667H19.7669L18.9655 8.83848C18.8944 8.77218 18.844 8.68673 18.8204 8.59242C18.7968 8.49812 18.8009 8.39899 18.8324 8.30701C18.8639 8.21503 18.9213 8.13411 18.9977 8.07404C19.0742 8.01396 19.1663 7.97728 19.2632 7.96844H22.1251C22.1986 7.95249 22.2748 7.95321 22.348 7.97054C22.4212 7.98787 22.4895 8.02137 22.5481 8.06858C22.6066 8.11579 22.6539 8.17552 22.6863 8.24337C22.7188 8.31122 22.7356 8.38548 22.7356 8.4607C22.7356 8.53591 22.7188 8.61017 22.6863 8.67802C22.6539 8.74588 22.6066 8.8056 22.5481 8.85281C22.4895 8.90003 22.4212 8.93353 22.348 8.95086C22.2748 8.96818 22.1986 8.9689 22.1251 8.95296H20.7056L21.4841 9.57115C21.5561 9.63887 21.6066 9.72628 21.6292 9.82249C21.6519 9.9187 21.6458 10.0195 21.6116 10.1122C21.5774 10.205 21.5167 10.2856 21.4371 10.3441C21.3574 10.4026 21.2622 10.4364 21.1635 10.4412ZM5.98353 5.83912C5.89699 5.8327 5.81357 5.80404 5.74136 5.7559C5.66916 5.70776 5.61061 5.64179 5.5714 5.56437C5.16164 4.83195 4.72635 4.1141 4.26634 3.41215C4.21761 3.32551 4.1956 3.22639 4.20309 3.12726C4.21058 3.02814 4.24723 2.93345 4.30843 2.85511C4.36963 2.77678 4.45264 2.7183 4.54701 2.68705C4.64137 2.65579 4.74288 2.65316 4.83874 2.67948L5.6172 2.93134L4.88453 1.64917C4.8445 1.53666 4.84574 1.41358 4.88804 1.30191C4.93034 1.19023 5.01093 1.09721 5.11546 1.03945C5.21998 0.981687 5.34162 0.962939 5.45868 0.98655C5.57575 1.01016 5.68061 1.07459 5.75457 1.16835L7.12833 3.61822C7.17261 3.70971 7.18817 3.81246 7.17298 3.91297C7.15778 4.01348 7.11252 4.10703 7.04317 4.18135C6.97381 4.25566 6.88359 4.30725 6.78437 4.32933C6.68515 4.35142 6.58157 4.34297 6.48724 4.30509C6.2754 4.22368 6.06164 4.14734 5.84616 4.07613C6.05777 4.41959 6.25634 4.77091 6.44145 5.12934C6.47093 5.20481 6.48177 5.28627 6.47306 5.36682C6.46434 5.44737 6.43632 5.52463 6.39138 5.59205C6.34644 5.65946 6.2859 5.71504 6.2149 5.75406C6.1439 5.79309 6.06453 5.81441 5.98353 5.81622V5.83912ZM4.22055 10.4412H1.35856C1.26174 10.4323 1.16956 10.3957 1.09313 10.3356C1.01669 10.2755 0.95928 10.1946 0.927812 10.1026C0.896344 10.0106 0.892166 9.91151 0.915784 9.81721C0.939402 9.7229 0.989805 9.63744 1.06091 9.57115L1.83937 8.93006H0.39693C0.284501 8.90568 0.183808 8.84354 0.111594 8.75398C0.0393813 8.66442 0 8.55285 0 8.4378C0 8.32276 0.0393813 8.21118 0.111594 8.12162C0.183808 8.03207 0.284501 7.96993 0.39693 7.94554H3.25892C3.35765 7.95036 3.45278 7.98412 3.53246 8.04261C3.61215 8.10111 3.67285 8.18176 3.70703 8.27452C3.7412 8.36727 3.74733 8.46803 3.72464 8.56424C3.70196 8.66045 3.65147 8.74786 3.57946 8.81558L2.7781 9.45667H4.19765C4.27115 9.44073 4.3473 9.44144 4.42049 9.45877C4.49368 9.4761 4.56206 9.5096 4.62061 9.55682C4.67916 9.60403 4.72639 9.66375 4.75884 9.73161C4.7913 9.79946 4.80814 9.87372 4.80814 9.94893C4.80814 10.0241 4.7913 10.0984 4.75884 10.1663C4.72639 10.2341 4.67916 10.2938 4.62061 10.341C4.56206 10.3883 4.49368 10.4218 4.42049 10.4391C4.3473 10.4564 4.29405 10.4571 4.22055 10.4412Z" fill="#D02128"/>
</svg>
