<svg width="32" height="37" viewBox="0 0 32 37" fill="none" xmlns="http://www.w3.org/2000/svg">
<path fill-rule="evenodd" clip-rule="evenodd" d="M18.268 15.824C18.268 22.107 15.024 25.567 9.134 25.567H9.135C3.244 25.567 0 22.107 0 15.824C0 9.941 8.327 0.588004 8.681 0.194004C8.79942 0.0706654 8.96301 0.000946045 9.134 0.000946045C9.30499 0.000946045 9.46858 0.0706654 9.587 0.194004C9.941 0.588004 18.268 9.941 18.268 15.824ZM17.051 15.824C17.051 11.148 10.877 3.575 9.134 1.529C7.391 3.575 1.218 11.147 1.217 15.824C1.217 19.714 2.591 24.35 9.134 24.35C15.677 24.35 17.051 19.713 17.051 15.824Z" fill="#D02128"/>
<path fill-rule="evenodd" clip-rule="evenodd" d="M31.667 20.407C31.667 24.461 29.669 26.785 26.186 26.785C22.702 26.785 20.705 24.461 20.706 20.407C20.706 16.6 25.536 11.367 25.741 11.146C25.8587 11.0271 26.0191 10.9602 26.1865 10.9602C26.3538 10.9602 26.5142 11.0271 26.632 11.146C26.837 11.368 31.667 16.6 31.667 20.407ZM30.449 20.411C30.449 17.703 27.36 13.852 26.186 12.485V12.476C25.011 13.847 21.923 17.698 21.923 20.411C21.923 23.835 23.357 25.571 26.186 25.571C29.015 25.571 30.449 23.835 30.449 20.411Z" fill="#D02128"/>
<path fill-rule="evenodd" clip-rule="evenodd" d="M13.397 31.655C13.397 28.901 17.048 24.731 17.203 24.555H17.204C17.3228 24.4297 17.4878 24.3587 17.6605 24.3587C17.8331 24.3587 17.9982 24.4297 18.117 24.555C18.272 24.729 21.923 28.899 21.923 31.655C21.923 34.751 20.369 36.527 17.66 36.527C14.951 36.527 13.397 34.755 13.397 31.655ZM14.615 31.657C14.615 34.081 15.64 35.311 17.66 35.311C19.68 35.311 20.705 34.081 20.705 31.657C20.705 30.003 18.8 27.303 17.66 25.903C16.52 27.307 14.615 30.002 14.615 31.657Z" fill="#D02128"/>
<path d="M7.85599 23.128C7.87631 23.129 7.89667 23.129 7.91699 23.128C8.24665 23.1354 8.52229 22.879 8.53881 22.5497C8.55533 22.2203 8.30674 21.9377 7.97799 21.912C6.70594 21.8483 5.52181 21.2438 4.72399 20.251C3.10399 18.139 3.64099 14.735 3.64599 14.701C3.68371 14.3784 3.46161 14.083 3.14123 14.0296C2.82085 13.9762 2.51494 14.1836 2.44599 14.501C2.41899 14.662 1.81499 18.451 3.75499 20.986C4.75227 22.2531 6.24515 23.0316 7.85499 23.124L7.85599 23.128Z" fill="#D02128"/>
<path d="M25.576 24.349C26.6995 24.3328 27.7706 23.8713 28.554 23.066C29.2323 22.1938 29.4777 21.0607 29.221 19.986C29.1521 19.6686 28.8462 19.4612 28.5258 19.5146C28.2054 19.568 27.9833 19.8634 28.021 20.186C28.2073 20.9052 28.064 21.67 27.63 22.273C27.0792 22.8089 26.3454 23.1156 25.577 23.131C25.2407 23.131 24.968 23.4037 24.968 23.74C24.968 24.0763 25.2407 24.349 25.577 24.349H25.576Z" fill="#D02128"/>
<path d="M17.323 32.938C17.1333 32.8609 16.9869 32.7047 16.9223 32.5104C16.8576 32.3162 16.8813 32.1033 16.987 31.928C17.0842 31.7333 17.0701 31.5015 16.9501 31.32C16.83 31.1385 16.6223 31.0348 16.4051 31.048C16.1879 31.0612 15.9942 31.1893 15.897 31.384C15.6466 31.8491 15.5993 32.3969 15.7663 32.898C15.9333 33.3991 16.2997 33.8091 16.779 34.031C17.08 34.1812 17.4458 34.059 17.596 33.758C17.7462 33.457 17.624 33.0912 17.323 32.941V32.938Z" fill="#D02128"/>
</svg>
