<svg width="24" height="27" viewBox="0 0 24 27" fill="none" xmlns="http://www.w3.org/2000/svg">
<path fill-rule="evenodd" clip-rule="evenodd" d="M23.13 5.53302C23.0549 5.60785 22.9531 5.64989 22.8469 5.64989C22.636 5.63515 22.473 5.45955 22.4746 5.24887V4.34509H18.3711V7.36568H22.4746V6.5028C22.4746 6.28105 22.6549 6.10128 22.8774 6.10128C23.0999 6.10128 23.2803 6.28105 23.2803 6.5028V7.48938C23.2803 7.86732 22.9729 8.1737 22.5937 8.1737H21.793V8.92884C21.793 9.14922 21.6138 9.32786 21.3927 9.32786H20.8282V17.0699C20.8221 22.196 16.6544 26.35 11.5114 26.3561H11.4113C11.2132 26.3561 11.017 26.3471 10.8228 26.3311C5.95993 25.9666 2.19924 21.9305 2.19361 17.0699V12.6178H1.09269C0.761042 12.6178 0.492188 12.3498 0.492188 12.0193V9.56628C0.492188 9.34591 0.671424 9.16726 0.892522 9.16726H1.03464V8.00711C1.03464 7.78673 1.21388 7.60808 1.43498 7.60808H3.7369C3.958 7.60808 4.13724 7.78673 4.13724 8.00711V9.17025H4.27936C4.50045 9.17025 4.67969 9.3489 4.67969 9.56927V12.0203C4.67969 12.3508 4.41084 12.6188 4.07919 12.6188H2.97827V17.0689C2.97688 19.3704 3.91652 21.5731 5.58044 23.1689C3.71368 20.2377 4.33947 16.3784 7.03759 14.1825C9.7357 11.9867 13.6547 12.1473 16.1628 14.5565C18.671 16.9657 18.9768 20.8632 16.8749 23.6318C18.8525 22.0229 19.9998 19.6132 19.9995 17.0689V9.32587H19.435C19.2139 9.32587 19.0347 9.14722 19.0347 8.92685V8.1737H18.234C17.8548 8.1737 17.5475 7.86732 17.5475 7.48938V3.94008C17.5475 3.71971 17.7267 3.54106 17.9478 3.54106V1.31552C17.9478 1.09515 18.127 0.916504 18.3481 0.916504H22.4466C22.6677 0.916504 22.8469 1.09515 22.8469 1.31552V3.54406C23.068 3.54406 23.2472 3.7227 23.2472 3.94308V5.25087C23.2472 5.3567 23.205 5.45819 23.13 5.53302ZM3.31955 8.40812H1.8183V9.16726H3.31955V8.40812ZM1.27384 11.8148V9.97029H3.86401V11.8148H1.27384ZM10.8539 25.5341C11.0447 25.5487 11.2368 25.556 11.4303 25.556C14.7303 25.5254 17.4026 22.8755 17.4502 19.5866C17.4979 16.2977 14.9034 13.572 11.6057 13.4464C8.30805 13.3209 5.51254 15.8414 5.30834 19.1244C5.10414 22.4073 7.56588 25.2527 10.8539 25.5341ZM19.8294 8.1737H20.9593V8.52484H19.8294V8.1737ZM18.7515 3.54206H22.0372V1.71953H18.7515V3.54206Z" fill="white"/>
<path d="M19.6416 3.24003C19.8627 3.24003 20.0419 3.06138 20.0419 2.84101V2.49087C20.0419 2.26912 19.8616 2.08936 19.6391 2.08936C19.4166 2.08936 19.2363 2.26912 19.2363 2.49087V2.83902C19.2357 2.94606 19.2783 3.04883 19.3546 3.12424C19.4308 3.19965 19.5342 3.24137 19.6416 3.24003Z" fill="white"/>
<path d="M21.1992 3.24003C21.4203 3.24003 21.5995 3.06138 21.5995 2.84101V2.49087C21.5995 2.26912 21.4192 2.08936 21.1967 2.08936C20.9742 2.08936 20.7939 2.26912 20.7939 2.49087V2.83902C20.7933 2.94606 20.836 3.04883 20.9122 3.12424C20.9884 3.19965 21.0918 3.24137 21.1992 3.24003Z" fill="white"/>
</svg>
