<svg width="32" height="36" viewBox="0 0 32 36" fill="none" xmlns="http://www.w3.org/2000/svg">
<path fill-rule="evenodd" clip-rule="evenodd" d="M31.49 6.43598C31.385 6.541 31.2425 6.6 31.094 6.6C30.9451 6.60027 30.8023 6.54125 30.697 6.43598C30.5917 6.33072 30.5327 6.18787 30.533 6.039V4.779H24.839V9H30.533V7.793C30.533 7.48372 30.7837 7.233 31.093 7.233C31.4023 7.233 31.653 7.48372 31.653 7.793V9.161C31.6524 9.68726 31.2263 10.1139 30.7 10.115H29.591V11.165C29.591 11.3135 29.532 11.456 29.427 11.561C29.322 11.666 29.1795 11.725 29.031 11.725H28.246V22.519C28.2377 29.6643 22.4473 35.4547 15.302 35.463H15.164C14.888 35.463 14.616 35.451 14.346 35.428C7.5878 34.9219 2.36026 29.2951 2.352 22.518V16.312H0.826995C0.367723 16.3114 -0.00445387 15.9393 -0.00500488 15.48V12.06C-0.00500488 11.7507 0.245716 11.5 0.554995 11.5H0.754995V9.884C0.754995 9.57472 1.00572 9.324 1.315 9.324H4.515C4.66352 9.324 4.80595 9.383 4.91097 9.48802C5.016 9.59304 5.075 9.73548 5.075 9.884V11.501H5.275C5.58427 11.501 5.835 11.7517 5.835 12.061V15.48C5.83444 15.9393 5.46227 16.3114 5.003 16.312H3.478V22.522C3.47703 25.7292 4.78271 28.7984 7.094 31.022C4.50165 26.9358 5.37188 21.5569 9.12043 18.4965C12.869 15.4362 18.3133 15.6599 21.7981 19.0175C25.2829 22.3751 25.7089 27.8073 22.79 31.667C25.5375 29.4244 27.1314 26.0655 27.131 22.519V11.726H26.346C26.0367 11.726 25.786 11.4753 25.786 11.166V10.116H24.677C24.1507 10.1149 23.7245 9.68826 23.724 9.162V4.22C23.724 3.91072 23.9747 3.66 24.284 3.66V0.56C24.284 0.250721 24.5347 0 24.844 0H30.534C30.8433 0 31.094 0.250721 31.094 0.56V3.659C31.4033 3.659 31.654 3.90972 31.654 4.219V6.04C31.654 6.18852 31.595 6.33096 31.49 6.43598ZM3.957 10.444H1.877V11.5H3.957V10.444ZM1.12 15.193V12.621H4.71399V15.192L1.12 15.193ZM14.432 34.312C14.6987 34.3327 14.9653 34.343 15.232 34.343C19.8168 34.3031 23.5318 30.6115 23.6006 26.0271C23.6694 21.4427 20.067 17.6412 15.4855 17.4637C10.904 17.2861 7.01813 20.7974 6.732 25.3734C6.44588 29.9494 9.86407 33.9174 14.432 34.312ZM26.901 10.116H28.47V10.606H26.901V10.116ZM25.403 3.659H29.968V1.12H25.403V3.659Z" fill="#D02128"/>
<path d="M26.64 3.239C26.9493 3.239 27.2 2.98828 27.2 2.679V2.194C27.2 1.88472 26.9493 1.634 26.64 1.634C26.3307 1.634 26.08 1.88472 26.08 2.194V2.679C26.08 2.98828 26.3307 3.239 26.64 3.239Z" fill="#D02128"/>
<path d="M28.805 3.239C29.1143 3.239 29.365 2.98828 29.365 2.679V2.194C29.365 1.88472 29.1143 1.634 28.805 1.634C28.4957 1.634 28.245 1.88472 28.245 2.194V2.679C28.245 2.98828 28.4957 3.239 28.805 3.239Z" fill="#D02128"/>
</svg>
