<svg width="30" height="30" viewBox="0 0 30 30" fill="none" xmlns="http://www.w3.org/2000/svg">
<path fill-rule="evenodd" clip-rule="evenodd" d="M7.95703 13.9143C7.95703 9.93762 11.1887 6.71387 15.1752 6.71387C19.1602 6.71759 22.3897 9.93916 22.3934 13.9143C22.3934 17.891 19.1617 21.1148 15.1752 21.1148C11.1887 21.1148 7.95703 17.891 7.95703 13.9143ZM15.3252 13.0147H15.0249V13.0203C14.7755 13.0203 14.5734 12.8186 14.5734 12.5699C14.5734 12.3211 14.7755 12.1194 15.0249 12.1194H16.6788C17.1775 12.1194 17.5819 11.7161 17.5819 11.2185C17.5819 10.721 17.1775 10.3176 16.6788 10.3176H16.077V10.0147C16.077 9.51712 15.6727 9.11378 15.1739 9.11378C14.6751 9.11378 14.2708 9.51712 14.2708 10.0147V10.4505C13.2339 10.8127 12.6109 11.8689 12.797 12.949C12.9831 14.0291 13.924 14.8171 15.0227 14.8131H15.3229C15.5723 14.8131 15.7745 15.0148 15.7745 15.2636C15.7745 15.5123 15.5723 15.714 15.3229 15.714H13.6691C13.1703 15.714 12.766 16.1173 12.766 16.6149C12.766 17.1125 13.1703 17.5158 13.6691 17.5158H14.2708V17.8154C14.2708 18.3129 14.6751 18.7163 15.1739 18.7163C15.6727 18.7163 16.077 18.3129 16.077 17.8154V17.3773C17.1139 17.0151 17.737 15.9589 17.5509 14.8788C17.3647 13.7987 16.4238 13.0106 15.3252 13.0147Z" fill="white"/>
<path d="M27.5341 13.0417C27.2946 13.0417 27.0649 13.1366 26.8955 13.3055C26.7261 13.4745 26.631 13.7036 26.631 13.9426C26.6207 19.2221 22.9897 23.8089 17.8436 25.0428V23.9167C17.8426 23.5532 17.6227 23.2261 17.2861 23.087C16.9496 22.9479 16.5622 23.0242 16.3038 23.2804L13.9557 25.6317C13.6033 25.9835 13.6033 26.5536 13.9557 26.9054L16.3106 29.2522C16.569 29.5084 16.9563 29.5847 17.2929 29.4456C17.6295 29.3066 17.8493 28.9794 17.8504 28.616V26.8986C24.0119 25.6274 28.4337 20.2178 28.4418 13.9414C28.4418 13.4439 28.0374 13.0405 27.5386 13.0405L27.5341 13.0417Z" fill="white"/>
<path d="M11.3509 24.7027C8.46151 23.6884 6.10158 21.559 4.80103 18.7925C3.50047 16.0261 3.36828 12.8545 4.43412 9.98987L5.51561 10.6115C5.83193 10.7932 6.22678 10.767 6.51628 10.5453C6.80577 10.3235 6.93299 9.94972 6.83868 9.59798L5.92427 6.19708C5.79484 5.71667 5.29957 5.43184 4.81795 5.56082L1.40641 6.47185C1.05425 6.56695 0.794031 6.86409 0.746864 7.22498C0.699696 7.58588 0.874842 7.93963 1.19079 8.12163L2.85028 9.07658C1.52303 12.4155 1.61627 16.1496 3.10849 19.4184C4.60071 22.6872 7.36319 25.2088 10.7593 26.402C11.069 26.5295 11.4239 26.4755 11.6814 26.2618C11.9389 26.0481 12.0567 25.7098 11.9874 25.3828C11.9181 25.0559 11.6731 24.7941 11.3509 24.7027Z" fill="white"/>
<path d="M28.4775 6.61492L26.5369 7.13294C24.1282 3.16686 19.8253 0.735571 15.1768 0.714018C12.1969 0.699636 9.30338 1.71111 6.98434 3.57776C6.62104 3.89567 6.573 4.44253 6.87534 4.81862C7.17768 5.19472 7.72324 5.26673 8.11324 4.98204C10.1127 3.37294 12.6078 2.50179 15.1768 2.51582C19.0062 2.53386 22.5768 4.44747 24.7058 7.6228L23.6548 7.90321C23.303 7.99812 23.0428 8.29468 22.9952 8.65512C22.9476 9.01556 23.1218 9.36923 23.4369 9.55186L26.4928 11.3131C26.9244 11.5605 27.4752 11.4129 27.7245 10.9832L29.4912 7.93361C29.672 7.61853 29.6455 7.22599 29.424 6.93791C29.2026 6.64983 28.8294 6.5225 28.4775 6.61492Z" fill="white"/>
</svg>
